<svg xmlns="http://www.w3.org/2000/svg" viewBox="0 0 160.75 180.41"><defs><style>.cls-1{fill:#6a6b6d;}.cls-2{fill:#e4ebed;stroke:#231f20;stroke-miterlimit:10;stroke-width:0.5px;}.cls-3{fill:#de1f26;}.cls-4{fill:#282d3f;}.cls-5{fill:#fff;}.cls-6{fill:#811517;}</style></defs><title>Asset 6</title><g id="Layer_2" data-name="Layer 2"><g id="Layer_1-2" data-name="Layer 1"><path class="cls-1" d="M1.74,4.9h3v.78H.56V5.05L3.46.86H.58V.08H4.64V.69Z"/><path class="cls-1" d="M6.83,4.34l.84-2.82h1L7,6.31A1.34,1.34,0,0,1,5.72,7.36a1.6,1.6,0,0,1-.45-.07V6.56l.18,0A1,1,0,0,0,6,6.45.8.8,0,0,0,6.26,6l.14-.35L4.94,1.52h1Z"/><path class="cls-1" d="M10.07,1.52l0,.48a1.47,1.47,0,0,1,1.21-.56c.87,0,1.31.5,1.33,1.49V5.68H11.7V3a.85.85,0,0,0-.17-.58A.7.7,0,0,0,11,2.21a.89.89,0,0,0-.84.51v3H9.19V1.52Z"/><path class="cls-1" d="M13.41,3.56A2.44,2.44,0,0,1,13.86,2a1.46,1.46,0,0,1,1.21-.57,1.35,1.35,0,0,1,1.1.49l.06-.41h.83V7.28h-.94V5.33a1.41,1.41,0,0,1-1.06.43,1.44,1.44,0,0,1-1.2-.59A2.55,2.55,0,0,1,13.41,3.56Zm.94.08a1.76,1.76,0,0,0,.25,1,.81.81,0,0,0,.7.36.89.89,0,0,0,.82-.47V2.64a.88.88,0,0,0-.81-.45.81.81,0,0,0-.7.36A1.81,1.81,0,0,0,14.35,3.64Z"/><path class="cls-1" d="M19.88,3.67h-2V2.92h2Z"/><path class="cls-1" d="M24.32.6,22.08,5.68h-1L23.33.83H20.44V.08h3.88Z"/><path class="cls-1" d="M28.72,3.32a3.05,3.05,0,0,1-.45,1.82,1.84,1.84,0,0,1-2.74,0,2.92,2.92,0,0,1-.48-1.77v-1A3,3,0,0,1,25.51.6a1.89,1.89,0,0,1,2.75,0,2.94,2.94,0,0,1,.46,1.76Zm-.93-1a2.27,2.27,0,0,0-.22-1.15.72.72,0,0,0-.68-.37.75.75,0,0,0-.68.35A2.14,2.14,0,0,0,26,2.19V3.46a2.34,2.34,0,0,0,.22,1.16.8.8,0,0,0,1.35,0,2.33,2.33,0,0,0,.23-1.11Z"/><path class="cls-1" d="M33.2,3.32a3.05,3.05,0,0,1-.45,1.82,1.84,1.84,0,0,1-2.74,0,2.92,2.92,0,0,1-.48-1.77v-1A3,3,0,0,1,30,.6a1.89,1.89,0,0,1,2.75,0,2.94,2.94,0,0,1,.46,1.76Zm-.93-1a2.38,2.38,0,0,0-.22-1.15.72.72,0,0,0-.68-.37.75.75,0,0,0-.68.35,2.14,2.14,0,0,0-.22,1.09V3.46a2.47,2.47,0,0,0,.21,1.16.74.74,0,0,0,.69.39A.72.72,0,0,0,32,4.65a2.33,2.33,0,0,0,.23-1.11Z"/><path class="cls-1" d="M37.68,3.32a3.05,3.05,0,0,1-.45,1.82,1.6,1.6,0,0,1-1.38.62,1.63,1.63,0,0,1-1.37-.6A3,3,0,0,1,34,3.39v-1A3,3,0,0,1,34.47.6,1.61,1.61,0,0,1,35.84,0a1.63,1.63,0,0,1,1.38.59,2.94,2.94,0,0,1,.46,1.76Zm-.93-1a2.38,2.38,0,0,0-.22-1.15.73.73,0,0,0-.69-.37.74.74,0,0,0-.67.35,2.24,2.24,0,0,0-.23,1.09V3.46a2.45,2.45,0,0,0,.22,1.16.74.74,0,0,0,.69.39.74.74,0,0,0,.67-.36,2.33,2.33,0,0,0,.23-1.11Z"/><path class="cls-1" d="M41.59,3.6V5.68h-1V.08h2.14a2.13,2.13,0,0,1,1.49.49,1.62,1.62,0,0,1,.56,1.29,1.58,1.58,0,0,1-.54,1.28,2.26,2.26,0,0,1-1.52.46Zm0-.78h1.17a1.15,1.15,0,0,0,.8-.25.9.9,0,0,0,.27-.7,1,1,0,0,0-.28-.73,1.09,1.09,0,0,0-.76-.28h-1.2Z"/><path class="cls-1" d="M47.75,2.37a2.43,2.43,0,0,0-.38,0,.86.86,0,0,0-.87.49V5.68h-.94V1.52h.9l0,.46a1.06,1.06,0,0,1,.94-.54,1,1,0,0,1,.33.05Z"/><path class="cls-1" d="M50.1,5.76a1.94,1.94,0,0,1-1.44-.56,2,2,0,0,1-.56-1.49V3.59a2.45,2.45,0,0,1,.24-1.11A1.89,1.89,0,0,1,49,1.71a1.79,1.79,0,0,1,1-.27A1.61,1.61,0,0,1,51.3,2a2.29,2.29,0,0,1,.47,1.54v.37H49.05a1.26,1.26,0,0,0,.34.82,1,1,0,0,0,.76.3,1.26,1.26,0,0,0,1.05-.52l.5.48a1.65,1.65,0,0,1-.67.58A2,2,0,0,1,50.1,5.76ZM50,2.19a.8.8,0,0,0-.63.27,1.52,1.52,0,0,0-.3.75h1.78V3.14a1.12,1.12,0,0,0-.25-.71A.75.75,0,0,0,50,2.19Z"/><path class="cls-1" d="M54.83,4.55a.41.41,0,0,0-.21-.38,2,2,0,0,0-.68-.23,3.27,3.27,0,0,1-.8-.26,1,1,0,0,1-.7-1,1.09,1.09,0,0,1,.46-.9,1.78,1.78,0,0,1,1.15-.36,1.86,1.86,0,0,1,1.21.37,1.18,1.18,0,0,1,.46,1h-.94a.59.59,0,0,0-.2-.45.76.76,0,0,0-.53-.18.85.85,0,0,0-.5.14.46.46,0,0,0-.2.38.38.38,0,0,0,.18.34,2.51,2.51,0,0,0,.73.24,3.51,3.51,0,0,1,.87.29,1.14,1.14,0,0,1,.46.4.94.94,0,0,1,.16.57,1.09,1.09,0,0,1-.47.91,2,2,0,0,1-1.22.35,2.06,2.06,0,0,1-.91-.19,1.37,1.37,0,0,1-.62-.51,1.17,1.17,0,0,1-.23-.69h.91a.66.66,0,0,0,.25.51,1,1,0,0,0,.61.18.94.94,0,0,0,.56-.14A.45.45,0,0,0,54.83,4.55Z"/><path class="cls-1" d="M58.39,5.76A2,2,0,0,1,57,5.2a2.07,2.07,0,0,1-.55-1.49V3.59a2.45,2.45,0,0,1,.24-1.11,1.82,1.82,0,0,1,.68-.77,1.79,1.79,0,0,1,1-.27A1.64,1.64,0,0,1,59.6,2a2.28,2.28,0,0,1,.46,1.54v.37H57.34a1.27,1.27,0,0,0,.35.82,1,1,0,0,0,.76.3,1.23,1.23,0,0,0,1-.52L60,5a1.72,1.72,0,0,1-.67.58A2.06,2.06,0,0,1,58.39,5.76Zm-.11-3.57a.8.8,0,0,0-.62.27,1.35,1.35,0,0,0-.3.75h1.78V3.14a1.12,1.12,0,0,0-.25-.71A.79.79,0,0,0,58.28,2.19Z"/><path class="cls-1" d="M62,.5v1h.74v.69H62V4.53a.49.49,0,0,0,.1.35.42.42,0,0,0,.33.1,1.24,1.24,0,0,0,.33,0v.73a2.27,2.27,0,0,1-.62.09c-.72,0-1.07-.4-1.07-1.19V2.21h-.69V1.52H61V.5Z"/><path class="cls-1" d="M65.74,4.55a.42.42,0,0,0-.2-.38,2,2,0,0,0-.69-.23,3.32,3.32,0,0,1-.79-.26,1,1,0,0,1-.7-1,1.11,1.11,0,0,1,.45-.9,2.09,2.09,0,0,1,2.36,0,1.15,1.15,0,0,1,.46,1H65.7a.59.59,0,0,0-.2-.45A.77.77,0,0,0,65,2.14a.82.82,0,0,0-.5.14.46.46,0,0,0-.2.38.38.38,0,0,0,.18.34,2.51,2.51,0,0,0,.73.24,3.51,3.51,0,0,1,.87.29,1.14,1.14,0,0,1,.46.4,1,1,0,0,1,.15.57,1.08,1.08,0,0,1-.46.91A2,2,0,0,1,65,5.76a2,2,0,0,1-.91-.19,1.46,1.46,0,0,1-.63-.51,1.16,1.16,0,0,1-.22-.69h.91a.63.63,0,0,0,.25.51,1.15,1.15,0,0,0,1.17,0A.44.44,0,0,0,65.74,4.55Z"/><rect class="cls-2" x="0.25" y="12.7" width="160.25" height="167.47"/><rect class="cls-3" x="7.47" y="20.17" width="145.8" height="152.78"/><rect class="cls-4" x="16.44" y="51.45" width="128.02" height="54.87"/><path class="cls-5" d="M25.19,61.21v1.58h-.74V58.52h1.63a1.7,1.7,0,0,1,1.14.37,1.26,1.26,0,0,1,.42,1,1.21,1.21,0,0,1-.42,1,1.72,1.72,0,0,1-1.15.35Zm0-.6h.89a.83.83,0,0,0,.6-.19.67.67,0,0,0,.21-.54.74.74,0,0,0-.21-.55.78.78,0,0,0-.58-.21h-.91Z"/><path class="cls-5" d="M29.88,60.27l-.29,0a.65.65,0,0,0-.66.38v2.17h-.72V59.62h.68l0,.35a.81.81,0,0,1,.72-.41.62.62,0,0,1,.25,0Z"/><path class="cls-5" d="M30.09,61.17a1.92,1.92,0,0,1,.18-.84,1.31,1.31,0,0,1,.52-.57,1.5,1.5,0,0,1,.77-.2,1.42,1.42,0,0,1,1,.41,1.66,1.66,0,0,1,.43,1.1v.16a1.86,1.86,0,0,1-.18.84,1.29,1.29,0,0,1-.51.57,1.45,1.45,0,0,1-.78.21,1.37,1.37,0,0,1-1.07-.45,1.71,1.71,0,0,1-.4-1.19Zm.71.06A1.31,1.31,0,0,0,31,62a.64.64,0,0,0,.56.28.66.66,0,0,0,.56-.28,1.4,1.4,0,0,0,.2-.83,1.24,1.24,0,0,0-.2-.76.66.66,0,0,0-.56-.28.65.65,0,0,0-.56.28A1.42,1.42,0,0,0,30.8,61.23Z"/><path class="cls-5" d="M34.94,62.28a.61.61,0,0,0,.44-.16.52.52,0,0,0,.19-.38h.67a1,1,0,0,1-.19.55,1.22,1.22,0,0,1-.46.41,1.43,1.43,0,0,1-.64.15,1.38,1.38,0,0,1-1.06-.43,1.72,1.72,0,0,1-.39-1.19v-.08A1.68,1.68,0,0,1,33.89,60a1.34,1.34,0,0,1,1-.43,1.28,1.28,0,0,1,.92.33,1.17,1.17,0,0,1,.38.86h-.67a.62.62,0,0,0-.19-.44.59.59,0,0,0-.44-.18.64.64,0,0,0-.54.25,1.39,1.39,0,0,0-.19.76v.11a1.3,1.3,0,0,0,.19.77A.62.62,0,0,0,34.94,62.28Z"/><path class="cls-5" d="M38.17,62.85a1.5,1.5,0,0,1-1.1-.43,1.54,1.54,0,0,1-.42-1.14V61.2a1.93,1.93,0,0,1,.19-.85,1.37,1.37,0,0,1,.51-.58,1.36,1.36,0,0,1,.74-.21,1.27,1.27,0,0,1,1,.41,1.74,1.74,0,0,1,.35,1.17v.29H37.37a1,1,0,0,0,.26.62.82.82,0,0,0,.58.23,1,1,0,0,0,.8-.4l.38.37a1.22,1.22,0,0,1-.51.44A1.61,1.61,0,0,1,38.17,62.85Zm-.08-2.72a.63.63,0,0,0-.48.2,1.14,1.14,0,0,0-.23.58h1.36v-.06a.94.94,0,0,0-.19-.54A.6.6,0,0,0,38.09,60.13Z"/><path class="cls-5" d="M41.77,61.93a.32.32,0,0,0-.15-.29,1.61,1.61,0,0,0-.52-.18,3,3,0,0,1-.61-.19.81.81,0,0,1-.53-.75.86.86,0,0,1,.34-.69,1.61,1.61,0,0,1,1.8,0,.9.9,0,0,1,.35.73h-.71a.43.43,0,0,0-.15-.34.62.62,0,0,0-.41-.14.63.63,0,0,0-.38.11.34.34,0,0,0-.15.29.31.31,0,0,0,.14.26,1.91,1.91,0,0,0,.55.18,2.41,2.41,0,0,1,.66.22.91.91,0,0,1,.36.3.87.87,0,0,1,.11.44.84.84,0,0,1-.35.69,1.51,1.51,0,0,1-.93.27,1.67,1.67,0,0,1-.69-.14,1.18,1.18,0,0,1-.48-.39,1,1,0,0,1-.17-.53h.69a.52.52,0,0,0,.19.39.77.77,0,0,0,.47.13.74.74,0,0,0,.43-.1A.37.37,0,0,0,41.77,61.93Z"/><path class="cls-5" d="M44.87,61.93a.31.31,0,0,0-.16-.29,1.53,1.53,0,0,0-.52-.18,3,3,0,0,1-.6-.19.82.82,0,0,1-.54-.75.87.87,0,0,1,.35-.69,1.38,1.38,0,0,1,.88-.27,1.42,1.42,0,0,1,.92.28.9.9,0,0,1,.35.73h-.72a.43.43,0,0,0-.15-.34.57.57,0,0,0-.4-.14.67.67,0,0,0-.39.11.36.36,0,0,0-.14.29.3.3,0,0,0,.13.26,2,2,0,0,0,.56.18,2.41,2.41,0,0,1,.66.22.81.81,0,0,1,.35.3.78.78,0,0,1,.12.44.84.84,0,0,1-.35.69,1.51,1.51,0,0,1-.93.27,1.75,1.75,0,0,1-.7-.14,1.22,1.22,0,0,1-.47-.39.88.88,0,0,1-.17-.53h.69a.49.49,0,0,0,.19.39.75.75,0,0,0,.47.13.71.71,0,0,0,.42-.1A.35.35,0,0,0,44.87,61.93Z"/><path class="cls-5" d="M46.19,58.79a.36.36,0,0,1,.1-.27.46.46,0,0,1,.6,0,.39.39,0,0,1,0,.54.46.46,0,0,1-.6,0A.36.36,0,0,1,46.19,58.79Zm.76,4h-.72V59.62H47Z"/><path class="cls-5" d="M48.38,59.62l0,.36a1.15,1.15,0,0,1,.93-.42c.66,0,1,.38,1,1.13v2.1h-.71V60.73a.61.61,0,0,0-.13-.44.55.55,0,0,0-.43-.15.69.69,0,0,0-.64.39v2.26h-.71V59.62Z"/><path class="cls-5" d="M50.93,61.18A1.86,1.86,0,0,1,51.28,60a1.12,1.12,0,0,1,.92-.44,1,1,0,0,1,.85.38l0-.32h.64v3.07a1.26,1.26,0,0,1-.39,1,1.45,1.45,0,0,1-1.05.37,1.64,1.64,0,0,1-.68-.15,1.17,1.17,0,0,1-.5-.38l.33-.43a1,1,0,0,0,.81.39.78.78,0,0,0,.56-.19.73.73,0,0,0,.21-.56V62.5a1.06,1.06,0,0,1-.82.35,1.1,1.1,0,0,1-.91-.45A1.87,1.87,0,0,1,50.93,61.18Zm.71.06a1.26,1.26,0,0,0,.2.75.64.64,0,0,0,.54.28A.7.7,0,0,0,53,61.9V60.5a.69.69,0,0,0-.64-.36.61.61,0,0,0-.54.28A1.44,1.44,0,0,0,51.64,61.24Z"/><path class="cls-5" d="M58.25,61.69a.51.51,0,0,0-.2-.44,2.35,2.35,0,0,0-.71-.3,3.59,3.59,0,0,1-.82-.35,1.08,1.08,0,0,1-.58-1,1,1,0,0,1,.42-.85,1.65,1.65,0,0,1,1.09-.34,1.8,1.8,0,0,1,.79.17A1.23,1.23,0,0,1,59,59.77h-.74a.68.68,0,0,0-.21-.53.9.9,0,0,0-.6-.19.91.91,0,0,0-.56.16.52.52,0,0,0-.2.43.47.47,0,0,0,.22.4,2.61,2.61,0,0,0,.71.3,3.2,3.2,0,0,1,.8.34,1.21,1.21,0,0,1,.44.43,1,1,0,0,1,.14.57,1,1,0,0,1-.41.85,1.75,1.75,0,0,1-1.1.32,2,2,0,0,1-.86-.18,1.42,1.42,0,0,1-.6-.47,1.18,1.18,0,0,1-.21-.7h.74a.68.68,0,0,0,.24.56,1.07,1.07,0,0,0,.69.2.89.89,0,0,0,.58-.16A.49.49,0,0,0,58.25,61.69Z"/><path class="cls-5" d="M60.68,61.77l.65-2.15h.76l-1.26,3.65a1,1,0,0,1-1,.8A1.16,1.16,0,0,1,59.5,64v-.55h.13a.67.67,0,0,0,.41-.1.66.66,0,0,0,.22-.33l.1-.27-1.11-3.15H60Z"/><path class="cls-5" d="M64.27,61.93a.32.32,0,0,0-.15-.29,1.61,1.61,0,0,0-.52-.18,3,3,0,0,1-.61-.19.81.81,0,0,1-.53-.75.86.86,0,0,1,.34-.69,1.61,1.61,0,0,1,1.8,0,.9.9,0,0,1,.35.73h-.71a.43.43,0,0,0-.15-.34.62.62,0,0,0-.41-.14.63.63,0,0,0-.38.11.34.34,0,0,0-.15.29.31.31,0,0,0,.14.26,1.91,1.91,0,0,0,.55.18,2.41,2.41,0,0,1,.66.22.91.91,0,0,1,.36.3.87.87,0,0,1,.11.44.84.84,0,0,1-.35.69,1.51,1.51,0,0,1-.93.27,1.67,1.67,0,0,1-.69-.14,1.18,1.18,0,0,1-.48-.39,1,1,0,0,1-.17-.53H63a.52.52,0,0,0,.19.39.77.77,0,0,0,.47.13.74.74,0,0,0,.43-.1A.37.37,0,0,0,64.27,61.93Z"/><path class="cls-5" d="M66.48,58.85v.77H67v.52h-.56v1.77a.4.4,0,0,0,.08.27.32.32,0,0,0,.25.08,1.07,1.07,0,0,0,.25,0v.55a2,2,0,0,1-.47.07c-.54,0-.82-.31-.82-.91v-1.8h-.52v-.52h.52v-.77Z"/><path class="cls-5" d="M69,62.85a1.48,1.48,0,0,1-1.09-.43,1.54,1.54,0,0,1-.42-1.14V61.2a1.93,1.93,0,0,1,.18-.85,1.37,1.37,0,0,1,.51-.58,1.36,1.36,0,0,1,.74-.21,1.25,1.25,0,0,1,1,.41,1.74,1.74,0,0,1,.36,1.17v.29H68.18a1,1,0,0,0,.27.62.78.78,0,0,0,.57.23,1,1,0,0,0,.8-.4l.39.37a1.36,1.36,0,0,1-.51.44A1.69,1.69,0,0,1,69,62.85Zm-.08-2.72a.64.64,0,0,0-.48.2,1.06,1.06,0,0,0-.22.58h1.35v-.06a.88.88,0,0,0-.19-.54A.59.59,0,0,0,68.9,60.13Z"/><path class="cls-5" d="M71.48,59.62l0,.33a1.12,1.12,0,0,1,.91-.39.87.87,0,0,1,.87.48,1.13,1.13,0,0,1,1-.48,1,1,0,0,1,.78.29,1.25,1.25,0,0,1,.27.85v2.09h-.71V60.72a.63.63,0,0,0-.14-.44.57.57,0,0,0-.43-.14.62.62,0,0,0-.4.13.8.8,0,0,0-.22.34v2.18H72.7V60.7a.51.51,0,0,0-.58-.56.63.63,0,0,0-.6.35v2.3h-.71V59.62Z"/><rect class="cls-6" x="16.44" y="111.19" width="128.02" height="54.87"/><path class="cls-5" d="M25,121v1.58h-.74v-4.27h1.63a1.62,1.62,0,0,1,1.13.38,1.23,1.23,0,0,1,.42,1,1.19,1.19,0,0,1-.41,1,1.74,1.74,0,0,1-1.15.35Zm0-.6h.89a.85.85,0,0,0,.6-.19.66.66,0,0,0,.21-.53.76.76,0,0,0-.21-.56.87.87,0,0,0-.58-.21H25Z"/><path class="cls-5" d="M29.71,120l-.29,0a.66.66,0,0,0-.66.37v2.17h-.71v-3.17h.68l0,.35a.81.81,0,0,1,.71-.41.89.89,0,0,1,.26,0Z"/><path class="cls-5" d="M29.92,120.92a1.92,1.92,0,0,1,.19-.84,1.33,1.33,0,0,1,.52-.58,1.49,1.49,0,0,1,.76-.2,1.42,1.42,0,0,1,1,.41,1.68,1.68,0,0,1,.43,1.1V121a1.92,1.92,0,0,1-.18.84,1.36,1.36,0,0,1-.52.57,1.5,1.5,0,0,1-.77.2,1.35,1.35,0,0,1-1.07-.45,1.7,1.7,0,0,1-.41-1.19Zm.72.06a1.23,1.23,0,0,0,.2.76.7.7,0,0,0,1.12,0,1.44,1.44,0,0,0,.2-.82,1.35,1.35,0,0,0-.2-.77.69.69,0,0,0-.57-.28.64.64,0,0,0-.55.28A1.36,1.36,0,0,0,30.64,121Z"/><path class="cls-5" d="M33.35,120.92a1.82,1.82,0,0,1,.35-1.18,1.11,1.11,0,0,1,.92-.44,1.05,1.05,0,0,1,.85.38l0-.32h.64v3.07a1.31,1.31,0,0,1-.38,1,1.49,1.49,0,0,1-1,.36,1.64,1.64,0,0,1-.68-.15,1.13,1.13,0,0,1-.51-.38l.34-.42a1,1,0,0,0,.81.39.8.8,0,0,0,.56-.2.73.73,0,0,0,.2-.56v-.21a1.07,1.07,0,0,1-.82.34,1.13,1.13,0,0,1-.91-.44A2,2,0,0,1,33.35,120.92Zm.71.06a1.26,1.26,0,0,0,.19.75.61.61,0,0,0,.54.28.68.68,0,0,0,.64-.37v-1.39a.66.66,0,0,0-.63-.37.64.64,0,0,0-.55.28A1.44,1.44,0,0,0,34.06,121Z"/><path class="cls-5" d="M38.53,120l-.29,0a.64.64,0,0,0-.65.37v2.17h-.72v-3.17h.68l0,.35a.81.81,0,0,1,.72-.41.87.87,0,0,1,.25,0Z"/><path class="cls-5" d="M40.79,122.53a1,1,0,0,1-.08-.3,1.19,1.19,0,0,1-1.61.09,1,1,0,0,1,.07-1.46,1.83,1.83,0,0,1,1.08-.27h.43v-.2a.57.57,0,0,0-.13-.4.54.54,0,0,0-.42-.15.63.63,0,0,0-.4.12.41.41,0,0,0-.16.31h-.71a.76.76,0,0,1,.18-.48,1.08,1.08,0,0,1,.47-.36,1.53,1.53,0,0,1,.66-.13,1.32,1.32,0,0,1,.89.28,1,1,0,0,1,.34.79v1.43a1.63,1.63,0,0,0,.12.68v0ZM40,122a.87.87,0,0,0,.39-.1.69.69,0,0,0,.28-.28V121H40.3a1,1,0,0,0-.59.14.48.48,0,0,0-.07.72A.55.55,0,0,0,40,122Z"/><path class="cls-5" d="M42.81,119.36l0,.33a1.14,1.14,0,0,1,.92-.39.88.88,0,0,1,.87.49,1.11,1.11,0,0,1,1-.49,1,1,0,0,1,.78.29,1.28,1.28,0,0,1,.26.86v2.08h-.71v-2.06a.61.61,0,0,0-.13-.44.57.57,0,0,0-.44-.15.66.66,0,0,0-.4.13.73.73,0,0,0-.21.35v2.17H44v-2.09a.51.51,0,0,0-.57-.56.63.63,0,0,0-.61.35v2.3h-.71v-3.17Z"/><path class="cls-5" d="M48,119.36l0,.33a1.16,1.16,0,0,1,.92-.39.88.88,0,0,1,.87.49,1.11,1.11,0,0,1,1-.49,1,1,0,0,1,.78.29,1.28,1.28,0,0,1,.26.86v2.08h-.71v-2.06A.61.61,0,0,0,51,120a.56.56,0,0,0-.44-.15.66.66,0,0,0-.4.13.73.73,0,0,0-.21.35v2.17h-.71v-2.09a.51.51,0,0,0-.57-.56.63.63,0,0,0-.61.35v2.3h-.71v-3.17Z"/><path class="cls-5" d="M54.48,122.53a1,1,0,0,1-.08-.3,1.12,1.12,0,0,1-.84.36,1.16,1.16,0,0,1-.78-.27.9.9,0,0,1-.3-.68.91.91,0,0,1,.38-.78,1.83,1.83,0,0,1,1.08-.27h.43v-.2a.5.5,0,0,0-.55-.55.62.62,0,0,0-.4.12.38.38,0,0,0-.16.31h-.71a.8.8,0,0,1,.17-.48,1.14,1.14,0,0,1,.47-.36,1.6,1.6,0,0,1,.67-.13,1.29,1.29,0,0,1,.88.28,1,1,0,0,1,.34.79v1.43a1.63,1.63,0,0,0,.12.68v0ZM53.7,122a.87.87,0,0,0,.39-.1.69.69,0,0,0,.28-.28V121H54a1.08,1.08,0,0,0-.6.14.45.45,0,0,0-.2.39.44.44,0,0,0,.14.33A.53.53,0,0,0,53.7,122Z"/><path class="cls-5" d="M58.61,121a1.89,1.89,0,0,1-.33,1.17,1.07,1.07,0,0,1-.9.44,1,1,0,0,1-.87-.4l0,.34h-.64V118h.71v1.64a1,1,0,0,1,.83-.37,1.1,1.1,0,0,1,.91.43,2,2,0,0,1,.33,1.21Zm-.71-.06a1.36,1.36,0,0,0-.18-.78.61.61,0,0,0-.53-.26.67.67,0,0,0-.65.41v1.31a.68.68,0,0,0,.66.41.58.58,0,0,0,.51-.25,1.29,1.29,0,0,0,.19-.75Z"/><path class="cls-5" d="M60,122.53h-.72V118H60Z"/><path class="cls-5" d="M62.14,122.59a1.45,1.45,0,0,1-1.1-.43,1.53,1.53,0,0,1-.42-1.13v-.09a1.93,1.93,0,0,1,.18-.85,1.39,1.39,0,0,1,1.25-.79,1.24,1.24,0,0,1,1,.41,1.74,1.74,0,0,1,.36,1.17v.29H61.34a.91.91,0,0,0,.26.62.78.78,0,0,0,.58.23.94.94,0,0,0,.79-.4l.39.37a1.28,1.28,0,0,1-.51.44A1.51,1.51,0,0,1,62.14,122.59Zm-.09-2.72a.59.59,0,0,0-.47.21,1,1,0,0,0-.23.57H62.7v-.05a.78.78,0,0,0-.19-.54A.56.56,0,0,0,62.05,119.87Z"/><path class="cls-5" d="M66.26,121.94H68.2v.59H65.52v-4.27h.74Z"/><path class="cls-5" d="M68.57,120.92a1.92,1.92,0,0,1,.18-.84,1.4,1.4,0,0,1,.52-.58,1.5,1.5,0,0,1,.77-.2,1.4,1.4,0,0,1,1,.41,1.68,1.68,0,0,1,.43,1.1V121a1.92,1.92,0,0,1-.18.84,1.41,1.41,0,0,1-.51.57,1.53,1.53,0,0,1-.78.2,1.37,1.37,0,0,1-1.07-.45,1.7,1.7,0,0,1-.4-1.19Zm.71.06a1.29,1.29,0,0,0,.2.76A.65.65,0,0,0,70,122a.64.64,0,0,0,.56-.28,1.36,1.36,0,0,0,.2-.82,1.28,1.28,0,0,0-.2-.77.69.69,0,0,0-.56-.28.65.65,0,0,0-.56.28A1.43,1.43,0,0,0,69.28,121Z"/><path class="cls-5" d="M72,120.92a1.88,1.88,0,0,1,.35-1.18,1.12,1.12,0,0,1,.92-.44,1,1,0,0,1,.85.38l0-.32h.65v3.07a1.28,1.28,0,0,1-.39,1,1.49,1.49,0,0,1-1.05.36,1.64,1.64,0,0,1-.68-.15,1.18,1.18,0,0,1-.51-.38l.34-.42a1,1,0,0,0,.81.39.78.78,0,0,0,.56-.2.7.7,0,0,0,.2-.56v-.21a1.05,1.05,0,0,1-.82.34,1.13,1.13,0,0,1-.91-.44A2,2,0,0,1,72,120.92Zm.71.06a1.26,1.26,0,0,0,.19.75.63.63,0,0,0,.55.28.66.66,0,0,0,.63-.37v-1.39a.7.7,0,0,0-1.18-.09A1.44,1.44,0,0,0,72.7,121Z"/><path class="cls-5" d="M75.52,118.54a.4.4,0,1,1,.8,0,.35.35,0,0,1-.1.26.46.46,0,0,1-.6,0A.35.35,0,0,1,75.52,118.54Zm.75,4h-.71v-3.17h.71Z"/><path class="cls-5" d="M78.35,122a.63.63,0,0,0,.44-.15.56.56,0,0,0,.19-.39h.67a1.09,1.09,0,0,1-.18.55,1.25,1.25,0,0,1-.47.41,1.4,1.4,0,0,1-.64.15,1.34,1.34,0,0,1-1-.43,1.72,1.72,0,0,1-.39-1.19v-.07a1.71,1.71,0,0,1,.38-1.16,1.35,1.35,0,0,1,1.06-.44,1.31,1.31,0,0,1,.92.33,1.17,1.17,0,0,1,.37.87H79a.7.7,0,0,0-.18-.45.61.61,0,0,0-.45-.18.63.63,0,0,0-.53.25,1.23,1.23,0,0,0-.19.76V121a1.35,1.35,0,0,0,.18.77A.64.64,0,0,0,78.35,122Z"/><rect class="cls-1" x="24.46" y="69.44" width="35.11" height="7.77"/><path class="cls-5" d="M29.85,75V72.12h.84a1.36,1.36,0,0,1,.67.17,1.2,1.2,0,0,1,.45.47,1.51,1.51,0,0,1,.16.71v.14a1.46,1.46,0,0,1-.16.71,1.12,1.12,0,0,1-.46.48,1.39,1.39,0,0,1-.68.16Zm.49-2.44v2h.33a.75.75,0,0,0,.59-.24,1.06,1.06,0,0,0,.21-.7v-.16a1.06,1.06,0,0,0-.2-.71.71.71,0,0,0-.58-.24Z"/><path class="cls-5" d="M32.46,75V72.12h.84a1.33,1.33,0,0,1,.67.17,1.07,1.07,0,0,1,.45.47,1.51,1.51,0,0,1,.16.71v.14a1.46,1.46,0,0,1-.16.71,1.12,1.12,0,0,1-.46.48,1.37,1.37,0,0,1-.68.16Zm.5-2.44v2h.32a.75.75,0,0,0,.6-.24,1.12,1.12,0,0,0,.21-.7v-.16a1.11,1.11,0,0,0-.2-.71.73.73,0,0,0-.59-.24Z"/><path class="cls-5" d="M36.12,73.87h-.55V75h-.49V72.12h1a1.17,1.17,0,0,1,.76.22.81.81,0,0,1,.26.64.82.82,0,0,1-.13.48.89.89,0,0,1-.39.29l.64,1.19v0h-.53Zm-.55-.4h.51a.56.56,0,0,0,.39-.13.43.43,0,0,0,.14-.34.45.45,0,0,0-.13-.35.53.53,0,0,0-.39-.13h-.52Z"/><path class="cls-5" d="M39.1,74h.35v.38H39.1V75h-.47v-.63H37.4l0-.29,1.23-1.92h.49Zm-1.22,0h.75V72.76l0,.06Z"/><path class="cls-5" d="M41.48,72.12l.82,2.18.82-2.18h.64V75h-.49V74l0-1.26L42.48,75h-.36l-.84-2.19,0,1.26V75h-.49V72.12Z"/><path class="cls-5" d="M45.23,75a1,1,0,0,1-.73-.28,1,1,0,0,1-.28-.76V73.9a1.25,1.25,0,0,1,.12-.56.87.87,0,0,1,.34-.39.93.93,0,0,1,.49-.14.82.82,0,0,1,.67.28,1.14,1.14,0,0,1,.24.78v.19H44.69a.68.68,0,0,0,.18.41.53.53,0,0,0,.39.15.64.64,0,0,0,.53-.26l.25.24a.83.83,0,0,1-.34.3A1,1,0,0,1,45.23,75Zm-.06-1.81a.4.4,0,0,0-.31.14.7.7,0,0,0-.16.38h.91v0a.65.65,0,0,0-.13-.36A.4.4,0,0,0,45.17,73.19Z"/><path class="cls-5" d="M46.89,72.85v.22a.79.79,0,0,1,.61-.26.58.58,0,0,1,.58.32.77.77,0,0,1,.65-.32.69.69,0,0,1,.52.19.86.86,0,0,1,.18.57V75H49V73.59a.43.43,0,0,0-.09-.3.37.37,0,0,0-.29-.09.39.39,0,0,0-.26.09.44.44,0,0,0-.15.22V75H47.7V73.57a.33.33,0,0,0-.38-.37.42.42,0,0,0-.4.23V75h-.48V72.85Z"/><path class="cls-5" d="M49.84,73.89a1.25,1.25,0,0,1,.12-.56.93.93,0,0,1,.34-.39,1.08,1.08,0,0,1,.52-.13.9.9,0,0,1,.69.28,1.08,1.08,0,0,1,.29.73v.11a1.28,1.28,0,0,1-.12.56.9.9,0,0,1-.34.38,1,1,0,0,1-.52.13.92.92,0,0,1-.72-.3,1.11,1.11,0,0,1-.26-.79Zm.47,0a.84.84,0,0,0,.13.51.45.45,0,0,0,.38.18.43.43,0,0,0,.37-.18,1,1,0,0,0,.14-.55.84.84,0,0,0-.14-.51.43.43,0,0,0-.37-.19.42.42,0,0,0-.37.19A.91.91,0,0,0,50.31,73.93Z"/><path class="cls-5" d="M53.31,73.28h-.2a.44.44,0,0,0-.44.25V75H52.2V72.85h.45l0,.24a.52.52,0,0,1,.47-.28.4.4,0,0,1,.17,0Z"/><path class="cls-5" d="M54.38,74.28l.43-1.43h.51l-.84,2.43a.69.69,0,0,1-.66.54,1.11,1.11,0,0,1-.23,0v-.37h.09a.41.41,0,0,0,.27-.07.43.43,0,0,0,.15-.22l.07-.18-.75-2.1h.51Z"/><rect class="cls-1" x="62.66" y="69.44" width="35.11" height="7.77"/><path class="cls-5" d="M78.78,73.62a1.71,1.71,0,0,1-.13.7,1.21,1.21,0,0,1-.36.47l.49.38-.32.29L77.85,75l-.25,0a1.09,1.09,0,0,1-.62-.17,1,1,0,0,1-.41-.48,1.66,1.66,0,0,1-.15-.72v-.16a1.83,1.83,0,0,1,.14-.73,1.07,1.07,0,0,1,.42-.49,1.14,1.14,0,0,1,.61-.17,1.13,1.13,0,0,1,.62.17,1.1,1.1,0,0,1,.42.48,1.67,1.67,0,0,1,.15.73Zm-.5-.15a1.23,1.23,0,0,0-.18-.73.58.58,0,0,0-.51-.25.59.59,0,0,0-.5.25,1.2,1.2,0,0,0-.18.71v.17a1.28,1.28,0,0,0,.18.72.59.59,0,0,0,.51.26.58.58,0,0,0,.5-.25,1.25,1.25,0,0,0,.18-.73Z"/><path class="cls-5" d="M80.77,74.23a.36.36,0,0,0-.14-.29,1.43,1.43,0,0,0-.47-.2,2.68,2.68,0,0,1-.55-.23.74.74,0,0,1-.39-.64.72.72,0,0,1,.28-.57,1.13,1.13,0,0,1,.73-.22,1.25,1.25,0,0,1,.53.11.87.87,0,0,1,.37.31.9.9,0,0,1,.13.45h-.49a.45.45,0,0,0-.14-.35.69.69,0,0,0-.78,0,.34.34,0,0,0-.13.29.33.33,0,0,0,.14.26,1.6,1.6,0,0,0,.48.2,2,2,0,0,1,.53.23.91.91,0,0,1,.3.28.8.8,0,0,1,.09.39.68.68,0,0,1-.27.56,1.18,1.18,0,0,1-.74.21,1.48,1.48,0,0,1-.57-.11.92.92,0,0,1-.4-.32.75.75,0,0,1-.15-.47h.5a.45.45,0,0,0,.16.38.7.7,0,0,0,.46.13.63.63,0,0,0,.39-.1A.36.36,0,0,0,80.77,74.23Z"/><path class="cls-5" d="M82.19,73.91v1h-.5V72.12h1.09a1.09,1.09,0,0,1,.76.25.91.91,0,0,1,0,1.31,1.15,1.15,0,0,1-.76.23Zm0-.4h.59a.58.58,0,0,0,.4-.12.45.45,0,0,0,.14-.36.46.46,0,0,0-.14-.37.52.52,0,0,0-.38-.14h-.61Z"/><path class="cls-5" d="M84.77,75h-.49V72.12h.49Z"/><rect class="cls-1" x="100.87" y="69.44" width="35.11" height="7.77"/><path class="cls-5" d="M116.27,72.12V74a1,1,0,0,1-.29.72,1.15,1.15,0,0,1-.78.26,1.07,1.07,0,0,1-.77-.26.92.92,0,0,1-.29-.72v-1.9h.49V74a.6.6,0,0,0,.15.44.57.57,0,0,0,.42.15c.39,0,.57-.2.57-.6V72.12Z"/><path class="cls-5" d="M118.34,74.3h-1.1L117,75h-.51l1.07-2.84H118L119.09,75h-.51Zm-1-.4h.82l-.41-1.18Z"/><path class="cls-5" d="M120.46,73.87h-.55V75h-.5V72.12h1a1.13,1.13,0,0,1,.76.22.78.78,0,0,1,.27.64.83.83,0,0,1-.14.48.86.86,0,0,1-.38.29l.64,1.19v0H121Zm-.55-.4h.51a.56.56,0,0,0,.39-.13A.43.43,0,0,0,121,73a.48.48,0,0,0-.13-.35.53.53,0,0,0-.39-.13h-.52Z"/><path class="cls-5" d="M123.87,72.52H123V75h-.49V72.52h-.88v-.4h2.26Z"/><rect class="cls-1" x="24.46" y="79.88" width="35.11" height="7.77"/><path class="cls-5" d="M34.4,85a.89.89,0,0,1-.42.31,1.77,1.77,0,0,1-.63.1,1.23,1.23,0,0,1-.63-.16,1.1,1.1,0,0,1-.42-.46,1.76,1.76,0,0,1-.16-.71v-.22a1.54,1.54,0,0,1,.31-1,1.07,1.07,0,0,1,.86-.36,1.19,1.19,0,0,1,.76.23,1.07,1.07,0,0,1,.33.68h-.48a.55.55,0,0,0-.6-.51.57.57,0,0,0-.5.24,1.15,1.15,0,0,0-.18.7v.22a1.15,1.15,0,0,0,.19.71.65.65,0,0,0,.54.26.73.73,0,0,0,.54-.17v-.56h-.58v-.38H34.4Z"/><path class="cls-5" d="M36.76,84.37a1.29,1.29,0,0,1-.22.78.74.74,0,0,1-.61.29.69.69,0,0,1-.58-.27l0,.23H34.9v-3h.47v1.09a.77.77,0,0,1,1.16.05,1.27,1.27,0,0,1,.23.8Zm-.48,0a.93.93,0,0,0-.12-.52.41.41,0,0,0-.35-.17.45.45,0,0,0-.44.27v.87a.45.45,0,0,0,.44.27.41.41,0,0,0,.35-.16.86.86,0,0,0,.12-.5Z"/><path class="cls-5" d="M39.86,84.13H38.69V85h1.36v.39H38.19V82.56H40V83H38.69v.78h1.17Z"/><path class="cls-5" d="M41,82.78v.51h.37v.35H41v1.18a.3.3,0,0,0,0,.18.26.26,0,0,0,.17,0l.17,0v.37a1.15,1.15,0,0,1-.31,0c-.37,0-.55-.2-.55-.6v-1.2h-.35v-.35h.35v-.51Z"/><path class="cls-5" d="M42.21,83.52a.74.74,0,0,1,.59-.27c.45,0,.68.26.68.77V85.4H43V84a.39.39,0,0,0-.1-.31.38.38,0,0,0-.28-.09.44.44,0,0,0-.42.25V85.4h-.48v-3h.48Z"/><path class="cls-5" d="M44.89,85.44a1,1,0,0,1-.73-.28,1,1,0,0,1-.28-.76v-.06a1.25,1.25,0,0,1,.12-.56.93.93,0,0,1,.34-.39,1,1,0,0,1,.5-.14.79.79,0,0,1,.66.28,1.13,1.13,0,0,1,.24.77v.2H44.36a.62.62,0,0,0,.17.41.54.54,0,0,0,.39.15.65.65,0,0,0,.53-.26l.26.24a.89.89,0,0,1-.34.3A1.06,1.06,0,0,1,44.89,85.44Zm0-1.81a.42.42,0,0,0-.32.14.69.69,0,0,0-.15.38h.9v0a.56.56,0,0,0-.13-.36A.38.38,0,0,0,44.84,83.63Z"/><path class="cls-5" d="M47.21,83.72H47a.43.43,0,0,0-.44.25V85.4h-.47V83.29h.45v.24a.53.53,0,0,1,.48-.28.43.43,0,0,1,.17,0Z"/><path class="cls-5" d="M48,83.29l0,.24a.74.74,0,0,1,.61-.28c.44,0,.67.25.68.76V85.4h-.48V84a.4.4,0,0,0-.09-.29.33.33,0,0,0-.28-.1.47.47,0,0,0-.43.26v1.5h-.47V83.29Z"/><path class="cls-5" d="M50.67,85.44a1,1,0,0,1-.73-.28,1,1,0,0,1-.28-.76v-.06a1.25,1.25,0,0,1,.12-.56.9.9,0,0,1,.83-.53.81.81,0,0,1,.67.28,1.13,1.13,0,0,1,.24.77v.2H50.14a.62.62,0,0,0,.17.41.53.53,0,0,0,.39.15.67.67,0,0,0,.53-.26l.25.24a.77.77,0,0,1-.34.3A1,1,0,0,1,50.67,85.44Zm-.06-1.81a.4.4,0,0,0-.31.14.78.78,0,0,0-.16.38h.91v0a.56.56,0,0,0-.13-.36A.4.4,0,0,0,50.61,83.63Z"/><path class="cls-5" d="M52.48,82.78v.51h.37v.35h-.37v1.18a.3.3,0,0,0,.05.18.25.25,0,0,0,.17,0l.16,0v.37a1.1,1.1,0,0,1-.31,0q-.54,0-.54-.6v-1.2h-.35v-.35H52v-.51Z"/><rect class="cls-1" x="62.66" y="79.88" width="35.11" height="7.77"/><path class="cls-5" d="M76,85.44a1,1,0,0,1-.73-.28,1,1,0,0,1-.28-.76v-.06a1.25,1.25,0,0,1,.12-.56.89.89,0,0,1,.35-.39.91.91,0,0,1,.49-.14.79.79,0,0,1,.66.28,1.13,1.13,0,0,1,.24.77v.2H75.42a.62.62,0,0,0,.17.41.56.56,0,0,0,.39.15.65.65,0,0,0,.53-.26l.26.24a.89.89,0,0,1-.34.3A1.06,1.06,0,0,1,76,85.44Zm0-1.81a.42.42,0,0,0-.32.14.69.69,0,0,0-.15.38h.9v0a.56.56,0,0,0-.13-.36A.38.38,0,0,0,75.9,83.63Z"/><path class="cls-5" d="M77.85,82.56l.82,2.18.82-2.18h.64V85.4h-.49v-.94l0-1.25-.84,2.19H78.5l-.84-2.19,0,1.25v.94h-.5V82.56Z"/><path class="cls-5" d="M81.36,82.56l.82,2.18L83,82.56h.63V85.4h-.49v-.94l0-1.25-.84,2.19H82l-.84-2.19,0,1.25v.94h-.49V82.56Z"/><path class="cls-5" d="M86.39,84.48a1,1,0,0,1-.34.71,1.14,1.14,0,0,1-1.78-.37,1.67,1.67,0,0,1-.14-.69v-.26a1.73,1.73,0,0,1,.14-.71,1.05,1.05,0,0,1,.41-.47,1.15,1.15,0,0,1,.62-.17,1.08,1.08,0,0,1,.75.25,1.05,1.05,0,0,1,.34.73H85.9a.79.79,0,0,0-.18-.45.69.69,0,0,0-.92.1,1.29,1.29,0,0,0-.18.69v.26a1.25,1.25,0,0,0,.17.7.55.55,0,0,0,.48.24.63.63,0,0,0,.44-.13.67.67,0,0,0,.19-.43Z"/><rect class="cls-1" x="100.87" y="79.88" width="35.11" height="7.77"/><path class="cls-5" d="M115.79,84.67a.34.34,0,0,0-.13-.29,1.63,1.63,0,0,0-.48-.2,2.56,2.56,0,0,1-.54-.23.74.74,0,0,1-.39-.64.69.69,0,0,1,.28-.57,1.13,1.13,0,0,1,.73-.22,1.29,1.29,0,0,1,.53.11.9.9,0,0,1,.36.31.79.79,0,0,1,.13.45h-.49a.42.42,0,0,0-.14-.35.68.68,0,0,0-.77,0,.34.34,0,0,0-.14.29.31.31,0,0,0,.15.26,1.42,1.42,0,0,0,.47.2,2.13,2.13,0,0,1,.54.23.87.87,0,0,1,.29.28.71.71,0,0,1,.1.39.66.66,0,0,1-.28.56,1.16,1.16,0,0,1-.74.21,1.47,1.47,0,0,1-.56-.11,1,1,0,0,1-.41-.32.82.82,0,0,1-.14-.47h.5a.45.45,0,0,0,.16.38.67.67,0,0,0,.45.13.59.59,0,0,0,.39-.1A.33.33,0,0,0,115.79,84.67Z"/><path class="cls-5" d="M118.31,84.74h-1.1l-.23.66h-.51l1.07-2.84H118l1.08,2.84h-.52Zm-1-.4h.82l-.41-1.18Z"/><path class="cls-5" d="M121.2,83h-.88V85.4h-.49V83H119v-.4h2.25Z"/><path class="cls-5" d="M122.93,84.74h-1.1l-.23.66h-.51l1.07-2.84h.44l1.08,2.84h-.51Zm-1-.4h.82l-.41-1.18Z"/><rect class="cls-1" x="24.46" y="90.32" width="35.11" height="7.77"/><path class="cls-5" d="M37.72,93v1.9a1,1,0,0,1-.29.72,1.29,1.29,0,0,1-1.55,0,.92.92,0,0,1-.29-.72V93h.5v1.9a.64.64,0,0,0,.14.44.58.58,0,0,0,.43.15q.57,0,.57-.6V93Z"/><path class="cls-5" d="M39.73,95.11a.35.35,0,0,0-.13-.29,1.33,1.33,0,0,0-.47-.2,2.68,2.68,0,0,1-.55-.23.74.74,0,0,1-.39-.64.69.69,0,0,1,.28-.57A1.13,1.13,0,0,1,39.2,93a1.29,1.29,0,0,1,.53.11.84.84,0,0,1,.36.31.82.82,0,0,1,.14.45h-.5a.42.42,0,0,0-.14-.35.68.68,0,0,0-.77,0,.34.34,0,0,0-.14.29.31.31,0,0,0,.15.26,1.91,1.91,0,0,0,.48.2,2,2,0,0,1,.53.23.87.87,0,0,1,.29.28.71.71,0,0,1,.1.39.68.68,0,0,1-.27.56,1.2,1.2,0,0,1-.74.21,1.48,1.48,0,0,1-.57-.11.92.92,0,0,1-.4-.32A.75.75,0,0,1,38.1,95h.5a.46.46,0,0,0,.16.38.68.68,0,0,0,.46.13.58.58,0,0,0,.38-.1A.34.34,0,0,0,39.73,95.11Z"/><path class="cls-5" d="M40.66,95.84V93h1a1.18,1.18,0,0,1,.73.19.68.68,0,0,1,.25.58.6.6,0,0,1-.1.35.76.76,0,0,1-.31.24.59.59,0,0,1,.35.24.63.63,0,0,1,.13.41.75.75,0,0,1-.26.62,1.11,1.11,0,0,1-.73.21Zm.5-1.64h.48a.57.57,0,0,0,.36-.11.35.35,0,0,0,.13-.29.37.37,0,0,0-.12-.31.61.61,0,0,0-.37-.09h-.48Zm0,.36v.89h.54a.53.53,0,0,0,.37-.12A.38.38,0,0,0,42.2,95a.41.41,0,0,0-.45-.45Z"/><path class="cls-5" d="M44.65,94.2h.29a.49.49,0,0,0,.35-.11.38.38,0,0,0,.13-.32.46.46,0,0,0-.11-.32.44.44,0,0,0-.32-.11.48.48,0,0,0-.32.11.37.37,0,0,0-.12.29h-.48a.7.7,0,0,1,.12-.4.87.87,0,0,1,.32-.28A1,1,0,0,1,45,93a1,1,0,0,1,.67.21.77.77,0,0,1,.24.6.6.6,0,0,1-.12.36.72.72,0,0,1-.32.25.7.7,0,0,1,.36.26.69.69,0,0,1,.12.41.77.77,0,0,1-.26.61,1,1,0,0,1-.69.22,1,1,0,0,1-.67-.22.69.69,0,0,1-.26-.58h.47a.39.39,0,0,0,.13.31.5.5,0,0,0,.34.11.51.51,0,0,0,.34-.11.44.44,0,0,0,.13-.34.45.45,0,0,0-.13-.35.58.58,0,0,0-.4-.12h-.28Z"/><path class="cls-5" d="M46.7,95.34a.29.29,0,0,1,.21.08.25.25,0,0,1,.07.19.24.24,0,0,1-.07.18.28.28,0,0,1-.21.07.27.27,0,0,1-.2-.07.24.24,0,0,1-.07-.18.25.25,0,0,1,.07-.19A.28.28,0,0,1,46.7,95.34Z"/><path class="cls-5" d="M49.35,94.65a1.58,1.58,0,0,1-.23.92.94.94,0,0,1-1.39,0,1.42,1.42,0,0,1-.24-.9v-.49a1.47,1.47,0,0,1,.23-.92.79.79,0,0,1,.7-.31.81.81,0,0,1,.69.3,1.48,1.48,0,0,1,.24.89Zm-.48-.54a1.1,1.1,0,0,0-.11-.58.35.35,0,0,0-.34-.19.36.36,0,0,0-.34.18,1,1,0,0,0-.12.55v.64a1.31,1.31,0,0,0,.11.6.38.38,0,0,0,.35.19.37.37,0,0,0,.34-.18,1.15,1.15,0,0,0,.11-.56Z"/><rect class="cls-1" x="62.66" y="90.32" width="35.11" height="7.77"/><path class="cls-5" d="M79.06,94.92a1.06,1.06,0,0,1-.33.71,1.16,1.16,0,0,1-.78.25,1.08,1.08,0,0,1-.6-.16,1.06,1.06,0,0,1-.4-.46,1.67,1.67,0,0,1-.15-.69v-.26a1.73,1.73,0,0,1,.14-.71,1.12,1.12,0,0,1,.41-.47A1.09,1.09,0,0,1,78,93a1.11,1.11,0,0,1,.76.25,1.07,1.07,0,0,1,.33.73h-.49a.67.67,0,0,0-.18-.45.57.57,0,0,0-.42-.13.61.61,0,0,0-.5.23,1.22,1.22,0,0,0-.17.7v.25a1.25,1.25,0,0,0,.16.7.55.55,0,0,0,.49.24.6.6,0,0,0,.43-.13.69.69,0,0,0,.19-.43Z"/><path class="cls-5" d="M81.09,95.18H80l-.23.66h-.51L80.32,93h.45l1.07,2.84h-.51Zm-1-.4H81l-.42-1.18Z"/><path class="cls-5" d="M84.42,95.84h-.49l-1.27-2v2h-.49V93h.49l1.27,2V93h.49Z"/><rect class="cls-1" x="100.87" y="90.32" width="35.11" height="7.77"/><path class="cls-5" d="M108.81,95.84V93h.84a1.2,1.2,0,0,1,.66.17,1.16,1.16,0,0,1,.46.47,1.61,1.61,0,0,1,.16.71v.14a1.58,1.58,0,0,1-.16.71,1.12,1.12,0,0,1-.46.48,1.41,1.41,0,0,1-.69.16Zm.49-2.44v2h.32a.75.75,0,0,0,.6-.24,1.06,1.06,0,0,0,.21-.7v-.16a1.11,1.11,0,0,0-.2-.71.71.71,0,0,0-.58-.24Z"/><path class="cls-5" d="M111.37,93.18a.29.29,0,0,1,.07-.18.27.27,0,0,1,.2-.07.26.26,0,0,1,.2.07.27.27,0,0,1,0,.36.26.26,0,0,1-.2.07.27.27,0,0,1-.2-.07A.29.29,0,0,1,111.37,93.18Zm.51,2.66h-.48V93.73h.48Z"/><path class="cls-5" d="M113.58,95.27a.19.19,0,0,0-.11-.19.81.81,0,0,0-.34-.12,2.49,2.49,0,0,1-.41-.13.55.55,0,0,1-.35-.5.59.59,0,0,1,.23-.46.91.91,0,0,1,.58-.18.94.94,0,0,1,.62.19.6.6,0,0,1,.23.48h-.47a.28.28,0,0,0-.11-.22.37.37,0,0,0-.27-.09.41.41,0,0,0-.25.07.22.22,0,0,0-.1.19.2.2,0,0,0,.09.17,1.3,1.3,0,0,0,.37.12,1.49,1.49,0,0,1,.44.15.61.61,0,0,1,.24.2.55.55,0,0,1,.08.29.57.57,0,0,1-.24.47,1.06,1.06,0,0,1-.62.17,1.11,1.11,0,0,1-.46-.09.75.75,0,0,1-.32-.26.66.66,0,0,1-.11-.35h.46a.35.35,0,0,0,.13.26.48.48,0,0,0,.31.09.52.52,0,0,0,.28-.07A.23.23,0,0,0,113.58,95.27Z"/><path class="cls-5" d="M116.31,94.81a1.26,1.26,0,0,1-.22.78.73.73,0,0,1-.6.29.7.7,0,0,1-.56-.23v1h-.47V93.73h.44l0,.21a.66.66,0,0,1,.56-.25.74.74,0,0,1,.61.29,1.27,1.27,0,0,1,.22.8Zm-.47,0a.88.88,0,0,0-.13-.51.4.4,0,0,0-.36-.18.45.45,0,0,0-.42.24v.94a.45.45,0,0,0,.42.24.42.42,0,0,0,.36-.18A.93.93,0,0,0,115.84,94.77Z"/><path class="cls-5" d="M117.22,95.84h-.48v-3h.48Z"/><path class="cls-5" d="M119,95.84a.53.53,0,0,1-.06-.19.76.76,0,0,1-.55.23.73.73,0,0,1-.52-.18.56.56,0,0,1-.2-.45.6.6,0,0,1,.25-.52,1.18,1.18,0,0,1,.71-.18h.29v-.14a.37.37,0,0,0-.09-.26.34.34,0,0,0-.28-.1.45.45,0,0,0-.26.08.26.26,0,0,0-.11.21h-.47a.52.52,0,0,1,.12-.33.67.67,0,0,1,.31-.23,1,1,0,0,1,.44-.09.84.84,0,0,1,.59.19.64.64,0,0,1,.23.52v.95a1.15,1.15,0,0,0,.08.46v0Zm-.53-.34a.5.5,0,0,0,.27-.07.39.39,0,0,0,.18-.18v-.4h-.25a.72.72,0,0,0-.4.09.29.29,0,0,0-.13.26.28.28,0,0,0,.09.22A.36.36,0,0,0,118.47,95.5Z"/><path class="cls-5" d="M120.61,95.16l.43-1.43h.5l-.84,2.43a.69.69,0,0,1-.65.54,1,1,0,0,1-.23,0v-.37h.09a.41.41,0,0,0,.27-.07.37.37,0,0,0,.14-.22l.07-.18-.74-2.1h.51Z"/><path class="cls-5" d="M122.35,94.79v1h-.49V93H123a1.09,1.09,0,0,1,.76.25.91.91,0,0,1,0,1.31,1.18,1.18,0,0,1-.77.23Zm0-.4h.6a.6.6,0,0,0,.4-.12.49.49,0,0,0,.14-.36.5.5,0,0,0-.14-.37.53.53,0,0,0-.39-.14h-.61Z"/><path class="cls-5" d="M124.26,94.77a1.25,1.25,0,0,1,.12-.56.89.89,0,0,1,.35-.39.94.94,0,0,1,.51-.13.9.9,0,0,1,.69.28,1,1,0,0,1,.29.73v.11a1.28,1.28,0,0,1-.12.56.9.9,0,0,1-.34.38,1,1,0,0,1-.52.13.9.9,0,0,1-.71-.3,1.13,1.13,0,0,1-.27-.79Zm.47,0a.86.86,0,0,0,.14.51.43.43,0,0,0,.37.18.45.45,0,0,0,.38-.18,1,1,0,0,0,.13-.55.84.84,0,0,0-.14-.51.46.46,0,0,0-.74,0A.91.91,0,0,0,124.73,94.81Z"/><path class="cls-5" d="M127.73,94.16h-.19a.42.42,0,0,0-.44.25v1.44h-.48V93.73h.46V94a.52.52,0,0,1,.47-.28.4.4,0,0,1,.17,0Z"/><path class="cls-5" d="M128.72,93.22v.51h.37v.35h-.37v1.18a.3.3,0,0,0,.05.18.25.25,0,0,0,.17,0l.17,0v.37a1.22,1.22,0,0,1-.32,0q-.54,0-.54-.6v-1.2h-.35v-.35h.35v-.51Z"/><path class="cls-5" d="M52.49,38.55a.63.63,0,0,1,.65.64.64.64,0,0,1-.65.65.65.65,0,0,1-.66-.65.64.64,0,0,1,.66-.64Zm0,.13a.5.5,0,0,0-.5.51.5.5,0,0,0,.5.51.48.48,0,0,0,.49-.5.5.5,0,0,0-.49-.52Zm-.1.84h-.15v-.64l.25,0c.12,0,.17,0,.21.06a.14.14,0,0,1,.07.13.16.16,0,0,1-.13.15h0c.06,0,.09.07.11.16a.59.59,0,0,0,0,.15h-.16a.41.41,0,0,1,0-.15c0-.07-.05-.1-.13-.1h-.07Zm0-.36h.07c.08,0,.15,0,.15-.09s0-.1-.14-.1h-.08Z"/><polygon class="cls-5" points="47.97 36.78 50.65 39.84 51.71 39.84 49.03 36.78 47.97 36.78"/><path class="cls-5" d="M17.8,38.7h6.07v.86H16.44v-.63l6.23-8.62H16.81v-.86H24v.66Z"/><path class="cls-5" d="M29.17,35.38v4.18h-1V35.38l-3.76-5.93h1.13l3.12,5,3.25-5h1.17Z"/><path class="cls-5" d="M40.66,39.56l-5.93-8.74v8.74h-.95V29.45h.95l6,8.65s-.07-8.44-.07-8.65h1V39.56Z"/><path class="cls-5" d="M49.92,38.62a4,4,0,0,1-3,1.2c-3.35,0-4.39-3-4.39-5.21,0-3.06,1.61-5.42,4.47-5.42,3.21,0,4.27,2.95,4.27,5.2a7,7,0,0,1-.86,3.5M47,30c-2.68,0-3.42,2.67-3.42,4.56,0,1.3.42,4.42,3.38,4.42,2.1,0,3.38-1.74,3.38-4.44C50.32,33.1,49.87,30,47,30Z"/><polygon class="cls-5" points="48.97 25.6 52.42 29.56 57.47 29.56 54.03 25.6 48.97 25.6"/><polygon class="cls-5" points="54.16 33.56 57.61 29.6 62.66 29.6 59.22 33.56 54.16 33.56"/></g></g></svg>