<svg xmlns="http://www.w3.org/2000/svg" viewBox="0 0 234.75 137.77"><defs><style>.cls-1{fill:#e4ebed;stroke:#231f20;stroke-miterlimit:10;stroke-width:0.5px;}.cls-2{fill:#de1f26;}.cls-3{fill:#282d3f;}.cls-4{fill:#6a6b6d;}.cls-5{fill:#fff;}</style></defs><title>Asset 1</title><g id="Layer_2" data-name="Layer 2"><g id="Layer_1-2" data-name="Layer 1"><rect class="cls-1" x="0.25" y="13.06" width="234.25" height="124.47"/><rect class="cls-2" x="7.47" y="20.53" width="219.8" height="109.78"/><rect class="cls-3" x="16.44" y="28.05" width="134.7" height="78.38"/><rect class="cls-4" x="158.18" y="28.05" width="61.31" height="13.93"/><rect class="cls-4" x="158.18" y="77.65" width="61.31" height="12.5"/><rect class="cls-4" x="21.34" y="84.65" width="40.68" height="16.93"/><rect class="cls-4" x="16.44" y="110.23" width="63.88" height="12.5"/><rect class="cls-4" x="87.31" y="110.23" width="63.88" height="12.5"/><rect class="cls-4" x="158.18" y="61.35" width="61.31" height="12.5"/><rect class="cls-4" x="158.18" y="45.06" width="61.31" height="12.5"/><path class="cls-4" d="M4,4.61H1.78l-.45,1.3h-1L2.44.31h.87l2.12,5.6h-1Zm-1.9-.79H3.68L2.87,1.5Z"/><path class="cls-4" d="M9.43,3.87A2.47,2.47,0,0,1,9,5.41,1.41,1.41,0,0,1,7.82,6a1.42,1.42,0,0,1-1.1-.45v2H5.79V1.75h.86l0,.42a1.38,1.38,0,0,1,1.12-.5A1.41,1.41,0,0,1,9,2.24a2.53,2.53,0,0,1,.43,1.57ZM8.5,3.79a1.79,1.79,0,0,0-.24-1,.83.83,0,0,0-.71-.36.86.86,0,0,0-.83.47V4.76a.87.87,0,0,0,.83.48.81.81,0,0,0,.7-.36A1.89,1.89,0,0,0,8.5,3.79Z"/><path class="cls-4" d="M13.87,3.87a2.41,2.41,0,0,1-.44,1.54A1.38,1.38,0,0,1,12.26,6a1.41,1.41,0,0,1-1.1-.45v2h-.94V1.75h.87l0,.42a1.39,1.39,0,0,1,1.12-.5,1.43,1.43,0,0,1,1.2.57,2.53,2.53,0,0,1,.43,1.57Zm-.93-.08a1.71,1.71,0,0,0-.25-1A.8.8,0,0,0,12,2.44a.85.85,0,0,0-.82.47V4.76a.87.87,0,0,0,.83.48.81.81,0,0,0,.7-.36A1.89,1.89,0,0,0,12.94,3.79Z"/><path class="cls-4" d="M15.66,5.91h-.94V0h.94Z"/><path class="cls-4" d="M16.68.67a.48.48,0,0,1,.13-.36A.49.49,0,0,1,17.2.17a.53.53,0,0,1,.4.14.49.49,0,0,1,.14.36A.5.5,0,0,1,17.6,1a.57.57,0,0,1-.4.14A.53.53,0,0,1,16.81,1,.49.49,0,0,1,16.68.67Zm1,5.24h-.94V1.75h.94Z"/><path class="cls-4" d="M20.4,5.24A.87.87,0,0,0,21,5a.74.74,0,0,0,.25-.51h.88a1.34,1.34,0,0,1-.25.73,1.58,1.58,0,0,1-.61.53,1.86,1.86,0,0,1-.84.2A1.79,1.79,0,0,1,19,5.42a2.26,2.26,0,0,1-.51-1.56v-.1A2.2,2.2,0,0,1,19,2.24a1.77,1.77,0,0,1,1.39-.57,1.72,1.72,0,0,1,1.21.43,1.58,1.58,0,0,1,.49,1.14h-.88A.88.88,0,0,0,21,2.65a.8.8,0,0,0-.58-.23.82.82,0,0,0-.7.33,1.62,1.62,0,0,0-.25,1V3.9a1.73,1.73,0,0,0,.24,1A.84.84,0,0,0,20.4,5.24Z"/><path class="cls-4" d="M25.3,5.91a1.45,1.45,0,0,1-.11-.39,1.56,1.56,0,0,1-2.11.11,1.12,1.12,0,0,1-.4-.88,1.21,1.21,0,0,1,.49-1,2.48,2.48,0,0,1,1.42-.35h.57V3.09A.72.72,0,0,0,25,2.58a.71.71,0,0,0-.55-.2.85.85,0,0,0-.52.16A.49.49,0,0,0,23.7,3h-.93A1,1,0,0,1,23,2.31a1.45,1.45,0,0,1,.61-.47,2.21,2.21,0,0,1,.87-.17A1.73,1.73,0,0,1,25.65,2a1.31,1.31,0,0,1,.45,1V5a2.1,2.1,0,0,0,.16.9v.06Zm-1-.67a1,1,0,0,0,.52-.14.86.86,0,0,0,.37-.36V4h-.5a1.36,1.36,0,0,0-.78.18.57.57,0,0,0-.26.51.54.54,0,0,0,.17.43A.73.73,0,0,0,24.27,5.24Z"/><path class="cls-4" d="M28.25.74v1H29v.69h-.73V4.76a.54.54,0,0,0,.09.35.46.46,0,0,0,.34.1l.33,0V5.9a2.32,2.32,0,0,1-.62.09c-.72,0-1.08-.4-1.08-1.19V2.44h-.68V1.75h.68v-1Z"/><path class="cls-4" d="M29.7.67a.45.45,0,0,1,.14-.36.61.61,0,0,1,.78,0,.49.49,0,0,1,.14.36.5.5,0,0,1-.14.35.61.61,0,0,1-.78,0A.46.46,0,0,1,29.7.67Zm1,5.24h-.93V1.75h.93Z"/><path class="cls-4" d="M31.53,3.79a2.47,2.47,0,0,1,.25-1.1,1.8,1.8,0,0,1,.68-.76,2,2,0,0,1,1-.26,1.81,1.81,0,0,1,1.36.54,2.14,2.14,0,0,1,.57,1.44v.22A2.44,2.44,0,0,1,35.17,5a1.76,1.76,0,0,1-.68.75,1.89,1.89,0,0,1-1,.27,1.83,1.83,0,0,1-1.41-.59,2.25,2.25,0,0,1-.53-1.56Zm.94.08a1.66,1.66,0,0,0,.27,1,.92.92,0,0,0,1.47,0,1.79,1.79,0,0,0,.26-1.08,1.67,1.67,0,0,0-.27-1,.85.85,0,0,0-.73-.37.86.86,0,0,0-.73.36A1.85,1.85,0,0,0,32.47,3.87Z"/><path class="cls-4" d="M37.06,1.75l0,.48a1.5,1.5,0,0,1,1.21-.56c.87,0,1.31.5,1.33,1.49V5.91h-.94V3.21a.81.81,0,0,0-.17-.58A.7.7,0,0,0,38,2.44a.89.89,0,0,0-.84.51v3h-.94V1.75Z"/><path class="cls-4" d="M43.61,3.83V5.91h-1V.31h2.15A2.16,2.16,0,0,1,46.27.8a1.62,1.62,0,0,1,.55,1.29,1.61,1.61,0,0,1-.54,1.29,2.32,2.32,0,0,1-1.52.45Zm0-.78h1.17a1.12,1.12,0,0,0,.79-.25.88.88,0,0,0,.27-.7,1,1,0,0,0-.27-.73,1.11,1.11,0,0,0-.77-.28H43.61Z"/><path class="cls-4" d="M49.76,2.6a2.34,2.34,0,0,0-.38,0,.87.87,0,0,0-.87.49V5.91h-.93V1.75h.89l0,.46a1.06,1.06,0,0,1,.94-.54,1,1,0,0,1,.33.05Z"/><path class="cls-4" d="M50,3.79a2.47,2.47,0,0,1,.24-1.1A1.8,1.8,0,0,1,51,1.93a2,2,0,0,1,1-.26,1.83,1.83,0,0,1,1.37.54,2.13,2.13,0,0,1,.56,1.44v.22A2.44,2.44,0,0,1,53.67,5a1.76,1.76,0,0,1-.68.75A1.88,1.88,0,0,1,52,6a1.8,1.8,0,0,1-1.41-.59A2.2,2.2,0,0,1,50,3.84Zm.93.08a1.66,1.66,0,0,0,.27,1,.85.85,0,0,0,.74.36.83.83,0,0,0,.73-.37A1.79,1.79,0,0,0,53,3.79a1.6,1.6,0,0,0-.28-1A.85.85,0,0,0,52,2.42a.86.86,0,0,0-.73.36A1.85,1.85,0,0,0,51,3.87Z"/><path class="cls-4" d="M56.41,5.24A.87.87,0,0,0,57,5a.74.74,0,0,0,.25-.51h.88a1.34,1.34,0,0,1-.25.73,1.58,1.58,0,0,1-.61.53,1.86,1.86,0,0,1-.84.2A1.79,1.79,0,0,1,55,5.42a2.26,2.26,0,0,1-.51-1.56v-.1A2.2,2.2,0,0,1,55,2.24a1.77,1.77,0,0,1,1.39-.57,1.72,1.72,0,0,1,1.21.43,1.58,1.58,0,0,1,.49,1.14h-.88A.88.88,0,0,0,57,2.65a.8.8,0,0,0-.58-.23.82.82,0,0,0-.7.33,1.62,1.62,0,0,0-.25,1V3.9a1.73,1.73,0,0,0,.24,1A.84.84,0,0,0,56.41,5.24Z"/><path class="cls-4" d="M60.66,6a1.92,1.92,0,0,1-1.44-.56,2,2,0,0,1-.56-1.49V3.82a2.48,2.48,0,0,1,.24-1.11,1.89,1.89,0,0,1,.68-.77,1.79,1.79,0,0,1,1-.27,1.63,1.63,0,0,1,1.31.54,2.3,2.3,0,0,1,.47,1.54v.37H59.61a1.21,1.21,0,0,0,.34.82,1,1,0,0,0,.76.3,1.26,1.26,0,0,0,1-.52l.5.48a1.72,1.72,0,0,1-.67.58A2,2,0,0,1,60.66,6Zm-.11-3.57a.8.8,0,0,0-.63.27,1.52,1.52,0,0,0-.3.75H61.4V3.37a1.12,1.12,0,0,0-.25-.71A.77.77,0,0,0,60.55,2.42Z"/><path class="cls-4" d="M65.39,4.78a.42.42,0,0,0-.21-.38,2,2,0,0,0-.68-.23,3.27,3.27,0,0,1-.8-.26,1,1,0,0,1-.7-1,1.11,1.11,0,0,1,.45-.9,1.83,1.83,0,0,1,1.16-.36A1.86,1.86,0,0,1,65.82,2a1.2,1.2,0,0,1,.46,1h-.94a.59.59,0,0,0-.2-.45.76.76,0,0,0-.53-.18.85.85,0,0,0-.5.14.47.47,0,0,0-.2.38.38.38,0,0,0,.18.34,2.51,2.51,0,0,0,.73.24,3.51,3.51,0,0,1,.87.29,1.14,1.14,0,0,1,.46.4,1,1,0,0,1,.16.57,1.09,1.09,0,0,1-.47.91A2,2,0,0,1,64.62,6a2.06,2.06,0,0,1-.91-.19,1.46,1.46,0,0,1-.63-.51,1.23,1.23,0,0,1-.22-.69h.91a.66.66,0,0,0,.25.51,1,1,0,0,0,.61.18.94.94,0,0,0,.56-.14A.45.45,0,0,0,65.39,4.78Z"/><path class="cls-4" d="M69.45,4.78a.43.43,0,0,0-.2-.38,2,2,0,0,0-.69-.23,3.32,3.32,0,0,1-.79-.26,1,1,0,0,1-.7-1,1.11,1.11,0,0,1,.45-.9,1.81,1.81,0,0,1,1.16-.36,1.83,1.83,0,0,1,1.2.37,1.17,1.17,0,0,1,.46,1h-.93a.59.59,0,0,0-.2-.45.77.77,0,0,0-.53-.18.88.88,0,0,0-.51.14.46.46,0,0,0-.19.38.38.38,0,0,0,.18.34,2.51,2.51,0,0,0,.73.24,3.51,3.51,0,0,1,.87.29,1.21,1.21,0,0,1,.46.4,1.05,1.05,0,0,1,.15.57,1.08,1.08,0,0,1-.46.91A2,2,0,0,1,68.69,6a2,2,0,0,1-.91-.19,1.46,1.46,0,0,1-.63-.51,1.16,1.16,0,0,1-.22-.69h.91a.63.63,0,0,0,.25.51,1.15,1.15,0,0,0,1.17,0A.44.44,0,0,0,69.45,4.78Z"/><path class="cls-4" d="M71,3.79a2.47,2.47,0,0,1,.24-1.1,1.82,1.82,0,0,1,.69-.76,1.93,1.93,0,0,1,1-.26,1.82,1.82,0,0,1,1.37.54,2.14,2.14,0,0,1,.57,1.44v.22A2.57,2.57,0,0,1,74.65,5a1.83,1.83,0,0,1-.68.75A1.89,1.89,0,0,1,73,6a1.8,1.8,0,0,1-1.41-.59A2.25,2.25,0,0,1,71,3.84Zm.94.08a1.73,1.73,0,0,0,.26,1,.88.88,0,0,0,.74.36.85.85,0,0,0,.74-.37A1.87,1.87,0,0,0,74,3.79a1.67,1.67,0,0,0-.27-1,.91.91,0,0,0-1.46,0A1.85,1.85,0,0,0,72,3.87Z"/><path class="cls-4" d="M77.85,2.6a2.34,2.34,0,0,0-.38,0,.86.86,0,0,0-.86.49V5.91h-.94V1.75h.9l0,.46a1.09,1.09,0,0,1,1.27-.49Z"/><path class="cls-5" d="M55.62,74h.43a.76.76,0,0,0,.52-.17.6.6,0,0,0,.2-.48.71.71,0,0,0-.16-.48.66.66,0,0,0-.49-.16.67.67,0,0,0-.47.16.53.53,0,0,0-.19.43h-.71a1.07,1.07,0,0,1,.17-.59,1.21,1.21,0,0,1,.49-.43,1.6,1.6,0,0,1,.7-.15,1.46,1.46,0,0,1,1,.32,1.13,1.13,0,0,1,.37.9.87.87,0,0,1-.19.54,1.17,1.17,0,0,1-.47.38,1.09,1.09,0,0,1,.54.38,1,1,0,0,1,.18.61,1.16,1.16,0,0,1-.39.92,1.59,1.59,0,0,1-1,.34,1.52,1.52,0,0,1-1-.33,1.08,1.08,0,0,1-.39-.87h.71a.57.57,0,0,0,.19.45.72.72,0,0,0,.51.18.73.73,0,0,0,.52-.18.63.63,0,0,0,.19-.51.7.7,0,0,0-.2-.52.85.85,0,0,0-.59-.18h-.42Z"/><path class="cls-5" d="M61.07,76.42H58.21v-.49l1.42-1.55a4.45,4.45,0,0,0,.44-.57,1,1,0,0,0,.13-.47.73.73,0,0,0-.17-.49.63.63,0,0,0-.47-.18.68.68,0,0,0-.53.21.8.8,0,0,0-.19.57h-.71a1.37,1.37,0,0,1,.17-.7,1.18,1.18,0,0,1,.51-.48,1.55,1.55,0,0,1,.76-.18,1.44,1.44,0,0,1,1,.32,1.06,1.06,0,0,1,.36.86,1.5,1.5,0,0,1-.18.67,3.82,3.82,0,0,1-.59.79l-1,1.12h2Z"/><path class="cls-5" d="M63,74.89H61.51v-.57H63Z"/><path class="cls-5" d="M66.41,74.87A1.89,1.89,0,0,1,66.08,76a1.14,1.14,0,0,1-1.77,0l0,.34h-.64v-4.5h.71v1.63a1,1,0,0,1,.83-.36,1.07,1.07,0,0,1,.91.43,1.94,1.94,0,0,1,.33,1.2Zm-.71-.07a1.35,1.35,0,0,0-.18-.77.61.61,0,0,0-.53-.26.67.67,0,0,0-.65.41v1.3a.68.68,0,0,0,.66.42.61.61,0,0,0,.51-.25,1.23,1.23,0,0,0,.19-.76Z"/><path class="cls-5" d="M67,72.42a.39.39,0,0,1,.11-.27.37.37,0,0,1,.29-.11.41.41,0,0,1,.3.11.39.39,0,0,1,.11.27.37.37,0,0,1-.11.27.41.41,0,0,1-.3.11.38.38,0,0,1-.4-.38Zm.76,4h-.71V73.25h.71Z"/><path class="cls-5" d="M69.43,72.48v.77H70v.53h-.56v1.76a.4.4,0,0,0,.08.27.32.32,0,0,0,.25.08,1.07,1.07,0,0,0,.25,0v.55a2,2,0,0,1-.47.07c-.55,0-.82-.31-.82-.91V73.78H68.2v-.53h.52v-.77Z"/><path class="cls-5" d="M72.84,74.84v1.58H72.1V72.15h1.63a1.7,1.7,0,0,1,1.14.37,1.26,1.26,0,0,1,.42,1,1.24,1.24,0,0,1-.41,1,1.76,1.76,0,0,1-1.16.35Zm0-.6h.89a.83.83,0,0,0,.6-.19.67.67,0,0,0,.21-.54.74.74,0,0,0-.21-.55.78.78,0,0,0-.58-.21h-.91Z"/><path class="cls-5" d="M77.53,73.9a1.46,1.46,0,0,0-.29,0,.64.64,0,0,0-.66.37v2.17h-.72V73.25h.68l0,.35a.81.81,0,0,1,.72-.41.62.62,0,0,1,.25,0Z"/><path class="cls-5" d="M77.74,74.8a1.92,1.92,0,0,1,.18-.84,1.31,1.31,0,0,1,.52-.57,1.5,1.5,0,0,1,.77-.2,1.4,1.4,0,0,1,1,.41,1.61,1.61,0,0,1,.43,1.1v.17a1.84,1.84,0,0,1-.18.83,1.29,1.29,0,0,1-.51.57,1.45,1.45,0,0,1-.78.21A1.37,1.37,0,0,1,78.14,76a1.71,1.71,0,0,1-.4-1.19Zm.71.07a1.29,1.29,0,0,0,.2.76.65.65,0,0,0,.56.28.66.66,0,0,0,.56-.28A1.37,1.37,0,0,0,80,74.8a1.25,1.25,0,0,0-.21-.76.7.7,0,0,0-1.12,0A1.43,1.43,0,0,0,78.45,74.87Z"/><path class="cls-5" d="M82.59,75.91a.61.61,0,0,0,.44-.16.52.52,0,0,0,.19-.38h.67a1,1,0,0,1-.19.55,1.22,1.22,0,0,1-.46.41,1.43,1.43,0,0,1-.64.15,1.38,1.38,0,0,1-1.06-.43,1.72,1.72,0,0,1-.39-1.19v-.08a1.68,1.68,0,0,1,.39-1.16,1.34,1.34,0,0,1,1-.43,1.32,1.32,0,0,1,.93.33,1.2,1.2,0,0,1,.37.86h-.67a.62.62,0,0,0-.19-.44.57.57,0,0,0-.44-.18.61.61,0,0,0-.53.25,1.3,1.3,0,0,0-.2.76v.12a1.28,1.28,0,0,0,.19.76A.62.62,0,0,0,82.59,75.91Z"/><path class="cls-5" d="M85.82,76.48a1.48,1.48,0,0,1-1.09-.43,1.53,1.53,0,0,1-.42-1.13v-.09a1.93,1.93,0,0,1,.18-.85A1.37,1.37,0,0,1,85,73.4a1.36,1.36,0,0,1,.74-.21,1.25,1.25,0,0,1,1,.41,1.74,1.74,0,0,1,.35,1.17v.29H85a1,1,0,0,0,.26.62.82.82,0,0,0,.58.23,1,1,0,0,0,.8-.4l.38.37a1.26,1.26,0,0,1-.5.44A1.69,1.69,0,0,1,85.82,76.48Zm-.08-2.72a.6.6,0,0,0-.48.21,1.07,1.07,0,0,0-.23.57h1.36v-.06a.88.88,0,0,0-.19-.54A.6.6,0,0,0,85.74,73.76Z"/><path class="cls-5" d="M89.42,75.56a.32.32,0,0,0-.15-.29,1.61,1.61,0,0,0-.52-.18,2.45,2.45,0,0,1-.61-.19.8.8,0,0,1-.53-.75.86.86,0,0,1,.34-.69,1.61,1.61,0,0,1,1.8,0,.9.9,0,0,1,.35.73h-.71a.43.43,0,0,0-.15-.34.62.62,0,0,0-.41-.14.63.63,0,0,0-.38.11.34.34,0,0,0-.15.29.3.3,0,0,0,.14.26,1.91,1.91,0,0,0,.55.18,2.41,2.41,0,0,1,.66.22,1,1,0,0,1,.36.3.87.87,0,0,1,.11.44.84.84,0,0,1-.35.69,1.51,1.51,0,0,1-.93.27,1.67,1.67,0,0,1-.69-.14,1.18,1.18,0,0,1-.48-.39.93.93,0,0,1-.17-.53h.69a.52.52,0,0,0,.19.39.77.77,0,0,0,.47.13.74.74,0,0,0,.43-.1A.37.37,0,0,0,89.42,75.56Z"/><path class="cls-5" d="M92.52,75.56a.31.31,0,0,0-.16-.29,1.53,1.53,0,0,0-.52-.18,2.5,2.5,0,0,1-.6-.19.81.81,0,0,1-.54-.75.87.87,0,0,1,.35-.69,1.38,1.38,0,0,1,.88-.27,1.42,1.42,0,0,1,.92.28.9.9,0,0,1,.35.73h-.71a.44.44,0,0,0-.16-.34.57.57,0,0,0-.4-.14.61.61,0,0,0-.38.11.34.34,0,0,0-.15.29.28.28,0,0,0,.14.26,1.8,1.8,0,0,0,.55.18,2.41,2.41,0,0,1,.66.22.88.88,0,0,1,.35.3.78.78,0,0,1,.12.44.84.84,0,0,1-.35.69,1.51,1.51,0,0,1-.93.27,1.75,1.75,0,0,1-.7-.14,1.22,1.22,0,0,1-.47-.39.93.93,0,0,1-.17-.53h.69a.49.49,0,0,0,.19.39.75.75,0,0,0,.47.13.71.71,0,0,0,.42-.1A.35.35,0,0,0,92.52,75.56Z"/><path class="cls-5" d="M93.71,74.8a1.92,1.92,0,0,1,.18-.84,1.31,1.31,0,0,1,.52-.57,1.5,1.5,0,0,1,.77-.2,1.42,1.42,0,0,1,1,.41,1.61,1.61,0,0,1,.43,1.1v.17a1.84,1.84,0,0,1-.18.83,1.29,1.29,0,0,1-.51.57,1.45,1.45,0,0,1-.78.21A1.37,1.37,0,0,1,94.11,76a1.71,1.71,0,0,1-.4-1.19Zm.71.07a1.29,1.29,0,0,0,.2.76.64.64,0,0,0,.56.28.66.66,0,0,0,.56-.28,1.38,1.38,0,0,0,.2-.83,1.24,1.24,0,0,0-.2-.76.66.66,0,0,0-.56-.28.65.65,0,0,0-.56.28A1.43,1.43,0,0,0,94.42,74.87Z"/><path class="cls-5" d="M98.91,73.9a1.27,1.27,0,0,0-.28,0,.64.64,0,0,0-.66.37v2.17h-.72V73.25h.68l0,.35a.81.81,0,0,1,.72-.41.62.62,0,0,1,.25,0Z"/><path class="cls-5" d="M104.18,75a1.53,1.53,0,0,1-.5,1.06,1.69,1.69,0,0,1-1.17.39,1.62,1.62,0,0,1-1.5-.93,2.57,2.57,0,0,1-.22-1v-.39a2.41,2.41,0,0,1,.22-1.07,1.63,1.63,0,0,1,.61-.71,1.8,1.8,0,0,1,.93-.25,1.6,1.6,0,0,1,1.13.39,1.53,1.53,0,0,1,.5,1.08h-.74a1.07,1.07,0,0,0-.26-.67.93.93,0,0,0-.63-.2.89.89,0,0,0-.75.35,1.79,1.79,0,0,0-.26,1v.38a1.9,1.9,0,0,0,.24,1.05.82.82,0,0,0,.73.37,1,1,0,0,0,.66-.2,1,1,0,0,0,.27-.65Z"/><path class="cls-5" d="M104.64,74.8a1.79,1.79,0,0,1,.19-.84,1.25,1.25,0,0,1,.52-.57,1.46,1.46,0,0,1,.76-.2,1.42,1.42,0,0,1,1,.41,1.66,1.66,0,0,1,.43,1.1v.17a1.84,1.84,0,0,1-.18.83,1.25,1.25,0,0,1-.52.57,1.41,1.41,0,0,1-.77.21,1.35,1.35,0,0,1-1.07-.45,1.72,1.72,0,0,1-.41-1.19Zm.71.07a1.23,1.23,0,0,0,.21.76.64.64,0,0,0,.56.28.66.66,0,0,0,.56-.28,1.45,1.45,0,0,0,.2-.83,1.25,1.25,0,0,0-.21-.76.69.69,0,0,0-1.11,0A1.35,1.35,0,0,0,105.35,74.87Z"/><path class="cls-5" d="M109.85,73.9a1.37,1.37,0,0,0-.29,0,.66.66,0,0,0-.66.37v2.17h-.71V73.25h.68l0,.35a.81.81,0,0,1,.71-.41.6.6,0,0,1,.25,0Z"/><path class="cls-5" d="M111.64,76.48a1.5,1.5,0,0,1-1.1-.43,1.53,1.53,0,0,1-.42-1.13v-.09a1.93,1.93,0,0,1,.19-.85,1.37,1.37,0,0,1,.51-.58,1.36,1.36,0,0,1,.74-.21,1.27,1.27,0,0,1,1,.41,1.74,1.74,0,0,1,.35,1.17v.29h-2.07a1,1,0,0,0,.26.62.82.82,0,0,0,.58.23,1,1,0,0,0,.8-.4l.38.37a1.26,1.26,0,0,1-.5.44A1.69,1.69,0,0,1,111.64,76.48Zm-.08-2.72a.6.6,0,0,0-.48.21,1.07,1.07,0,0,0-.23.57h1.36v-.06a.94.94,0,0,0-.19-.54A.6.6,0,0,0,111.56,73.76Z"/><path class="cls-5" d="M55.28,48.42h-1l-.23.62h-.32l.9-2.36h.27L55.83,49h-.32Zm-.89-.25h.8l-.4-1.11Z"/><path class="cls-5" d="M57.58,48.18a1,1,0,0,1-.19.64.56.56,0,0,1-.49.25.65.65,0,0,1-.5-.2v.84h-.3V47.29h.27l0,.19a.61.61,0,0,1,.5-.23.59.59,0,0,1,.5.24,1.08,1.08,0,0,1,.19.66Zm-.3,0a.8.8,0,0,0-.13-.47.39.39,0,0,0-.35-.17.43.43,0,0,0-.4.24v.84a.44.44,0,0,0,.41.23.4.4,0,0,0,.34-.17A.85.85,0,0,0,57.28,48.15Z"/><path class="cls-5" d="M59.44,48.18a1,1,0,0,1-.19.64.56.56,0,0,1-.49.25.64.64,0,0,1-.5-.2v.84H58V47.29h.27v.19a.65.65,0,0,1,.51-.23.59.59,0,0,1,.5.24,1.08,1.08,0,0,1,.19.66Zm-.3,0a.8.8,0,0,0-.13-.47.39.39,0,0,0-.35-.17.43.43,0,0,0-.4.24v.84a.43.43,0,0,0,.41.23.4.4,0,0,0,.34-.17A.85.85,0,0,0,59.14,48.15Z"/><path class="cls-5" d="M60.14,49h-.3V46.55h.3Z"/><path class="cls-5" d="M60.62,46.82a.17.17,0,0,1,.05-.12.19.19,0,0,1,.26,0,.17.17,0,0,1,0,.24.19.19,0,0,1-.26,0A.17.17,0,0,1,60.62,46.82ZM61,49h-.3V47.29H61Z"/><path class="cls-5" d="M62.13,48.82a.45.45,0,0,0,.28-.09.36.36,0,0,0,.13-.25h.28a.51.51,0,0,1-.1.29.76.76,0,0,1-.25.22.81.81,0,0,1-.34.08.72.72,0,0,1-.57-.24,1,1,0,0,1-.21-.65v0a1.11,1.11,0,0,1,.09-.46.74.74,0,0,1,.27-.31.82.82,0,0,1,.42-.11.71.71,0,0,1,.49.18.6.6,0,0,1,.2.46h-.28a.39.39,0,0,0-.13-.28.41.41,0,0,0-.28-.11.42.42,0,0,0-.36.16.81.81,0,0,0-.12.48v.06a.76.76,0,0,0,.12.46A.42.42,0,0,0,62.13,48.82Z"/><path class="cls-5" d="M64.24,49a1.18,1.18,0,0,1,0-.19.66.66,0,0,1-.5.22.6.6,0,0,1-.42-.15.48.48,0,0,1-.17-.37.49.49,0,0,1,.21-.42A1,1,0,0,1,63.9,48h.3v-.13a.34.34,0,0,0-.1-.25.38.38,0,0,0-.28-.1.45.45,0,0,0-.26.08.23.23,0,0,0-.11.2h-.3a.4.4,0,0,1,.09-.25.71.71,0,0,1,.25-.2,1,1,0,0,1,.35-.07.73.73,0,0,1,.48.15.54.54,0,0,1,.17.42v.81a.81.81,0,0,0,.07.38v0Zm-.49-.23a.59.59,0,0,0,.26-.07.49.49,0,0,0,.19-.19v-.36H64c-.37,0-.55.1-.55.32a.28.28,0,0,0,.09.22A.41.41,0,0,0,63.75,48.81Z"/><path class="cls-5" d="M65.37,46.86v.43h.33v.23h-.33V48.6a.24.24,0,0,0,0,.16.17.17,0,0,0,.15.05h.15V49l-.23,0a.39.39,0,0,1-.31-.12.52.52,0,0,1-.1-.35V47.52h-.32v-.23h.32v-.43Z"/><path class="cls-5" d="M66.05,46.82a.16.16,0,0,1,0-.12.16.16,0,0,1,.14-.05.15.15,0,0,1,.13.05.2.2,0,0,1,0,.24.19.19,0,0,1-.13.05.2.2,0,0,1-.14-.05A.16.16,0,0,1,66.05,46.82ZM66.37,49h-.3V47.29h.3Z"/><path class="cls-5" d="M66.77,48.14a1,1,0,0,1,.1-.46.8.8,0,0,1,.28-.32.82.82,0,0,1,.42-.11.74.74,0,0,1,.57.25,1,1,0,0,1,.23.66v0a1.15,1.15,0,0,1-.1.46A.87.87,0,0,1,68,49a.82.82,0,0,1-.42.11.73.73,0,0,1-.58-.25,1,1,0,0,1-.22-.65Zm.3,0a.77.77,0,0,0,.14.47.47.47,0,0,0,.72,0,.84.84,0,0,0,.14-.51.74.74,0,0,0-.14-.46.45.45,0,0,0-.72,0A.78.78,0,0,0,67.07,48.18Z"/><path class="cls-5" d="M69,47.29v.22a.65.65,0,0,1,.53-.26c.37,0,.56.21.56.63V49h-.3V47.88a.38.38,0,0,0-.09-.28.33.33,0,0,0-.26-.09.46.46,0,0,0-.26.07.58.58,0,0,0-.17.21V49h-.3V47.29Z"/><path class="cls-5" d="M71.75,48.11V49h-.31V46.68h.87a.85.85,0,0,1,.6.2.65.65,0,0,1,.22.52.66.66,0,0,1-.21.53.94.94,0,0,1-.62.18Zm0-.25h.56a.56.56,0,0,0,.38-.12.42.42,0,0,0,.13-.34.42.42,0,0,0-.13-.33.53.53,0,0,0-.36-.14h-.58Z"/><path class="cls-5" d="M74.33,47.55h-.15a.41.41,0,0,0-.4.25V49h-.3V47.29h.29v.2a.47.47,0,0,1,.42-.24.23.23,0,0,1,.13,0Z"/><path class="cls-5" d="M75.3,49.07a.78.78,0,0,1-.58-.23.88.88,0,0,1-.22-.63v-.06a1,1,0,0,1,.1-.46.73.73,0,0,1,.28-.32.66.66,0,0,1,.38-.12.65.65,0,0,1,.53.23.94.94,0,0,1,.19.64v.13H74.8a.6.6,0,0,0,.15.42.5.5,0,0,0,.37.15.6.6,0,0,0,.27-.06.75.75,0,0,0,.19-.17l.18.14A.73.73,0,0,1,75.3,49.07Zm0-1.57a.38.38,0,0,0-.3.13.66.66,0,0,0-.15.37h.87v0a.52.52,0,0,0-.12-.36A.38.38,0,0,0,75.26,47.5Z"/><path class="cls-5" d="M77.35,48.57a.23.23,0,0,0-.09-.19,1,1,0,0,0-.32-.11,1.26,1.26,0,0,1-.36-.12.47.47,0,0,1-.2-.16.4.4,0,0,1-.06-.22.46.46,0,0,1,.18-.37.71.71,0,0,1,.46-.15.72.72,0,0,1,.49.16.48.48,0,0,1,.18.39h-.3a.26.26,0,0,0-.1-.21A.4.4,0,0,0,77,47.5a.39.39,0,0,0-.25.07.23.23,0,0,0-.09.19.17.17,0,0,0,.08.16A.93.93,0,0,0,77,48l.37.12a.58.58,0,0,1,.2.17.4.4,0,0,1,.07.24.45.45,0,0,1-.19.38.81.81,0,0,1-.49.14A.87.87,0,0,1,76.6,49a.56.56,0,0,1-.25-.2.52.52,0,0,1-.09-.29h.3a.29.29,0,0,0,.12.24.43.43,0,0,0,.29.08.55.55,0,0,0,.28-.06A.24.24,0,0,0,77.35,48.57Z"/><path class="cls-5" d="M78.77,49.07a.78.78,0,0,1-.58-.23.89.89,0,0,1-.23-.63v-.06a1.15,1.15,0,0,1,.1-.46.8.8,0,0,1,.28-.32.69.69,0,0,1,.39-.12.66.66,0,0,1,.53.23.94.94,0,0,1,.19.64v.13H78.26a.71.71,0,0,0,.15.42.5.5,0,0,0,.37.15.54.54,0,0,0,.27-.06.61.61,0,0,0,.19-.17l.19.14A.73.73,0,0,1,78.77,49.07Zm0-1.57a.38.38,0,0,0-.3.13.6.6,0,0,0-.16.37h.88v0a.64.64,0,0,0-.12-.36A.41.41,0,0,0,78.73,47.5Z"/><path class="cls-5" d="M80.2,46.86v.43h.33v.23H80.2V48.6a.23.23,0,0,0,0,.16s.07.05.15.05h.14V49l-.23,0A.39.39,0,0,1,80,49a.58.58,0,0,1-.1-.35V47.52h-.32v-.23h.32v-.43Z"/><path class="cls-5" d="M81.32,44.09h-.2v.56H81v-.56h-.2V44h.48Z"/><path class="cls-5" d="M81.52,44l.2.5.2-.5H82v.62H82v-.51l-.21.51h-.06l-.2-.5v.5h-.08V44Z"/><rect class="cls-4" x="158.18" y="93.94" width="61.31" height="12.5"/><rect class="cls-4" x="158.18" y="110.23" width="61.31" height="12.5"/><path class="cls-5" d="M32.15,92.61h-.49V89.77h.49Z"/><path class="cls-5" d="M33.15,90.5v.25a.77.77,0,0,1,.62-.29c.44,0,.66.25.67.76v1.39H34V91.25a.41.41,0,0,0-.09-.3.35.35,0,0,0-.29-.1.45.45,0,0,0-.42.26v1.5H32.7V90.5Z"/><path class="cls-5" d="M36.12,92a.21.21,0,0,0-.11-.19.87.87,0,0,0-.34-.12,1.65,1.65,0,0,1-.41-.13.54.54,0,0,1-.35-.5.53.53,0,0,1,.23-.45.86.86,0,0,1,.58-.19.94.94,0,0,1,.62.19.61.61,0,0,1,.23.49h-.48a.28.28,0,0,0-.1-.23.4.4,0,0,0-.27-.09.39.39,0,0,0-.25.07.22.22,0,0,0-.1.19.19.19,0,0,0,.09.17,1.61,1.61,0,0,0,.37.13,1.63,1.63,0,0,1,.44.14.63.63,0,0,1,.24.21.51.51,0,0,1,.07.28.54.54,0,0,1-.23.47,1.08,1.08,0,0,1-.62.17,1.11,1.11,0,0,1-.46-.09A.75.75,0,0,1,35,92.3a.56.56,0,0,1-.11-.35h.46a.34.34,0,0,0,.12.26.53.53,0,0,0,.32.09.55.55,0,0,0,.28-.07A.24.24,0,0,0,36.12,92Z"/><path class="cls-5" d="M37.59,90v.51H38v.35h-.38V92a.3.3,0,0,0,0,.18.25.25,0,0,0,.17.05l.17,0v.37a1.22,1.22,0,0,1-.32,0q-.54,0-.54-.6v-1.2h-.35V90.5h.35V90Z"/><path class="cls-5" d="M39.43,90.93h-.19a.43.43,0,0,0-.44.25v1.44h-.47V90.5h.45v.24a.54.54,0,0,1,.48-.28.43.43,0,0,1,.17,0Z"/><path class="cls-5" d="M41,92.41a.73.73,0,0,1-.59.24.64.64,0,0,1-.52-.2.84.84,0,0,1-.18-.58V90.5h.48v1.36c0,.27.11.41.33.41A.48.48,0,0,0,41,92V90.5h.47v2.11H41Z"/><path class="cls-5" d="M42.82,92.27a.44.44,0,0,0,.3-.1.32.32,0,0,0,.12-.25h.45a.6.6,0,0,1-.12.36.74.74,0,0,1-.31.27.94.94,0,0,1-.43.1.88.88,0,0,1-.7-.28,1.14,1.14,0,0,1-.26-.8v0a1.09,1.09,0,0,1,.26-.77,1,1,0,0,1,1.31-.07.8.8,0,0,1,.25.58h-.45a.41.41,0,0,0-.42-.42.41.41,0,0,0-.35.17.87.87,0,0,0-.13.51v.07a.85.85,0,0,0,.13.52A.41.41,0,0,0,42.82,92.27Z"/><path class="cls-5" d="M44.65,90v.51H45v.35h-.37V92a.3.3,0,0,0,0,.18.25.25,0,0,0,.17.05l.17,0v.37a1.15,1.15,0,0,1-.31,0c-.37,0-.55-.2-.55-.6v-1.2h-.35V90.5h.35V90Z"/><path class="cls-5" d="M45.38,90a.24.24,0,0,1,.07-.18.32.32,0,0,1,.4,0,.27.27,0,0,1,0,.36.32.32,0,0,1-.4,0A.24.24,0,0,1,45.38,90Zm.51,2.66h-.48V90.5h.48Z"/><path class="cls-5" d="M46.31,91.54a1.13,1.13,0,0,1,.13-.56.84.84,0,0,1,.34-.38,1,1,0,0,1,.51-.14.91.91,0,0,1,.7.28,1.1,1.1,0,0,1,.29.73v.11a1.28,1.28,0,0,1-.12.56.92.92,0,0,1-.35.38,1,1,0,0,1-.51.13,1,1,0,0,1-.72-.29,1.16,1.16,0,0,1-.27-.8Zm.48,0a.84.84,0,0,0,.13.51.45.45,0,0,0,.38.18.43.43,0,0,0,.37-.18,1,1,0,0,0,.14-.55.88.88,0,0,0-.14-.51.46.46,0,0,0-.38-.19.44.44,0,0,0-.37.19A.91.91,0,0,0,46.79,91.58Z"/><path class="cls-5" d="M49.12,90.5v.25a.77.77,0,0,1,.62-.29c.44,0,.66.25.67.76v1.39H50V91.25a.41.41,0,0,0-.09-.3.35.35,0,0,0-.29-.1.45.45,0,0,0-.42.26v1.5h-.48V90.5Z"/><path class="cls-5" d="M37.84,96.49a1,1,0,0,1-.34.71,1.13,1.13,0,0,1-.78.25,1.07,1.07,0,0,1-.59-.16,1,1,0,0,1-.4-.46,1.47,1.47,0,0,1-.15-.69v-.26a1.76,1.76,0,0,1,.14-.71,1.11,1.11,0,0,1,.41-.47,1.15,1.15,0,0,1,.62-.17,1.13,1.13,0,0,1,.76.26,1.06,1.06,0,0,1,.33.72h-.49a.75.75,0,0,0-.18-.44.61.61,0,0,0-.42-.14.58.58,0,0,0-.5.24,1.17,1.17,0,0,0-.17.69v.25a1.23,1.23,0,0,0,.16.7.55.55,0,0,0,.48.24.63.63,0,0,0,.44-.13.67.67,0,0,0,.19-.43Z"/><path class="cls-5" d="M39.5,97.41a.85.85,0,0,1-.06-.19.71.71,0,0,1-.55.23.75.75,0,0,1-.52-.18.56.56,0,0,1-.2-.45.6.6,0,0,1,.25-.52,1.21,1.21,0,0,1,.72-.18h.29V96a.39.39,0,0,0-.09-.26.41.41,0,0,0-.28-.1.46.46,0,0,0-.27.08.26.26,0,0,0-.1.21h-.48a.54.54,0,0,1,.12-.33.74.74,0,0,1,.31-.23,1,1,0,0,1,.44-.09.88.88,0,0,1,.6.19.66.66,0,0,1,.22.52v1a1.1,1.1,0,0,0,.08.45v0ZM39,97.07a.48.48,0,0,0,.26-.07.41.41,0,0,0,.19-.18v-.4h-.26a.68.68,0,0,0-.39.09.31.31,0,0,0-.14.26.27.27,0,0,0,.09.22A.33.33,0,0,0,39,97.07Z"/><path class="cls-5" d="M41.27,97.07a.41.41,0,0,0,.29-.1.36.36,0,0,0,.13-.26h.44a.61.61,0,0,1-.12.37.74.74,0,0,1-.31.27.88.88,0,0,1-.43.1.9.9,0,0,1-.7-.28,1.18,1.18,0,0,1-.26-.8v-.05a1.14,1.14,0,0,1,.26-.77.89.89,0,0,1,.7-.29.87.87,0,0,1,.62.22.79.79,0,0,1,.24.58h-.44a.46.46,0,0,0-.13-.3.37.37,0,0,0-.29-.12.42.42,0,0,0-.36.17,1,1,0,0,0-.13.51v.07a.92.92,0,0,0,.13.52A.41.41,0,0,0,41.27,97.07Z"/><path class="cls-5" d="M43,95.53a.75.75,0,0,1,.59-.27c.45,0,.68.26.68.77v1.38h-.47V96.05a.4.4,0,0,0-.1-.31.37.37,0,0,0-.27-.09.47.47,0,0,0-.43.25v1.51h-.47v-3H43Z"/><path class="cls-5" d="M45.64,97.45a1,1,0,0,1-.73-.28,1.06,1.06,0,0,1-.28-.76v-.06a1.25,1.25,0,0,1,.12-.56,1,1,0,0,1,.35-.39.91.91,0,0,1,.49-.14.82.82,0,0,1,.67.28,1.19,1.19,0,0,1,.23.78v.19H45.11a.58.58,0,0,0,.18.41.52.52,0,0,0,.38.15.61.61,0,0,0,.53-.26l.26.24a.89.89,0,0,1-.34.3A1.06,1.06,0,0,1,45.64,97.45Zm0-1.81a.42.42,0,0,0-.32.14.69.69,0,0,0-.15.38H46v0a.64.64,0,0,0-.12-.36A.41.41,0,0,0,45.59,95.64Z"/><rect class="cls-4" x="63.76" y="84.65" width="40.68" height="16.93"/><path class="cls-5" d="M77.56,86.77,78.38,89l.82-2.18h.64v2.84h-.49v-.93l.05-1.26-.84,2.19H78.2l-.84-2.19,0,1.26v.93h-.49V86.77Z"/><path class="cls-5" d="M81.31,89.65a1,1,0,0,1-.73-.28,1,1,0,0,1-.28-.76v-.06a1.25,1.25,0,0,1,.12-.56.87.87,0,0,1,.34-.39.93.93,0,0,1,.49-.14.82.82,0,0,1,.67.28,1.14,1.14,0,0,1,.24.78v.19H80.77a.68.68,0,0,0,.18.41.52.52,0,0,0,.38.15.65.65,0,0,0,.54-.26l.25.24a.83.83,0,0,1-.34.3A1,1,0,0,1,81.31,89.65Zm-.06-1.81a.4.4,0,0,0-.31.14.7.7,0,0,0-.16.38h.91v0a.65.65,0,0,0-.13-.37A.4.4,0,0,0,81.25,87.84Z"/><path class="cls-5" d="M83,87.5v.22a.77.77,0,0,1,.61-.26.58.58,0,0,1,.58.33.75.75,0,0,1,.65-.33.66.66,0,0,1,.52.2.88.88,0,0,1,.18.57v1.38H85V88.24a.45.45,0,0,0-.09-.3.46.46,0,0,0-.55,0,.46.46,0,0,0-.15.23v1.44h-.48V88.22a.34.34,0,0,0-.38-.37.42.42,0,0,0-.4.23v1.53h-.48V87.5Z"/><path class="cls-5" d="M85.91,88.54A1.25,1.25,0,0,1,86,88a.9.9,0,0,1,.34-.38,1,1,0,0,1,.52-.14.9.9,0,0,1,.69.28,1.1,1.1,0,0,1,.29.73v.11a1.28,1.28,0,0,1-.12.56,1,1,0,0,1-.34.38,1,1,0,0,1-.52.13,1,1,0,0,1-.72-.29,1.16,1.16,0,0,1-.27-.8Zm.48,0a.84.84,0,0,0,.13.51.45.45,0,0,0,.38.18.43.43,0,0,0,.37-.18,1,1,0,0,0,.14-.55.88.88,0,0,0-.14-.51.45.45,0,0,0-.37-.19.42.42,0,0,0-.37.19A.84.84,0,0,0,86.39,88.58Z"/><path class="cls-5" d="M89.39,87.93h-.2a.44.44,0,0,0-.44.25v1.44h-.47V87.5h.45v.24a.54.54,0,0,1,.48-.28.43.43,0,0,1,.17,0Z"/><path class="cls-5" d="M90.46,88.93l.43-1.43h.51l-.84,2.43a.69.69,0,0,1-.66.54.7.7,0,0,1-.23,0v-.37h.09A.41.41,0,0,0,90,90a.43.43,0,0,0,.15-.22l.06-.18-.74-2.1H90Z"/><path class="cls-5" d="M73.63,91.57l.82,2.18.82-2.18h.64v2.84h-.49v-.93l0-1.26-.84,2.19h-.36l-.84-2.19,0,1.26v.93H73V91.57Z"/><path class="cls-5" d="M77.71,94.41a.56.56,0,0,1,0-.19.82.82,0,0,1-1.08,0,.59.59,0,0,1-.2-.45.6.6,0,0,1,.25-.52,1.24,1.24,0,0,1,.72-.18h.29V93a.39.39,0,0,0-.09-.26.4.4,0,0,0-.28-.1.46.46,0,0,0-.27.08.26.26,0,0,0-.1.21h-.48a.54.54,0,0,1,.12-.33.81.81,0,0,1,.31-.23,1.1,1.1,0,0,1,.45-.09.87.87,0,0,1,.59.19.66.66,0,0,1,.22.52v1a1.1,1.1,0,0,0,.08.45v0Zm-.52-.34a.48.48,0,0,0,.26-.07.41.41,0,0,0,.19-.18v-.4h-.26a.68.68,0,0,0-.39.09.31.31,0,0,0-.14.26A.25.25,0,0,0,77,94,.32.32,0,0,0,77.19,94.07Z"/><path class="cls-5" d="M79.05,92.3l0,.24a.77.77,0,0,1,.61-.28c.44,0,.66.25.67.76v1.39h-.47V93a.4.4,0,0,0-.09-.29.34.34,0,0,0-.28-.1.46.46,0,0,0-.43.26v1.5H78.6V92.3Z"/><path class="cls-5" d="M82.1,94.41a.85.85,0,0,1-.06-.19.71.71,0,0,1-.55.23.75.75,0,0,1-.52-.18.56.56,0,0,1-.2-.45A.6.6,0,0,1,81,93.3a1.24,1.24,0,0,1,.72-.18H82V93a.39.39,0,0,0-.09-.26.41.41,0,0,0-.28-.1.46.46,0,0,0-.27.08.26.26,0,0,0-.1.21h-.48a.54.54,0,0,1,.12-.33.74.74,0,0,1,.31-.23,1,1,0,0,1,.44-.09.88.88,0,0,1,.6.19.66.66,0,0,1,.22.52v1a1.1,1.1,0,0,0,.08.45v0Zm-.52-.34a.48.48,0,0,0,.26-.07.41.41,0,0,0,.19-.18v-.4h-.26a.68.68,0,0,0-.39.09.31.31,0,0,0-.14.26.27.27,0,0,0,.09.22A.34.34,0,0,0,81.58,94.07Z"/><path class="cls-5" d="M82.92,93.34a1.17,1.17,0,0,1,.23-.78.77.77,0,0,1,1.18,0l0-.21h.43v2a.87.87,0,0,1-.26.66,1,1,0,0,1-.7.24,1.22,1.22,0,0,1-.45-.1A.91.91,0,0,1,83,94.9l.23-.29a.65.65,0,0,0,.54.26.51.51,0,0,0,.37-.13.48.48,0,0,0,.14-.37v-.15a.68.68,0,0,1-.55.23.73.73,0,0,1-.61-.29A1.27,1.27,0,0,1,82.92,93.34Zm.47,0a.8.8,0,0,0,.13.5.41.41,0,0,0,.36.19.48.48,0,0,0,.43-.25v-.93a.46.46,0,0,0-.43-.24.41.41,0,0,0-.36.19A.9.9,0,0,0,83.39,93.38Z"/><path class="cls-5" d="M86.2,94.45a1,1,0,0,1-.73-.28,1,1,0,0,1-.28-.76v-.06a1.25,1.25,0,0,1,.12-.56.87.87,0,0,1,.34-.39.93.93,0,0,1,.49-.14.82.82,0,0,1,.67.28,1.14,1.14,0,0,1,.24.78v.19H85.66a.68.68,0,0,0,.18.41.53.53,0,0,0,.39.15.64.64,0,0,0,.53-.26l.25.24a.83.83,0,0,1-.34.3A1,1,0,0,1,86.2,94.45Zm-.06-1.81a.4.4,0,0,0-.31.14.7.7,0,0,0-.16.38h.91v0a.65.65,0,0,0-.13-.36A.4.4,0,0,0,86.14,92.64Z"/><path class="cls-5" d="M87.86,92.3v.22a.79.79,0,0,1,.61-.26.57.57,0,0,1,.58.33.75.75,0,0,1,.65-.33.66.66,0,0,1,.52.2.83.83,0,0,1,.18.57v1.38h-.48V93a.45.45,0,0,0-.09-.3.37.37,0,0,0-.29-.09.39.39,0,0,0-.26.09.4.4,0,0,0-.14.22v1.45h-.48V93a.34.34,0,0,0-.38-.37.42.42,0,0,0-.4.23v1.53h-.48V92.3Z"/><path class="cls-5" d="M91.82,94.45a1,1,0,0,1-.73-.28,1.06,1.06,0,0,1-.28-.76v-.06a1.13,1.13,0,0,1,.13-.56.87.87,0,0,1,.34-.39.91.91,0,0,1,.49-.14.82.82,0,0,1,.67.28,1.19,1.19,0,0,1,.23.78v.19H91.29a.62.62,0,0,0,.18.41.52.52,0,0,0,.38.15.61.61,0,0,0,.53-.26l.26.24a.89.89,0,0,1-.34.3A1.06,1.06,0,0,1,91.82,94.45Zm0-1.81a.42.42,0,0,0-.32.14.69.69,0,0,0-.15.38h.9v0a.64.64,0,0,0-.12-.36A.41.41,0,0,0,91.77,92.64Z"/><path class="cls-5" d="M93.48,92.3v.24a.8.8,0,0,1,.62-.28c.44,0,.66.25.67.76v1.39h-.47V93a.4.4,0,0,0-.09-.29.34.34,0,0,0-.28-.1.45.45,0,0,0-.43.26v1.5H93V92.3Z"/><path class="cls-5" d="M95.86,91.79v.51h.37v.35h-.37v1.18a.3.3,0,0,0,0,.18.25.25,0,0,0,.17,0l.16,0v.37a1.1,1.1,0,0,1-.31,0q-.54,0-.54-.6v-1.2H95V92.3h.35v-.51Z"/><path class="cls-5" d="M83.3,96.37v1.9A.91.91,0,0,1,83,99a1.27,1.27,0,0,1-1.54,0,.92.92,0,0,1-.29-.72v-1.9h.49v1.9a.6.6,0,0,0,.15.44.54.54,0,0,0,.42.15q.57,0,.57-.6V96.37Z"/><path class="cls-5" d="M84.23,97.1v.25a.77.77,0,0,1,.62-.29c.43,0,.66.25.67.76v1.39h-.48V97.85a.47.47,0,0,0-.08-.3.37.37,0,0,0-.29-.1.47.47,0,0,0-.43.26v1.5h-.47V97.1Z"/><path class="cls-5" d="M86,96.55a.24.24,0,0,1,.07-.18.32.32,0,0,1,.4,0,.27.27,0,0,1,0,.36.32.32,0,0,1-.4,0A.24.24,0,0,1,86,96.55Zm.51,2.66H86V97.1h.48Z"/><path class="cls-5" d="M87.63,96.59v.51H88v.35h-.37v1.18a.3.3,0,0,0,0,.18.28.28,0,0,0,.18,0l.16,0v.37a1.15,1.15,0,0,1-.31,0c-.37,0-.55-.2-.55-.6v-1.2H86.8V97.1h.35v-.51Z"/><rect class="cls-4" x="106.18" y="84.65" width="40.68" height="16.93"/><path class="cls-5" d="M122.32,92.61V89.77h.84a1.31,1.31,0,0,1,.67.17,1.12,1.12,0,0,1,.46.48,1.57,1.57,0,0,1,.16.7v.14a1.53,1.53,0,0,1-.17.72,1.07,1.07,0,0,1-.45.47,1.41,1.41,0,0,1-.69.16Zm.5-2.44v2h.32a.75.75,0,0,0,.6-.24,1.06,1.06,0,0,0,.21-.7v-.16a1.13,1.13,0,0,0-.2-.71.72.72,0,0,0-.59-.24Z"/><path class="cls-5" d="M126.16,92.61a.53.53,0,0,1-.06-.19.8.8,0,0,1-1.07,0,.57.57,0,0,1-.21-.45.61.61,0,0,1,.26-.52,1.18,1.18,0,0,1,.71-.18h.29v-.14a.39.39,0,0,0-.09-.26.38.38,0,0,0-.28-.1.45.45,0,0,0-.26.08.28.28,0,0,0-.11.21h-.47a.51.51,0,0,1,.12-.32.69.69,0,0,1,.31-.24,1,1,0,0,1,.44-.09.84.84,0,0,1,.59.19.64.64,0,0,1,.23.52v1a1.1,1.1,0,0,0,.08.45v0Zm-.53-.34a.5.5,0,0,0,.27-.07.39.39,0,0,0,.18-.18v-.4h-.25a.72.72,0,0,0-.4.09.3.3,0,0,0-.13.26.27.27,0,0,0,.09.22A.32.32,0,0,0,125.63,92.27Z"/><path class="cls-5" d="M127.65,90v.51H128v.35h-.37V92a.3.3,0,0,0,0,.18.25.25,0,0,0,.17.05l.17,0v.37a1.22,1.22,0,0,1-.32,0q-.54,0-.54-.6v-1.2h-.35V90.5h.35V90Z"/><path class="cls-5" d="M129.65,92.61a.85.85,0,0,1-.06-.19.71.71,0,0,1-.55.23.77.77,0,0,1-.52-.18.59.59,0,0,1-.2-.45.6.6,0,0,1,.25-.52,1.24,1.24,0,0,1,.72-.18h.29v-.14a.39.39,0,0,0-.09-.26.4.4,0,0,0-.28-.1.46.46,0,0,0-.27.08.26.26,0,0,0-.1.21h-.48a.51.51,0,0,1,.12-.32.74.74,0,0,1,.31-.24,1.1,1.1,0,0,1,.45-.09.87.87,0,0,1,.59.19.66.66,0,0,1,.22.52v1a1.1,1.1,0,0,0,.08.45v0Zm-.52-.34a.48.48,0,0,0,.26-.07.37.37,0,0,0,.19-.18v-.4h-.26a.7.7,0,0,0-.39.09.31.31,0,0,0-.14.26.27.27,0,0,0,.09.22A.36.36,0,0,0,129.13,92.27Z"/><path class="cls-5" d="M123,96.49a1.06,1.06,0,0,1-.33.71,1.16,1.16,0,0,1-.78.25,1.08,1.08,0,0,1-.6-.16,1.06,1.06,0,0,1-.4-.46,1.76,1.76,0,0,1-.15-.69v-.26a1.61,1.61,0,0,1,.15-.71,1.09,1.09,0,0,1,.4-.47,1.18,1.18,0,0,1,.62-.17,1.09,1.09,0,0,1,.76.26,1.06,1.06,0,0,1,.33.72h-.49a.64.64,0,0,0-.18-.44.57.57,0,0,0-.42-.14.56.56,0,0,0-.49.24,1.09,1.09,0,0,0-.18.69v.25a1.23,1.23,0,0,0,.16.7.56.56,0,0,0,.49.24.6.6,0,0,0,.43-.13.67.67,0,0,0,.19-.43Z"/><path class="cls-5" d="M124.67,97.41a.56.56,0,0,1,0-.19.73.73,0,0,1-.56.23.77.77,0,0,1-.52-.18.59.59,0,0,1-.2-.45.6.6,0,0,1,.25-.52,1.24,1.24,0,0,1,.72-.18h.29V96a.39.39,0,0,0-.09-.26.4.4,0,0,0-.28-.1.46.46,0,0,0-.27.08.3.3,0,0,0-.1.21h-.47a.52.52,0,0,1,.11-.33.81.81,0,0,1,.31-.23,1.1,1.1,0,0,1,.45-.09.87.87,0,0,1,.59.19.63.63,0,0,1,.22.52v1a1,1,0,0,0,.09.45v0Zm-.52-.34a.48.48,0,0,0,.26-.07.37.37,0,0,0,.19-.18v-.4h-.26a.7.7,0,0,0-.39.09.3.3,0,0,0-.13.26.27.27,0,0,0,.09.22A.32.32,0,0,0,124.15,97.07Z"/><path class="cls-5" d="M126.44,97.07a.44.44,0,0,0,.3-.1.36.36,0,0,0,.12-.26h.45a.69.69,0,0,1-.13.37.68.68,0,0,1-.31.27.87.87,0,0,1-.42.1.92.92,0,0,1-.71-.28,1.18,1.18,0,0,1-.26-.8v-.05a1.14,1.14,0,0,1,.26-.77.9.9,0,0,1,.7-.29.86.86,0,0,1,.62.22.8.8,0,0,1,.25.58h-.45a.45.45,0,0,0-.12-.3.41.41,0,0,0-.3-.12.45.45,0,0,0-.36.17.87.87,0,0,0-.12.51v.07a.93.93,0,0,0,.12.52A.41.41,0,0,0,126.44,97.07Z"/><path class="cls-5" d="M128.13,95.53a.76.76,0,0,1,.59-.27c.45,0,.68.26.69.77v1.38h-.48V96.05a.44.44,0,0,0-.09-.31.39.39,0,0,0-.28-.09.48.48,0,0,0-.43.25v1.51h-.47v-3h.47Z"/><path class="cls-5" d="M130.82,97.45a1,1,0,0,1-.73-.28,1,1,0,0,1-.28-.76v-.06a1.25,1.25,0,0,1,.12-.56.87.87,0,0,1,.34-.39.93.93,0,0,1,.49-.14.82.82,0,0,1,.67.28,1.14,1.14,0,0,1,.23.78v.19h-1.38a.68.68,0,0,0,.18.41.52.52,0,0,0,.38.15.65.65,0,0,0,.54-.26l.25.24a.83.83,0,0,1-.34.3A1,1,0,0,1,130.82,97.45Zm-.06-1.81a.4.4,0,0,0-.31.14.7.7,0,0,0-.16.38h.91v0a.65.65,0,0,0-.13-.36A.41.41,0,0,0,130.76,95.64Z"/><rect class="cls-4" x="106.18" y="32.88" width="40.68" height="13.93"/><path class="cls-5" d="M113.93,41.84V39h.84a1.26,1.26,0,0,1,.67.17,1.2,1.2,0,0,1,.45.47,1.49,1.49,0,0,1,.16.71v.14a1.46,1.46,0,0,1-.16.71,1.12,1.12,0,0,1-.46.48,1.37,1.37,0,0,1-.68.16Zm.49-2.44v2.05h.33a.71.71,0,0,0,.59-.25,1.07,1.07,0,0,0,.22-.69v-.16a1.06,1.06,0,0,0-.21-.71.7.7,0,0,0-.58-.24Z"/><path class="cls-5" d="M117.43,41.88a1,1,0,0,1-.73-.28,1,1,0,0,1-.28-.76v-.06a1.25,1.25,0,0,1,.12-.56.9.9,0,0,1,.83-.53A.85.85,0,0,1,118,40a1.17,1.17,0,0,1,.24.78v.2H116.9a.62.62,0,0,0,.17.41.53.53,0,0,0,.39.15.67.67,0,0,0,.53-.26l.25.24a.77.77,0,0,1-.34.3A1,1,0,0,1,117.43,41.88Zm-.06-1.81a.4.4,0,0,0-.31.14.78.78,0,0,0-.16.38h.91v0a.59.59,0,0,0-.13-.36A.4.4,0,0,0,117.37,40.07Z"/><path class="cls-5" d="M120.5,40.81a1.25,1.25,0,0,1-.22.78.74.74,0,0,1-.61.29.68.68,0,0,1-.57-.27l0,.23h-.43v-3h.48v1.09a.68.68,0,0,1,.55-.24.74.74,0,0,1,.61.29,1.27,1.27,0,0,1,.22.8Zm-.48,0a.93.93,0,0,0-.12-.52.4.4,0,0,0-.35-.17.44.44,0,0,0-.43.27v.87a.44.44,0,0,0,.44.27.4.4,0,0,0,.34-.16.86.86,0,0,0,.12-.5Z"/><path class="cls-5" d="M122.18,41.63a.73.73,0,0,1-.6.25.67.67,0,0,1-.52-.2.89.89,0,0,1-.17-.58V39.73h.47v1.36c0,.27.11.4.33.4a.48.48,0,0,0,.47-.24V39.73h.48v2.11h-.45Z"/><path class="cls-5" d="M123,40.77a1.22,1.22,0,0,1,.23-.79.75.75,0,0,1,.61-.29.7.7,0,0,1,.57.25l0-.21h.43v2.05a.86.86,0,0,1-.26.65,1,1,0,0,1-.7.24,1.2,1.2,0,0,1-.45-.09.83.83,0,0,1-.34-.26l.23-.28a.67.67,0,0,0,.53.26.52.52,0,0,0,.38-.13.49.49,0,0,0,.13-.38v-.14a.68.68,0,0,1-.54.23.76.76,0,0,1-.61-.29A1.33,1.33,0,0,1,123,40.77Zm.47,0a.82.82,0,0,0,.13.5.43.43,0,0,0,.36.18.45.45,0,0,0,.42-.24v-.93a.45.45,0,0,0-.42-.24.43.43,0,0,0-.36.18A1,1,0,0,0,123.51,40.81Z"/><path class="cls-5" d="M126.39,40.69a3,3,0,0,1,.12-.86,2.37,2.37,0,0,1,.36-.73,1.33,1.33,0,0,1,.49-.44l.1.27a1.42,1.42,0,0,0-.45.64,2.94,2.94,0,0,0-.19,1v.17a3.14,3.14,0,0,0,.17,1.06,1.52,1.52,0,0,0,.47.7l-.1.27a1.46,1.46,0,0,1-.49-.45,2.37,2.37,0,0,1-.36-.73A3.07,3.07,0,0,1,126.39,40.69Z"/><path class="cls-5" d="M129,39h.49v2a.86.86,0,0,1-.26.65.93.93,0,0,1-.67.24,1,1,0,0,1-.69-.22.82.82,0,0,1-.24-.63h.49a.44.44,0,0,0,.12.34.41.41,0,0,0,.32.12.42.42,0,0,0,.32-.14A.49.49,0,0,0,129,41Z"/><path class="cls-5" d="M132.1,39.4h-.89v2.44h-.49V39.4h-.88V39h2.26Z"/><path class="cls-5" d="M133.83,41.18h-1.1l-.23.66H132L133.06,39h.44l1.08,2.84h-.52Zm-1-.4h.82l-.41-1.18Z"/><path class="cls-5" d="M137,41.47a.92.92,0,0,1-.43.31,1.72,1.72,0,0,1-.62.1,1.18,1.18,0,0,1-.63-.16,1,1,0,0,1-.43-.47,1.54,1.54,0,0,1-.15-.7v-.22a1.54,1.54,0,0,1,.3-1A1.1,1.1,0,0,1,136,39a1.18,1.18,0,0,1,.75.23,1,1,0,0,1,.34.68h-.49a.54.54,0,0,0-.59-.51.6.6,0,0,0-.51.24,1.3,1.3,0,0,0-.18.7v.22a1.15,1.15,0,0,0,.2.71.65.65,0,0,0,.54.26.7.7,0,0,0,.54-.18v-.55H136v-.38H137Z"/><path class="cls-5" d="M138.45,40.72a2.82,2.82,0,0,1-.12.83,2.42,2.42,0,0,1-.36.74,1.44,1.44,0,0,1-.51.46l-.09-.27a1.42,1.42,0,0,0,.46-.69,3,3,0,0,0,.17-1.06v0a3.12,3.12,0,0,0-.14-1,1.74,1.74,0,0,0-.43-.71l-.06-.06.09-.26a1.37,1.37,0,0,1,.49.43,2.51,2.51,0,0,1,.36.69,2.9,2.9,0,0,1,.14.78Z"/><rect class="cls-4" x="106.18" y="50.59" width="40.68" height="13.93"/><path class="cls-5" d="M114.5,54.11h-.88v2.45h-.49V54.11h-.88v-.4h2.25Z"/><path class="cls-5" d="M114.83,53.9a.29.29,0,0,1,.07-.19.32.32,0,0,1,.4,0,.25.25,0,0,1,.07.19.21.21,0,0,1-.07.17.29.29,0,0,1-.4,0A.24.24,0,0,1,114.83,53.9Zm.51,2.66h-.48V54.44h.48Z"/><path class="cls-5" d="M115.77,55.49a1.28,1.28,0,0,1,.23-.79.74.74,0,0,1,.62-.29.66.66,0,0,1,.56.25l0-.22h.42v2.05a.83.83,0,0,1-.26.66,1,1,0,0,1-.69.24,1.06,1.06,0,0,1-.46-.1.72.72,0,0,1-.33-.25l.22-.29a.67.67,0,0,0,.54.26.53.53,0,0,0,.37-.12.51.51,0,0,0,.14-.38v-.14a.72.72,0,0,1-.55.23.73.73,0,0,1-.6-.3A1.24,1.24,0,0,1,115.77,55.49Zm.47,0a.9.9,0,0,0,.13.5.43.43,0,0,0,.36.18.46.46,0,0,0,.43-.25V55a.45.45,0,0,0-.42-.24.44.44,0,0,0-.37.19A1,1,0,0,0,116.24,55.53Z"/><path class="cls-5" d="M118.59,54.67a.76.76,0,0,1,.59-.26c.45,0,.68.25.68.77v1.38h-.47V55.19a.41.41,0,0,0-.1-.31.38.38,0,0,0-.28-.09.45.45,0,0,0-.42.26v1.51h-.48v-3h.48Z"/><path class="cls-5" d="M120.94,53.93v.51h.37v.36h-.37V56a.25.25,0,0,0,0,.17.23.23,0,0,0,.18.05.44.44,0,0,0,.16,0v.37a1.18,1.18,0,0,1-.31.05c-.37,0-.55-.2-.55-.61V54.8h-.35v-.36h.35v-.51Z"/><path class="cls-5" d="M122.18,56.56h-.48v-3h.48Z"/><path class="cls-5" d="M123.43,55.88l.43-1.44h.51l-.84,2.44a.69.69,0,0,1-.66.53l-.23,0V57h.09A.49.49,0,0,0,123,57a.53.53,0,0,0,.15-.22l.07-.18-.75-2.11H123Z"/><path class="cls-5" d="M127.85,55.63a1,1,0,0,1-.33.71,1.26,1.26,0,0,1-1.38.1,1.06,1.06,0,0,1-.4-.46,1.84,1.84,0,0,1-.15-.69V55a1.61,1.61,0,0,1,.15-.71,1.09,1.09,0,0,1,.4-.47,1.18,1.18,0,0,1,.62-.17,1.11,1.11,0,0,1,.76.26,1.06,1.06,0,0,1,.33.72h-.49a.67.67,0,0,0-.18-.44.57.57,0,0,0-.42-.14.56.56,0,0,0-.49.24,1.13,1.13,0,0,0-.18.69v.25a1.29,1.29,0,0,0,.16.71.56.56,0,0,0,.49.24.6.6,0,0,0,.43-.13.72.72,0,0,0,.19-.44Z"/><path class="cls-5" d="M128.16,55.48a1.28,1.28,0,0,1,.12-.56.92.92,0,0,1,.35-.38,1,1,0,0,1,.51-.13.92.92,0,0,1,.69.27,1.05,1.05,0,0,1,.29.73v.11a1.25,1.25,0,0,1-.12.56.84.84,0,0,1-.34.38,1,1,0,0,1-.52.14.91.91,0,0,1-.71-.3,1.14,1.14,0,0,1-.27-.8Zm.47,0a.84.84,0,0,0,.14.51.42.42,0,0,0,.37.19.44.44,0,0,0,.38-.19.93.93,0,0,0,.13-.55.81.81,0,0,0-.14-.51.43.43,0,0,0-.37-.18.45.45,0,0,0-.37.18A.93.93,0,0,0,128.63,55.52Z"/><path class="cls-5" d="M131.81,56.35a.76.76,0,0,1-.6.25.67.67,0,0,1-.52-.2.87.87,0,0,1-.18-.59V54.44H131v1.37c0,.27.11.4.33.4a.47.47,0,0,0,.47-.25V54.44h.47v2.12h-.44Z"/><path class="cls-5" d="M134.6,55.52a1.29,1.29,0,0,1-.22.78.71.71,0,0,1-.6.3.74.74,0,0,1-.56-.23v1h-.47V54.44h.43l0,.22a.7.7,0,0,1,.57-.25.73.73,0,0,1,.61.28,1.29,1.29,0,0,1,.22.8Zm-.47,0A.9.9,0,0,0,134,55a.41.41,0,0,0-.36-.19.45.45,0,0,0-.42.24V56a.44.44,0,0,0,.42.25A.43.43,0,0,0,134,56,1.05,1.05,0,0,0,134.13,55.48Z"/><path class="cls-5" d="M135.5,56.56H135v-3h.47Z"/><path class="cls-5" d="M137,56.6a1,1,0,0,1-.73-.29,1,1,0,0,1-.28-.75V55.5a1.32,1.32,0,0,1,.12-.57,1,1,0,0,1,.35-.39.9.9,0,0,1,.49-.13.81.81,0,0,1,.66.27,1.14,1.14,0,0,1,.24.78v.19h-1.38a.64.64,0,0,0,.17.42.54.54,0,0,0,.39.15.64.64,0,0,0,.53-.27l.26.25a.87.87,0,0,1-.34.29A1.06,1.06,0,0,1,137,56.6Zm0-1.81a.41.41,0,0,0-.32.13.69.69,0,0,0-.15.38h.9v0a.54.54,0,0,0-.13-.36A.38.38,0,0,0,136.9,54.79Z"/><path class="cls-5" d="M138.08,55.49a1.28,1.28,0,0,1,.23-.79.7.7,0,0,1,.6-.29.68.68,0,0,1,.55.23V53.56h.47v3h-.43l0-.22a.7.7,0,0,1-.57.26.71.71,0,0,1-.6-.3A1.32,1.32,0,0,1,138.08,55.49Zm.47,0a.9.9,0,0,0,.13.5.4.4,0,0,0,.35.18.46.46,0,0,0,.43-.26v-.9a.45.45,0,0,0-.43-.26.41.41,0,0,0-.35.19A1,1,0,0,0,138.55,55.53Z"/><path class="cls-5" d="M114.2,61h1.29v.4H113.7V58.51h.5Z"/><path class="cls-5" d="M115.73,60.28a1.28,1.28,0,0,1,.13-.56.9.9,0,0,1,.34-.38,1,1,0,0,1,.51-.13.94.94,0,0,1,.7.27,1.1,1.1,0,0,1,.29.73v.11a1.25,1.25,0,0,1-.12.56,1,1,0,0,1-.34.38,1,1,0,0,1-.52.14.92.92,0,0,1-.72-.3,1.14,1.14,0,0,1-.27-.8Zm.48,0a.84.84,0,0,0,.13.51.44.44,0,0,0,.38.19.42.42,0,0,0,.37-.19.93.93,0,0,0,.14-.55.88.88,0,0,0-.14-.51.45.45,0,0,0-.38-.18.43.43,0,0,0-.36.18A.86.86,0,0,0,116.21,60.32Z"/><path class="cls-5" d="M119,61a.4.4,0,0,0,.29-.11.34.34,0,0,0,.13-.25h.45a.75.75,0,0,1-.13.37.82.82,0,0,1-.31.27,1,1,0,0,1-.43.1.92.92,0,0,1-.7-.29,1.16,1.16,0,0,1-.26-.79v0a1.12,1.12,0,0,1,.26-.77.87.87,0,0,1,.7-.29.91.91,0,0,1,.62.21.84.84,0,0,1,.25.58h-.45a.46.46,0,0,0-.13-.3.36.36,0,0,0-.29-.11.44.44,0,0,0-.36.16.87.87,0,0,0-.12.51v.08a.87.87,0,0,0,.12.51A.42.42,0,0,0,119,61Z"/><path class="cls-5" d="M121.46,61.36a1,1,0,0,1-.06-.2.72.72,0,0,1-.55.24.71.71,0,0,1-.52-.19.55.55,0,0,1-.2-.44.59.59,0,0,1,.25-.52,1.21,1.21,0,0,1,.72-.18h.29v-.14a.33.33,0,0,0-.1-.26.33.33,0,0,0-.27-.1.4.4,0,0,0-.27.08.23.23,0,0,0-.1.2h-.48a.51.51,0,0,1,.12-.32.76.76,0,0,1,.31-.24,1,1,0,0,1,.44-.08.89.89,0,0,1,.59.18.66.66,0,0,1,.23.53v.95a1.1,1.1,0,0,0,.08.45v0Zm-.52-.34a.59.59,0,0,0,.26-.07.5.5,0,0,0,.19-.19v-.39h-.26a.72.72,0,0,0-.4.09.32.32,0,0,0-.13.26.26.26,0,0,0,.09.21A.33.33,0,0,0,120.94,61Z"/><path class="cls-5" d="M122.86,61.36h-.47v-3h.47Z"/><path class="cls-5" d="M125.06,58.51l.82,2.18.82-2.18h.64v2.85h-.49v-.94l.05-1.25-.84,2.19h-.36l-.83-2.19,0,1.25v.94h-.49V58.51Z"/><path class="cls-5" d="M128.81,61.4a1,1,0,0,1-.73-.29,1,1,0,0,1-.28-.75V60.3a1.32,1.32,0,0,1,.12-.57,1.07,1.07,0,0,1,.34-.39.92.92,0,0,1,.49-.13.85.85,0,0,1,.67.27,1.14,1.14,0,0,1,.24.78v.19h-1.38a.64.64,0,0,0,.17.42.53.53,0,0,0,.39.15.65.65,0,0,0,.53-.27l.25.25a.81.81,0,0,1-.34.29A1,1,0,0,1,128.81,61.4Zm-.06-1.81a.39.39,0,0,0-.31.13.78.78,0,0,0-.16.38h.91v0a.59.59,0,0,0-.13-.36A.4.4,0,0,0,128.75,59.59Z"/><path class="cls-5" d="M130.47,59.24v.22a.78.78,0,0,1,.61-.25.57.57,0,0,1,.58.32.75.75,0,0,1,.65-.32.64.64,0,0,1,.52.19A.81.81,0,0,1,133,60v1.39h-.48V60a.4.4,0,0,0-.09-.29.34.34,0,0,0-.29-.1.4.4,0,0,0-.4.32v1.45h-.48V60a.34.34,0,0,0-.38-.38.41.41,0,0,0-.4.24v1.53H130V59.24Z"/><path class="cls-5" d="M133.42,60.28a1.28,1.28,0,0,1,.12-.56,1,1,0,0,1,.34-.38,1,1,0,0,1,.52-.13.93.93,0,0,1,.69.27,1.05,1.05,0,0,1,.29.73v.11a1.25,1.25,0,0,1-.12.56.9.9,0,0,1-.34.38,1,1,0,0,1-.52.14.92.92,0,0,1-.72-.3,1.18,1.18,0,0,1-.26-.8Zm.47,0a.84.84,0,0,0,.14.51.42.42,0,0,0,.37.19.41.41,0,0,0,.37-.19.93.93,0,0,0,.14-.55.88.88,0,0,0-.14-.51.45.45,0,0,0-.37-.18.43.43,0,0,0-.37.18A.93.93,0,0,0,133.89,60.32Z"/><path class="cls-5" d="M136.89,59.68l-.19,0a.44.44,0,0,0-.44.25v1.45h-.48V59.24h.45l0,.24a.53.53,0,0,1,.47-.27.42.42,0,0,1,.17,0Z"/><path class="cls-5" d="M138,60.68l.43-1.44h.51l-.84,2.44a.69.69,0,0,1-.66.53l-.23,0v-.37h.09a.49.49,0,0,0,.27-.06.53.53,0,0,0,.15-.22l.07-.18L137,59.24h.52Z"/><path class="cls-5" d="M35.48,118.17v-2.84h.84a1.33,1.33,0,0,1,.67.16,1.1,1.1,0,0,1,.45.48,1.49,1.49,0,0,1,.16.71v.14a1.46,1.46,0,0,1-.16.71A1.1,1.1,0,0,1,37,118a1.37,1.37,0,0,1-.68.17Zm.5-2.45v2h.32a.75.75,0,0,0,.6-.24,1.08,1.08,0,0,0,.21-.7v-.16a1.1,1.1,0,0,0-.2-.7.71.71,0,0,0-.59-.25Z"/><path class="cls-5" d="M38.1,118.17v-2.84h.84a1.35,1.35,0,0,1,.67.16,1.23,1.23,0,0,1,.45.48,1.61,1.61,0,0,1,.16.71v.14a1.58,1.58,0,0,1-.16.71,1.16,1.16,0,0,1-.46.47,1.41,1.41,0,0,1-.69.17Zm.49-2.45v2h.32a.75.75,0,0,0,.6-.24,1,1,0,0,0,.21-.7v-.16a1.1,1.1,0,0,0-.2-.7.69.69,0,0,0-.58-.25Z"/><path class="cls-5" d="M41.75,117.08H41.2v1.09h-.49v-2.84h1a1.15,1.15,0,0,1,.76.22.88.88,0,0,1,.13,1.11.88.88,0,0,1-.38.3l.63,1.18v0h-.53Zm-.55-.4h.51a.57.57,0,0,0,.39-.13.41.41,0,0,0,.14-.34.47.47,0,0,0-.13-.36.57.57,0,0,0-.38-.13H41.2Z"/><path class="cls-5" d="M46.37,117.24A1,1,0,0,1,46,118a1.26,1.26,0,0,1-1.38.1,1.06,1.06,0,0,1-.4-.46,1.67,1.67,0,0,1-.15-.69v-.27a1.8,1.8,0,0,1,.14-.71,1.07,1.07,0,0,1,1-.63,1.11,1.11,0,0,1,.76.25,1.06,1.06,0,0,1,.33.72h-.49a.67.67,0,0,0-.18-.44.67.67,0,0,0-.92.1,1.21,1.21,0,0,0-.17.69v.25a1.27,1.27,0,0,0,.16.71.55.55,0,0,0,.49.24.6.6,0,0,0,.43-.13.69.69,0,0,0,.19-.44Z"/><path class="cls-5" d="M46.68,117.09a1.31,1.31,0,0,1,.12-.56.92.92,0,0,1,.35-.38,1,1,0,0,1,.51-.13.92.92,0,0,1,.69.27,1.07,1.07,0,0,1,.29.73v.11a1.25,1.25,0,0,1-.12.56.84.84,0,0,1-.34.38,1,1,0,0,1-.52.14.9.9,0,0,1-.71-.3,1.13,1.13,0,0,1-.27-.79Zm.47,0a.84.84,0,0,0,.14.51.42.42,0,0,0,.37.19.44.44,0,0,0,.38-.19.93.93,0,0,0,.13-.55.88.88,0,0,0-.14-.51.47.47,0,0,0-.74,0A1,1,0,0,0,47.15,117.13Z"/><path class="cls-5" d="M49.49,116.06v.24a.75.75,0,0,1,.61-.28c.44,0,.67.25.68.75v1.4h-.48V116.8a.45.45,0,0,0-.09-.3.36.36,0,0,0-.28-.09.46.46,0,0,0-.43.26v1.5H49v-2.11Z"/><path class="cls-5" d="M51.86,115.54v.52h.38v.35h-.38v1.18a.25.25,0,0,0,0,.17.21.21,0,0,0,.17.06l.17,0v.36a1.18,1.18,0,0,1-.31,0c-.37,0-.55-.2-.55-.61v-1.19H51v-.35h.35v-.52Z"/><path class="cls-5" d="M53.71,116.49l-.2,0a.45.45,0,0,0-.44.25v1.45H52.6v-2.11h.45v.23a.55.55,0,0,1,.48-.27l.17,0Z"/><path class="cls-5" d="M53.85,117.09a1.31,1.31,0,0,1,.12-.56.92.92,0,0,1,.86-.51.93.93,0,0,1,.69.27,1.12,1.12,0,0,1,.29.73v.11a1.25,1.25,0,0,1-.12.56.84.84,0,0,1-.34.38,1,1,0,0,1-.52.14.89.89,0,0,1-.71-.3,1.13,1.13,0,0,1-.27-.79Zm.47,0a.84.84,0,0,0,.14.51.42.42,0,0,0,.37.19.41.41,0,0,0,.37-.19.93.93,0,0,0,.14-.55.88.88,0,0,0-.14-.51.45.45,0,0,0-.37-.18.43.43,0,0,0-.37.18A1,1,0,0,0,54.32,117.13Z"/><path class="cls-5" d="M56.72,118.17h-.48v-3h.48Z"/><path class="cls-5" d="M57.74,118.17h-.48v-3h.48Z"/><path class="cls-5" d="M59.19,118.21a1,1,0,0,1-.74-.29,1.05,1.05,0,0,1-.28-.75v-.06a1.2,1.2,0,0,1,.13-.57.9.9,0,0,1,.34-.38,1,1,0,0,1,1.16.13,1.23,1.23,0,0,1,.23.78v.19H58.65a.68.68,0,0,0,.18.42.52.52,0,0,0,.38.15.64.64,0,0,0,.53-.26l.26.24a.8.8,0,0,1-.34.29A1,1,0,0,1,59.19,118.21Zm-.06-1.81a.41.41,0,0,0-.32.13.7.7,0,0,0-.15.39h.91v0a.66.66,0,0,0-.13-.36A.41.41,0,0,0,59.13,116.4Z"/><path class="cls-5" d="M61.51,116.49l-.19,0a.44.44,0,0,0-.44.25v1.45H60.4v-2.11h.45l0,.23a.53.53,0,0,1,.47-.27l.17,0Z"/><path class="cls-5" d="M103.47,116.9H102.3v.87h1.36v.4H101.8v-2.84h1.85v.39H102.3v.79h1.17Z"/><path class="cls-5" d="M104.62,115.54v.52H105v.35h-.37v1.18a.25.25,0,0,0,0,.17.22.22,0,0,0,.17.06l.17,0v.36a1.18,1.18,0,0,1-.31,0c-.37,0-.55-.2-.55-.61v-1.19h-.35v-.35h.35v-.52Z"/><path class="cls-5" d="M105.82,116.29a.74.74,0,0,1,.59-.27c.45,0,.68.25.68.77v1.38h-.47v-1.36a.39.39,0,0,0-.1-.31.38.38,0,0,0-.28-.09.44.44,0,0,0-.42.25v1.51h-.48v-3h.48Z"/><path class="cls-5" d="M108.5,118.21a1,1,0,0,1-.73-.29,1,1,0,0,1-.28-.75v-.06a1.32,1.32,0,0,1,.12-.57,1,1,0,0,1,.34-.38.88.88,0,0,1,.5-.14.81.81,0,0,1,.66.27,1.17,1.17,0,0,1,.24.78v.19H108a.62.62,0,0,0,.17.42.54.54,0,0,0,.39.15.65.65,0,0,0,.53-.26l.26.24a.87.87,0,0,1-.34.29A1.06,1.06,0,0,1,108.5,118.21Zm0-1.81a.41.41,0,0,0-.32.13.7.7,0,0,0-.15.39h.9v0a.54.54,0,0,0-.13-.36A.38.38,0,0,0,108.45,116.4Z"/><path class="cls-5" d="M110.82,116.49l-.19,0a.45.45,0,0,0-.44.25v1.45h-.47v-2.11h.45v.23a.54.54,0,0,1,.48-.27l.17,0Z"/><path class="cls-5" d="M111.56,116.06l0,.24a.74.74,0,0,1,.61-.28c.44,0,.67.25.68.75v1.4h-.48V116.8a.45.45,0,0,0-.09-.3.36.36,0,0,0-.28-.09.46.46,0,0,0-.43.26v1.5h-.47v-2.11Z"/><path class="cls-5" d="M114.28,118.21a1,1,0,0,1-.73-.29,1,1,0,0,1-.28-.75v-.06a1.32,1.32,0,0,1,.12-.57,1,1,0,0,1,.34-.38.85.85,0,0,1,.49-.14.83.83,0,0,1,.67.27,1.17,1.17,0,0,1,.24.78v.19h-1.38a.62.62,0,0,0,.17.42.53.53,0,0,0,.39.15.67.67,0,0,0,.53-.26l.25.24a.75.75,0,0,1-.34.29A1,1,0,0,1,114.28,118.21Zm-.06-1.81a.39.39,0,0,0-.31.13.78.78,0,0,0-.16.39h.91v0a.54.54,0,0,0-.13-.36A.4.4,0,0,0,114.22,116.4Z"/><path class="cls-5" d="M116.09,115.54v.52h.37v.35h-.37v1.18a.25.25,0,0,0,0,.17.21.21,0,0,0,.17.06l.16,0v.36a1.12,1.12,0,0,1-.31,0c-.36,0-.54-.2-.54-.61v-1.19h-.35v-.35h.35v-.52Z"/><path class="cls-5" d="M120,117.24a1,1,0,0,1-.34.71,1.13,1.13,0,0,1-.78.26,1.22,1.22,0,0,1-.6-.16,1.13,1.13,0,0,1-.4-.46,1.67,1.67,0,0,1-.14-.69v-.27a1.64,1.64,0,0,1,.14-.71,1.11,1.11,0,0,1,.41-.47,1.15,1.15,0,0,1,.62-.16,1.08,1.08,0,0,1,.75.25,1.07,1.07,0,0,1,.34.72h-.5a.72.72,0,0,0-.17-.44.61.61,0,0,0-.42-.14.58.58,0,0,0-.5.24,1.21,1.21,0,0,0-.18.69v.25a1.26,1.26,0,0,0,.17.71.55.55,0,0,0,.48.24.63.63,0,0,0,.44-.13.64.64,0,0,0,.18-.44Z"/><path class="cls-5" d="M120.34,117.09a1.18,1.18,0,0,1,.13-.56.9.9,0,0,1,.34-.38,1,1,0,0,1,.51-.13.94.94,0,0,1,.7.27,1.12,1.12,0,0,1,.29.73v.11a1.25,1.25,0,0,1-.12.56.86.86,0,0,1-.35.38,1,1,0,0,1-.51.14.92.92,0,0,1-.72-.3,1.13,1.13,0,0,1-.27-.79Zm.48,0a.84.84,0,0,0,.13.51.44.44,0,0,0,.38.19.42.42,0,0,0,.37-.19.93.93,0,0,0,.14-.55.88.88,0,0,0-.14-.51.45.45,0,0,0-.38-.18.46.46,0,0,0-.37.18A1,1,0,0,0,120.82,117.13Z"/><path class="cls-5" d="M123.15,116.06v.24a.77.77,0,0,1,.62-.28c.44,0,.66.25.67.75v1.4H124V116.8a.45.45,0,0,0-.09-.3.38.38,0,0,0-.28-.09.44.44,0,0,0-.43.26v1.5h-.48v-2.11Z"/><path class="cls-5" d="M125.53,115.54v.52h.37v.35h-.37v1.18a.25.25,0,0,0,0,.17.21.21,0,0,0,.17.06l.16,0v.36a1.12,1.12,0,0,1-.31,0c-.36,0-.55-.2-.55-.61v-1.19h-.34v-.35h.34v-.52Z"/><path class="cls-5" d="M127.37,116.49l-.19,0a.44.44,0,0,0-.44.25v1.45h-.48v-2.11h.46v.23a.53.53,0,0,1,.47-.27l.17,0Z"/><path class="cls-5" d="M127.51,117.09a1.31,1.31,0,0,1,.12-.56,1,1,0,0,1,.35-.38,1,1,0,0,1,.51-.13.94.94,0,0,1,.7.27,1.11,1.11,0,0,1,.28.73v.11a1.25,1.25,0,0,1-.12.56.86.86,0,0,1-.35.38,1,1,0,0,1-.51.14.92.92,0,0,1-.72-.3,1.13,1.13,0,0,1-.27-.79Zm.48,0a.84.84,0,0,0,.13.51.44.44,0,0,0,.38.19.42.42,0,0,0,.37-.19.93.93,0,0,0,.13-.55.88.88,0,0,0-.13-.51.46.46,0,0,0-.38-.18.45.45,0,0,0-.37.18A1,1,0,0,0,128,117.13Z"/><path class="cls-5" d="M130.38,118.17h-.47v-3h.47Z"/><path class="cls-5" d="M131.4,118.17h-.47v-3h.47Z"/><path class="cls-5" d="M132.85,118.21a1,1,0,0,1-.73-.29,1,1,0,0,1-.28-.75v-.06a1.32,1.32,0,0,1,.12-.57,1,1,0,0,1,.34-.38.88.88,0,0,1,.5-.14.82.82,0,0,1,.66.27,1.17,1.17,0,0,1,.24.78v.19h-1.38a.62.62,0,0,0,.17.42.54.54,0,0,0,.39.15.65.65,0,0,0,.53-.26l.26.24a.87.87,0,0,1-.34.29A1.06,1.06,0,0,1,132.85,118.21Zm-.06-1.81a.39.39,0,0,0-.31.13.7.7,0,0,0-.15.39h.9v0a.54.54,0,0,0-.13-.36A.39.39,0,0,0,132.79,116.4Z"/><path class="cls-5" d="M135.17,116.49l-.19,0a.45.45,0,0,0-.44.25v1.45h-.47v-2.11h.45v.23A.54.54,0,0,1,135,116l.17,0Z"/><path class="cls-5" d="M166.28,36h-1.16v.78h1.36v.35h-1.86V34.58h1.85v.36h-1.35v.71h1.16Z"/><path class="cls-5" d="M167.6,35.86l.4-.62h.53l-.65.93.67,1H168l-.42-.64-.42.64h-.52l.66-1-.64-.93h.52Z"/><path class="cls-5" d="M169.44,34.78v.46h.38v.31h-.38v1.06a.23.23,0,0,0,.05.16.25.25,0,0,0,.17,0l.17,0v.33a1.15,1.15,0,0,1-.31,0,.48.48,0,0,1-.55-.54V35.55h-.35v-.31H169v-.46Z"/><path class="cls-5" d="M171.11,37.17a1.09,1.09,0,0,1-.73-.25.87.87,0,0,1-.28-.68v-.06a1,1,0,0,1,.12-.5.88.88,0,0,1,.34-.35,1,1,0,0,1,.5-.13.88.88,0,0,1,.66.25,1,1,0,0,1,.24.7v.17h-1.38a.52.52,0,0,0,.17.37.56.56,0,0,0,.39.14.68.68,0,0,0,.53-.24l.25.22a.8.8,0,0,1-.33.27A1.24,1.24,0,0,1,171.11,37.17Zm-.06-1.63a.42.42,0,0,0-.31.13.64.64,0,0,0-.16.34h.91v0a.5.5,0,0,0-.13-.33A.43.43,0,0,0,171.05,35.54Z"/><path class="cls-5" d="M173.43,35.63l-.19,0a.44.44,0,0,0-.44.23v1.29h-.48V35.24h.46v.21a.55.55,0,0,1,.48-.25.38.38,0,0,1,.16,0Z"/><path class="cls-5" d="M174.17,35.24l0,.22a.79.79,0,0,1,.61-.26.6.6,0,0,1,.67.68v1.25H175V35.91a.37.37,0,0,0-.09-.27.38.38,0,0,0-.28-.09.46.46,0,0,0-.43.24v1.34h-.47V35.24Z"/><path class="cls-5" d="M177.22,37.13a.63.63,0,0,1-.06-.17.77.77,0,0,1-.55.21.79.79,0,0,1-.52-.16.53.53,0,0,1-.2-.41.51.51,0,0,1,.25-.46,1.33,1.33,0,0,1,.72-.16h.29v-.13a.29.29,0,0,0-.09-.23.39.39,0,0,0-.28-.09.45.45,0,0,0-.27.07.22.22,0,0,0-.1.19h-.48a.44.44,0,0,1,.12-.3.77.77,0,0,1,.31-.21,1.25,1.25,0,0,1,.45-.08,1,1,0,0,1,.59.17.57.57,0,0,1,.22.47v.86a.89.89,0,0,0,.08.4v0Zm-.52-.3a.58.58,0,0,0,.26-.06.45.45,0,0,0,.19-.17v-.36h-.26a.68.68,0,0,0-.39.09.25.25,0,0,0-.14.23.22.22,0,0,0,.09.19A.41.41,0,0,0,176.7,36.83Z"/><path class="cls-5" d="M178.63,37.13h-.48V34.44h.48Z"/><path class="cls-5" d="M180.82,34.58l.83,2,.81-2h.64v2.55h-.49v-.84l0-1.12-.84,2h-.35l-.84-2,.05,1.12v.84h-.5V34.58Z"/><path class="cls-5" d="M184.57,37.17a1.09,1.09,0,0,1-.73-.25.87.87,0,0,1-.28-.68v-.06a1,1,0,0,1,.12-.5.88.88,0,0,1,.34-.35,1,1,0,0,1,.5-.13.88.88,0,0,1,.66.25,1,1,0,0,1,.24.7v.17H184a.52.52,0,0,0,.17.37.56.56,0,0,0,.39.14.66.66,0,0,0,.53-.24l.26.22a.91.91,0,0,1-.34.27A1.21,1.21,0,0,1,184.57,37.17Zm-.06-1.63a.42.42,0,0,0-.31.13.57.57,0,0,0-.15.34h.9v0a.5.5,0,0,0-.13-.33A.42.42,0,0,0,184.51,35.54Z"/><path class="cls-5" d="M186.23,35.24l0,.2a.79.79,0,0,1,.61-.24.61.61,0,0,1,.58.29.78.78,0,0,1,.64-.29.71.71,0,0,1,.53.18.7.7,0,0,1,.17.51v1.24h-.47V35.9a.33.33,0,0,0-.09-.26.4.4,0,0,0-.29-.09.46.46,0,0,0-.27.08.41.41,0,0,0-.14.2v1.3h-.47V35.89c0-.23-.14-.34-.39-.34a.42.42,0,0,0-.4.21v1.37h-.47V35.24Z"/><path class="cls-5" d="M189.18,36.17a1,1,0,0,1,.12-.5.84.84,0,0,1,.35-.35,1.07,1.07,0,0,1,.51-.12,1,1,0,0,1,.69.25.9.9,0,0,1,.29.66v.1a1.06,1.06,0,0,1-.12.5.86.86,0,0,1-.34.34,1.08,1.08,0,0,1-.52.12.93.93,0,0,1-1-1Zm.47,0a.69.69,0,0,0,.14.45.45.45,0,0,0,.37.17.47.47,0,0,0,.38-.17.75.75,0,0,0,.13-.49.74.74,0,0,0-.14-.46.49.49,0,0,0-.74,0A.78.78,0,0,0,189.65,36.21Z"/><path class="cls-5" d="M192.65,35.63l-.19,0a.44.44,0,0,0-.44.23v1.29h-.48V35.24H192v.21a.55.55,0,0,1,.48-.25.38.38,0,0,1,.16,0Z"/><path class="cls-5" d="M193.73,36.52l.43-1.28h.5l-.84,2.18a.68.68,0,0,1-.66.48l-.22,0v-.33H193a.49.49,0,0,0,.27-.06.32.32,0,0,0,.14-.19l.07-.17-.74-1.88h.51Z"/><path class="cls-5" d="M198.15,36.3a.9.9,0,0,1-.34.64,1.4,1.4,0,0,1-1.38.09,1.08,1.08,0,0,1-.4-.42,1.31,1.31,0,0,1-.14-.61v-.24a1.31,1.31,0,0,1,.14-.64,1,1,0,0,1,.41-.42,1.23,1.23,0,0,1,.61-.15,1.13,1.13,0,0,1,.76.23,1,1,0,0,1,.34.64h-.5a.55.55,0,0,0-.18-.39.62.62,0,0,0-.42-.12.59.59,0,0,0-.49.21.92.92,0,0,0-.18.62V36a1,1,0,0,0,.17.63.55.55,0,0,0,.48.22.77.77,0,0,0,.44-.11.56.56,0,0,0,.18-.4Z"/><path class="cls-5" d="M198.45,36.17a1,1,0,0,1,.12-.5.91.91,0,0,1,.35-.35,1.07,1.07,0,0,1,.51-.12,1,1,0,0,1,.7.25.93.93,0,0,1,.28.66v.1a1.06,1.06,0,0,1-.12.5.88.88,0,0,1-.35.34,1.07,1.07,0,0,1-.51.12,1,1,0,0,1-.72-.27,1,1,0,0,1-.27-.71Zm.48,0a.69.69,0,0,0,.13.45.47.47,0,0,0,.38.17.45.45,0,0,0,.37-.17.75.75,0,0,0,.13-.49.74.74,0,0,0-.13-.46.49.49,0,0,0-.38-.17.47.47,0,0,0-.37.17A.79.79,0,0,0,198.93,36.21Z"/><path class="cls-5" d="M201.26,35.24v.22a.81.81,0,0,1,.62-.26.6.6,0,0,1,.67.68v1.25h-.48V35.91a.36.36,0,0,0-.08-.27.4.4,0,0,0-.29-.09.45.45,0,0,0-.42.24v1.34h-.48V35.24Z"/><path class="cls-5" d="M203.64,34.78v.46H204v.31h-.37v1.06a.19.19,0,0,0,.05.16.23.23,0,0,0,.17,0l.16,0v.33a1.15,1.15,0,0,1-.31,0,.48.48,0,0,1-.55-.54V35.55h-.34v-.31h.34v-.46Z"/><path class="cls-5" d="M205.48,35.63l-.19,0a.44.44,0,0,0-.44.23v1.29h-.48V35.24h.45l0,.21a.55.55,0,0,1,.47-.25.4.4,0,0,1,.17,0Z"/><path class="cls-5" d="M205.62,36.17a1,1,0,0,1,.12-.5.84.84,0,0,1,.35-.35,1.07,1.07,0,0,1,.51-.12,1,1,0,0,1,.69.25.9.9,0,0,1,.29.66v.1a1.06,1.06,0,0,1-.12.5.86.86,0,0,1-.34.34,1.08,1.08,0,0,1-.52.12,1,1,0,0,1-.71-.27,1,1,0,0,1-.27-.71Zm.47,0a.69.69,0,0,0,.14.45.45.45,0,0,0,.37.17.47.47,0,0,0,.38-.17.75.75,0,0,0,.13-.49.68.68,0,0,0-.14-.46.45.45,0,0,0-.37-.17.47.47,0,0,0-.37.17A.78.78,0,0,0,206.09,36.21Z"/><path class="cls-5" d="M208.49,37.13H208V34.44h.47Z"/><path class="cls-5" d="M209.51,37.13H209V34.44h.47Z"/><path class="cls-5" d="M211,37.17a1.08,1.08,0,0,1-.73-.25.87.87,0,0,1-.28-.68v-.06a1,1,0,0,1,.12-.5.88.88,0,0,1,.34-.35,1,1,0,0,1,.5-.13.9.9,0,0,1,.66.25,1,1,0,0,1,.24.7v.17h-1.38a.52.52,0,0,0,.17.37.56.56,0,0,0,.39.14.68.68,0,0,0,.53-.24l.25.22a.8.8,0,0,1-.33.27A1.24,1.24,0,0,1,211,37.17Zm-.06-1.63a.42.42,0,0,0-.31.13.64.64,0,0,0-.16.34h.91v0a.5.5,0,0,0-.13-.33A.43.43,0,0,0,210.9,35.54Z"/><path class="cls-5" d="M213.28,35.63l-.19,0a.44.44,0,0,0-.44.23v1.29h-.48V35.24h.46v.21a.55.55,0,0,1,.48-.25.38.38,0,0,1,.16,0Z"/><path class="cls-5" d="M178.24,52.15a.38.38,0,0,0-.13-.29,1.39,1.39,0,0,0-.48-.2,2.68,2.68,0,0,1-.55-.23.74.74,0,0,1-.39-.64.72.72,0,0,1,.28-.57,1.13,1.13,0,0,1,.73-.22,1.25,1.25,0,0,1,.53.11.87.87,0,0,1,.37.31.9.9,0,0,1,.13.45h-.49a.45.45,0,0,0-.14-.35.69.69,0,0,0-.78,0,.34.34,0,0,0-.13.29.33.33,0,0,0,.14.26,1.6,1.6,0,0,0,.48.2,2,2,0,0,1,.53.23.91.91,0,0,1,.3.28.8.8,0,0,1,.09.39.68.68,0,0,1-.27.56,1.18,1.18,0,0,1-.74.21,1.48,1.48,0,0,1-.57-.11,1,1,0,0,1-.4-.32.75.75,0,0,1-.14-.47h.49a.45.45,0,0,0,.16.38.7.7,0,0,0,.46.13.63.63,0,0,0,.39-.1A.36.36,0,0,0,178.24,52.15Z"/><path class="cls-5" d="M179.66,51.83v1.05h-.5V50h1.09a1.09,1.09,0,0,1,.76.25.81.81,0,0,1,.28.65.84.84,0,0,1-.27.66,1.2,1.2,0,0,1-.77.23Zm0-.4h.59a.63.63,0,0,0,.41-.12.48.48,0,0,0,.13-.36.46.46,0,0,0-.14-.37.52.52,0,0,0-.38-.14h-.61Z"/><path class="cls-5" d="M182.24,52.88h-.49V50h.49Z"/><path class="cls-5" d="M186,52a1,1,0,0,1-.34.71,1.13,1.13,0,0,1-.78.25,1.08,1.08,0,0,1-.6-.16,1.13,1.13,0,0,1-.4-.46,1.6,1.6,0,0,1-.14-.69v-.26a1.58,1.58,0,0,1,.14-.71,1,1,0,0,1,.41-.47,1.06,1.06,0,0,1,.61-.17,1,1,0,0,1,1.1,1h-.5a.72.72,0,0,0-.17-.45.61.61,0,0,0-.43-.13.58.58,0,0,0-.49.23,1.15,1.15,0,0,0-.18.7v.25a1.25,1.25,0,0,0,.17.7.55.55,0,0,0,.48.24.54.54,0,0,0,.62-.56Z"/><path class="cls-5" d="M186.32,51.81a1.13,1.13,0,0,1,.13-.56.87.87,0,0,1,.34-.39,1.07,1.07,0,0,1,.51-.13.91.91,0,0,1,.7.28,1.08,1.08,0,0,1,.29.73v.11a1.28,1.28,0,0,1-.12.56.92.92,0,0,1-.35.38,1,1,0,0,1-.51.13.92.92,0,0,1-.72-.3,1.11,1.11,0,0,1-.27-.79Zm.48,0a.86.86,0,0,0,.13.51.45.45,0,0,0,.38.18.43.43,0,0,0,.37-.18,1,1,0,0,0,.14-.55.84.84,0,0,0-.14-.51.44.44,0,0,0-.38-.19.44.44,0,0,0-.37.19A.91.91,0,0,0,186.8,51.85Z"/><path class="cls-5" d="M189.13,50.77V51a.76.76,0,0,1,.62-.28c.44,0,.66.25.67.76v1.39H190V51.51a.4.4,0,0,0-.09-.29.35.35,0,0,0-.29-.1.45.45,0,0,0-.42.26v1.5h-.48V50.77Z"/><path class="cls-5" d="M191.51,50.26v.51h.37v.35h-.37V52.3a.24.24,0,0,0,.05.18.25.25,0,0,0,.17.05l.16,0v.37a1.15,1.15,0,0,1-.31,0c-.36,0-.55-.2-.55-.6v-1.2h-.34v-.35H191v-.51Z"/><path class="cls-5" d="M193.35,51.2h-.19a.42.42,0,0,0-.44.25v1.44h-.48V50.77h.46V51a.52.52,0,0,1,.47-.28.4.4,0,0,1,.17,0Z"/><path class="cls-5" d="M193.49,51.81a1.25,1.25,0,0,1,.12-.56,1,1,0,0,1,.35-.39,1.07,1.07,0,0,1,.51-.13.91.91,0,0,1,.7.28,1.07,1.07,0,0,1,.28.73v.11a1.28,1.28,0,0,1-.12.56.92.92,0,0,1-.35.38,1,1,0,0,1-.51.13.92.92,0,0,1-.72-.3,1.11,1.11,0,0,1-.27-.79Zm.48,0a.86.86,0,0,0,.13.51.45.45,0,0,0,.38.18.43.43,0,0,0,.37-.18,1,1,0,0,0,.13-.55.84.84,0,0,0-.13-.51.45.45,0,0,0-.38-.19.43.43,0,0,0-.37.19A.91.91,0,0,0,194,51.85Z"/><path class="cls-5" d="M196.36,52.88h-.47v-3h.47Z"/><path class="cls-5" d="M197.38,52.88h-.47v-3h.47Z"/><path class="cls-5" d="M198.83,52.92a1,1,0,0,1-.73-.28,1,1,0,0,1-.28-.76v-.06a1.25,1.25,0,0,1,.12-.56.93.93,0,0,1,.34-.39.94.94,0,0,1,.5-.14.8.8,0,0,1,.66.28,1.14,1.14,0,0,1,.24.78V52H198.3a.62.62,0,0,0,.17.41.53.53,0,0,0,.39.15.64.64,0,0,0,.53-.26l.26.24a.89.89,0,0,1-.34.3A1.09,1.09,0,0,1,198.83,52.92Zm-.06-1.81a.4.4,0,0,0-.31.14.69.69,0,0,0-.15.38h.9v0a.56.56,0,0,0-.13-.36A.39.39,0,0,0,198.77,51.11Z"/><path class="cls-5" d="M201.15,51.2H201a.43.43,0,0,0-.44.25v1.44h-.47V50.77h.45V51a.52.52,0,0,1,.48-.28.47.47,0,0,1,.17,0Z"/><path class="cls-5" d="M177.32,69.85h-.5V67h.5Z"/><path class="cls-5" d="M179.76,69.85h-1.91v-.33l.94-1a3,3,0,0,0,.3-.38.75.75,0,0,0,.08-.31.49.49,0,0,0-.11-.33.42.42,0,0,0-.31-.13.46.46,0,0,0-.36.15.56.56,0,0,0-.12.38h-.48a.94.94,0,0,1,.12-.47.81.81,0,0,1,.34-.32,1,1,0,0,1,.5-.12,1,1,0,0,1,.66.21.73.73,0,0,1,.24.58.94.94,0,0,1-.12.44,2.1,2.1,0,0,1-.4.53l-.69.75h1.32Z"/><path class="cls-5" d="M182.37,68.92a1,1,0,0,1-.34.71,1.17,1.17,0,0,1-.78.26,1.08,1.08,0,0,1-.6-.17,1.1,1.1,0,0,1-.4-.45,1.67,1.67,0,0,1-.14-.69v-.27a1.61,1.61,0,0,1,.14-.71,1,1,0,0,1,.41-.47,1.14,1.14,0,0,1,.61-.17,1.09,1.09,0,0,1,.76.26,1.11,1.11,0,0,1,.34.72h-.5a.72.72,0,0,0-.17-.44.62.62,0,0,0-.43-.14.56.56,0,0,0-.49.24,1.11,1.11,0,0,0-.18.69v.25a1.28,1.28,0,0,0,.17.71.55.55,0,0,0,.48.24.7.7,0,0,0,.44-.13.67.67,0,0,0,.18-.44Z"/><path class="cls-5" d="M186,68.92a1.06,1.06,0,0,1-.33.71,1.17,1.17,0,0,1-.78.26,1.08,1.08,0,0,1-.6-.17,1,1,0,0,1-.4-.45,1.84,1.84,0,0,1-.15-.69v-.27a1.61,1.61,0,0,1,.15-.71,1,1,0,0,1,.41-.47,1.12,1.12,0,0,1,.61-.17,1.09,1.09,0,0,1,.76.26,1.06,1.06,0,0,1,.33.72h-.49a.67.67,0,0,0-.18-.44.57.57,0,0,0-.42-.14.56.56,0,0,0-.49.24,1.11,1.11,0,0,0-.18.69v.25a1.29,1.29,0,0,0,.16.71.56.56,0,0,0,.49.24.7.7,0,0,0,.44-.13.78.78,0,0,0,.18-.44Z"/><path class="cls-5" d="M186.28,68.77a1.28,1.28,0,0,1,.12-.56.92.92,0,0,1,.35-.38,1,1,0,0,1,.51-.14A.91.91,0,0,1,188,68a1.05,1.05,0,0,1,.29.73v.11a1.25,1.25,0,0,1-.12.56.9.9,0,0,1-.34.38,1,1,0,0,1-.52.14.91.91,0,0,1-.71-.3,1.16,1.16,0,0,1-.27-.8Zm.47,0a.84.84,0,0,0,.14.51.42.42,0,0,0,.37.19.46.46,0,0,0,.38-.19,1,1,0,0,0,.13-.55.81.81,0,0,0-.14-.51.43.43,0,0,0-.37-.18.45.45,0,0,0-.37.18A.93.93,0,0,0,186.75,68.81Z"/><path class="cls-5" d="M189.09,67.73V68a.77.77,0,0,1,.62-.29c.44,0,.66.26.67.76v1.4h-.48V68.48a.47.47,0,0,0-.08-.3.4.4,0,0,0-.29-.1.47.47,0,0,0-.43.26v1.51h-.47V67.73Z"/><path class="cls-5" d="M191.47,67.22v.51h.37v.35h-.37v1.18a.28.28,0,0,0,0,.18s.09,0,.17,0a.5.5,0,0,0,.17,0v.37a1.18,1.18,0,0,1-.31,0c-.37,0-.55-.21-.55-.61v-1.2h-.35v-.35H191v-.51Z"/><path class="cls-5" d="M193.31,68.17l-.2,0a.46.46,0,0,0-.44.25v1.45h-.47V67.73h.45V68a.56.56,0,0,1,.48-.28.43.43,0,0,1,.17,0Z"/><path class="cls-5" d="M193.45,68.77a1.28,1.28,0,0,1,.12-.56.86.86,0,0,1,.35-.38,1,1,0,0,1,.51-.14.93.93,0,0,1,.69.28,1.05,1.05,0,0,1,.29.73v.11a1.25,1.25,0,0,1-.12.56.9.9,0,0,1-.34.38,1,1,0,0,1-.52.14.9.9,0,0,1-.71-.3,1.16,1.16,0,0,1-.27-.8Zm.47,0a.84.84,0,0,0,.14.51.42.42,0,0,0,.37.19.46.46,0,0,0,.38-.19,1,1,0,0,0,.13-.55.88.88,0,0,0-.14-.51.47.47,0,0,0-.74,0A.93.93,0,0,0,193.92,68.81Z"/><path class="cls-5" d="M196.32,69.85h-.48v-3h.48Z"/><path class="cls-5" d="M197.34,69.85h-.47v-3h.47Z"/><path class="cls-5" d="M198.79,69.89a1,1,0,0,1-.73-.29,1,1,0,0,1-.28-.76v0a1.32,1.32,0,0,1,.12-.57.9.9,0,0,1,.83-.53.85.85,0,0,1,.67.28,1.14,1.14,0,0,1,.24.78v.19h-1.39a.65.65,0,0,0,.18.41.5.5,0,0,0,.39.16.65.65,0,0,0,.53-.27l.25.25a.88.88,0,0,1-.34.29A1,1,0,0,1,198.79,69.89Zm-.06-1.81a.39.39,0,0,0-.31.13.7.7,0,0,0-.16.38h.91v0a.59.59,0,0,0-.13-.36A.4.4,0,0,0,198.73,68.08Z"/><path class="cls-5" d="M201.11,68.17l-.19,0a.44.44,0,0,0-.44.25v1.45H200V67.73h.46V68a.53.53,0,0,1,.47-.28.4.4,0,0,1,.17,0Z"/><path class="cls-5" d="M186.24,83.24v1.9a.92.92,0,0,1-.29.72,1.1,1.1,0,0,1-.78.27,1.12,1.12,0,0,1-.77-.26,1,1,0,0,1-.29-.73v-1.9h.49v1.91a.58.58,0,0,0,.15.43.55.55,0,0,0,.42.15q.57,0,.57-.6V83.24Z"/><path class="cls-5" d="M188.31,85.42h-1.1l-.23.67h-.51l1.07-2.85H188l1.07,2.85h-.51Zm-1-.39h.82l-.41-1.18Z"/><path class="cls-5" d="M190.43,85h-.55v1.1h-.5V83.24h1a1.21,1.21,0,0,1,.76.22.78.78,0,0,1,.27.64.76.76,0,0,1-.14.48.88.88,0,0,1-.38.3l.64,1.18v0H191Zm-.55-.4h.51a.61.61,0,0,0,.39-.12.47.47,0,0,0,.14-.35.48.48,0,0,0-.13-.35.57.57,0,0,0-.39-.13h-.52Z"/><path class="cls-5" d="M193.84,83.64H193v2.45h-.49V83.64h-.88v-.4h2.26Z"/><path class="cls-5" d="M173.3,102.19h-.5V99.34h.5Z"/><path class="cls-5" d="M174.3,100.07v.25a.76.76,0,0,1,.62-.28c.44,0,.66.25.67.75v1.4h-.48v-1.37a.47.47,0,0,0-.08-.3.4.4,0,0,0-.29-.1.47.47,0,0,0-.43.26v1.51h-.47v-2.12Z"/><path class="cls-5" d="M176.68,99.56v.51h.37v.36h-.37v1.18a.25.25,0,0,0,0,.17.23.23,0,0,0,.18,0,.47.47,0,0,0,.16,0v.37a1.18,1.18,0,0,1-.31,0c-.37,0-.55-.2-.55-.61v-1.19h-.35v-.36h.35v-.51Z"/><path class="cls-5" d="M178.34,102.23a1,1,0,0,1-.73-.29,1,1,0,0,1-.28-.75v-.06a1.32,1.32,0,0,1,.12-.57,1,1,0,0,1,.35-.39.9.9,0,0,1,.49-.13.82.82,0,0,1,.66.27,1.14,1.14,0,0,1,.24.78v.19h-1.38a.64.64,0,0,0,.17.42.54.54,0,0,0,.39.15.64.64,0,0,0,.53-.27l.26.25a.87.87,0,0,1-.34.29A1.06,1.06,0,0,1,178.34,102.23Zm-.05-1.81a.41.41,0,0,0-.32.13.69.69,0,0,0-.15.38h.9v0a.54.54,0,0,0-.13-.36A.38.38,0,0,0,178.29,100.42Z"/><path class="cls-5" d="M180.66,100.51l-.19,0a.45.45,0,0,0-.44.25v1.45h-.47v-2.12H180v.24a.55.55,0,0,1,.48-.27.44.44,0,0,1,.17,0Z"/><path class="cls-5" d="M182.07,100.51l-.19,0a.44.44,0,0,0-.44.25v1.45H181v-2.12h.46v.24a.53.53,0,0,1,.48-.27.39.39,0,0,1,.16,0Z"/><path class="cls-5" d="M183.65,102a.75.75,0,0,1-.59.25.66.66,0,0,1-.52-.2.87.87,0,0,1-.18-.59v-1.37h.47v1.37c0,.27.12.4.34.4a.48.48,0,0,0,.47-.25v-1.52h.47v2.12h-.45Z"/><path class="cls-5" d="M186.44,101.15a1.23,1.23,0,0,1-.22.78.76.76,0,0,1-1.15.07v1h-.48v-2.93H185l0,.22a.78.78,0,0,1,1.17,0,1.29,1.29,0,0,1,.22.8Zm-.47,0a.9.9,0,0,0-.12-.5.44.44,0,0,0-.36-.19.43.43,0,0,0-.42.24v.94a.42.42,0,0,0,.42.25.4.4,0,0,0,.35-.18A1,1,0,0,0,186,101.11Z"/><path class="cls-5" d="M187.44,99.56v.51h.37v.36h-.37v1.18a.25.25,0,0,0,.05.17s.09,0,.17,0a.44.44,0,0,0,.16,0v.37a1.12,1.12,0,0,1-.31,0c-.36,0-.54-.2-.54-.61v-1.19h-.35v-.36H187v-.51Z"/><path class="cls-5" d="M191.39,101.26a1,1,0,0,1-.34.71,1.13,1.13,0,0,1-.78.26,1.22,1.22,0,0,1-.6-.16,1.13,1.13,0,0,1-.4-.46,1.67,1.67,0,0,1-.14-.69v-.27a1.61,1.61,0,0,1,.14-.71,1.11,1.11,0,0,1,.41-.47,1.15,1.15,0,0,1,.62-.17,1.09,1.09,0,0,1,.75.26,1.07,1.07,0,0,1,.34.72h-.49a.78.78,0,0,0-.18-.44.61.61,0,0,0-.42-.14.58.58,0,0,0-.5.24,1.29,1.29,0,0,0-.18.69v.25a1.28,1.28,0,0,0,.17.71.55.55,0,0,0,.48.24.63.63,0,0,0,.44-.13.72.72,0,0,0,.19-.44Z"/><path class="cls-5" d="M191.69,101.11a1.28,1.28,0,0,1,.13-.56.9.9,0,0,1,.34-.38,1,1,0,0,1,.51-.13.94.94,0,0,1,.7.27,1.1,1.1,0,0,1,.29.73v.11a1.25,1.25,0,0,1-.12.56.9.9,0,0,1-.34.38,1,1,0,0,1-.52.14.92.92,0,0,1-.72-.3,1.14,1.14,0,0,1-.27-.8Zm.48,0a.84.84,0,0,0,.13.51.44.44,0,0,0,.38.19.42.42,0,0,0,.37-.19.93.93,0,0,0,.14-.55.88.88,0,0,0-.14-.51.45.45,0,0,0-.38-.18.43.43,0,0,0-.36.18A.86.86,0,0,0,192.17,101.15Z"/><path class="cls-5" d="M194.5,100.07v.25a.77.77,0,0,1,.62-.28c.44,0,.66.25.67.75v1.4h-.47v-1.37a.41.41,0,0,0-.09-.3.38.38,0,0,0-.28-.1.45.45,0,0,0-.43.26v1.51h-.48v-2.12Z"/><path class="cls-5" d="M196.88,99.56v.51h.37v.36h-.37v1.18a.25.25,0,0,0,.05.17s.09,0,.17,0a.44.44,0,0,0,.16,0v.37a1.12,1.12,0,0,1-.31,0c-.36,0-.54-.2-.54-.61v-1.19h-.35v-.36h.35v-.51Z"/><path class="cls-5" d="M197.47,101.11a1.28,1.28,0,0,1,.12-.56.92.92,0,0,1,.86-.51.93.93,0,0,1,.69.27,1.05,1.05,0,0,1,.29.73v.11a1.25,1.25,0,0,1-.12.56.84.84,0,0,1-.34.38,1,1,0,0,1-.52.14.89.89,0,0,1-.71-.3,1.14,1.14,0,0,1-.27-.8Zm.47,0a.84.84,0,0,0,.14.51.42.42,0,0,0,.37.19.44.44,0,0,0,.38-.19,1,1,0,0,0,.13-.55.88.88,0,0,0-.14-.51.47.47,0,0,0-.74,0A.93.93,0,0,0,197.94,101.15Z"/><path class="cls-5" d="M200.34,102.19h-.48v-3h.48Z"/><path class="cls-5" d="M201.36,102.19h-.47v-3h.47Z"/><path class="cls-5" d="M202.81,102.23a1,1,0,0,1-.73-.29,1,1,0,0,1-.28-.75v-.06a1.32,1.32,0,0,1,.12-.57,1,1,0,0,1,.34-.39.92.92,0,0,1,.49-.13.85.85,0,0,1,.67.27,1.14,1.14,0,0,1,.24.78v.19h-1.39a.71.71,0,0,0,.18.42.52.52,0,0,0,.38.15.65.65,0,0,0,.54-.27l.25.25a.8.8,0,0,1-.34.29A1,1,0,0,1,202.81,102.23Zm-.06-1.81a.39.39,0,0,0-.31.13.7.7,0,0,0-.16.38h.91v0a.59.59,0,0,0-.13-.36A.4.4,0,0,0,202.75,100.42Z"/><path class="cls-5" d="M205.13,100.51l-.19,0a.44.44,0,0,0-.44.25v1.45H204v-2.12h.46v.24A.53.53,0,0,1,205,100a.42.42,0,0,1,.17,0Z"/><path class="cls-5" d="M185.94,115.72h-.89v2.45h-.49v-2.45h-.88v-.39h2.26Z"/><path class="cls-5" d="M186.27,115.51a.21.21,0,0,1,.07-.18.24.24,0,0,1,.19-.08.25.25,0,0,1,.2.08.21.21,0,0,1,.07.18.24.24,0,0,1-.07.18.28.28,0,0,1-.2.07.27.27,0,0,1-.19-.07A.24.24,0,0,1,186.27,115.51Zm.5,2.66h-.47v-2.11h.47Z"/><path class="cls-5" d="M187.73,116.06l0,.22a.74.74,0,0,1,.61-.26.58.58,0,0,1,.58.32.73.73,0,0,1,.64-.32.67.67,0,0,1,.53.19.86.86,0,0,1,.17.57v1.39h-.47v-1.38a.33.33,0,0,0-.38-.38.4.4,0,0,0-.27.08.49.49,0,0,0-.14.23v1.45h-.47v-1.39a.34.34,0,0,0-.39-.37.4.4,0,0,0-.4.23v1.53h-.47v-2.11Z"/><path class="cls-5" d="M191.7,118.21a1,1,0,0,1-.73-.29,1,1,0,0,1-.28-.75v-.06a1.32,1.32,0,0,1,.12-.57.9.9,0,0,1,.34-.38,1,1,0,0,1,1.16.13,1.17,1.17,0,0,1,.24.78v.19h-1.39a.68.68,0,0,0,.18.42.53.53,0,0,0,.39.15.67.67,0,0,0,.53-.26l.25.24a.8.8,0,0,1-.34.29A1,1,0,0,1,191.7,118.21Zm-.06-1.81a.39.39,0,0,0-.31.13.7.7,0,0,0-.16.39h.91v0a.59.59,0,0,0-.13-.36A.4.4,0,0,0,191.64,116.4Z"/><path class="cls-5" d="M194,116.49l-.19,0a.44.44,0,0,0-.44.25v1.45h-.48v-2.11h.46v.23a.53.53,0,0,1,.47-.27l.17,0Z"/><polygon class="cls-5" points="81.68 40.85 83.43 38.84 85.98 38.84 84.24 40.85 81.68 40.85"/><polygon class="cls-5" points="83.83 38.35 85.58 36.35 88.13 36.35 86.39 38.35 83.83 38.35"/><polygon class="cls-5" points="84.81 40.85 86.56 38.84 89.12 38.84 87.38 40.85 84.81 40.85"/><polygon class="cls-5" points="87.01 38.35 88.75 36.35 91.31 36.35 89.57 38.35 87.01 38.35"/><path class="cls-5" d="M33.09,44.65c0-.21.06-7.49.06-7.49l-2.87,7.49h-.57l-2.93-7.49s.1,7.34.1,7.49h-.82V35.84h1l3,7.47,2.86-7.47h1v8.81Z"/><path class="cls-5" d="M35.71,37.3V36.17h.72V37.3Zm0,7.35V38.7h.72v5.95Z"/><path class="cls-5" d="M42.88,43.32A2.43,2.43,0,0,1,40.5,44.8c-1.69,0-2.74-1.25-2.74-3.08a2.86,2.86,0,0,1,2.86-3.17,2.22,2.22,0,0,1,2.26,1.5l-.69.16a1.66,1.66,0,0,0-1.61-1c-1.37,0-2,1.17-2,2.47s.6,2.47,2,2.47a1.71,1.71,0,0,0,1.61-1Z"/><path class="cls-5" d="M44.71,38.7v.95a1.68,1.68,0,0,1,1.63-1,3.81,3.81,0,0,1,.52,0v.66a2.39,2.39,0,0,0-.48,0c-1.27,0-1.67.93-1.67,2.13v3.26H44V38.7Z"/><path class="cls-5" d="M50,44.8c-1.53,0-2.67-1.14-2.67-3.06s1-3.19,2.72-3.19,2.66,1.58,2.68,3.09C52.74,43.86,51.31,44.8,50,44.8Zm0-5.63c-1.07,0-1.92.79-1.92,2.57s1,2.41,1.89,2.41S52,43.55,52,41.64,51,39.17,50.05,39.17Z"/><path class="cls-5" d="M58.1,35.84a2.5,2.5,0,0,1,2.14.89A2.26,2.26,0,0,1,60.66,38a1.83,1.83,0,0,1-1.58,1.87A2.14,2.14,0,0,1,61,42.17a2.36,2.36,0,0,1-1.2,2.14,4.26,4.26,0,0,1-2,.34H54.15V35.84ZM55,39.57h2.85c1.45,0,1.95-.7,1.95-1.55a1.53,1.53,0,0,0-.26-.86,2.1,2.1,0,0,0-1.81-.57H55Zm3.13,4.32c1.19,0,2-.55,2-1.7a1.75,1.75,0,0,0-.88-1.57,3.39,3.39,0,0,0-1.8-.33H55v3.6Z"/><path class="cls-5" d="M62.23,44.65V35.84H63v8.81Z"/><path class="cls-5" d="M69.74,44.65c-1,0-1.45-.25-1.45-1.09a2.12,2.12,0,0,1-2.11,1.21,1.65,1.65,0,0,1-1.87-1.62c0-1.18,1-1.61,3-2.06l1-.22v-.46c0-.58-.29-1.21-1.38-1.21s-1.61.47-1.61,1.43l-.81-.14a2.11,2.11,0,0,1,2.33-1.94c1,0,2.18.31,2.18,1.79V43c0,.8,0,1.11.76,1.11h.13v.59ZM68.29,41.5l-.37.1c-2,.54-2.9.66-2.9,1.54a1.06,1.06,0,0,0,1.2,1A2.17,2.17,0,0,0,68.13,43a2.38,2.38,0,0,0,.16-1Z"/><path class="cls-5" d="M70.19,44.65v-.46l3.21-4.86H70.46V38.7h4v.43L71.22,44h3.31v.66Z"/><path class="cls-5" d="M76,41.85a2,2,0,0,0,2,2.27,2,2,0,0,0,1.93-1.24l.69.2A2.64,2.64,0,0,1,78,44.8a2.87,2.87,0,0,1-2.85-3.18,2.73,2.73,0,1,1,5.43,0v.11H76Zm3.76-.78a1.82,1.82,0,0,0-1.84-1.86A1.93,1.93,0,0,0,76,41.07Z"/></g></g></svg>