<svg xmlns="http://www.w3.org/2000/svg" viewBox="0 0 234.75 137.64"><defs><style>.cls-1{fill:#6a6b6d;}.cls-2{fill:#e4ebed;stroke:#231f20;stroke-miterlimit:10;stroke-width:0.5px;}.cls-3{fill:#de1f26;}.cls-4{fill:#282d3f;}.cls-5{fill:#fff;}</style></defs><title>Asset 3</title><g id="Layer_2" data-name="Layer 2"><g id="Layer_1-2" data-name="Layer 1"><path class="cls-1" d="M2.88,3.76H1.79V5.91h-1V.31h2a2.31,2.31,0,0,1,1.5.43A1.54,1.54,0,0,1,4.81,2a1.56,1.56,0,0,1-.27.94,1.71,1.71,0,0,1-.75.59L5,5.86v0H4ZM1.79,3h1a1.08,1.08,0,0,0,.77-.25A.84.84,0,0,0,3.84,2a.9.9,0,0,0-.26-.69,1.07,1.07,0,0,0-.76-.26h-1Z"/><path class="cls-1" d="M7.48,6A2,2,0,0,1,6,5.43a2,2,0,0,1-.55-1.49V3.82a2.48,2.48,0,0,1,.24-1.11,1.76,1.76,0,0,1,1.64-1,1.65,1.65,0,0,1,1.32.54,2.3,2.3,0,0,1,.46,1.54v.37H6.43a1.26,1.26,0,0,0,.34.82,1.06,1.06,0,0,0,.76.3,1.26,1.26,0,0,0,1-.52l.51.48a1.72,1.72,0,0,1-.67.58A2.06,2.06,0,0,1,7.48,6ZM7.37,2.42a.78.78,0,0,0-.62.27,1.35,1.35,0,0,0-.3.75H8.23V3.37A1.18,1.18,0,0,0,8,2.66.79.79,0,0,0,7.37,2.42Z"/><path class="cls-1" d="M12.36,5.91a1.52,1.52,0,0,1-.1-.39,1.48,1.48,0,0,1-1.1.47,1.44,1.44,0,0,1-1-.36,1.16,1.16,0,0,1-.4-.89,1.19,1.19,0,0,1,.5-1,2.45,2.45,0,0,1,1.41-.35h.57V3.09A.72.72,0,0,0,12,2.58a.71.71,0,0,0-.55-.2.81.81,0,0,0-.52.16.48.48,0,0,0-.2.41H9.83a1,1,0,0,1,.23-.64,1.48,1.48,0,0,1,.62-.47,2.21,2.21,0,0,1,.87-.17A1.7,1.7,0,0,1,12.71,2a1.31,1.31,0,0,1,.45,1V5a2,2,0,0,0,.16.89v.07Zm-1-.67a1.1,1.1,0,0,0,.52-.14.89.89,0,0,0,.36-.36V4h-.5a1.36,1.36,0,0,0-.78.18.59.59,0,0,0-.26.51.55.55,0,0,0,.18.43A.73.73,0,0,0,11.34,5.24Z"/><path class="cls-1" d="M15.13,5.91H14.2V0h.93Z"/><path class="cls-1" d="M18,3.91H16V3.15h2Z"/><path class="cls-1" d="M22.88,1.09H21.13V5.91h-1V1.09H18.43V.31h4.45Z"/><path class="cls-1" d="M23.52.67a.49.49,0,0,1,.14-.36.61.61,0,0,1,.78,0,.49.49,0,0,1,.14.36.5.5,0,0,1-.14.35.61.61,0,0,1-.78,0A.5.5,0,0,1,23.52.67Zm1,5.24h-.94V1.75h.94Z"/><path class="cls-1" d="M26.41,1.75l0,.43a1.49,1.49,0,0,1,1.2-.51,1.13,1.13,0,0,1,1.14.64,1.48,1.48,0,0,1,1.28-.64,1.33,1.33,0,0,1,1,.38,1.66,1.66,0,0,1,.34,1.12V5.91H30.5V3.2a.81.81,0,0,0-.18-.58.94.94,0,0,0-1.09,0,.82.82,0,0,0-.28.44V5.91H28V3.17a.66.66,0,0,0-.75-.73.81.81,0,0,0-.79.45v3h-.94V1.75Z"/><path class="cls-1" d="M34.22,6a2,2,0,0,1-1.44-.56,2,2,0,0,1-.55-1.49V3.82a2.48,2.48,0,0,1,.24-1.11,1.82,1.82,0,0,1,.68-.77,1.79,1.79,0,0,1,1-.27,1.64,1.64,0,0,1,1.31.54,2.3,2.3,0,0,1,.46,1.54v.37H33.17a1.27,1.27,0,0,0,.35.82,1,1,0,0,0,.76.3,1.23,1.23,0,0,0,1-.52l.51.48a1.72,1.72,0,0,1-.67.58A2.06,2.06,0,0,1,34.22,6Zm-.11-3.57a.8.8,0,0,0-.62.27,1.35,1.35,0,0,0-.3.75H35V3.37a1.12,1.12,0,0,0-.25-.71A.79.79,0,0,0,34.11,2.42Z"/><path class="cls-1" d="M39.65,3.83V5.91h-1V.31h2.15A2.16,2.16,0,0,1,42.31.8a1.62,1.62,0,0,1,.55,1.29,1.58,1.58,0,0,1-.54,1.28,2.26,2.26,0,0,1-1.52.46Zm0-.78h1.17a1.12,1.12,0,0,0,.79-.25.88.88,0,0,0,.27-.7,1,1,0,0,0-.27-.73,1.11,1.11,0,0,0-.77-.28H39.65Z"/><path class="cls-1" d="M45.8,2.6a2.34,2.34,0,0,0-.38,0,.86.86,0,0,0-.87.49V5.91h-.93V1.75h.89l0,.46a1.06,1.06,0,0,1,.94-.54,1,1,0,0,1,.33.05Z"/><path class="cls-1" d="M48.15,6a2,2,0,0,1-1.44-.56,2,2,0,0,1-.55-1.49V3.82a2.48,2.48,0,0,1,.24-1.11,1.76,1.76,0,0,1,1.64-1,1.65,1.65,0,0,1,1.32.54,2.3,2.3,0,0,1,.46,1.54v.37H47.1a1.26,1.26,0,0,0,.34.82,1.06,1.06,0,0,0,.76.3,1.26,1.26,0,0,0,1-.52l.51.48a1.72,1.72,0,0,1-.67.58A2.06,2.06,0,0,1,48.15,6ZM48,2.42a.77.77,0,0,0-.62.27,1.35,1.35,0,0,0-.3.75H48.9V3.37a1.18,1.18,0,0,0-.25-.71A.79.79,0,0,0,48,2.42Z"/><path class="cls-1" d="M52.88,4.78a.42.42,0,0,0-.21-.38A1.88,1.88,0,0,0,52,4.17a3.42,3.42,0,0,1-.8-.26,1.06,1.06,0,0,1-.7-1A1.12,1.12,0,0,1,51,2a1.8,1.8,0,0,1,1.15-.36A1.86,1.86,0,0,1,53.31,2a1.16,1.16,0,0,1,.46,1h-.94a.56.56,0,0,0-.2-.45.76.76,0,0,0-.53-.18.87.87,0,0,0-.5.14.45.45,0,0,0-.19.38.38.38,0,0,0,.18.34,2.4,2.4,0,0,0,.73.24,3.42,3.42,0,0,1,.86.29,1.18,1.18,0,0,1,.47.4,1.05,1.05,0,0,1,.15.57,1.09,1.09,0,0,1-.47.91A2,2,0,0,1,52.11,6a2.06,2.06,0,0,1-.91-.19,1.49,1.49,0,0,1-.62-.51,1.16,1.16,0,0,1-.22-.69h.9a.7.7,0,0,0,.25.51,1.17,1.17,0,0,0,1.18,0A.44.44,0,0,0,52.88,4.78Z"/><path class="cls-1" d="M56.45,6A1.92,1.92,0,0,1,55,5.43a2,2,0,0,1-.56-1.49V3.82a2.48,2.48,0,0,1,.24-1.11,1.82,1.82,0,0,1,.68-.77,1.79,1.79,0,0,1,1-.27,1.63,1.63,0,0,1,1.31.54,2.3,2.3,0,0,1,.47,1.54v.37H55.4a1.21,1.21,0,0,0,.34.82,1,1,0,0,0,.76.3,1.26,1.26,0,0,0,1-.52l.5.48a1.72,1.72,0,0,1-.67.58A2,2,0,0,1,56.45,6Zm-.11-3.57a.8.8,0,0,0-.63.27,1.52,1.52,0,0,0-.3.75h1.78V3.37a1.12,1.12,0,0,0-.25-.71A.77.77,0,0,0,56.34,2.42Z"/><path class="cls-1" d="M60,.73v1h.74v.69H60V4.76a.54.54,0,0,0,.1.35.43.43,0,0,0,.34.1l.32,0V5.9a2.25,2.25,0,0,1-.61.09c-.72,0-1.08-.4-1.08-1.19V2.44h-.69V1.75h.69v-1Z"/><rect class="cls-2" x="0.25" y="12.93" width="234.25" height="124.47"/><rect class="cls-3" x="7.47" y="20.4" width="219.8" height="109.78"/><rect class="cls-4" x="16.44" y="27.92" width="134.7" height="78.38"/><rect class="cls-1" x="158.18" y="67.65" width="61.31" height="15.23"/><rect class="cls-1" x="21.34" y="84.52" width="40.68" height="16.93"/><rect class="cls-1" x="16.44" y="110.1" width="63.88" height="12.5"/><rect class="cls-1" x="158.18" y="47.78" width="61.31" height="15.23"/><rect class="cls-1" x="158.18" y="27.92" width="61.31" height="15.23"/><path class="cls-5" d="M55.62,73.83h.43a.76.76,0,0,0,.52-.17.6.6,0,0,0,.2-.48.71.71,0,0,0-.16-.48.66.66,0,0,0-.49-.16.67.67,0,0,0-.47.16.54.54,0,0,0-.19.43h-.71a1.07,1.07,0,0,1,.17-.59,1.19,1.19,0,0,1,.49-.42,1.47,1.47,0,0,1,.7-.16,1.42,1.42,0,0,1,1,.33,1.1,1.1,0,0,1,.37.89.87.87,0,0,1-.19.54,1.17,1.17,0,0,1-.47.38,1.09,1.09,0,0,1,.54.38,1,1,0,0,1,.18.61,1.16,1.16,0,0,1-.39.92,1.59,1.59,0,0,1-1,.34,1.52,1.52,0,0,1-1-.33,1.08,1.08,0,0,1-.39-.87h.71a.57.57,0,0,0,.19.45.72.72,0,0,0,.51.18.73.73,0,0,0,.52-.18.63.63,0,0,0,.19-.51.7.7,0,0,0-.2-.52.85.85,0,0,0-.59-.18h-.42Z"/><path class="cls-5" d="M61.07,76.29H58.21V75.8l1.42-1.55a4.45,4.45,0,0,0,.44-.57,1,1,0,0,0,.13-.47.73.73,0,0,0-.17-.49.63.63,0,0,0-.47-.18.68.68,0,0,0-.53.21.8.8,0,0,0-.19.57h-.71a1.37,1.37,0,0,1,.17-.7,1.18,1.18,0,0,1,.51-.48,1.55,1.55,0,0,1,.76-.18,1.44,1.44,0,0,1,1,.32,1.06,1.06,0,0,1,.36.86,1.47,1.47,0,0,1-.18.67,3.82,3.82,0,0,1-.59.79l-1,1.12h2Z"/><path class="cls-5" d="M63,74.76H61.51v-.57H63Z"/><path class="cls-5" d="M66.41,74.74a1.89,1.89,0,0,1-.33,1.17,1.14,1.14,0,0,1-1.77,0l0,.34h-.64v-4.5h.71v1.63a1,1,0,0,1,.83-.36,1.07,1.07,0,0,1,.91.43,1.94,1.94,0,0,1,.33,1.2Zm-.71-.07a1.35,1.35,0,0,0-.18-.77.61.61,0,0,0-.53-.26.67.67,0,0,0-.65.41v1.3a.68.68,0,0,0,.66.42.61.61,0,0,0,.51-.25,1.23,1.23,0,0,0,.19-.76Z"/><path class="cls-5" d="M67,72.29a.39.39,0,0,1,.11-.27.37.37,0,0,1,.29-.11.41.41,0,0,1,.3.11.39.39,0,0,1,.11.27.37.37,0,0,1-.11.27.41.41,0,0,1-.3.11.38.38,0,0,1-.4-.38Zm.76,4h-.71V73.12h.71Z"/><path class="cls-5" d="M69.43,72.35v.77H70v.53h-.56v1.77a.38.38,0,0,0,.08.26.32.32,0,0,0,.25.08,1.07,1.07,0,0,0,.25,0v.55a2,2,0,0,1-.47.07c-.55,0-.82-.31-.82-.91V73.65H68.2v-.53h.52v-.77Z"/><path class="cls-5" d="M72.84,74.71v1.58H72.1V72h1.63a1.65,1.65,0,0,1,1.14.38,1.36,1.36,0,0,1,0,2,1.76,1.76,0,0,1-1.16.35Zm0-.6h.89a.83.83,0,0,0,.6-.19.67.67,0,0,0,.21-.54.74.74,0,0,0-.21-.55.82.82,0,0,0-.58-.21h-.91Z"/><path class="cls-5" d="M77.53,73.77a1.46,1.46,0,0,0-.29,0,.64.64,0,0,0-.66.37v2.17h-.72V73.12h.68l0,.35a.81.81,0,0,1,.72-.41.62.62,0,0,1,.25,0Z"/><path class="cls-5" d="M77.74,74.67a1.92,1.92,0,0,1,.18-.84,1.37,1.37,0,0,1,.52-.57,1.5,1.5,0,0,1,.77-.2,1.4,1.4,0,0,1,1,.41,1.61,1.61,0,0,1,.43,1.1v.17a1.84,1.84,0,0,1-.18.83,1.29,1.29,0,0,1-.51.57,1.45,1.45,0,0,1-.78.21,1.37,1.37,0,0,1-1.07-.45,1.7,1.7,0,0,1-.4-1.19Zm.71.07a1.29,1.29,0,0,0,.2.76.65.65,0,0,0,.56.28.66.66,0,0,0,.56-.28,1.37,1.37,0,0,0,.21-.83,1.25,1.25,0,0,0-.21-.76.7.7,0,0,0-1.12,0A1.43,1.43,0,0,0,78.45,74.74Z"/><path class="cls-5" d="M82.59,75.78a.61.61,0,0,0,.44-.16.52.52,0,0,0,.19-.38h.67a1,1,0,0,1-.19.55,1.22,1.22,0,0,1-.46.41,1.43,1.43,0,0,1-.64.15,1.38,1.38,0,0,1-1.06-.43,1.72,1.72,0,0,1-.39-1.19v-.08a1.65,1.65,0,0,1,.39-1.15,1.34,1.34,0,0,1,1-.44,1.32,1.32,0,0,1,.93.33,1.2,1.2,0,0,1,.37.86h-.67a.62.62,0,0,0-.19-.44.57.57,0,0,0-.44-.18.61.61,0,0,0-.53.25,1.3,1.3,0,0,0-.2.76v.12a1.34,1.34,0,0,0,.19.77A.64.64,0,0,0,82.59,75.78Z"/><path class="cls-5" d="M85.82,76.35a1.44,1.44,0,0,1-1.09-.43,1.53,1.53,0,0,1-.42-1.13V74.7a1.93,1.93,0,0,1,.18-.85,1.37,1.37,0,0,1,.51-.58,1.36,1.36,0,0,1,.74-.21,1.25,1.25,0,0,1,1,.41,1.74,1.74,0,0,1,.35,1.17v.29H85a1,1,0,0,0,.26.62.82.82,0,0,0,.58.23,1,1,0,0,0,.8-.4l.38.37a1.19,1.19,0,0,1-.5.44A1.69,1.69,0,0,1,85.82,76.35Zm-.08-2.72a.6.6,0,0,0-.48.21,1.07,1.07,0,0,0-.23.57h1.36v-.06a.88.88,0,0,0-.19-.54A.6.6,0,0,0,85.74,73.63Z"/><path class="cls-5" d="M89.42,75.43a.32.32,0,0,0-.15-.29,1.61,1.61,0,0,0-.52-.18,2.45,2.45,0,0,1-.61-.19.8.8,0,0,1-.53-.75.86.86,0,0,1,.34-.69,1.61,1.61,0,0,1,1.8,0,.9.9,0,0,1,.35.73h-.71a.43.43,0,0,0-.15-.34.62.62,0,0,0-.41-.14.63.63,0,0,0-.38.11.34.34,0,0,0-.15.29.3.3,0,0,0,.14.26,1.91,1.91,0,0,0,.55.18,2.41,2.41,0,0,1,.66.22A.92.92,0,0,1,90,75a.81.81,0,0,1,.11.43.83.83,0,0,1-.35.69,1.51,1.51,0,0,1-.93.27,1.67,1.67,0,0,1-.69-.14,1.18,1.18,0,0,1-.48-.39.93.93,0,0,1-.17-.53h.69a.52.52,0,0,0,.19.39.77.77,0,0,0,.47.13.74.74,0,0,0,.43-.1A.35.35,0,0,0,89.42,75.43Z"/><path class="cls-5" d="M92.52,75.43a.31.31,0,0,0-.16-.29,1.53,1.53,0,0,0-.52-.18,2.5,2.5,0,0,1-.6-.19A.81.81,0,0,1,90.7,74a.87.87,0,0,1,.35-.69,1.38,1.38,0,0,1,.88-.27,1.42,1.42,0,0,1,.92.28.9.9,0,0,1,.35.73h-.71a.44.44,0,0,0-.16-.34.57.57,0,0,0-.4-.14.61.61,0,0,0-.38.11.34.34,0,0,0-.15.29.28.28,0,0,0,.14.26,1.8,1.8,0,0,0,.55.18,2.41,2.41,0,0,1,.66.22.83.83,0,0,1,.35.31.73.73,0,0,1,.12.43.83.83,0,0,1-.35.69,1.51,1.51,0,0,1-.93.27,1.75,1.75,0,0,1-.7-.14,1.22,1.22,0,0,1-.47-.39.93.93,0,0,1-.17-.53h.69a.49.49,0,0,0,.19.39.75.75,0,0,0,.47.13.71.71,0,0,0,.42-.1A.33.33,0,0,0,92.52,75.43Z"/><path class="cls-5" d="M93.71,74.67a1.92,1.92,0,0,1,.18-.84,1.37,1.37,0,0,1,.52-.57,1.5,1.5,0,0,1,.77-.2,1.42,1.42,0,0,1,1,.41,1.61,1.61,0,0,1,.43,1.1v.17a1.84,1.84,0,0,1-.18.83,1.29,1.29,0,0,1-.51.57,1.45,1.45,0,0,1-.78.21,1.37,1.37,0,0,1-1.07-.45,1.7,1.7,0,0,1-.4-1.19Zm.71.07a1.29,1.29,0,0,0,.2.76.64.64,0,0,0,.56.28.66.66,0,0,0,.56-.28,1.38,1.38,0,0,0,.2-.83,1.24,1.24,0,0,0-.2-.76.66.66,0,0,0-.56-.28.65.65,0,0,0-.56.28A1.43,1.43,0,0,0,94.42,74.74Z"/><path class="cls-5" d="M98.91,73.77a1.27,1.27,0,0,0-.28,0,.64.64,0,0,0-.66.37v2.17h-.72V73.12h.68l0,.35a.81.81,0,0,1,.72-.41.62.62,0,0,1,.25,0Z"/><path class="cls-5" d="M104.18,74.9a1.53,1.53,0,0,1-.5,1.06,1.7,1.7,0,0,1-2.67-.54,2.57,2.57,0,0,1-.22-1V74a2.41,2.41,0,0,1,.22-1.07,1.63,1.63,0,0,1,.61-.71,1.8,1.8,0,0,1,.93-.25,1.6,1.6,0,0,1,1.13.39,1.53,1.53,0,0,1,.5,1.08h-.74a1,1,0,0,0-.26-.66.89.89,0,0,0-.63-.21.87.87,0,0,0-.75.36,1.74,1.74,0,0,0-.26,1v.38a2,2,0,0,0,.24,1.06.84.84,0,0,0,.73.36,1,1,0,0,0,.66-.2,1,1,0,0,0,.27-.65Z"/><path class="cls-5" d="M104.64,74.67a1.79,1.79,0,0,1,.19-.84,1.31,1.31,0,0,1,.52-.57,1.46,1.46,0,0,1,.76-.2,1.42,1.42,0,0,1,1,.41,1.66,1.66,0,0,1,.43,1.1v.17a1.84,1.84,0,0,1-.18.83,1.25,1.25,0,0,1-.52.57,1.41,1.41,0,0,1-.77.21,1.35,1.35,0,0,1-1.07-.45,1.7,1.7,0,0,1-.41-1.19Zm.71.07a1.23,1.23,0,0,0,.21.76.64.64,0,0,0,.56.28.66.66,0,0,0,.56-.28,1.45,1.45,0,0,0,.2-.83,1.25,1.25,0,0,0-.21-.76.69.69,0,0,0-1.11,0A1.35,1.35,0,0,0,105.35,74.74Z"/><path class="cls-5" d="M109.85,73.77a1.37,1.37,0,0,0-.29,0,.66.66,0,0,0-.66.37v2.17h-.71V73.12h.68l0,.35a.81.81,0,0,1,.71-.41.6.6,0,0,1,.25,0Z"/><path class="cls-5" d="M111.64,76.35a1.46,1.46,0,0,1-1.1-.43,1.53,1.53,0,0,1-.42-1.13V74.7a1.93,1.93,0,0,1,.19-.85,1.37,1.37,0,0,1,.51-.58,1.36,1.36,0,0,1,.74-.21,1.27,1.27,0,0,1,1,.41,1.74,1.74,0,0,1,.35,1.17v.29h-2.07a1,1,0,0,0,.26.62.82.82,0,0,0,.58.23,1,1,0,0,0,.8-.4l.38.37a1.19,1.19,0,0,1-.5.44A1.69,1.69,0,0,1,111.64,76.35Zm-.08-2.72a.6.6,0,0,0-.48.21,1.07,1.07,0,0,0-.23.57h1.36v-.06a.94.94,0,0,0-.19-.54A.6.6,0,0,0,111.56,73.63Z"/><path class="cls-5" d="M81.32,44h-.2v.56H81V44h-.2V43.9h.48Z"/><path class="cls-5" d="M81.52,43.9l.2.5.2-.5H82v.62H82V44l-.21.51h-.06l-.2-.5v.5h-.08V43.9Z"/><rect class="cls-1" x="158.18" y="87.51" width="61.31" height="15.23"/><rect class="cls-1" x="158.18" y="107.37" width="61.31" height="15.23"/><path class="cls-5" d="M32.15,92.49h-.49V89.64h.49Z"/><path class="cls-5" d="M33.15,90.37v.25a.77.77,0,0,1,.62-.29c.44,0,.66.25.67.76v1.4H34V91.12a.41.41,0,0,0-.09-.3.35.35,0,0,0-.29-.1.45.45,0,0,0-.42.26v1.51H32.7V90.37Z"/><path class="cls-5" d="M36.12,91.91a.21.21,0,0,0-.11-.19.87.87,0,0,0-.34-.12,1.65,1.65,0,0,1-.41-.13.54.54,0,0,1-.35-.5.53.53,0,0,1,.23-.45.86.86,0,0,1,.58-.19,1,1,0,0,1,.62.19.62.62,0,0,1,.23.49h-.48a.29.29,0,0,0-.1-.23.4.4,0,0,0-.27-.09.39.39,0,0,0-.25.07.22.22,0,0,0-.1.19.19.19,0,0,0,.09.17,1.24,1.24,0,0,0,.37.13,2.08,2.08,0,0,1,.44.14.63.63,0,0,1,.24.21.52.52,0,0,1,.07.29.54.54,0,0,1-.23.46,1.08,1.08,0,0,1-.62.17,1.11,1.11,0,0,1-.46-.09.75.75,0,0,1-.32-.26.56.56,0,0,1-.11-.35h.46a.34.34,0,0,0,.12.26.53.53,0,0,0,.32.09A.55.55,0,0,0,36,92.1.24.24,0,0,0,36.12,91.91Z"/><path class="cls-5" d="M37.59,89.86v.51H38v.35h-.38V91.9a.3.3,0,0,0,0,.18.25.25,0,0,0,.17,0l.17,0v.37a1.22,1.22,0,0,1-.32,0q-.54,0-.54-.6v-1.2h-.35v-.35h.35v-.51Z"/><path class="cls-5" d="M39.43,90.81a.58.58,0,0,0-.19,0,.43.43,0,0,0-.44.25v1.45h-.47V90.37h.45v.24a.54.54,0,0,1,.48-.28.43.43,0,0,1,.17,0Z"/><path class="cls-5" d="M41,92.28a.73.73,0,0,1-.59.24.64.64,0,0,1-.52-.2.82.82,0,0,1-.18-.58V90.37h.48v1.37c0,.26.11.4.33.4a.48.48,0,0,0,.47-.25V90.37h.47v2.12H41Z"/><path class="cls-5" d="M42.82,92.15a.44.44,0,0,0,.3-.11.32.32,0,0,0,.12-.25h.45a.6.6,0,0,1-.12.36.74.74,0,0,1-.31.27.94.94,0,0,1-.43.1.88.88,0,0,1-.7-.28,1.12,1.12,0,0,1-.26-.8v0a1.1,1.1,0,0,1,.26-.78,1,1,0,0,1,1.31-.07.8.8,0,0,1,.25.58h-.45a.41.41,0,0,0-.42-.42.41.41,0,0,0-.35.17.87.87,0,0,0-.13.51v.07a.85.85,0,0,0,.13.52A.41.41,0,0,0,42.82,92.15Z"/><path class="cls-5" d="M44.65,89.86v.51H45v.35h-.37V91.9a.3.3,0,0,0,0,.18.25.25,0,0,0,.17,0l.17,0v.37a1.15,1.15,0,0,1-.31,0c-.37,0-.55-.2-.55-.6v-1.2h-.35v-.35h.35v-.51Z"/><path class="cls-5" d="M45.38,89.82a.24.24,0,0,1,.07-.18.32.32,0,0,1,.4,0,.27.27,0,0,1,0,.36.32.32,0,0,1-.4,0A.24.24,0,0,1,45.38,89.82Zm.51,2.67h-.48V90.37h.48Z"/><path class="cls-5" d="M46.31,91.41a1.16,1.16,0,0,1,.13-.56.84.84,0,0,1,.34-.38,1,1,0,0,1,.51-.14.91.91,0,0,1,.7.28,1.1,1.1,0,0,1,.29.73v.11a1.28,1.28,0,0,1-.12.56.92.92,0,0,1-.35.38,1,1,0,0,1-.51.13,1,1,0,0,1-.72-.29,1.16,1.16,0,0,1-.27-.8Zm.48,0a.84.84,0,0,0,.13.51.46.46,0,0,0,.38.19.44.44,0,0,0,.37-.19,1,1,0,0,0,.14-.55.88.88,0,0,0-.14-.51.46.46,0,0,0-.38-.19.47.47,0,0,0-.37.19A.93.93,0,0,0,46.79,91.45Z"/><path class="cls-5" d="M49.12,90.37v.25a.77.77,0,0,1,.62-.29c.44,0,.66.25.67.76v1.4H50V91.12a.41.41,0,0,0-.09-.3.35.35,0,0,0-.29-.1.45.45,0,0,0-.42.26v1.51h-.48V90.37Z"/><path class="cls-5" d="M37.84,96.36a1,1,0,0,1-.34.71,1.13,1.13,0,0,1-.78.25,1.07,1.07,0,0,1-.59-.16,1,1,0,0,1-.4-.45,1.52,1.52,0,0,1-.15-.69v-.27a1.76,1.76,0,0,1,.14-.71,1.11,1.11,0,0,1,.41-.47,1.15,1.15,0,0,1,.62-.17,1.13,1.13,0,0,1,.76.26,1.06,1.06,0,0,1,.33.72h-.49a.75.75,0,0,0-.18-.44.61.61,0,0,0-.42-.14.58.58,0,0,0-.5.24,1.17,1.17,0,0,0-.17.69V96a1.23,1.23,0,0,0,.16.7.55.55,0,0,0,.48.25.63.63,0,0,0,.44-.14.67.67,0,0,0,.19-.43Z"/><path class="cls-5" d="M39.5,97.29a1.24,1.24,0,0,1-.06-.2.71.71,0,0,1-.55.23.75.75,0,0,1-.52-.18.56.56,0,0,1-.2-.45.6.6,0,0,1,.25-.52,1.21,1.21,0,0,1,.72-.18h.29v-.13a.4.4,0,0,0-.09-.27.41.41,0,0,0-.28-.1.4.4,0,0,0-.27.09.23.23,0,0,0-.1.2h-.48a.51.51,0,0,1,.12-.32.69.69,0,0,1,.31-.24,1,1,0,0,1,.44-.09.88.88,0,0,1,.6.19.66.66,0,0,1,.22.52v1a1.1,1.1,0,0,0,.08.45v0ZM39,96.94a.58.58,0,0,0,.26-.06.5.5,0,0,0,.19-.19v-.4h-.26a.68.68,0,0,0-.39.09.31.31,0,0,0-.14.26.27.27,0,0,0,.09.22A.33.33,0,0,0,39,96.94Z"/><path class="cls-5" d="M41.27,97a.42.42,0,0,0,.29-.11.36.36,0,0,0,.13-.25h.44A.6.6,0,0,1,42,97a.74.74,0,0,1-.31.27.88.88,0,0,1-.43.1.9.9,0,0,1-.7-.28,1.17,1.17,0,0,1-.26-.8v0a1.15,1.15,0,0,1,.26-.78.89.89,0,0,1,.7-.29.92.92,0,0,1,.62.22.79.79,0,0,1,.24.58h-.44a.46.46,0,0,0-.13-.3.37.37,0,0,0-.29-.12.42.42,0,0,0-.36.17,1,1,0,0,0-.13.51v.07a.92.92,0,0,0,.13.52A.42.42,0,0,0,41.27,97Z"/><path class="cls-5" d="M43,95.4a.75.75,0,0,1,.59-.27c.45,0,.68.26.68.77v1.39h-.47V95.92a.4.4,0,0,0-.1-.31.37.37,0,0,0-.27-.09.46.46,0,0,0-.43.26v1.51h-.47v-3H43Z"/><path class="cls-5" d="M45.64,97.32a1,1,0,0,1-.73-.28,1.06,1.06,0,0,1-.28-.76v-.06a1.28,1.28,0,0,1,.12-.56,1,1,0,0,1,.35-.39.91.91,0,0,1,.49-.14.82.82,0,0,1,.67.28,1.19,1.19,0,0,1,.23.78v.19H45.11a.58.58,0,0,0,.18.41.53.53,0,0,0,.38.16.62.62,0,0,0,.53-.27l.26.25a1,1,0,0,1-.34.29A1.06,1.06,0,0,1,45.64,97.32Zm0-1.81a.42.42,0,0,0-.32.14.69.69,0,0,0-.15.38H46v0a.59.59,0,0,0-.12-.36A.39.39,0,0,0,45.59,95.51Z"/><rect class="cls-1" x="63.76" y="84.52" width="40.68" height="16.93"/><path class="cls-5" d="M77.56,86.64l.82,2.18.82-2.18h.64v2.85h-.49v-.94l.05-1.26-.84,2.2H78.2l-.84-2.19,0,1.25v.94h-.49V86.64Z"/><path class="cls-5" d="M81.31,89.52a1,1,0,0,1-.73-.28,1,1,0,0,1-.28-.76v-.06a1.28,1.28,0,0,1,.12-.56.87.87,0,0,1,.34-.39.93.93,0,0,1,.49-.14.82.82,0,0,1,.67.28,1.14,1.14,0,0,1,.24.78v.19H80.77A.68.68,0,0,0,81,89a.53.53,0,0,0,.38.16.65.65,0,0,0,.54-.27l.25.25a.88.88,0,0,1-.34.29A1,1,0,0,1,81.31,89.52Zm-.06-1.81a.4.4,0,0,0-.31.14.7.7,0,0,0-.16.38h.91v0a.59.59,0,0,0-.13-.36A.37.37,0,0,0,81.25,87.71Z"/><path class="cls-5" d="M83,87.37v.22a.77.77,0,0,1,.61-.26.58.58,0,0,1,.58.33.75.75,0,0,1,.65-.33.66.66,0,0,1,.52.2.9.9,0,0,1,.18.57v1.39H85V88.11a.4.4,0,0,0-.09-.29.34.34,0,0,0-.29-.1.37.37,0,0,0-.26.09.46.46,0,0,0-.15.23v1.45h-.48v-1.4a.34.34,0,0,0-.38-.37A.42.42,0,0,0,83,88v1.54h-.48V87.37Z"/><path class="cls-5" d="M85.91,88.41a1.28,1.28,0,0,1,.13-.56.9.9,0,0,1,.34-.38,1,1,0,0,1,.52-.14.9.9,0,0,1,.69.28,1.1,1.1,0,0,1,.29.73v.11a1.28,1.28,0,0,1-.12.56,1,1,0,0,1-.34.38,1,1,0,0,1-.52.13,1,1,0,0,1-.72-.29,1.16,1.16,0,0,1-.27-.8Zm.48,0a.84.84,0,0,0,.13.51.46.46,0,0,0,.38.19.44.44,0,0,0,.37-.19,1,1,0,0,0,.14-.55.88.88,0,0,0-.14-.51.45.45,0,0,0-.37-.19.44.44,0,0,0-.37.19A.86.86,0,0,0,86.39,88.45Z"/><path class="cls-5" d="M89.39,87.81a.68.68,0,0,0-.2,0,.44.44,0,0,0-.44.25v1.45h-.47V87.37h.45v.24a.54.54,0,0,1,.48-.28.43.43,0,0,1,.17,0Z"/><path class="cls-5" d="M90.46,88.81l.43-1.44h.51l-.84,2.44a.68.68,0,0,1-.89.49v-.37h.09a.49.49,0,0,0,.27-.06.53.53,0,0,0,.15-.22l.06-.19-.74-2.1H90Z"/><path class="cls-5" d="M73.63,91.44l.82,2.18.82-2.18h.64v2.85h-.49v-.94l0-1.26-.84,2.2h-.36l-.84-2.19,0,1.25v.94H73V91.44Z"/><path class="cls-5" d="M77.71,94.29a.72.72,0,0,1,0-.2.82.82,0,0,1-1.08,0,.59.59,0,0,1-.2-.45.6.6,0,0,1,.25-.52,1.24,1.24,0,0,1,.72-.18h.29v-.13a.4.4,0,0,0-.09-.27.4.4,0,0,0-.28-.1.4.4,0,0,0-.27.09.23.23,0,0,0-.1.2h-.48a.51.51,0,0,1,.12-.32.74.74,0,0,1,.31-.24,1.1,1.1,0,0,1,.45-.09.87.87,0,0,1,.59.19.66.66,0,0,1,.22.52v1a1.1,1.1,0,0,0,.08.45v0Zm-.52-.35a.58.58,0,0,0,.26-.06.5.5,0,0,0,.19-.19v-.4h-.26a.68.68,0,0,0-.39.09.31.31,0,0,0-.14.26.25.25,0,0,0,.1.22A.32.32,0,0,0,77.19,93.94Z"/><path class="cls-5" d="M79.05,92.17l0,.25a.75.75,0,0,1,.61-.29c.44,0,.66.25.67.76v1.4h-.47V92.92a.41.41,0,0,0-.09-.3.34.34,0,0,0-.28-.1.46.46,0,0,0-.43.26v1.51H78.6V92.17Z"/><path class="cls-5" d="M82.1,94.29a1.24,1.24,0,0,1-.06-.2.71.71,0,0,1-.55.23.75.75,0,0,1-.52-.18.56.56,0,0,1-.2-.45.6.6,0,0,1,.25-.52,1.24,1.24,0,0,1,.72-.18H82v-.13a.4.4,0,0,0-.09-.27.41.41,0,0,0-.28-.1.4.4,0,0,0-.27.09.23.23,0,0,0-.1.2h-.48a.51.51,0,0,1,.12-.32.69.69,0,0,1,.31-.24,1,1,0,0,1,.44-.09.88.88,0,0,1,.6.19.66.66,0,0,1,.22.52v1a1.1,1.1,0,0,0,.08.45v0Zm-.52-.35a.58.58,0,0,0,.26-.06.5.5,0,0,0,.19-.19v-.4h-.26a.68.68,0,0,0-.39.09.31.31,0,0,0-.14.26.27.27,0,0,0,.09.22A.34.34,0,0,0,81.58,93.94Z"/><path class="cls-5" d="M82.92,93.21a1.17,1.17,0,0,1,.23-.78.77.77,0,0,1,1.18-.05l0-.21h.43v2a.87.87,0,0,1-.26.66,1,1,0,0,1-.7.24,1.22,1.22,0,0,1-.45-.1.82.82,0,0,1-.34-.25l.23-.29a.65.65,0,0,0,.54.26.51.51,0,0,0,.37-.13.48.48,0,0,0,.14-.37V94.1a.71.71,0,0,1-.55.22.73.73,0,0,1-.61-.29A1.27,1.27,0,0,1,82.92,93.21Zm.47,0a.8.8,0,0,0,.13.5.41.41,0,0,0,.36.19.47.47,0,0,0,.43-.25v-.93a.46.46,0,0,0-.43-.24.41.41,0,0,0-.36.19A.9.9,0,0,0,83.39,93.25Z"/><path class="cls-5" d="M86.2,94.32a1,1,0,0,1-.73-.28,1,1,0,0,1-.28-.76v-.06a1.28,1.28,0,0,1,.12-.56.87.87,0,0,1,.34-.39.93.93,0,0,1,.49-.14.82.82,0,0,1,.67.28,1.14,1.14,0,0,1,.24.78v.19H85.66a.68.68,0,0,0,.18.41.53.53,0,0,0,.39.16.65.65,0,0,0,.53-.27l.25.25a.88.88,0,0,1-.34.29A1,1,0,0,1,86.2,94.32Zm-.06-1.81a.4.4,0,0,0-.31.14.7.7,0,0,0-.16.38h.91v0a.59.59,0,0,0-.13-.36A.37.37,0,0,0,86.14,92.51Z"/><path class="cls-5" d="M87.86,92.17v.22a.79.79,0,0,1,.61-.26.57.57,0,0,1,.58.33.75.75,0,0,1,.65-.33.66.66,0,0,1,.52.2.84.84,0,0,1,.18.57v1.39h-.48V92.91a.4.4,0,0,0-.09-.29.34.34,0,0,0-.29-.1.4.4,0,0,0-.4.32v1.45h-.48v-1.4a.34.34,0,0,0-.38-.37.42.42,0,0,0-.4.23v1.54h-.48V92.17Z"/><path class="cls-5" d="M91.82,94.32a1,1,0,0,1-.73-.28,1.06,1.06,0,0,1-.28-.76v-.06a1.16,1.16,0,0,1,.13-.56.87.87,0,0,1,.34-.39.91.91,0,0,1,.49-.14.82.82,0,0,1,.67.28,1.19,1.19,0,0,1,.23.78v.19H91.29a.62.62,0,0,0,.18.41.53.53,0,0,0,.38.16.62.62,0,0,0,.53-.27l.26.25a1,1,0,0,1-.34.29A1.06,1.06,0,0,1,91.82,94.32Zm0-1.81a.42.42,0,0,0-.32.14.69.69,0,0,0-.15.38h.9v0a.59.59,0,0,0-.12-.36A.39.39,0,0,0,91.77,92.51Z"/><path class="cls-5" d="M93.48,92.17v.25a.78.78,0,0,1,.62-.29c.44,0,.66.25.67.76v1.4h-.47V92.92a.41.41,0,0,0-.09-.3.34.34,0,0,0-.28-.1.45.45,0,0,0-.43.26v1.51H93V92.17Z"/><path class="cls-5" d="M95.86,91.66v.51h.37v.35h-.37V93.7a.3.3,0,0,0,0,.18.25.25,0,0,0,.17.05l.16,0v.37a1.1,1.1,0,0,1-.31,0q-.54,0-.54-.6v-1.2H95v-.35h.35v-.51Z"/><path class="cls-5" d="M83.3,96.24v1.9a.91.91,0,0,1-.29.72,1.27,1.27,0,0,1-1.54,0,.92.92,0,0,1-.29-.72v-1.9h.49v1.9a.6.6,0,0,0,.15.44.54.54,0,0,0,.42.15q.57,0,.57-.6V96.24Z"/><path class="cls-5" d="M84.23,97v.25a.77.77,0,0,1,.62-.29c.43,0,.66.25.67.76v1.39h-.48V97.72a.47.47,0,0,0-.08-.3.37.37,0,0,0-.29-.1.47.47,0,0,0-.43.26v1.5h-.47V97Z"/><path class="cls-5" d="M86,96.42a.24.24,0,0,1,.07-.18.32.32,0,0,1,.4,0,.24.24,0,0,1,.07.18.23.23,0,0,1-.07.18.32.32,0,0,1-.4,0A.23.23,0,0,1,86,96.42Zm.51,2.66H86V97h.48Z"/><path class="cls-5" d="M87.63,96.46V97H88v.35h-.37V98.5a.3.3,0,0,0,0,.18.28.28,0,0,0,.18,0,.47.47,0,0,0,.16,0v.37a1.15,1.15,0,0,1-.31,0c-.37,0-.55-.2-.55-.6v-1.2H86.8V97h.35v-.51Z"/><rect class="cls-1" x="106.18" y="84.52" width="40.68" height="16.93"/><path class="cls-5" d="M122.32,92.49V89.64h.84a1.31,1.31,0,0,1,.67.17,1.12,1.12,0,0,1,.46.48,1.57,1.57,0,0,1,.16.7v.15a1.49,1.49,0,0,1-.17.71,1.07,1.07,0,0,1-.45.47,1.41,1.41,0,0,1-.69.17Zm.5-2.45v2h.32a.75.75,0,0,0,.6-.24,1,1,0,0,0,.21-.7V91a1.13,1.13,0,0,0-.2-.71.72.72,0,0,0-.59-.24Z"/><path class="cls-5" d="M126.16,92.49a.68.68,0,0,1-.06-.2.8.8,0,0,1-1.07,0,.57.57,0,0,1-.21-.45.59.59,0,0,1,.26-.51,1.11,1.11,0,0,1,.71-.19h.29v-.13a.4.4,0,0,0-.09-.27.38.38,0,0,0-.28-.1.39.39,0,0,0-.26.09.24.24,0,0,0-.11.2h-.47a.51.51,0,0,1,.12-.32.69.69,0,0,1,.31-.24,1,1,0,0,1,.44-.09.84.84,0,0,1,.59.19.64.64,0,0,1,.23.52v1a1.1,1.1,0,0,0,.08.45v0Zm-.53-.35a.6.6,0,0,0,.27-.06.47.47,0,0,0,.18-.19v-.4h-.25a.72.72,0,0,0-.4.09.3.3,0,0,0-.13.26.27.27,0,0,0,.09.22A.32.32,0,0,0,125.63,92.14Z"/><path class="cls-5" d="M127.65,89.86v.51H128v.35h-.37V91.9a.3.3,0,0,0,0,.18.25.25,0,0,0,.17,0l.17,0v.37a1.22,1.22,0,0,1-.32,0q-.54,0-.54-.6v-1.2h-.35v-.35h.35v-.51Z"/><path class="cls-5" d="M129.65,92.49a1.24,1.24,0,0,1-.06-.2.71.71,0,0,1-.55.23.77.77,0,0,1-.52-.18.59.59,0,0,1-.2-.45.58.58,0,0,1,.25-.51,1.16,1.16,0,0,1,.72-.19h.29v-.13a.4.4,0,0,0-.09-.27.4.4,0,0,0-.28-.1.4.4,0,0,0-.27.09.23.23,0,0,0-.1.2h-.48a.51.51,0,0,1,.12-.32.74.74,0,0,1,.31-.24,1.1,1.1,0,0,1,.45-.09.87.87,0,0,1,.59.19.66.66,0,0,1,.22.52v1a1.1,1.1,0,0,0,.08.45v0Zm-.52-.35a.58.58,0,0,0,.26-.06.44.44,0,0,0,.19-.19v-.4h-.26a.7.7,0,0,0-.39.09.31.31,0,0,0-.14.26.27.27,0,0,0,.09.22A.36.36,0,0,0,129.13,92.14Z"/><path class="cls-5" d="M123,96.36a1.06,1.06,0,0,1-.33.71,1.16,1.16,0,0,1-.78.25,1.08,1.08,0,0,1-.6-.16,1,1,0,0,1-.4-.45,1.84,1.84,0,0,1-.15-.69v-.27a1.61,1.61,0,0,1,.15-.71,1.09,1.09,0,0,1,.4-.47,1.18,1.18,0,0,1,.62-.17,1.09,1.09,0,0,1,.76.26,1.06,1.06,0,0,1,.33.72h-.49a.64.64,0,0,0-.18-.44.57.57,0,0,0-.42-.14.56.56,0,0,0-.49.24,1.09,1.09,0,0,0-.18.69V96a1.23,1.23,0,0,0,.16.7.57.57,0,0,0,.49.25.6.6,0,0,0,.43-.14.67.67,0,0,0,.19-.43Z"/><path class="cls-5" d="M124.67,97.29a.72.72,0,0,1,0-.2.73.73,0,0,1-.56.23.77.77,0,0,1-.52-.18.59.59,0,0,1-.2-.45.6.6,0,0,1,.25-.52,1.24,1.24,0,0,1,.72-.18h.29v-.13a.4.4,0,0,0-.09-.27.4.4,0,0,0-.28-.1.4.4,0,0,0-.27.09.26.26,0,0,0-.1.2h-.47a.5.5,0,0,1,.11-.32.74.74,0,0,1,.31-.24,1.1,1.1,0,0,1,.45-.09.87.87,0,0,1,.59.19.63.63,0,0,1,.22.52v1a1,1,0,0,0,.09.45v0Zm-.52-.35a.58.58,0,0,0,.26-.06.44.44,0,0,0,.19-.19v-.4h-.26a.7.7,0,0,0-.39.09.3.3,0,0,0-.13.26.27.27,0,0,0,.09.22A.32.32,0,0,0,124.15,96.94Z"/><path class="cls-5" d="M126.44,97a.44.44,0,0,0,.3-.11.35.35,0,0,0,.12-.25h.45a.79.79,0,0,1-.44.63.87.87,0,0,1-.42.1.92.92,0,0,1-.71-.28,1.17,1.17,0,0,1-.26-.8v0a1.15,1.15,0,0,1,.26-.78,1,1,0,0,1,1.32-.07.8.8,0,0,1,.25.58h-.45a.45.45,0,0,0-.12-.3.41.41,0,0,0-.3-.12.45.45,0,0,0-.36.17.87.87,0,0,0-.12.51v.07a.93.93,0,0,0,.12.52A.42.42,0,0,0,126.44,97Z"/><path class="cls-5" d="M128.13,95.4a.76.76,0,0,1,.59-.27c.45,0,.68.26.69.77v1.39h-.48V95.92a.44.44,0,0,0-.09-.31.39.39,0,0,0-.28-.09.47.47,0,0,0-.43.26v1.51h-.47v-3h.47Z"/><path class="cls-5" d="M130.82,97.32a1,1,0,0,1-.73-.28,1,1,0,0,1-.28-.76v-.06a1.28,1.28,0,0,1,.12-.56.87.87,0,0,1,.34-.39.93.93,0,0,1,.49-.14.82.82,0,0,1,.67.28,1.14,1.14,0,0,1,.23.78v.19h-1.38a.68.68,0,0,0,.18.41.53.53,0,0,0,.38.16.65.65,0,0,0,.54-.27l.25.25a.88.88,0,0,1-.34.29A1,1,0,0,1,130.82,97.32Zm-.06-1.81a.4.4,0,0,0-.31.14.7.7,0,0,0-.16.38h.91v0a.59.59,0,0,0-.13-.36A.39.39,0,0,0,130.76,95.51Z"/><rect class="cls-1" x="106.18" y="32.75" width="40.68" height="13.93"/><path class="cls-5" d="M113.93,41.71V38.87h.84a1.26,1.26,0,0,1,.67.17,1.2,1.2,0,0,1,.45.47,1.51,1.51,0,0,1,.16.71v.14a1.46,1.46,0,0,1-.16.71,1.12,1.12,0,0,1-.46.48,1.37,1.37,0,0,1-.68.16Zm.49-2.44v2h.33a.73.73,0,0,0,.59-.24,1.12,1.12,0,0,0,.22-.7v-.16a1.06,1.06,0,0,0-.21-.71.7.7,0,0,0-.58-.24Z"/><path class="cls-5" d="M117.43,41.75a1,1,0,0,1-.73-.28,1,1,0,0,1-.28-.76v-.06a1.25,1.25,0,0,1,.12-.56.9.9,0,0,1,.83-.53.82.82,0,0,1,.67.28,1.14,1.14,0,0,1,.24.78v.19H116.9a.62.62,0,0,0,.17.41.53.53,0,0,0,.39.15.64.64,0,0,0,.53-.26l.25.24a.77.77,0,0,1-.34.3A1,1,0,0,1,117.43,41.75Zm-.06-1.81a.4.4,0,0,0-.31.14.78.78,0,0,0-.16.38h.91v0a.59.59,0,0,0-.13-.36A.4.4,0,0,0,117.37,39.94Z"/><path class="cls-5" d="M120.5,40.68a1.23,1.23,0,0,1-.22.78.74.74,0,0,1-.61.29.68.68,0,0,1-.57-.27l0,.23h-.43v-3h.48V39.8a.68.68,0,0,1,.55-.24.74.74,0,0,1,.61.29,1.27,1.27,0,0,1,.22.8Zm-.48,0a.93.93,0,0,0-.12-.52.4.4,0,0,0-.35-.17.44.44,0,0,0-.43.27v.87a.45.45,0,0,0,.44.28.41.41,0,0,0,.34-.17.86.86,0,0,0,.12-.5Z"/><path class="cls-5" d="M122.18,41.51a.75.75,0,0,1-.6.24.67.67,0,0,1-.52-.2.89.89,0,0,1-.17-.58V39.6h.47V41c0,.27.11.41.33.41a.48.48,0,0,0,.47-.25V39.6h.48v2.11h-.45Z"/><path class="cls-5" d="M123,40.64a1.22,1.22,0,0,1,.23-.79.75.75,0,0,1,.61-.29.7.7,0,0,1,.57.25l0-.21h.43v2a.84.84,0,0,1-.26.65,1,1,0,0,1-.7.24,1.2,1.2,0,0,1-.45-.09.91.91,0,0,1-.34-.25l.23-.29a.67.67,0,0,0,.53.26.52.52,0,0,0,.38-.13.48.48,0,0,0,.13-.37v-.15a.65.65,0,0,1-.54.23.76.76,0,0,1-.61-.29A1.33,1.33,0,0,1,123,40.64Zm.47,0a.82.82,0,0,0,.13.5.44.44,0,0,0,.36.19.46.46,0,0,0,.42-.25v-.93A.45.45,0,0,0,124,40a.43.43,0,0,0-.36.18A1,1,0,0,0,123.51,40.68Z"/><path class="cls-5" d="M126.39,40.56a3,3,0,0,1,.12-.86,2.21,2.21,0,0,1,.36-.72,1.28,1.28,0,0,1,.49-.45l.1.27a1.42,1.42,0,0,0-.45.64,2.94,2.94,0,0,0-.19,1v.17a3.14,3.14,0,0,0,.17,1.06,1.52,1.52,0,0,0,.47.7l-.1.27a1.46,1.46,0,0,1-.49-.45,2.37,2.37,0,0,1-.36-.73A3.07,3.07,0,0,1,126.39,40.56Z"/><path class="cls-5" d="M129,38.87h.49v2a.86.86,0,0,1-.26.65.93.93,0,0,1-.67.24,1,1,0,0,1-.69-.22.82.82,0,0,1-.24-.63h.49a.44.44,0,0,0,.12.34.41.41,0,0,0,.32.12.44.44,0,0,0,.32-.13.53.53,0,0,0,.12-.37Z"/><path class="cls-5" d="M132.1,39.27h-.89v2.44h-.49V39.27h-.88v-.4h2.26Z"/><path class="cls-5" d="M133.83,41.05h-1.1l-.23.66H132l1.08-2.84h.44l1.08,2.84h-.52Zm-1-.4h.82l-.41-1.18Z"/><path class="cls-5" d="M137,41.34a.92.92,0,0,1-.43.31,1.72,1.72,0,0,1-.62.1,1.18,1.18,0,0,1-.63-.16,1.06,1.06,0,0,1-.43-.46,1.61,1.61,0,0,1-.15-.71V40.2a1.54,1.54,0,0,1,.3-1,1.1,1.1,0,0,1,.87-.36,1.13,1.13,0,0,1,.75.24,1,1,0,0,1,.34.67h-.49a.54.54,0,0,0-.59-.51.6.6,0,0,0-.51.24,1.3,1.3,0,0,0-.18.7v.22a1.15,1.15,0,0,0,.2.71.65.65,0,0,0,.54.26.74.74,0,0,0,.54-.17v-.56H136v-.38H137Z"/><path class="cls-5" d="M138.45,40.59a2.82,2.82,0,0,1-.12.83,2.42,2.42,0,0,1-.36.74,1.44,1.44,0,0,1-.51.46l-.09-.27a1.42,1.42,0,0,0,.46-.69A2.91,2.91,0,0,0,138,40.6v-.05a3.12,3.12,0,0,0-.14-1,1.74,1.74,0,0,0-.43-.71l-.06-.06.09-.26A1.37,1.37,0,0,1,138,39a2.51,2.51,0,0,1,.36.69,2.91,2.91,0,0,1,.14.79Z"/><rect class="cls-1" x="106.18" y="50.46" width="40.68" height="13.93"/><path class="cls-5" d="M114.5,54h-.88v2.45h-.49V54h-.88v-.4h2.25Z"/><path class="cls-5" d="M114.83,53.77a.29.29,0,0,1,.07-.19.32.32,0,0,1,.4,0,.25.25,0,0,1,.07.19.24.24,0,0,1-.07.18.32.32,0,0,1-.4,0A.29.29,0,0,1,114.83,53.77Zm.51,2.66h-.48V54.32h.48Z"/><path class="cls-5" d="M115.77,55.36a1.28,1.28,0,0,1,.23-.79.74.74,0,0,1,.62-.29.66.66,0,0,1,.56.25l0-.21h.42v2a.83.83,0,0,1-.26.66,1,1,0,0,1-.69.24,1.06,1.06,0,0,1-.46-.1.72.72,0,0,1-.33-.25l.22-.28a.7.7,0,0,0,.54.26.54.54,0,0,0,.37-.13.51.51,0,0,0,.14-.38v-.14a.72.72,0,0,1-.55.23.73.73,0,0,1-.6-.3A1.24,1.24,0,0,1,115.77,55.36Zm.47,0a.9.9,0,0,0,.13.5.43.43,0,0,0,.36.18.46.46,0,0,0,.43-.25v-.92a.45.45,0,0,0-.42-.24.43.43,0,0,0-.37.18A1,1,0,0,0,116.24,55.4Z"/><path class="cls-5" d="M118.59,54.55a.74.74,0,0,1,.59-.27c.45,0,.68.25.68.77v1.38h-.47V55.07a.39.39,0,0,0-.1-.31.38.38,0,0,0-.28-.09.44.44,0,0,0-.42.25v1.51h-.48v-3h.48Z"/><path class="cls-5" d="M120.94,53.8v.52h.37v.35h-.37v1.18a.25.25,0,0,0,0,.17.23.23,0,0,0,.18.06l.16,0v.36a1.18,1.18,0,0,1-.31,0c-.37,0-.55-.2-.55-.61V54.67h-.35v-.35h.35V53.8Z"/><path class="cls-5" d="M122.18,56.43h-.48v-3h.48Z"/><path class="cls-5" d="M123.43,55.75l.43-1.43h.51l-.84,2.43a.69.69,0,0,1-.66.53l-.23,0v-.37h.09a.49.49,0,0,0,.27-.06.53.53,0,0,0,.15-.22l.07-.18-.75-2.1H123Z"/><path class="cls-5" d="M127.85,55.5a1,1,0,0,1-.33.71,1.26,1.26,0,0,1-1.38.1,1.06,1.06,0,0,1-.4-.46,1.84,1.84,0,0,1-.15-.69v-.27a1.61,1.61,0,0,1,.15-.71,1.09,1.09,0,0,1,.4-.47,1.17,1.17,0,0,1,.62-.16,1.11,1.11,0,0,1,.76.25,1.06,1.06,0,0,1,.33.72h-.49a.67.67,0,0,0-.18-.44.57.57,0,0,0-.42-.14.56.56,0,0,0-.49.24,1.13,1.13,0,0,0-.18.69v.25a1.27,1.27,0,0,0,.16.71.56.56,0,0,0,.49.24.6.6,0,0,0,.43-.13.69.69,0,0,0,.19-.44Z"/><path class="cls-5" d="M128.16,55.35a1.31,1.31,0,0,1,.12-.56.92.92,0,0,1,.35-.38,1,1,0,0,1,.51-.13.92.92,0,0,1,.69.27,1.07,1.07,0,0,1,.29.73v.11A1.25,1.25,0,0,1,130,56a.84.84,0,0,1-.34.38,1,1,0,0,1-.52.14.91.91,0,0,1-.71-.3,1.13,1.13,0,0,1-.27-.79Zm.47,0a.84.84,0,0,0,.14.51.42.42,0,0,0,.37.19.44.44,0,0,0,.38-.19.93.93,0,0,0,.13-.55.81.81,0,0,0-.14-.51.43.43,0,0,0-.37-.18.45.45,0,0,0-.37.18A.93.93,0,0,0,128.63,55.39Z"/><path class="cls-5" d="M131.81,56.22a.73.73,0,0,1-.6.25.67.67,0,0,1-.52-.2.87.87,0,0,1-.18-.59V54.32H131v1.36c0,.27.11.4.33.4a.47.47,0,0,0,.47-.25V54.32h.47v2.11h-.44Z"/><path class="cls-5" d="M134.6,55.39a1.34,1.34,0,0,1-.22.79.73.73,0,0,1-.6.29.74.74,0,0,1-.56-.23v1h-.47V54.32h.43l0,.21a.7.7,0,0,1,.57-.25.73.73,0,0,1,.61.28,1.29,1.29,0,0,1,.22.8Zm-.47,0a.9.9,0,0,0-.13-.5.4.4,0,0,0-.36-.18.45.45,0,0,0-.42.24v.93a.44.44,0,0,0,.42.25.43.43,0,0,0,.36-.18A1.05,1.05,0,0,0,134.13,55.35Z"/><path class="cls-5" d="M135.5,56.43H135v-3h.47Z"/><path class="cls-5" d="M137,56.47a1,1,0,0,1-.73-.29,1,1,0,0,1-.28-.75v-.06a1.32,1.32,0,0,1,.12-.57.92.92,0,0,1,.35-.38.83.83,0,0,1,.49-.14.81.81,0,0,1,.66.27,1.17,1.17,0,0,1,.24.78v.19h-1.38a.64.64,0,0,0,.17.42.54.54,0,0,0,.39.15.65.65,0,0,0,.53-.26l.26.24a.87.87,0,0,1-.34.29A1.06,1.06,0,0,1,137,56.47Zm0-1.81a.41.41,0,0,0-.32.13.69.69,0,0,0-.15.38h.9v0a.54.54,0,0,0-.13-.36A.38.38,0,0,0,136.9,54.66Z"/><path class="cls-5" d="M138.08,55.36a1.28,1.28,0,0,1,.23-.79.73.73,0,0,1,.6-.29.68.68,0,0,1,.55.23V53.43h.47v3h-.43l0-.22a.7.7,0,0,1-.57.26.71.71,0,0,1-.6-.3A1.32,1.32,0,0,1,138.08,55.36Zm.47,0a.9.9,0,0,0,.13.5.4.4,0,0,0,.35.18.46.46,0,0,0,.43-.26v-.9a.45.45,0,0,0-.43-.25.4.4,0,0,0-.35.18A1,1,0,0,0,138.55,55.4Z"/><path class="cls-5" d="M114.2,60.83h1.29v.4H113.7V58.38h.5Z"/><path class="cls-5" d="M115.73,60.15a1.32,1.32,0,0,1,.13-.56.9.9,0,0,1,.34-.38,1,1,0,0,1,.51-.13.94.94,0,0,1,.7.27,1.12,1.12,0,0,1,.29.73v.11a1.25,1.25,0,0,1-.12.56.9.9,0,0,1-.34.38,1,1,0,0,1-.52.14A.92.92,0,0,1,116,61a1.13,1.13,0,0,1-.27-.79Zm.48,0a.84.84,0,0,0,.13.51.44.44,0,0,0,.38.19.42.42,0,0,0,.37-.19.93.93,0,0,0,.14-.55.88.88,0,0,0-.14-.51.45.45,0,0,0-.38-.18.43.43,0,0,0-.36.18A.86.86,0,0,0,116.21,60.19Z"/><path class="cls-5" d="M119,60.89a.44.44,0,0,0,.29-.1.38.38,0,0,0,.13-.26h.45a.75.75,0,0,1-.13.37.82.82,0,0,1-.31.27,1,1,0,0,1-.43.1.92.92,0,0,1-.7-.29,1.16,1.16,0,0,1-.26-.79v0a1.12,1.12,0,0,1,.26-.77,1,1,0,0,1,1.32-.07.8.8,0,0,1,.25.57h-.45a.46.46,0,0,0-.13-.3.4.4,0,0,0-.29-.11.44.44,0,0,0-.36.16.89.89,0,0,0-.12.51v.08a.87.87,0,0,0,.12.51A.42.42,0,0,0,119,60.89Z"/><path class="cls-5" d="M121.46,61.23a1,1,0,0,1-.06-.2.72.72,0,0,1-.55.24.75.75,0,0,1-.52-.18.64.64,0,0,1,0-1,1.21,1.21,0,0,1,.72-.18h.29V59.8a.33.33,0,0,0-.1-.26.33.33,0,0,0-.27-.1.4.4,0,0,0-.27.08.23.23,0,0,0-.1.2h-.48a.51.51,0,0,1,.12-.32.76.76,0,0,1,.31-.24,1,1,0,0,1,.44-.08.89.89,0,0,1,.59.18.66.66,0,0,1,.23.53v1a1.19,1.19,0,0,0,.08.46v0Zm-.52-.34a.59.59,0,0,0,.26-.07.5.5,0,0,0,.19-.19v-.39h-.26a.72.72,0,0,0-.4.09.32.32,0,0,0-.13.26.29.29,0,0,0,.09.22A.37.37,0,0,0,120.94,60.89Z"/><path class="cls-5" d="M122.86,61.23h-.47v-3h.47Z"/><path class="cls-5" d="M125.06,58.38l.82,2.18.82-2.18h.64v2.85h-.49v-.94L126.9,59l-.84,2.19h-.36L124.87,59l0,1.25v.94h-.49V58.38Z"/><path class="cls-5" d="M128.81,61.27a1,1,0,0,1-.73-.29,1,1,0,0,1-.28-.75v-.06a1.32,1.32,0,0,1,.12-.57,1.07,1.07,0,0,1,.34-.39.92.92,0,0,1,.49-.13.85.85,0,0,1,.67.27,1.16,1.16,0,0,1,.24.78v.19h-1.38a.64.64,0,0,0,.17.42.53.53,0,0,0,.39.15.65.65,0,0,0,.53-.27l.25.25a.75.75,0,0,1-.34.29A1,1,0,0,1,128.81,61.27Zm-.06-1.81a.39.39,0,0,0-.31.13.78.78,0,0,0-.16.38h.91v0a.59.59,0,0,0-.13-.36A.4.4,0,0,0,128.75,59.46Z"/><path class="cls-5" d="M130.47,59.12v.22a.75.75,0,0,1,.61-.26.57.57,0,0,1,.58.32.75.75,0,0,1,.65-.32.64.64,0,0,1,.52.19.81.81,0,0,1,.18.57v1.39h-.48V59.85a.4.4,0,0,0-.09-.29.37.37,0,0,0-.29-.1.39.39,0,0,0-.26.09.43.43,0,0,0-.14.23v1.45h-.48V59.84a.34.34,0,0,0-.38-.38.41.41,0,0,0-.4.24v1.53H130V59.12Z"/><path class="cls-5" d="M133.42,60.15a1.31,1.31,0,0,1,.12-.56,1,1,0,0,1,.34-.38,1,1,0,0,1,.52-.13.93.93,0,0,1,.69.27,1.07,1.07,0,0,1,.29.73v.11a1.25,1.25,0,0,1-.12.56.84.84,0,0,1-.34.38,1,1,0,0,1-.52.14.92.92,0,0,1-.72-.3,1.17,1.17,0,0,1-.26-.79Zm.47,0a.84.84,0,0,0,.14.51.42.42,0,0,0,.37.19.41.41,0,0,0,.37-.19.93.93,0,0,0,.14-.55.88.88,0,0,0-.14-.51.45.45,0,0,0-.37-.18.43.43,0,0,0-.37.18A.93.93,0,0,0,133.89,60.19Z"/><path class="cls-5" d="M136.89,59.55l-.19,0a.44.44,0,0,0-.44.25v1.45h-.48V59.12h.45l0,.23a.53.53,0,0,1,.47-.27.42.42,0,0,1,.17,0Z"/><path class="cls-5" d="M138,60.55l.43-1.43h.51l-.84,2.43a.69.69,0,0,1-.66.53l-.23,0v-.37h.09a.49.49,0,0,0,.27-.06.53.53,0,0,0,.15-.22l.07-.18-.75-2.1h.52Z"/><path class="cls-5" d="M35.48,118V115.2h.84a1.33,1.33,0,0,1,.67.16,1.1,1.1,0,0,1,.45.48,1.49,1.49,0,0,1,.16.71v.14a1.46,1.46,0,0,1-.16.71,1,1,0,0,1-.46.47,1.37,1.37,0,0,1-.68.17Zm.5-2.45v2h.32a.75.75,0,0,0,.6-.24,1.08,1.08,0,0,0,.21-.7v-.16a1.1,1.1,0,0,0-.2-.7.74.74,0,0,0-.59-.25Z"/><path class="cls-5" d="M38.1,118V115.2h.84a1.35,1.35,0,0,1,.67.16,1.23,1.23,0,0,1,.45.48,1.61,1.61,0,0,1,.16.71v.14a1.58,1.58,0,0,1-.16.71,1.1,1.1,0,0,1-.46.47,1.41,1.41,0,0,1-.69.17Zm.49-2.45v2h.32a.75.75,0,0,0,.6-.24,1,1,0,0,0,.21-.7v-.16a1.1,1.1,0,0,0-.2-.7.72.72,0,0,0-.58-.25Z"/><path class="cls-5" d="M41.75,117H41.2V118h-.49V115.2h1a1.15,1.15,0,0,1,.76.22.88.88,0,0,1,.13,1.11.88.88,0,0,1-.38.3l.63,1.18v0h-.53Zm-.55-.4h.51a.57.57,0,0,0,.39-.13.41.41,0,0,0,.14-.34.47.47,0,0,0-.13-.36.57.57,0,0,0-.38-.13H41.2Z"/><path class="cls-5" d="M46.37,117.11a1,1,0,0,1-.33.71,1.26,1.26,0,0,1-1.38.1,1.06,1.06,0,0,1-.4-.46,1.67,1.67,0,0,1-.15-.69v-.27a1.8,1.8,0,0,1,.14-.71,1.07,1.07,0,0,1,1-.63,1.11,1.11,0,0,1,.76.25,1.06,1.06,0,0,1,.33.72h-.49a.67.67,0,0,0-.18-.44.67.67,0,0,0-.92.1,1.21,1.21,0,0,0-.17.69v.25a1.27,1.27,0,0,0,.16.71.55.55,0,0,0,.49.24.6.6,0,0,0,.43-.13.69.69,0,0,0,.19-.44Z"/><path class="cls-5" d="M46.68,117a1.31,1.31,0,0,1,.12-.56.92.92,0,0,1,.35-.38,1,1,0,0,1,.51-.13.92.92,0,0,1,.69.27,1.07,1.07,0,0,1,.29.73V117a1.25,1.25,0,0,1-.12.56.84.84,0,0,1-.34.38,1,1,0,0,1-.52.14.9.9,0,0,1-.71-.3,1.13,1.13,0,0,1-.27-.79Zm.47,0a.84.84,0,0,0,.14.51.42.42,0,0,0,.37.19.44.44,0,0,0,.38-.19.93.93,0,0,0,.13-.55.82.82,0,0,0-.14-.5.42.42,0,0,0-.37-.19.43.43,0,0,0-.37.18A1,1,0,0,0,47.15,117Z"/><path class="cls-5" d="M49.49,115.93v.24a.75.75,0,0,1,.61-.28c.44,0,.67.25.68.75V118h-.48v-1.37a.45.45,0,0,0-.09-.3.36.36,0,0,0-.28-.09.46.46,0,0,0-.43.26V118H49v-2.11Z"/><path class="cls-5" d="M51.86,115.41v.52h.38v.35h-.38v1.18a.25.25,0,0,0,0,.17.21.21,0,0,0,.17.06l.17,0V118a1.18,1.18,0,0,1-.31,0c-.37,0-.55-.2-.55-.61v-1.19H51v-.35h.35v-.52Z"/><path class="cls-5" d="M53.71,116.36l-.2,0a.45.45,0,0,0-.44.25V118H52.6v-2.11h.45v.23a.55.55,0,0,1,.48-.27l.17,0Z"/><path class="cls-5" d="M53.85,117a1.31,1.31,0,0,1,.12-.56.92.92,0,0,1,.86-.51.93.93,0,0,1,.69.27,1.12,1.12,0,0,1,.29.73V117a1.25,1.25,0,0,1-.12.56.84.84,0,0,1-.34.38,1,1,0,0,1-.52.14.89.89,0,0,1-.71-.3,1.13,1.13,0,0,1-.27-.79Zm.47,0a.84.84,0,0,0,.14.51.42.42,0,0,0,.37.19.41.41,0,0,0,.37-.19.93.93,0,0,0,.14-.55.82.82,0,0,0-.14-.5.46.46,0,0,0-.74,0A1,1,0,0,0,54.32,117Z"/><path class="cls-5" d="M56.72,118h-.48v-3h.48Z"/><path class="cls-5" d="M57.74,118h-.48v-3h.48Z"/><path class="cls-5" d="M59.19,118.08a1,1,0,0,1-.74-.29,1.05,1.05,0,0,1-.28-.75V117a1.2,1.2,0,0,1,.13-.57.9.9,0,0,1,.34-.38,1,1,0,0,1,1.16.13,1.23,1.23,0,0,1,.23.78v.19H58.65a.68.68,0,0,0,.18.42.52.52,0,0,0,.38.15.64.64,0,0,0,.53-.26l.26.24a.8.8,0,0,1-.34.29A1,1,0,0,1,59.19,118.08Zm-.06-1.81a.41.41,0,0,0-.32.13.73.73,0,0,0-.15.39h.91v0a.66.66,0,0,0-.13-.36A.41.41,0,0,0,59.13,116.27Z"/><path class="cls-5" d="M61.51,116.36l-.19,0a.44.44,0,0,0-.44.25V118H60.4v-2.11h.45l0,.23a.53.53,0,0,1,.47-.27l.17,0Z"/><path class="cls-5" d="M178.24,36a.38.38,0,0,0-.13-.29,1.63,1.63,0,0,0-.48-.2,2.68,2.68,0,0,1-.55-.23.74.74,0,0,1-.39-.64.72.72,0,0,1,.28-.57,1.13,1.13,0,0,1,.73-.22,1.25,1.25,0,0,1,.53.11.87.87,0,0,1,.37.31.9.9,0,0,1,.13.45h-.49a.45.45,0,0,0-.14-.35.69.69,0,0,0-.78,0,.34.34,0,0,0-.13.29.33.33,0,0,0,.14.26,1.6,1.6,0,0,0,.48.2,2,2,0,0,1,.53.23.91.91,0,0,1,.3.28.8.8,0,0,1,.09.39.68.68,0,0,1-.27.56,1.18,1.18,0,0,1-.74.21,1.48,1.48,0,0,1-.57-.11,1,1,0,0,1-.4-.32.75.75,0,0,1-.14-.47h.49a.45.45,0,0,0,.16.38.7.7,0,0,0,.46.13.63.63,0,0,0,.39-.1A.36.36,0,0,0,178.24,36Z"/><path class="cls-5" d="M179.66,35.7v1h-.5V33.91h1.09a1.09,1.09,0,0,1,.76.25.81.81,0,0,1,.28.65.84.84,0,0,1-.27.66,1.2,1.2,0,0,1-.77.23Zm0-.4h.59a.63.63,0,0,0,.41-.12.48.48,0,0,0,.13-.36.46.46,0,0,0-.14-.37.52.52,0,0,0-.38-.14h-.61Z"/><path class="cls-5" d="M182.24,36.75h-.49V33.91h.49Z"/><path class="cls-5" d="M186,35.83a1,1,0,0,1-.34.71,1.13,1.13,0,0,1-.78.25,1.08,1.08,0,0,1-.6-.16,1.13,1.13,0,0,1-.4-.46,1.6,1.6,0,0,1-.14-.69v-.26a1.58,1.58,0,0,1,.14-.71,1,1,0,0,1,.41-.47,1.23,1.23,0,0,1,1.37.08,1.09,1.09,0,0,1,.34.73h-.5a.75.75,0,0,0-.17-.45.61.61,0,0,0-.43-.13.58.58,0,0,0-.49.23,1.15,1.15,0,0,0-.18.7v.25a1.25,1.25,0,0,0,.17.7.55.55,0,0,0,.48.24.64.64,0,0,0,.44-.13.62.62,0,0,0,.18-.43Z"/><path class="cls-5" d="M186.32,35.68a1.13,1.13,0,0,1,.13-.56.87.87,0,0,1,.34-.39,1.07,1.07,0,0,1,.51-.13.91.91,0,0,1,.7.28,1.08,1.08,0,0,1,.29.73v.11a1.28,1.28,0,0,1-.12.56.92.92,0,0,1-.35.38,1,1,0,0,1-.51.13.92.92,0,0,1-.72-.3,1.11,1.11,0,0,1-.27-.79Zm.48,0a.84.84,0,0,0,.13.51.45.45,0,0,0,.38.18.43.43,0,0,0,.37-.18,1,1,0,0,0,.14-.55.84.84,0,0,0-.14-.51.44.44,0,0,0-.38-.19.44.44,0,0,0-.37.19A.91.91,0,0,0,186.8,35.72Z"/><path class="cls-5" d="M189.13,34.64v.24a.79.79,0,0,1,.62-.28c.44,0,.66.25.67.76v1.39H190V35.38a.4.4,0,0,0-.09-.29.35.35,0,0,0-.29-.1.45.45,0,0,0-.42.26v1.5h-.48V34.64Z"/><path class="cls-5" d="M191.51,34.13v.51h.37V35h-.37v1.18a.24.24,0,0,0,.05.18.25.25,0,0,0,.17,0l.16,0v.37a1.15,1.15,0,0,1-.31,0c-.36,0-.55-.2-.55-.6V35h-.34v-.35H191v-.51Z"/><path class="cls-5" d="M193.35,35.07h-.19a.42.42,0,0,0-.44.25v1.44h-.48V34.64h.46v.24a.52.52,0,0,1,.47-.28.4.4,0,0,1,.17,0Z"/><path class="cls-5" d="M193.49,35.68a1.25,1.25,0,0,1,.12-.56,1,1,0,0,1,.35-.39,1.07,1.07,0,0,1,.51-.13.91.91,0,0,1,.7.28,1.07,1.07,0,0,1,.28.73v.11a1.28,1.28,0,0,1-.12.56.92.92,0,0,1-.35.38,1,1,0,0,1-.51.13.92.92,0,0,1-.72-.3,1.11,1.11,0,0,1-.27-.79Zm.48,0a.84.84,0,0,0,.13.51.45.45,0,0,0,.38.18.43.43,0,0,0,.37-.18,1,1,0,0,0,.13-.55.84.84,0,0,0-.13-.51.45.45,0,0,0-.38-.19.43.43,0,0,0-.37.19A.91.91,0,0,0,194,35.72Z"/><path class="cls-5" d="M196.36,36.75h-.47v-3h.47Z"/><path class="cls-5" d="M197.38,36.75h-.47v-3h.47Z"/><path class="cls-5" d="M198.83,36.79a1,1,0,0,1-.73-.28,1,1,0,0,1-.28-.76v-.06a1.25,1.25,0,0,1,.12-.56.93.93,0,0,1,.34-.39.94.94,0,0,1,.5-.14.8.8,0,0,1,.66.28,1.14,1.14,0,0,1,.24.78v.19H198.3a.62.62,0,0,0,.17.41.53.53,0,0,0,.39.15.64.64,0,0,0,.53-.26l.26.24a.89.89,0,0,1-.34.3A1.09,1.09,0,0,1,198.83,36.79ZM198.77,35a.4.4,0,0,0-.31.14.69.69,0,0,0-.15.38h.9v0a.58.58,0,0,0-.13-.36A.39.39,0,0,0,198.77,35Z"/><path class="cls-5" d="M201.15,35.07H201a.43.43,0,0,0-.44.25v1.44h-.47V34.64h.45v.24a.52.52,0,0,1,.48-.28.47.47,0,0,1,.17,0Z"/><path class="cls-5" d="M177.32,56.72h-.5V53.87h.5Z"/><path class="cls-5" d="M179.76,56.72h-1.91v-.33l.94-1a2.42,2.42,0,0,0,.3-.38.75.75,0,0,0,.08-.31.49.49,0,0,0-.11-.33.41.41,0,0,0-.31-.12.45.45,0,0,0-.36.14.56.56,0,0,0-.12.38h-.48a.94.94,0,0,1,.12-.47.81.81,0,0,1,.34-.32,1,1,0,0,1,.5-.12,1,1,0,0,1,.66.21.73.73,0,0,1,.24.58.94.94,0,0,1-.12.44,2.1,2.1,0,0,1-.4.53l-.69.75h1.32Z"/><path class="cls-5" d="M182.37,55.79a1,1,0,0,1-.34.71,1.26,1.26,0,0,1-1.38.1,1.2,1.2,0,0,1-.4-.46,1.67,1.67,0,0,1-.14-.69v-.27a1.61,1.61,0,0,1,.14-.71,1,1,0,0,1,.41-.47,1.14,1.14,0,0,1,.61-.17,1.09,1.09,0,0,1,.76.26,1.11,1.11,0,0,1,.34.72h-.5a.72.72,0,0,0-.17-.44.62.62,0,0,0-.43-.14.56.56,0,0,0-.49.24,1.13,1.13,0,0,0-.18.69v.25a1.28,1.28,0,0,0,.17.71.55.55,0,0,0,.48.24.7.7,0,0,0,.44-.13.64.64,0,0,0,.18-.44Z"/><path class="cls-5" d="M186,55.79a1.06,1.06,0,0,1-.33.71,1.26,1.26,0,0,1-1.38.1,1.12,1.12,0,0,1-.4-.46,1.84,1.84,0,0,1-.15-.69v-.27a1.61,1.61,0,0,1,.15-.71,1,1,0,0,1,.41-.47,1.12,1.12,0,0,1,.61-.17,1.09,1.09,0,0,1,.76.26,1.06,1.06,0,0,1,.33.72h-.49a.67.67,0,0,0-.18-.44.57.57,0,0,0-.42-.14.56.56,0,0,0-.49.24,1.13,1.13,0,0,0-.18.69v.25a1.29,1.29,0,0,0,.16.71.56.56,0,0,0,.49.24.7.7,0,0,0,.44-.13.75.75,0,0,0,.18-.44Z"/><path class="cls-5" d="M186.28,55.64a1.28,1.28,0,0,1,.12-.56,1,1,0,0,1,.35-.38,1,1,0,0,1,.51-.13.9.9,0,0,1,.69.27,1.05,1.05,0,0,1,.29.73v.11a1.25,1.25,0,0,1-.12.56.84.84,0,0,1-.34.38,1,1,0,0,1-.52.14.91.91,0,0,1-.71-.3,1.13,1.13,0,0,1-.27-.79Zm.47,0a.84.84,0,0,0,.14.51.42.42,0,0,0,.37.19.44.44,0,0,0,.38-.19.93.93,0,0,0,.13-.55.81.81,0,0,0-.14-.51.43.43,0,0,0-.37-.18.45.45,0,0,0-.37.18A.93.93,0,0,0,186.75,55.68Z"/><path class="cls-5" d="M189.09,54.6v.25a.76.76,0,0,1,.62-.28c.44,0,.66.25.67.75v1.4h-.48V55.35a.49.49,0,0,0-.08-.3.4.4,0,0,0-.29-.1.47.47,0,0,0-.43.26v1.51h-.47V54.6Z"/><path class="cls-5" d="M191.47,54.09v.51h.37V55h-.37v1.18a.27.27,0,0,0,0,.17s.09,0,.17,0a.5.5,0,0,0,.17,0v.37a1.18,1.18,0,0,1-.31,0c-.37,0-.55-.2-.55-.61V55h-.35V54.6H191v-.51Z"/><path class="cls-5" d="M193.31,55l-.2,0a.46.46,0,0,0-.44.25v1.45h-.47V54.6h.45v.24a.55.55,0,0,1,.48-.27.44.44,0,0,1,.17,0Z"/><path class="cls-5" d="M193.45,55.64a1.28,1.28,0,0,1,.12-.56.92.92,0,0,1,.35-.38,1,1,0,0,1,.51-.13.92.92,0,0,1,.69.27,1.05,1.05,0,0,1,.29.73v.11a1.25,1.25,0,0,1-.12.56.84.84,0,0,1-.34.38,1,1,0,0,1-.52.14.9.9,0,0,1-.71-.3,1.13,1.13,0,0,1-.27-.79Zm.47,0a.84.84,0,0,0,.14.51.42.42,0,0,0,.37.19.44.44,0,0,0,.38-.19.93.93,0,0,0,.13-.55.88.88,0,0,0-.14-.51.47.47,0,0,0-.74,0A.93.93,0,0,0,193.92,55.68Z"/><path class="cls-5" d="M196.32,56.72h-.48v-3h.48Z"/><path class="cls-5" d="M197.34,56.72h-.47v-3h.47Z"/><path class="cls-5" d="M198.79,56.76a1,1,0,0,1-.73-.29,1,1,0,0,1-.28-.75v-.06a1.32,1.32,0,0,1,.12-.57,1,1,0,0,1,.34-.39.92.92,0,0,1,.49-.13.85.85,0,0,1,.67.27,1.14,1.14,0,0,1,.24.78v.19h-1.39a.71.71,0,0,0,.18.42.53.53,0,0,0,.39.15.65.65,0,0,0,.53-.27l.25.25a.88.88,0,0,1-.34.29A1,1,0,0,1,198.79,56.76ZM198.73,55a.39.39,0,0,0-.31.13.7.7,0,0,0-.16.38h.91v0a.59.59,0,0,0-.13-.36A.4.4,0,0,0,198.73,55Z"/><path class="cls-5" d="M201.11,55l-.19,0a.44.44,0,0,0-.44.25v1.45H200V54.6h.46v.24a.53.53,0,0,1,.47-.27.42.42,0,0,1,.17,0Z"/><path class="cls-5" d="M186.24,73.11V75a.92.92,0,0,1-.29.72,1.1,1.1,0,0,1-.78.27,1.12,1.12,0,0,1-.77-.26,1,1,0,0,1-.29-.73v-1.9h.49V75a.58.58,0,0,0,.15.43.55.55,0,0,0,.42.15q.57,0,.57-.6V73.11Z"/><path class="cls-5" d="M188.31,75.29h-1.1L187,76h-.51l1.07-2.85H188L189.06,76h-.51Zm-1-.39h.82l-.41-1.18Z"/><path class="cls-5" d="M190.43,74.86h-.55V76h-.5V73.11h1a1.21,1.21,0,0,1,.76.22.8.8,0,0,1,.27.64.76.76,0,0,1-.14.48.88.88,0,0,1-.38.3l.64,1.18v0H191Zm-.55-.4h.51a.61.61,0,0,0,.39-.12.45.45,0,0,0,.14-.35.48.48,0,0,0-.13-.35.57.57,0,0,0-.39-.13h-.52Z"/><path class="cls-5" d="M193.84,73.51H193V76h-.49V73.51h-.88v-.4h2.26Z"/><path class="cls-5" d="M173.3,96.06h-.5V93.21h.5Z"/><path class="cls-5" d="M174.3,94v.24a.76.76,0,0,1,.62-.28c.44,0,.66.25.67.75v1.4h-.48V94.69a.49.49,0,0,0-.08-.3.4.4,0,0,0-.29-.1.47.47,0,0,0-.43.26v1.51h-.47V94Z"/><path class="cls-5" d="M176.68,93.43V94h.37v.35h-.37v1.18a.25.25,0,0,0,0,.17.23.23,0,0,0,.18.06l.16,0v.36a1.18,1.18,0,0,1-.31,0c-.37,0-.55-.2-.55-.61V94.3h-.35V94h.35v-.52Z"/><path class="cls-5" d="M178.34,96.1a1,1,0,0,1-.73-.29,1,1,0,0,1-.28-.75V95a1.32,1.32,0,0,1,.12-.57,1,1,0,0,1,.35-.39.9.9,0,0,1,.49-.13.82.82,0,0,1,.66.27,1.16,1.16,0,0,1,.24.78v.19h-1.38a.64.64,0,0,0,.17.42.54.54,0,0,0,.39.15.65.65,0,0,0,.53-.26l.26.24a.87.87,0,0,1-.34.29A1.06,1.06,0,0,1,178.34,96.1Zm-.05-1.81a.41.41,0,0,0-.32.13.69.69,0,0,0-.15.38h.9v0a.54.54,0,0,0-.13-.36A.38.38,0,0,0,178.29,94.29Z"/><path class="cls-5" d="M180.66,94.38l-.19,0a.45.45,0,0,0-.44.25v1.45h-.47V94H180v.23a.55.55,0,0,1,.48-.27l.17,0Z"/><path class="cls-5" d="M182.07,94.38l-.19,0a.44.44,0,0,0-.44.25v1.45H181V94h.46v.23a.53.53,0,0,1,.48-.27l.16,0Z"/><path class="cls-5" d="M183.65,95.85a.72.72,0,0,1-.59.25.66.66,0,0,1-.52-.2.87.87,0,0,1-.18-.59V94h.47v1.36c0,.27.12.4.34.4a.48.48,0,0,0,.47-.25V94h.47v2.11h-.45Z"/><path class="cls-5" d="M186.44,95a1.28,1.28,0,0,1-.22.79.73.73,0,0,1-.6.29.72.72,0,0,1-.55-.23v1h-.48V94H185l0,.21a.78.78,0,0,1,1.17,0,1.29,1.29,0,0,1,.22.8ZM186,95a.9.9,0,0,0-.12-.5.46.46,0,0,0-.78.06v.93a.42.42,0,0,0,.42.25.4.4,0,0,0,.35-.18A1,1,0,0,0,186,95Z"/><path class="cls-5" d="M187.44,93.43V94h.37v.35h-.37v1.18a.25.25,0,0,0,.05.17.21.21,0,0,0,.17.06l.16,0v.36a1.12,1.12,0,0,1-.31,0c-.36,0-.54-.2-.54-.61V94.3h-.35V94H187v-.52Z"/><path class="cls-5" d="M191.39,95.13a1,1,0,0,1-.34.71,1.13,1.13,0,0,1-.78.26,1.22,1.22,0,0,1-.6-.16,1.13,1.13,0,0,1-.4-.46,1.67,1.67,0,0,1-.14-.69v-.27a1.61,1.61,0,0,1,.14-.71,1.11,1.11,0,0,1,.41-.47,1.15,1.15,0,0,1,.62-.16,1.08,1.08,0,0,1,.75.25,1.07,1.07,0,0,1,.34.72h-.49a.78.78,0,0,0-.18-.44.61.61,0,0,0-.42-.14.58.58,0,0,0-.5.24,1.29,1.29,0,0,0-.18.69v.25a1.28,1.28,0,0,0,.17.71.55.55,0,0,0,.48.24.63.63,0,0,0,.44-.13.69.69,0,0,0,.19-.44Z"/><path class="cls-5" d="M191.69,95a1.32,1.32,0,0,1,.13-.56.9.9,0,0,1,.34-.38,1,1,0,0,1,.51-.13.94.94,0,0,1,.7.27,1.12,1.12,0,0,1,.29.73V95a1.25,1.25,0,0,1-.12.56.9.9,0,0,1-.34.38,1,1,0,0,1-.52.14.92.92,0,0,1-.72-.3,1.13,1.13,0,0,1-.27-.79Zm.48,0a.84.84,0,0,0,.13.51.44.44,0,0,0,.38.19.42.42,0,0,0,.37-.19.93.93,0,0,0,.14-.55.88.88,0,0,0-.14-.51.45.45,0,0,0-.38-.18.43.43,0,0,0-.36.18A.86.86,0,0,0,192.17,95Z"/><path class="cls-5" d="M194.5,94v.24a.77.77,0,0,1,.62-.28c.44,0,.66.25.67.75v1.4h-.47V94.69a.43.43,0,0,0-.09-.3.38.38,0,0,0-.28-.1.45.45,0,0,0-.43.26v1.51h-.48V94Z"/><path class="cls-5" d="M196.88,93.43V94h.37v.35h-.37v1.18a.25.25,0,0,0,.05.17.21.21,0,0,0,.17.06l.16,0v.36a1.12,1.12,0,0,1-.31,0c-.36,0-.54-.2-.54-.61V94.3h-.35V94h.35v-.52Z"/><path class="cls-5" d="M197.47,95a1.31,1.31,0,0,1,.12-.56.92.92,0,0,1,.86-.51.93.93,0,0,1,.69.27,1.07,1.07,0,0,1,.29.73V95a1.25,1.25,0,0,1-.12.56A.84.84,0,0,1,199,96a1,1,0,0,1-.52.14.89.89,0,0,1-.71-.3,1.13,1.13,0,0,1-.27-.79Zm.47,0a.84.84,0,0,0,.14.51.42.42,0,0,0,.37.19.44.44,0,0,0,.38-.19A1,1,0,0,0,199,95a.88.88,0,0,0-.14-.51.47.47,0,0,0-.74,0A.93.93,0,0,0,197.94,95Z"/><path class="cls-5" d="M200.34,96.06h-.48v-3h.48Z"/><path class="cls-5" d="M201.36,96.06h-.47v-3h.47Z"/><path class="cls-5" d="M202.81,96.1a1,1,0,0,1-.73-.29,1,1,0,0,1-.28-.75V95a1.32,1.32,0,0,1,.12-.57,1,1,0,0,1,.34-.39.92.92,0,0,1,.49-.13.85.85,0,0,1,.67.27,1.16,1.16,0,0,1,.24.78v.19h-1.39a.71.71,0,0,0,.18.42.52.52,0,0,0,.38.15.67.67,0,0,0,.54-.26l.25.24a.8.8,0,0,1-.34.29A1,1,0,0,1,202.81,96.1Zm-.06-1.81a.39.39,0,0,0-.31.13.7.7,0,0,0-.16.38h.91v0a.59.59,0,0,0-.13-.36A.4.4,0,0,0,202.75,94.29Z"/><path class="cls-5" d="M205.13,94.38l-.19,0a.44.44,0,0,0-.44.25v1.45H204V94h.46v.23a.53.53,0,0,1,.47-.27l.17,0Z"/><path class="cls-5" d="M185.94,113.59h-.89V116h-.49v-2.45h-.88v-.39h2.26Z"/><path class="cls-5" d="M186.27,113.38a.21.21,0,0,1,.07-.18.24.24,0,0,1,.19-.08.25.25,0,0,1,.2.08.21.21,0,0,1,.07.18.24.24,0,0,1-.07.18.28.28,0,0,1-.2.07.27.27,0,0,1-.19-.07A.24.24,0,0,1,186.27,113.38Zm.5,2.66h-.47v-2.11h.47Z"/><path class="cls-5" d="M187.73,113.93l0,.22a.74.74,0,0,1,.61-.26.6.6,0,0,1,.58.32.75.75,0,0,1,.64-.32.67.67,0,0,1,.53.19.86.86,0,0,1,.17.57V116h-.47v-1.38a.33.33,0,0,0-.38-.38.4.4,0,0,0-.27.08.49.49,0,0,0-.14.23V116h-.47v-1.39a.34.34,0,0,0-.39-.37.4.4,0,0,0-.4.23V116h-.47v-2.11Z"/><path class="cls-5" d="M191.7,116.08a1,1,0,0,1-.73-.29,1,1,0,0,1-.28-.75V115a1.32,1.32,0,0,1,.12-.57.9.9,0,0,1,.34-.38,1,1,0,0,1,1.16.13,1.17,1.17,0,0,1,.24.78v.19h-1.39a.68.68,0,0,0,.18.42.53.53,0,0,0,.39.15.67.67,0,0,0,.53-.26l.25.24a.8.8,0,0,1-.34.29A1,1,0,0,1,191.7,116.08Zm-.06-1.81a.39.39,0,0,0-.31.13.73.73,0,0,0-.16.39h.91v0a.59.59,0,0,0-.13-.36A.4.4,0,0,0,191.64,114.27Z"/><path class="cls-5" d="M194,114.36l-.19,0a.44.44,0,0,0-.44.25V116h-.48v-2.11h.46v.23a.53.53,0,0,1,.47-.27l.17,0Z"/><polygon class="cls-5" points="81.68 40.72 83.43 38.71 85.98 38.71 84.24 40.72 81.68 40.72"/><polygon class="cls-5" points="83.83 38.22 85.58 36.22 88.13 36.22 86.39 38.22 83.83 38.22"/><polygon class="cls-5" points="84.81 40.72 86.56 38.71 89.12 38.71 87.38 40.72 84.81 40.72"/><polygon class="cls-5" points="87.01 38.22 88.75 36.22 91.31 36.22 89.57 38.22 87.01 38.22"/><path class="cls-5" d="M33.09,44.52c0-.21.06-7.49.06-7.49l-2.87,7.49h-.57L26.78,37s.1,7.34.1,7.49h-.82V35.71h1l3,7.47,2.86-7.47h1v8.81Z"/><path class="cls-5" d="M35.71,37.17V36h.72v1.13Zm0,7.35v-6h.72v6Z"/><path class="cls-5" d="M42.88,43.2a2.44,2.44,0,0,1-2.38,1.47c-1.69,0-2.74-1.25-2.74-3.08a2.86,2.86,0,0,1,2.86-3.17,2.22,2.22,0,0,1,2.26,1.5l-.69.16a1.66,1.66,0,0,0-1.61-1c-1.37,0-2,1.17-2,2.47s.6,2.47,2,2.47a1.71,1.71,0,0,0,1.61-1Z"/><path class="cls-5" d="M44.71,38.57v1a1.68,1.68,0,0,1,1.63-1,3.81,3.81,0,0,1,.52,0v.66a2.39,2.39,0,0,0-.48,0c-1.27,0-1.67.93-1.67,2.13v3.26H44v-6Z"/><path class="cls-5" d="M50,44.67c-1.53,0-2.67-1.14-2.67-3.06s1-3.19,2.72-3.19,2.66,1.58,2.68,3.09C52.74,43.73,51.31,44.67,50,44.67Zm0-5.63c-1.07,0-1.92.79-1.92,2.57S49.09,44,50,44,52,43.42,52,41.51,51,39,50.05,39Z"/><path class="cls-5" d="M58.1,35.71a2.5,2.5,0,0,1,2.14.89,2.26,2.26,0,0,1,.42,1.31,1.83,1.83,0,0,1-1.58,1.87A2.14,2.14,0,0,1,61,42a2.36,2.36,0,0,1-1.2,2.14,4.26,4.26,0,0,1-2,.34H54.15V35.71ZM55,39.44h2.85c1.45,0,1.95-.7,1.95-1.54a1.53,1.53,0,0,0-.26-.87,2.1,2.1,0,0,0-1.81-.57H55Zm3.13,4.32c1.19,0,2-.55,2-1.7a1.75,1.75,0,0,0-.88-1.57,3.39,3.39,0,0,0-1.8-.33H55v3.6Z"/><path class="cls-5" d="M62.23,44.52V35.71H63v8.81Z"/><path class="cls-5" d="M69.74,44.52c-1,0-1.45-.25-1.45-1.09a2.12,2.12,0,0,1-2.11,1.21A1.65,1.65,0,0,1,64.31,43c0-1.18,1-1.61,3-2.06l1-.22v-.46c0-.58-.29-1.21-1.38-1.21s-1.61.47-1.61,1.43l-.81-.14a2.11,2.11,0,0,1,2.33-1.94c1,0,2.18.31,2.18,1.79v2.61c0,.8,0,1.11.76,1.11h.13v.59Zm-1.45-3.15-.37.1C65.9,42,65,42.14,65,43a1.06,1.06,0,0,0,1.2,1,2.17,2.17,0,0,0,1.91-1.12,2.38,2.38,0,0,0,.16-1Z"/><path class="cls-5" d="M70.19,44.52v-.46L73.4,39.2H70.46v-.63h4V39l-3.22,4.86h3.31v.66Z"/><path class="cls-5" d="M76,41.72A2,2,0,0,0,78,44a2,2,0,0,0,1.93-1.24l.69.2A2.64,2.64,0,0,1,78,44.67a2.87,2.87,0,0,1-2.85-3.18,2.73,2.73,0,1,1,5.43-.05v.11H76Zm3.76-.78a1.82,1.82,0,0,0-1.84-1.86A1.93,1.93,0,0,0,76,40.94Z"/><path class="cls-5" d="M55.1,47.89h-.61v1h-.34V46.35H55a1,1,0,0,1,.68.2.74.74,0,0,1,.23.58.68.68,0,0,1-.13.42.82.82,0,0,1-.36.27l.6,1.09v0h-.36Zm-.61-.28H55a.58.58,0,0,0,.4-.13.45.45,0,0,0,.15-.35.48.48,0,0,0-.14-.37.6.6,0,0,0-.42-.13h-.52Z"/><path class="cls-5" d="M57.09,49a.87.87,0,0,1-.64-.26,1,1,0,0,1-.24-.68V48a1.19,1.19,0,0,1,.11-.51.79.79,0,0,1,.3-.35.75.75,0,0,1,.43-.13.7.7,0,0,1,.58.25,1,1,0,0,1,.21.7v.14h-1.3a.69.69,0,0,0,.16.46.55.55,0,0,0,.41.17.54.54,0,0,0,.29-.07.76.76,0,0,0,.21-.19l.2.16A.79.79,0,0,1,57.09,49Zm0-1.72a.45.45,0,0,0-.33.14.7.7,0,0,0-.17.41h1v0a.57.57,0,0,0-.14-.38A.37.37,0,0,0,57.05,47.25Z"/><path class="cls-5" d="M59.36,48.93a.51.51,0,0,1,0-.2.71.71,0,0,1-.54.24.67.67,0,0,1-.47-.16.52.52,0,0,1-.18-.41.52.52,0,0,1,.23-.46,1,1,0,0,1,.64-.17h.32v-.15a.38.38,0,0,0-.11-.28.45.45,0,0,0-.3-.1.46.46,0,0,0-.29.09.26.26,0,0,0-.12.22h-.33a.44.44,0,0,1,.1-.28.67.67,0,0,1,.28-.21.79.79,0,0,1,.38-.08.77.77,0,0,1,.52.16.63.63,0,0,1,.19.46v.88a1.14,1.14,0,0,0,.07.42v0Zm-.55-.25a.54.54,0,0,0,.3-.08.48.48,0,0,0,.2-.2V48h-.26c-.4,0-.6.12-.6.35a.3.3,0,0,0,.1.25A.45.45,0,0,0,58.81,48.68Z"/><path class="cls-5" d="M60.46,48.93h-.33V46.21h.33Z"/><path class="cls-5" d="M61.63,48h-.87V47.7h.87Z"/><path class="cls-5" d="M63.74,46.63h-.83v2.3h-.34v-2.3h-.83v-.28h2Z"/><path class="cls-5" d="M64,46.51a.17.17,0,0,1,0-.14.16.16,0,0,1,.14,0,.2.2,0,0,1,.15,0,.21.21,0,0,1,0,.14.2.2,0,0,1,0,.13.25.25,0,0,1-.15,0,.2.2,0,0,1-.14,0A.17.17,0,0,1,64,46.51Zm.35,2.42h-.33V47h.33Z"/><path class="cls-5" d="M65.17,47v.22a.7.7,0,0,1,.57-.25.55.55,0,0,1,.55.31.7.7,0,0,1,.25-.23.8.8,0,0,1,.36-.08c.42,0,.63.22.64.67v1.28h-.33V47.67a.46.46,0,0,0-.09-.31.41.41,0,0,0-.32-.1.4.4,0,0,0-.3.11.42.42,0,0,0-.14.29v1.27H66V47.68a.37.37,0,0,0-.41-.42.44.44,0,0,0-.44.27v1.4h-.33V47Z"/><path class="cls-5" d="M68.8,49a.87.87,0,0,1-.64-.26,1,1,0,0,1-.24-.68V48a1.19,1.19,0,0,1,.11-.51.79.79,0,0,1,.3-.35.75.75,0,0,1,.43-.13.7.7,0,0,1,.58.25,1,1,0,0,1,.21.7v.14h-1.3a.69.69,0,0,0,.16.46.55.55,0,0,0,.41.17.54.54,0,0,0,.29-.07.76.76,0,0,0,.21-.19l.2.16A.79.79,0,0,1,68.8,49Zm0-1.72a.48.48,0,0,0-.34.14.7.7,0,0,0-.16.41h1v0a.62.62,0,0,0-.14-.38A.39.39,0,0,0,68.76,47.25Z"/><path class="cls-5" d="M71.13,47.92v1h-.34V46.35h.95a1,1,0,0,1,.67.22.81.81,0,0,1,0,1.15,1,1,0,0,1-.67.2Zm0-.28h.61a.66.66,0,0,0,.42-.12.48.48,0,0,0,.15-.38.5.5,0,0,0-.15-.37.57.57,0,0,0-.4-.14h-.63Z"/><path class="cls-5" d="M73.91,47.31h-.16a.44.44,0,0,0-.44.27v1.36H73V47h.32v.23a.5.5,0,0,1,.46-.26l.14,0Z"/><path class="cls-5" d="M74.93,49a.83.83,0,0,1-.63-.26,1,1,0,0,1-.25-.68V48a1.19,1.19,0,0,1,.11-.51.88.88,0,0,1,.31-.35.79.79,0,0,1,1,.12,1.1,1.1,0,0,1,.2.7v.14h-1.3a.7.7,0,0,0,.17.46.53.53,0,0,0,.4.17.56.56,0,0,0,.3-.07.76.76,0,0,0,.21-.19l.2.16A.8.8,0,0,1,74.93,49Zm0-1.72a.45.45,0,0,0-.33.14.7.7,0,0,0-.17.41h1v0a.56.56,0,0,0-.13-.38A.39.39,0,0,0,74.89,47.25Z"/><path class="cls-5" d="M77.14,48.42a.26.26,0,0,0-.1-.2,1.12,1.12,0,0,0-.35-.13,1.44,1.44,0,0,1-.4-.13.67.67,0,0,1-.22-.17.49.49,0,0,1-.07-.25.51.51,0,0,1,.2-.4.9.9,0,0,1,1,0,.52.52,0,0,1,.21.43h-.33a.28.28,0,0,0-.12-.23.39.39,0,0,0-.29-.1.41.41,0,0,0-.28.08.26.26,0,0,0-.1.2.19.19,0,0,0,.1.18,1,1,0,0,0,.34.11,1.92,1.92,0,0,1,.39.14.54.54,0,0,1,.23.18.44.44,0,0,1,.07.26.47.47,0,0,1-.2.41.85.85,0,0,1-.54.16,1,1,0,0,1-.4-.08.71.71,0,0,1-.28-.23.53.53,0,0,1-.1-.32h.33a.32.32,0,0,0,.13.26.47.47,0,0,0,.32.1.51.51,0,0,0,.3-.07A.24.24,0,0,0,77.14,48.42Z"/><path class="cls-5" d="M78.64,49a.83.83,0,0,1-.63-.26,1,1,0,0,1-.25-.68V48a1.19,1.19,0,0,1,.11-.51.88.88,0,0,1,.31-.35.79.79,0,0,1,1,.12,1.1,1.1,0,0,1,.2.7v.14h-1.3a.7.7,0,0,0,.17.46.53.53,0,0,0,.4.17.56.56,0,0,0,.3-.07.76.76,0,0,0,.21-.19l.2.16A.8.8,0,0,1,78.64,49Zm0-1.72a.45.45,0,0,0-.33.14.7.7,0,0,0-.17.41h1v0a.62.62,0,0,0-.13-.38A.39.39,0,0,0,78.6,47.25Z"/><path class="cls-5" d="M80.17,46.55V47h.36v.26h-.36v1.19a.26.26,0,0,0,0,.17.2.2,0,0,0,.16.06l.16,0v.26a.77.77,0,0,1-.25,0,.42.42,0,0,1-.33-.13.56.56,0,0,1-.11-.38V47.27H79.5V47h.35v-.46Z"/></g></g></svg>