<svg xmlns="http://www.w3.org/2000/svg" viewBox="0 0 234.75 137.64"><defs><style>.cls-1{fill:#6a6b6d;}.cls-2{fill:#e4ebed;stroke:#231f20;stroke-miterlimit:10;stroke-width:0.5px;}.cls-3{fill:#de1f26;}.cls-4{fill:#282d3f;}.cls-5{fill:#fff;}</style></defs><title>Asset 2</title><g id="Layer_2" data-name="Layer 2"><g id="Layer_1-2" data-name="Layer 1"><path class="cls-1" d="M2.08.31,3.7,4.6,5.31.31H6.57v5.6h-1V4.06l.09-2.47L4,5.91h-.7L1.69,1.6l.1,2.46V5.91h-1V.31Z"/><path class="cls-1" d="M7.63.67A.49.49,0,0,1,7.77.31.49.49,0,0,1,8.16.17a.49.49,0,0,1,.39.14.49.49,0,0,1,.14.36A.5.5,0,0,1,8.55,1a.61.61,0,0,1-.78,0A.5.5,0,0,1,7.63.67Zm1,5.24H7.69V1.75h.93Z"/><path class="cls-1" d="M11.35,5.24a.85.85,0,0,0,.58-.2.7.7,0,0,0,.25-.51h.88a1.41,1.41,0,0,1-.24.73,1.61,1.61,0,0,1-.62.53,1.86,1.86,0,0,1-.84.2A1.76,1.76,0,0,1,10,5.42a2.26,2.26,0,0,1-.51-1.56v-.1A2.2,2.2,0,0,1,10,2.24a1.77,1.77,0,0,1,1.39-.57,1.71,1.71,0,0,1,1.21.43,1.54,1.54,0,0,1,.49,1.14h-.88a.82.82,0,0,0-.25-.59.78.78,0,0,0-.58-.23.83.83,0,0,0-.7.33,1.69,1.69,0,0,0-.25,1V3.9a1.65,1.65,0,0,0,.25,1A.81.81,0,0,0,11.35,5.24Z"/><path class="cls-1" d="M16,2.6a2.47,2.47,0,0,0-.39,0,.85.85,0,0,0-.86.49V5.91h-.94V1.75h.9l0,.46a1.06,1.06,0,0,1,.94-.54,1,1,0,0,1,.33.05Z"/><path class="cls-1" d="M16.22,3.79a2.32,2.32,0,0,1,.25-1.1,1.73,1.73,0,0,1,.68-.76,2,2,0,0,1,1-.26,1.81,1.81,0,0,1,1.36.54,2.14,2.14,0,0,1,.57,1.44v.22A2.43,2.43,0,0,1,19.86,5a1.83,1.83,0,0,1-.68.75,1.89,1.89,0,0,1-1,.27,1.83,1.83,0,0,1-1.41-.59,2.25,2.25,0,0,1-.53-1.56Zm.94.08a1.75,1.75,0,0,0,.26,1,.88.88,0,0,0,.74.36.85.85,0,0,0,.74-.37,1.84,1.84,0,0,0,.26-1.08,1.67,1.67,0,0,0-.27-1,.85.85,0,0,0-.73-.37.86.86,0,0,0-.73.36A1.85,1.85,0,0,0,17.16,3.87Z"/><path class="cls-1" d="M22.6,5.24a.89.89,0,0,0,.58-.2.72.72,0,0,0,.24-.51h.88a1.41,1.41,0,0,1-.24.73,1.58,1.58,0,0,1-.61.53,1.86,1.86,0,0,1-.84.2,1.77,1.77,0,0,1-1.39-.57,2.26,2.26,0,0,1-.51-1.56v-.1a2.2,2.2,0,0,1,.51-1.52,1.76,1.76,0,0,1,1.38-.57,1.69,1.69,0,0,1,1.21.43,1.51,1.51,0,0,1,.49,1.14h-.88a.86.86,0,0,0-.24-.59.88.88,0,0,0-1.28.1,1.62,1.62,0,0,0-.25,1V3.9a1.73,1.73,0,0,0,.24,1A.83.83,0,0,0,22.6,5.24Z"/><path class="cls-1" d="M24.84,3.79a2.44,2.44,0,0,1,.24-1.1,1.8,1.8,0,0,1,.68-.76,2,2,0,0,1,1-.26,1.81,1.81,0,0,1,1.36.54,2.09,2.09,0,0,1,.57,1.44v.22A2.44,2.44,0,0,1,28.47,5a1.76,1.76,0,0,1-.68.75,1.89,1.89,0,0,1-1,.27,1.83,1.83,0,0,1-1.41-.59,2.25,2.25,0,0,1-.52-1.56Zm.93.08a1.68,1.68,0,0,0,.27,1,.85.85,0,0,0,.73.36.84.84,0,0,0,.74-.37,1.83,1.83,0,0,0,.27-1.08,1.67,1.67,0,0,0-.28-1,.85.85,0,0,0-.73-.37.86.86,0,0,0-.73.36A1.85,1.85,0,0,0,25.77,3.87Z"/><path class="cls-1" d="M30.36,1.75l0,.48a1.5,1.5,0,0,1,1.21-.56c.87,0,1.31.5,1.33,1.49V5.91H32V3.21a.81.81,0,0,0-.17-.58.7.7,0,0,0-.56-.19.89.89,0,0,0-.84.51v3h-.94V1.75Z"/><path class="cls-1" d="M35.05.73v1h.74v.69h-.74V4.76a.49.49,0,0,0,.1.35.42.42,0,0,0,.33.1,1.84,1.84,0,0,0,.33,0V5.9a2.27,2.27,0,0,1-.62.09c-.71,0-1.07-.4-1.07-1.19V2.44h-.69V1.75h.69v-1Z"/><path class="cls-1" d="M38.68,2.6a2.34,2.34,0,0,0-.38,0,.86.86,0,0,0-.87.49V5.91H36.5V1.75h.89l0,.46a1.06,1.06,0,0,1,.94-.54,1,1,0,0,1,.33.05Z"/><path class="cls-1" d="M39,3.79a2.44,2.44,0,0,1,.24-1.1,1.8,1.8,0,0,1,.68-.76,2,2,0,0,1,1-.26,1.83,1.83,0,0,1,1.37.54,2.14,2.14,0,0,1,.57,1.44v.22A2.44,2.44,0,0,1,42.59,5a1.81,1.81,0,0,1-.67.75,1.94,1.94,0,0,1-1,.27,1.8,1.8,0,0,1-1.41-.59A2.2,2.2,0,0,1,39,3.84Zm.93.08a1.68,1.68,0,0,0,.27,1,.87.87,0,0,0,.74.36.83.83,0,0,0,.73-.37,1.83,1.83,0,0,0,.27-1.08,1.67,1.67,0,0,0-.27-1,.92.92,0,0,0-1.47,0A1.85,1.85,0,0,0,39.89,3.87Z"/><path class="cls-1" d="M44.61,5.91h-.93V0h.93Z"/><path class="cls-1" d="M46.63,5.91h-.94V0h.94Z"/><path class="cls-1" d="M49.48,6A2,2,0,0,1,48,5.43a2,2,0,0,1-.56-1.49V3.82a2.36,2.36,0,0,1,.25-1.11,1.76,1.76,0,0,1,1.64-1,1.61,1.61,0,0,1,1.31.54,2.3,2.3,0,0,1,.47,1.54v.37H48.43a1.26,1.26,0,0,0,.34.82,1,1,0,0,0,.76.3,1.26,1.26,0,0,0,1-.52l.5.48a1.69,1.69,0,0,1-.66.58A2.09,2.09,0,0,1,49.48,6Zm-.11-3.57a.77.77,0,0,0-.62.27,1.44,1.44,0,0,0-.31.75h1.78V3.37A1.12,1.12,0,0,0,50,2.66.75.75,0,0,0,49.37,2.42Z"/><path class="cls-1" d="M54.05,2.6a2.34,2.34,0,0,0-.38,0,.85.85,0,0,0-.86.49V5.91h-.94V1.75h.89l0,.46a1.09,1.09,0,0,1,1.27-.49Z"/><rect class="cls-2" x="0.25" y="12.93" width="234.25" height="124.47"/><rect class="cls-3" x="7.47" y="20.4" width="219.8" height="109.78"/><rect class="cls-4" x="16.44" y="27.92" width="134.7" height="78.38"/><rect class="cls-1" x="158.18" y="67.64" width="61.31" height="15.23"/><rect class="cls-1" x="16.44" y="110.1" width="63.88" height="12.5"/><rect class="cls-1" x="158.18" y="47.78" width="61.31" height="15.23"/><rect class="cls-1" x="158.18" y="27.92" width="61.31" height="15.23"/><path class="cls-5" d="M55.62,73.83h.43a.76.76,0,0,0,.52-.17.6.6,0,0,0,.2-.48.71.71,0,0,0-.16-.48.66.66,0,0,0-.49-.16.67.67,0,0,0-.47.16.54.54,0,0,0-.19.43h-.71a1.07,1.07,0,0,1,.17-.59,1.21,1.21,0,0,1,.49-.43,1.6,1.6,0,0,1,.7-.15,1.46,1.46,0,0,1,1,.32,1.13,1.13,0,0,1,.37.9.92.92,0,0,1-.18.54,1.27,1.27,0,0,1-.48.38,1.09,1.09,0,0,1,.54.38,1,1,0,0,1,.18.61,1.16,1.16,0,0,1-.39.92,1.59,1.59,0,0,1-1,.34,1.52,1.52,0,0,1-1-.33,1.08,1.08,0,0,1-.39-.87h.71a.57.57,0,0,0,.19.45.72.72,0,0,0,.51.18.73.73,0,0,0,.52-.18.63.63,0,0,0,.19-.51.7.7,0,0,0-.2-.52.85.85,0,0,0-.59-.18h-.42Z"/><path class="cls-5" d="M61.08,76.29H58.21V75.8l1.42-1.55a4.45,4.45,0,0,0,.44-.57,1,1,0,0,0,.13-.47.73.73,0,0,0-.17-.49.63.63,0,0,0-.47-.18.66.66,0,0,0-.53.21.8.8,0,0,0-.19.57h-.71a1.37,1.37,0,0,1,.17-.7,1.18,1.18,0,0,1,.51-.48,1.55,1.55,0,0,1,.76-.18,1.44,1.44,0,0,1,1,.32,1.06,1.06,0,0,1,.36.86,1.5,1.5,0,0,1-.18.67,3.82,3.82,0,0,1-.59.79l-1,1.12h2Z"/><path class="cls-5" d="M63,74.76H61.51v-.57H63Z"/><path class="cls-5" d="M66.41,74.74a1.89,1.89,0,0,1-.33,1.17,1.14,1.14,0,0,1-1.77,0l0,.34h-.64v-4.5h.71v1.63a1,1,0,0,1,.83-.36,1.07,1.07,0,0,1,.91.43,1.94,1.94,0,0,1,.33,1.2Zm-.71-.07a1.35,1.35,0,0,0-.18-.77.61.61,0,0,0-.53-.26.67.67,0,0,0-.65.41v1.3a.68.68,0,0,0,.66.42.61.61,0,0,0,.51-.25,1.31,1.31,0,0,0,.19-.76Z"/><path class="cls-5" d="M67,72.29a.39.39,0,0,1,.11-.27.37.37,0,0,1,.29-.11.41.41,0,0,1,.3.11.39.39,0,0,1,.11.27.37.37,0,0,1-.11.27.41.41,0,0,1-.3.11.38.38,0,0,1-.4-.38Zm.76,4h-.72V73.12h.72Z"/><path class="cls-5" d="M69.43,72.35v.77H70v.53h-.56v1.77a.38.38,0,0,0,.08.26.32.32,0,0,0,.25.08,1.07,1.07,0,0,0,.25,0v.55a2,2,0,0,1-.47.07c-.54,0-.82-.31-.82-.91V73.65H68.2v-.53h.52v-.77Z"/><path class="cls-5" d="M72.84,74.71v1.58H72.1V72h1.63a1.7,1.7,0,0,1,1.14.37,1.26,1.26,0,0,1,.42,1,1.24,1.24,0,0,1-.41,1,1.76,1.76,0,0,1-1.16.35Zm0-.6h.89a.86.86,0,0,0,.61-.19.7.7,0,0,0,.2-.54.74.74,0,0,0-.21-.55.78.78,0,0,0-.58-.21h-.91Z"/><path class="cls-5" d="M77.53,73.77a1.42,1.42,0,0,0-.29,0,.64.64,0,0,0-.66.37v2.17h-.72V73.12h.68l0,.35a.81.81,0,0,1,.72-.41.62.62,0,0,1,.25,0Z"/><path class="cls-5" d="M77.74,74.67a1.92,1.92,0,0,1,.18-.84,1.31,1.31,0,0,1,.52-.57,1.5,1.5,0,0,1,.77-.2,1.42,1.42,0,0,1,1,.41,1.61,1.61,0,0,1,.43,1.1v.17a1.84,1.84,0,0,1-.18.83,1.29,1.29,0,0,1-.51.57,1.45,1.45,0,0,1-.78.21,1.37,1.37,0,0,1-1.07-.45,1.7,1.7,0,0,1-.4-1.19Zm.71.07a1.29,1.29,0,0,0,.2.76.65.65,0,0,0,.56.28.66.66,0,0,0,.56-.28,1.38,1.38,0,0,0,.2-.83,1.24,1.24,0,0,0-.2-.76.66.66,0,0,0-.56-.28.65.65,0,0,0-.56.28A1.43,1.43,0,0,0,78.45,74.74Z"/><path class="cls-5" d="M82.59,75.78a.61.61,0,0,0,.44-.16.52.52,0,0,0,.19-.38h.67a1,1,0,0,1-.19.55,1.22,1.22,0,0,1-.46.41,1.4,1.4,0,0,1-.64.15,1.38,1.38,0,0,1-1.06-.43,1.72,1.72,0,0,1-.39-1.19v-.08a1.68,1.68,0,0,1,.39-1.16,1.34,1.34,0,0,1,1-.43,1.32,1.32,0,0,1,.93.33,1.2,1.2,0,0,1,.37.86h-.67a.62.62,0,0,0-.19-.44.57.57,0,0,0-.44-.18.64.64,0,0,0-.54.25,1.39,1.39,0,0,0-.19.76v.12a1.28,1.28,0,0,0,.19.76A.62.62,0,0,0,82.59,75.78Z"/><path class="cls-5" d="M85.82,76.35a1.48,1.48,0,0,1-1.09-.43,1.54,1.54,0,0,1-.43-1.13V74.7a1.93,1.93,0,0,1,.19-.85,1.37,1.37,0,0,1,.51-.58,1.36,1.36,0,0,1,.74-.21,1.25,1.25,0,0,1,1,.41,1.74,1.74,0,0,1,.35,1.17v.29H85a.92.92,0,0,0,.27.62.78.78,0,0,0,.57.23,1,1,0,0,0,.8-.4l.38.37a1.26,1.26,0,0,1-.5.44A1.69,1.69,0,0,1,85.82,76.35Zm-.08-2.72a.6.6,0,0,0-.48.21,1.07,1.07,0,0,0-.23.57h1.36v-.06a.88.88,0,0,0-.19-.54A.6.6,0,0,0,85.74,73.63Z"/><path class="cls-5" d="M89.42,75.43a.32.32,0,0,0-.15-.29,1.61,1.61,0,0,0-.52-.18,2.45,2.45,0,0,1-.61-.19.8.8,0,0,1-.53-.75.86.86,0,0,1,.34-.69,1.61,1.61,0,0,1,1.8,0,.9.9,0,0,1,.35.73h-.71a.43.43,0,0,0-.15-.34.62.62,0,0,0-.41-.14.63.63,0,0,0-.38.11.34.34,0,0,0-.15.29.3.3,0,0,0,.14.26,1.89,1.89,0,0,0,.56.18,2.45,2.45,0,0,1,.65.22A.92.92,0,0,1,90,75a.73.73,0,0,1,.11.43.82.82,0,0,1-.35.69,1.51,1.51,0,0,1-.93.27,1.67,1.67,0,0,1-.69-.14,1.18,1.18,0,0,1-.48-.39.93.93,0,0,1-.17-.53h.69a.52.52,0,0,0,.19.39.77.77,0,0,0,.47.13.74.74,0,0,0,.43-.1A.37.37,0,0,0,89.42,75.43Z"/><path class="cls-5" d="M92.52,75.43a.31.31,0,0,0-.16-.29,1.45,1.45,0,0,0-.52-.18,2.5,2.5,0,0,1-.6-.19A.81.81,0,0,1,90.7,74a.87.87,0,0,1,.35-.69,1.38,1.38,0,0,1,.88-.27,1.42,1.42,0,0,1,.92.28.9.9,0,0,1,.35.73h-.72a.43.43,0,0,0-.15-.34.57.57,0,0,0-.4-.14.61.61,0,0,0-.38.11.34.34,0,0,0-.15.29.28.28,0,0,0,.14.26,1.8,1.8,0,0,0,.55.18,2.41,2.41,0,0,1,.66.22.83.83,0,0,1,.35.31.73.73,0,0,1,.12.43.84.84,0,0,1-.35.69,1.51,1.51,0,0,1-.93.27,1.75,1.75,0,0,1-.7-.14,1.22,1.22,0,0,1-.47-.39.86.86,0,0,1-.17-.53h.69a.49.49,0,0,0,.19.39.75.75,0,0,0,.47.13.71.71,0,0,0,.42-.1A.35.35,0,0,0,92.52,75.43Z"/><path class="cls-5" d="M93.71,74.67a1.92,1.92,0,0,1,.18-.84,1.31,1.31,0,0,1,.52-.57,1.5,1.5,0,0,1,.77-.2,1.42,1.42,0,0,1,1,.41,1.61,1.61,0,0,1,.43,1.1v.17a1.84,1.84,0,0,1-.18.83,1.29,1.29,0,0,1-.51.57,1.45,1.45,0,0,1-.78.21,1.37,1.37,0,0,1-1.07-.45,1.7,1.7,0,0,1-.4-1.19Zm.71.07a1.29,1.29,0,0,0,.2.76.65.65,0,0,0,.56.28.66.66,0,0,0,.56-.28,1.38,1.38,0,0,0,.2-.83,1.24,1.24,0,0,0-.2-.76.66.66,0,0,0-.56-.28.65.65,0,0,0-.56.28A1.43,1.43,0,0,0,94.42,74.74Z"/><path class="cls-5" d="M98.92,73.77a1.46,1.46,0,0,0-.29,0,.64.64,0,0,0-.66.37v2.17h-.72V73.12h.68l0,.35a.81.81,0,0,1,.72-.41.62.62,0,0,1,.25,0Z"/><path class="cls-5" d="M104.18,74.9a1.53,1.53,0,0,1-.5,1.06,1.69,1.69,0,0,1-1.17.39,1.62,1.62,0,0,1-1.5-.93,2.57,2.57,0,0,1-.22-1V74a2.41,2.41,0,0,1,.22-1.07,1.63,1.63,0,0,1,.61-.71,1.8,1.8,0,0,1,.93-.25,1.62,1.62,0,0,1,1.13.39,1.53,1.53,0,0,1,.5,1.08h-.74a1.07,1.07,0,0,0-.26-.67.93.93,0,0,0-.63-.2.87.87,0,0,0-.75.36,1.74,1.74,0,0,0-.26,1v.38a1.81,1.81,0,0,0,.25,1,.79.79,0,0,0,.72.37,1,1,0,0,0,.66-.2,1,1,0,0,0,.27-.65Z"/><path class="cls-5" d="M104.64,74.67a1.79,1.79,0,0,1,.19-.84,1.25,1.25,0,0,1,.52-.57,1.46,1.46,0,0,1,.76-.2,1.42,1.42,0,0,1,1,.41,1.66,1.66,0,0,1,.43,1.1v.17a1.84,1.84,0,0,1-.18.83,1.25,1.25,0,0,1-.52.57,1.41,1.41,0,0,1-.77.21,1.35,1.35,0,0,1-1.07-.45,1.7,1.7,0,0,1-.41-1.19Zm.71.07a1.23,1.23,0,0,0,.21.76.64.64,0,0,0,.56.28.66.66,0,0,0,.56-.28,1.45,1.45,0,0,0,.2-.83,1.25,1.25,0,0,0-.21-.76.69.69,0,0,0-1.11,0A1.35,1.35,0,0,0,105.35,74.74Z"/><path class="cls-5" d="M109.85,73.77a1.37,1.37,0,0,0-.29,0,.66.66,0,0,0-.66.37v2.17h-.71V73.12h.68l0,.35a.81.81,0,0,1,.71-.41.6.6,0,0,1,.25,0Z"/><path class="cls-5" d="M111.64,76.35a1.48,1.48,0,0,1-1.09-.43,1.5,1.5,0,0,1-.43-1.13V74.7a1.93,1.93,0,0,1,.19-.85,1.37,1.37,0,0,1,.51-.58,1.36,1.36,0,0,1,.74-.21,1.25,1.25,0,0,1,1,.41,1.74,1.74,0,0,1,.35,1.17v.29h-2.07a1,1,0,0,0,.26.62.82.82,0,0,0,.58.23,1,1,0,0,0,.8-.4l.38.37a1.26,1.26,0,0,1-.5.44A1.69,1.69,0,0,1,111.64,76.35Zm-.08-2.72a.6.6,0,0,0-.48.21,1.07,1.07,0,0,0-.23.57h1.36v-.06a.94.94,0,0,0-.19-.54A.6.6,0,0,0,111.56,73.63Z"/><path class="cls-5" d="M81.32,44h-.2v.56H81V44h-.2V43.9h.48Z"/><path class="cls-5" d="M81.52,43.9l.2.5.2-.5H82v.62H82V44l-.21.51h-.06l-.2-.5v.5h-.08V43.9Z"/><rect class="cls-1" x="158.18" y="87.51" width="61.31" height="15.23"/><rect class="cls-1" x="158.18" y="107.37" width="61.31" height="15.23"/><rect class="cls-1" x="106.18" y="32.75" width="40.68" height="13.93"/><path class="cls-5" d="M113.93,41.71V38.87h.84a1.26,1.26,0,0,1,.67.17,1.2,1.2,0,0,1,.45.47,1.51,1.51,0,0,1,.16.71v.14a1.46,1.46,0,0,1-.16.71,1.12,1.12,0,0,1-.46.48,1.37,1.37,0,0,1-.68.16Zm.49-2.44v2h.33a.72.72,0,0,0,.59-.24,1.12,1.12,0,0,0,.22-.7v-.16a1.06,1.06,0,0,0-.21-.71.7.7,0,0,0-.58-.24Z"/><path class="cls-5" d="M117.43,41.75a1,1,0,0,1-.73-.28,1,1,0,0,1-.28-.76v-.06a1.25,1.25,0,0,1,.12-.56.87.87,0,0,1,.34-.39.93.93,0,0,1,.49-.14.82.82,0,0,1,.67.28,1.14,1.14,0,0,1,.24.78v.19H116.9a.62.62,0,0,0,.17.41.53.53,0,0,0,.39.15.64.64,0,0,0,.53-.26l.25.24a.77.77,0,0,1-.34.3A1,1,0,0,1,117.43,41.75Zm-.06-1.81a.4.4,0,0,0-.31.14.7.7,0,0,0-.16.38h.91v0a.54.54,0,0,0-.13-.36A.4.4,0,0,0,117.37,39.94Z"/><path class="cls-5" d="M120.5,40.68a1.23,1.23,0,0,1-.22.78.74.74,0,0,1-.61.29.67.67,0,0,1-.57-.27l0,.23h-.43v-3h.48V39.8a.69.69,0,0,1,.55-.24.74.74,0,0,1,.61.29,1.33,1.33,0,0,1,.22.8Zm-.48,0a.93.93,0,0,0-.12-.52.4.4,0,0,0-.35-.17.44.44,0,0,0-.43.27v.87a.45.45,0,0,0,.44.28.41.41,0,0,0,.34-.17.86.86,0,0,0,.12-.5Z"/><path class="cls-5" d="M122.18,41.51a.75.75,0,0,1-.6.24.67.67,0,0,1-.52-.2.84.84,0,0,1-.17-.58V39.6h.47V41c0,.27.11.41.33.41a.48.48,0,0,0,.47-.25V39.6h.48v2.11h-.45Z"/><path class="cls-5" d="M123,40.64a1.22,1.22,0,0,1,.23-.79.75.75,0,0,1,.61-.29.7.7,0,0,1,.57.25l0-.21h.43v2a.84.84,0,0,1-.26.65,1,1,0,0,1-.7.24,1.2,1.2,0,0,1-.45-.09.91.91,0,0,1-.34-.25l.23-.29a.67.67,0,0,0,.54.26.51.51,0,0,0,.37-.13.48.48,0,0,0,.13-.37v-.15a.65.65,0,0,1-.54.23.76.76,0,0,1-.61-.29A1.27,1.27,0,0,1,123,40.64Zm.47,0a.82.82,0,0,0,.13.5.41.41,0,0,0,.36.19.46.46,0,0,0,.42-.25v-.93A.44.44,0,0,0,124,40a.42.42,0,0,0-.36.18A1,1,0,0,0,123.51,40.68Z"/><path class="cls-5" d="M126.39,40.56a3,3,0,0,1,.12-.86,2.21,2.21,0,0,1,.36-.72,1.28,1.28,0,0,1,.49-.45l.1.27a1.42,1.42,0,0,0-.45.64,2.94,2.94,0,0,0-.19,1v.17a3.14,3.14,0,0,0,.17,1.06,1.52,1.52,0,0,0,.47.7l-.1.27a1.46,1.46,0,0,1-.49-.45,2.37,2.37,0,0,1-.36-.73A3.07,3.07,0,0,1,126.39,40.56Z"/><path class="cls-5" d="M129,38.87h.49v2a.86.86,0,0,1-.26.65.93.93,0,0,1-.67.24,1,1,0,0,1-.69-.22.82.82,0,0,1-.24-.63h.49a.44.44,0,0,0,.12.34.41.41,0,0,0,.32.12.44.44,0,0,0,.32-.13.53.53,0,0,0,.12-.37Z"/><path class="cls-5" d="M132.1,39.27h-.89v2.44h-.49V39.27h-.88v-.4h2.26Z"/><path class="cls-5" d="M133.83,41.05h-1.1l-.23.66H132l1.08-2.84h.44l1.08,2.84h-.52Zm-1-.4h.82l-.41-1.18Z"/><path class="cls-5" d="M137,41.34a1,1,0,0,1-.43.31,1.72,1.72,0,0,1-.62.1,1.18,1.18,0,0,1-.63-.16,1.06,1.06,0,0,1-.43-.46,1.61,1.61,0,0,1-.15-.71V40.2a1.49,1.49,0,0,1,.31-1,1.06,1.06,0,0,1,.86-.36,1.13,1.13,0,0,1,.75.24,1,1,0,0,1,.34.67h-.49a.54.54,0,0,0-.59-.51.59.59,0,0,0-.51.24,1.3,1.3,0,0,0-.18.7v.22a1.15,1.15,0,0,0,.2.71.65.65,0,0,0,.54.26.74.74,0,0,0,.54-.17v-.56H136v-.38H137Z"/><path class="cls-5" d="M138.45,40.59a2.82,2.82,0,0,1-.12.83,2.42,2.42,0,0,1-.36.74,1.44,1.44,0,0,1-.51.46l-.09-.27a1.42,1.42,0,0,0,.46-.69A2.91,2.91,0,0,0,138,40.6v-.05a3.12,3.12,0,0,0-.15-1,1.74,1.74,0,0,0-.43-.71l-.06-.06.09-.26A1.37,1.37,0,0,1,138,39a2.51,2.51,0,0,1,.36.69,2.91,2.91,0,0,1,.14.79Z"/><rect class="cls-1" x="106.18" y="50.46" width="40.68" height="13.93"/><path class="cls-5" d="M114.51,54h-.89v2.45h-.49V54h-.88v-.4h2.26Z"/><path class="cls-5" d="M114.83,53.77a.29.29,0,0,1,.07-.19.32.32,0,0,1,.4,0,.25.25,0,0,1,.07.19.24.24,0,0,1-.07.18.32.32,0,0,1-.4,0A.29.29,0,0,1,114.83,53.77Zm.51,2.66h-.48V54.31h.48Z"/><path class="cls-5" d="M115.77,55.36a1.28,1.28,0,0,1,.23-.79.74.74,0,0,1,.62-.29.66.66,0,0,1,.56.25l0-.22h.42v2a.86.86,0,0,1-.25.66,1,1,0,0,1-.7.24,1.06,1.06,0,0,1-.46-.1.72.72,0,0,1-.33-.25l.22-.29a.67.67,0,0,0,.54.26.53.53,0,0,0,.37-.12.51.51,0,0,0,.14-.38v-.14a.76.76,0,0,1-1.15-.07A1.24,1.24,0,0,1,115.77,55.36Zm.47,0a.9.9,0,0,0,.13.5.43.43,0,0,0,.36.18.46.46,0,0,0,.43-.25V54.9a.45.45,0,0,0-.42-.24.44.44,0,0,0-.37.19A1,1,0,0,0,116.24,55.4Z"/><path class="cls-5" d="M118.59,54.54a.76.76,0,0,1,.59-.26c.45,0,.68.25.68.77v1.38h-.47V55.06a.35.35,0,0,0-.38-.4.45.45,0,0,0-.42.26v1.51h-.48v-3h.48Z"/><path class="cls-5" d="M120.94,53.8v.51h.37v.36h-.37v1.18a.25.25,0,0,0,0,.17.23.23,0,0,0,.18,0,.47.47,0,0,0,.16,0v.37a1.18,1.18,0,0,1-.31,0c-.37,0-.55-.2-.55-.61V54.67h-.35v-.36h.35V53.8Z"/><path class="cls-5" d="M122.18,56.43h-.48v-3h.48Z"/><path class="cls-5" d="M123.43,55.75l.43-1.44h.51l-.84,2.44a.69.69,0,0,1-.66.53l-.23,0v-.37h.09a.49.49,0,0,0,.27-.06.53.53,0,0,0,.15-.22l.07-.18-.75-2.11H123Z"/><path class="cls-5" d="M127.85,55.5a1,1,0,0,1-.33.71,1.26,1.26,0,0,1-1.38.1,1.06,1.06,0,0,1-.4-.46,1.84,1.84,0,0,1-.15-.69v-.27a1.61,1.61,0,0,1,.15-.71,1.09,1.09,0,0,1,.4-.47,1.18,1.18,0,0,1,.62-.17,1.11,1.11,0,0,1,.76.26,1.06,1.06,0,0,1,.33.72h-.49a.67.67,0,0,0-.18-.44.57.57,0,0,0-.42-.14.56.56,0,0,0-.49.24,1.13,1.13,0,0,0-.18.69v.25a1.27,1.27,0,0,0,.16.71.55.55,0,0,0,.49.24.6.6,0,0,0,.43-.13.69.69,0,0,0,.19-.44Z"/><path class="cls-5" d="M128.16,55.35a1.28,1.28,0,0,1,.12-.56.92.92,0,0,1,.35-.38,1,1,0,0,1,.51-.13.92.92,0,0,1,.69.27,1.05,1.05,0,0,1,.29.73v.11A1.25,1.25,0,0,1,130,56a.84.84,0,0,1-.34.38,1,1,0,0,1-.52.14.9.9,0,0,1-.71-.3,1.13,1.13,0,0,1-.27-.79Zm.47,0a.84.84,0,0,0,.14.51.42.42,0,0,0,.37.19.44.44,0,0,0,.38-.19.93.93,0,0,0,.13-.55.81.81,0,0,0-.14-.51.47.47,0,0,0-.74,0A.93.93,0,0,0,128.63,55.39Z"/><path class="cls-5" d="M131.81,56.22a.76.76,0,0,1-.6.25.67.67,0,0,1-.52-.2.87.87,0,0,1-.18-.59V54.31H131v1.37c0,.27.11.4.33.4a.47.47,0,0,0,.47-.25V54.31h.47v2.12h-.44Z"/><path class="cls-5" d="M134.6,55.39a1.34,1.34,0,0,1-.22.79.73.73,0,0,1-.6.29.74.74,0,0,1-.56-.23v1h-.47V54.31h.43l0,.22a.7.7,0,0,1,.57-.25.73.73,0,0,1,.61.28,1.29,1.29,0,0,1,.22.8Zm-.47,0a.9.9,0,0,0-.13-.5.41.41,0,0,0-.36-.19.45.45,0,0,0-.42.24v.94a.44.44,0,0,0,.42.25.43.43,0,0,0,.36-.18A1.05,1.05,0,0,0,134.13,55.35Z"/><path class="cls-5" d="M135.51,56.43H135v-3h.48Z"/><path class="cls-5" d="M137,56.47a1,1,0,0,1-.73-.29,1,1,0,0,1-.28-.75v-.06a1.32,1.32,0,0,1,.12-.57,1,1,0,0,1,.35-.39.9.9,0,0,1,.49-.13.82.82,0,0,1,.66.27,1.14,1.14,0,0,1,.24.78v.19h-1.38a.64.64,0,0,0,.17.42.54.54,0,0,0,.39.15.64.64,0,0,0,.53-.27l.26.25a.87.87,0,0,1-.34.29A1.06,1.06,0,0,1,137,56.47Zm0-1.81a.39.39,0,0,0-.32.13.69.69,0,0,0-.15.38h.9v0a.54.54,0,0,0-.13-.36A.38.38,0,0,0,136.9,54.66Z"/><path class="cls-5" d="M138.08,55.36a1.22,1.22,0,0,1,.23-.79.73.73,0,0,1,.6-.29.68.68,0,0,1,.55.23V53.43h.47v3h-.43l0-.22a.7.7,0,0,1-.57.26.71.71,0,0,1-.6-.3A1.32,1.32,0,0,1,138.08,55.36Zm.47,0a.82.82,0,0,0,.13.5.4.4,0,0,0,.35.18.46.46,0,0,0,.43-.26v-.9a.45.45,0,0,0-.43-.26.41.41,0,0,0-.35.19A.91.91,0,0,0,138.55,55.4Z"/><path class="cls-5" d="M114.2,60.83h1.29v.4h-1.78V58.38h.49Z"/><path class="cls-5" d="M115.73,60.15a1.32,1.32,0,0,1,.13-.56.9.9,0,0,1,.34-.38,1,1,0,0,1,.52-.13.93.93,0,0,1,.69.27,1.12,1.12,0,0,1,.29.73v.11a1.25,1.25,0,0,1-.12.56.9.9,0,0,1-.34.38,1,1,0,0,1-.52.14A.92.92,0,0,1,116,61a1.13,1.13,0,0,1-.27-.79Zm.48,0a.84.84,0,0,0,.13.51.44.44,0,0,0,.38.19.42.42,0,0,0,.37-.19.93.93,0,0,0,.14-.55.88.88,0,0,0-.14-.51.45.45,0,0,0-.37-.18.43.43,0,0,0-.37.18A.86.86,0,0,0,116.21,60.19Z"/><path class="cls-5" d="M119,60.89a.44.44,0,0,0,.29-.1.38.38,0,0,0,.13-.26h.45a.75.75,0,0,1-.13.37.82.82,0,0,1-.31.27,1,1,0,0,1-.43.1.9.9,0,0,1-.7-.29,1.16,1.16,0,0,1-.26-.79v0a1.12,1.12,0,0,1,.26-.77.87.87,0,0,1,.7-.29.91.91,0,0,1,.62.21.8.8,0,0,1,.25.58h-.45a.46.46,0,0,0-.13-.3.4.4,0,0,0-.29-.11.42.42,0,0,0-.36.16.87.87,0,0,0-.12.51v.08a.87.87,0,0,0,.12.51A.42.42,0,0,0,119,60.89Z"/><path class="cls-5" d="M121.46,61.23a1,1,0,0,1-.06-.2.72.72,0,0,1-.55.24.73.73,0,0,1-.52-.18.64.64,0,0,1,0-1,1.21,1.21,0,0,1,.72-.18h.29V59.8a.36.36,0,0,0-.09-.26.37.37,0,0,0-.28-.1.4.4,0,0,0-.27.08.23.23,0,0,0-.1.2h-.48a.51.51,0,0,1,.12-.32.76.76,0,0,1,.31-.24,1,1,0,0,1,.44-.08.89.89,0,0,1,.59.18.66.66,0,0,1,.23.53v1a1.19,1.19,0,0,0,.08.46v0Zm-.52-.34a.59.59,0,0,0,.26-.07.58.58,0,0,0,.19-.19v-.39h-.26a.74.74,0,0,0-.4.09.32.32,0,0,0-.13.26.26.26,0,0,0,.09.21A.33.33,0,0,0,120.94,60.89Z"/><path class="cls-5" d="M122.86,61.23h-.47v-3h.47Z"/><path class="cls-5" d="M125.06,58.38l.82,2.18.82-2.18h.64v2.85h-.49v-.94L126.9,59l-.84,2.19h-.36L124.87,59l0,1.25v.94h-.49V58.38Z"/><path class="cls-5" d="M128.81,61.27a1,1,0,0,1-.73-.29,1,1,0,0,1-.28-.75v-.06a1.32,1.32,0,0,1,.12-.57,1,1,0,0,1,.34-.39.92.92,0,0,1,.49-.13.85.85,0,0,1,.67.27,1.16,1.16,0,0,1,.24.78v.19h-1.38a.64.64,0,0,0,.17.42.53.53,0,0,0,.39.15.65.65,0,0,0,.53-.27l.25.25a.8.8,0,0,1-.34.29A1,1,0,0,1,128.81,61.27Zm-.06-1.81a.39.39,0,0,0-.31.13.7.7,0,0,0-.16.38h.91v0a.59.59,0,0,0-.13-.36A.4.4,0,0,0,128.75,59.46Z"/><path class="cls-5" d="M130.47,59.12v.22a.75.75,0,0,1,.61-.26.57.57,0,0,1,.58.32.75.75,0,0,1,.65-.32.65.65,0,0,1,.52.19.86.86,0,0,1,.18.57v1.39h-.48V59.85a.46.46,0,0,0-.08-.29.41.41,0,0,0-.3-.1.39.39,0,0,0-.26.09.43.43,0,0,0-.14.23v1.45h-.48V59.84a.34.34,0,0,0-.38-.38.41.41,0,0,0-.4.24v1.53H130V59.12Z"/><path class="cls-5" d="M133.42,60.15a1.31,1.31,0,0,1,.12-.56,1,1,0,0,1,.34-.38,1,1,0,0,1,.52-.13.93.93,0,0,1,.69.27,1.12,1.12,0,0,1,.29.73v.11a1.25,1.25,0,0,1-.12.56.84.84,0,0,1-.34.38,1,1,0,0,1-.52.14.92.92,0,0,1-.72-.3,1.17,1.17,0,0,1-.26-.79Zm.47,0a.84.84,0,0,0,.14.51.46.46,0,0,0,.74,0,.93.93,0,0,0,.14-.55.88.88,0,0,0-.14-.51.45.45,0,0,0-.37-.18.43.43,0,0,0-.37.18A.93.93,0,0,0,133.89,60.19Z"/><path class="cls-5" d="M136.89,59.55l-.19,0a.44.44,0,0,0-.44.25v1.45h-.48V59.12h.45l0,.23a.53.53,0,0,1,.47-.27.42.42,0,0,1,.17,0Z"/><path class="cls-5" d="M138,60.55l.43-1.43h.51l-.84,2.43a.69.69,0,0,1-.66.53l-.23,0v-.37h.09a.49.49,0,0,0,.27-.06.53.53,0,0,0,.15-.22l.07-.18-.75-2.1h.52Z"/><path class="cls-5" d="M35.48,118V115.2h.84a1.33,1.33,0,0,1,.67.16,1.1,1.1,0,0,1,.45.48,1.49,1.49,0,0,1,.16.71v.14a1.46,1.46,0,0,1-.16.71,1,1,0,0,1-.46.47,1.34,1.34,0,0,1-.68.17Zm.5-2.45v2h.32a.75.75,0,0,0,.6-.24,1.08,1.08,0,0,0,.21-.7v-.16a1.1,1.1,0,0,0-.2-.7.74.74,0,0,0-.59-.25Z"/><path class="cls-5" d="M38.1,118V115.2h.84a1.29,1.29,0,0,1,.66.16,1.18,1.18,0,0,1,.46.48,1.61,1.61,0,0,1,.16.71v.14a1.58,1.58,0,0,1-.16.71,1.1,1.1,0,0,1-.46.47,1.41,1.41,0,0,1-.69.17Zm.49-2.45v2h.32a.75.75,0,0,0,.6-.24,1,1,0,0,0,.21-.7v-.16a1.1,1.1,0,0,0-.2-.7.72.72,0,0,0-.58-.25Z"/><path class="cls-5" d="M41.75,117H41.2V118h-.49V115.2h1a1.15,1.15,0,0,1,.76.22.88.88,0,0,1,.13,1.11.88.88,0,0,1-.38.3l.63,1.18v0h-.53Zm-.55-.4h.51a.57.57,0,0,0,.39-.13.41.41,0,0,0,.14-.34.47.47,0,0,0-.13-.36.58.58,0,0,0-.39-.13H41.2Z"/><path class="cls-5" d="M46.37,117.11a1,1,0,0,1-.33.71,1.26,1.26,0,0,1-1.38.1,1.06,1.06,0,0,1-.4-.46,1.67,1.67,0,0,1-.15-.69v-.27a1.8,1.8,0,0,1,.14-.71,1.07,1.07,0,0,1,1-.63,1.11,1.11,0,0,1,.76.25,1.06,1.06,0,0,1,.33.72h-.49a.67.67,0,0,0-.18-.44.59.59,0,0,0-.42-.14.58.58,0,0,0-.5.24,1.21,1.21,0,0,0-.17.69v.25a1.27,1.27,0,0,0,.16.71.55.55,0,0,0,.49.24.6.6,0,0,0,.43-.13.69.69,0,0,0,.19-.44Z"/><path class="cls-5" d="M46.68,117a1.31,1.31,0,0,1,.12-.56.92.92,0,0,1,.35-.38,1,1,0,0,1,.51-.13.93.93,0,0,1,.69.27,1.07,1.07,0,0,1,.29.73V117a1.25,1.25,0,0,1-.12.56.84.84,0,0,1-.34.38,1,1,0,0,1-.52.14.9.9,0,0,1-.71-.3,1.13,1.13,0,0,1-.27-.79Zm.47,0a.84.84,0,0,0,.14.51.42.42,0,0,0,.37.19.44.44,0,0,0,.38-.19.93.93,0,0,0,.13-.55.82.82,0,0,0-.14-.5.42.42,0,0,0-.37-.19.43.43,0,0,0-.37.18A1,1,0,0,0,47.15,117Z"/><path class="cls-5" d="M49.48,115.93l0,.24a.74.74,0,0,1,.61-.28c.44,0,.67.25.68.75V118h-.48v-1.37a.45.45,0,0,0-.09-.3.36.36,0,0,0-.28-.09.46.46,0,0,0-.43.26V118H49v-2.11Z"/><path class="cls-5" d="M51.86,115.41v.52h.38v.35h-.38v1.18a.25.25,0,0,0,0,.17.21.21,0,0,0,.17.06l.17,0V118a1.18,1.18,0,0,1-.31,0c-.37,0-.55-.2-.55-.61v-1.19H51v-.35h.35v-.52Z"/><path class="cls-5" d="M53.71,116.36l-.2,0a.46.46,0,0,0-.44.25V118H52.6v-2.11h.45v.23a.55.55,0,0,1,.48-.27l.17,0Z"/><path class="cls-5" d="M53.85,117a1.31,1.31,0,0,1,.12-.56,1,1,0,0,1,.34-.38,1,1,0,0,1,.52-.13.93.93,0,0,1,.69.27,1.07,1.07,0,0,1,.29.73V117a1.25,1.25,0,0,1-.12.56.84.84,0,0,1-.34.38,1,1,0,0,1-.52.14.92.92,0,0,1-.72-.3,1.17,1.17,0,0,1-.26-.79Zm.47,0a.84.84,0,0,0,.14.51.42.42,0,0,0,.37.19.41.41,0,0,0,.37-.19.93.93,0,0,0,.14-.55.82.82,0,0,0-.14-.5.46.46,0,0,0-.74,0A1,1,0,0,0,54.32,117Z"/><path class="cls-5" d="M56.72,118h-.48v-3h.48Z"/><path class="cls-5" d="M57.74,118h-.48v-3h.48Z"/><path class="cls-5" d="M59.19,118.08a1,1,0,0,1-.74-.29,1.05,1.05,0,0,1-.28-.75V117a1.33,1.33,0,0,1,.13-.57.9.9,0,0,1,.34-.38,1,1,0,0,1,1.16.13,1.17,1.17,0,0,1,.23.78v.19H58.65a.68.68,0,0,0,.18.42.52.52,0,0,0,.38.15.64.64,0,0,0,.53-.26l.26.24a.8.8,0,0,1-.34.29A1,1,0,0,1,59.19,118.08Zm-.06-1.81a.41.41,0,0,0-.32.13.73.73,0,0,0-.15.39h.9v0a.59.59,0,0,0-.12-.36A.41.41,0,0,0,59.13,116.27Z"/><path class="cls-5" d="M61.51,116.36l-.2,0a.43.43,0,0,0-.43.25V118H60.4v-2.11h.45l0,.23a.53.53,0,0,1,.47-.27l.17,0Z"/><path class="cls-5" d="M178.24,36a.36.36,0,0,0-.14-.29,1.43,1.43,0,0,0-.47-.2,2.68,2.68,0,0,1-.55-.23.74.74,0,0,1-.39-.64.72.72,0,0,1,.28-.57,1.13,1.13,0,0,1,.73-.22,1.25,1.25,0,0,1,.53.11.87.87,0,0,1,.37.31.9.9,0,0,1,.13.45h-.49a.45.45,0,0,0-.14-.35.69.69,0,0,0-.78,0,.34.34,0,0,0-.13.29.33.33,0,0,0,.14.26,1.6,1.6,0,0,0,.48.2,2,2,0,0,1,.53.23.91.91,0,0,1,.3.28.8.8,0,0,1,.09.39.68.68,0,0,1-.27.56,1.18,1.18,0,0,1-.74.21,1.48,1.48,0,0,1-.57-.11.92.92,0,0,1-.4-.32.75.75,0,0,1-.14-.47h.49a.45.45,0,0,0,.16.38.7.7,0,0,0,.46.13.63.63,0,0,0,.39-.1A.36.36,0,0,0,178.24,36Z"/><path class="cls-5" d="M179.66,35.7v1h-.5V33.91h1.09a1.09,1.09,0,0,1,.76.25.91.91,0,0,1,0,1.31,1.15,1.15,0,0,1-.76.23Zm0-.4h.59a.58.58,0,0,0,.4-.12.45.45,0,0,0,.14-.36.46.46,0,0,0-.14-.37.52.52,0,0,0-.38-.14h-.61Z"/><path class="cls-5" d="M182.24,36.75h-.49V33.91h.49Z"/><path class="cls-5" d="M186,35.83a1,1,0,0,1-.34.71,1.16,1.16,0,0,1-.78.25,1.08,1.08,0,0,1-.6-.16,1.13,1.13,0,0,1-.4-.46,1.6,1.6,0,0,1-.14-.69v-.26a1.58,1.58,0,0,1,.14-.71,1,1,0,0,1,.41-.47,1.07,1.07,0,0,1,1.71.81h-.5a.69.69,0,0,0-.18-.45.57.57,0,0,0-.42-.13.58.58,0,0,0-.49.23,1.22,1.22,0,0,0-.18.7v.25a1.25,1.25,0,0,0,.17.7.55.55,0,0,0,.48.24.64.64,0,0,0,.44-.13.62.62,0,0,0,.18-.43Z"/><path class="cls-5" d="M186.32,35.68a1.13,1.13,0,0,1,.13-.56.87.87,0,0,1,.34-.39,1.07,1.07,0,0,1,.51-.13.91.91,0,0,1,.7.28,1.13,1.13,0,0,1,.29.73v.11a1.28,1.28,0,0,1-.12.56.92.92,0,0,1-.35.38,1,1,0,0,1-.51.13.92.92,0,0,1-.72-.3,1.11,1.11,0,0,1-.27-.79Zm.48,0a.84.84,0,0,0,.13.51.45.45,0,0,0,.38.18.43.43,0,0,0,.37-.18,1,1,0,0,0,.13-.55.84.84,0,0,0-.13-.51.44.44,0,0,0-.38-.19.44.44,0,0,0-.37.19A.91.91,0,0,0,186.8,35.72Z"/><path class="cls-5" d="M189.13,34.64v.24a.79.79,0,0,1,.62-.28c.44,0,.66.25.67.76v1.39H190V35.38a.4.4,0,0,0-.09-.29.35.35,0,0,0-.29-.1.45.45,0,0,0-.42.26v1.5h-.48V34.64Z"/><path class="cls-5" d="M191.51,34.13v.51h.37V35h-.37v1.18a.24.24,0,0,0,.05.18.23.23,0,0,0,.17,0l.16,0v.37a1.1,1.1,0,0,1-.31,0c-.36,0-.55-.2-.55-.6V35h-.34v-.35H191v-.51Z"/><path class="cls-5" d="M193.35,35.07h-.19a.42.42,0,0,0-.44.25v1.44h-.48V34.64h.46v.24a.52.52,0,0,1,.47-.28.4.4,0,0,1,.17,0Z"/><path class="cls-5" d="M193.49,35.68a1.25,1.25,0,0,1,.12-.56,1,1,0,0,1,.35-.39,1.07,1.07,0,0,1,.51-.13.91.91,0,0,1,.7.28,1.07,1.07,0,0,1,.28.73v.11a1.28,1.28,0,0,1-.12.56.92.92,0,0,1-.35.38,1,1,0,0,1-.52.13.91.91,0,0,1-.71-.3,1.11,1.11,0,0,1-.27-.79Zm.48,0a.84.84,0,0,0,.13.51.43.43,0,0,0,.37.18.45.45,0,0,0,.38-.18,1,1,0,0,0,.13-.55.77.77,0,0,0-.14-.51.42.42,0,0,0-.37-.19.43.43,0,0,0-.37.19A.91.91,0,0,0,194,35.72Z"/><path class="cls-5" d="M196.36,36.75h-.47v-3h.47Z"/><path class="cls-5" d="M197.38,36.75h-.47v-3h.47Z"/><path class="cls-5" d="M198.83,36.79a1,1,0,0,1-.73-.28,1,1,0,0,1-.28-.76v-.06a1.25,1.25,0,0,1,.12-.56.93.93,0,0,1,.34-.39.94.94,0,0,1,.5-.14.8.8,0,0,1,.66.28,1.14,1.14,0,0,1,.24.78v.19H198.3a.62.62,0,0,0,.17.41.53.53,0,0,0,.39.15.63.63,0,0,0,.53-.26l.25.24a.8.8,0,0,1-.33.3A1.06,1.06,0,0,1,198.83,36.79ZM198.77,35a.4.4,0,0,0-.31.14.78.78,0,0,0-.16.38h.91v0a.58.58,0,0,0-.13-.36A.39.39,0,0,0,198.77,35Z"/><path class="cls-5" d="M201.15,35.07H201a.43.43,0,0,0-.44.25v1.44h-.47V34.64h.45v.24a.53.53,0,0,1,.48-.28.38.38,0,0,1,.16,0Z"/><path class="cls-5" d="M177.31,56.72h-.49V53.87h.49Z"/><path class="cls-5" d="M179.76,56.72h-1.91v-.33l.94-1a2.42,2.42,0,0,0,.3-.38.75.75,0,0,0,.08-.31.49.49,0,0,0-.11-.33.42.42,0,0,0-.31-.13.46.46,0,0,0-.36.15.56.56,0,0,0-.12.38h-.48a.94.94,0,0,1,.12-.47.81.81,0,0,1,.34-.32,1,1,0,0,1,.5-.12,1,1,0,0,1,.66.21.73.73,0,0,1,.24.58.94.94,0,0,1-.12.44,2.1,2.1,0,0,1-.4.53l-.69.75h1.32Z"/><path class="cls-5" d="M182.37,55.79a1.07,1.07,0,0,1-.34.71,1.17,1.17,0,0,1-.78.26,1.08,1.08,0,0,1-.6-.17,1.1,1.1,0,0,1-.4-.45,1.67,1.67,0,0,1-.14-.69v-.27a1.61,1.61,0,0,1,.14-.71,1,1,0,0,1,.41-.47,1.14,1.14,0,0,1,.61-.17,1.09,1.09,0,0,1,.76.26,1.11,1.11,0,0,1,.34.72h-.5a.67.67,0,0,0-.18-.44.57.57,0,0,0-.42-.14.56.56,0,0,0-.49.24,1.11,1.11,0,0,0-.18.69v.25a1.28,1.28,0,0,0,.17.71.55.55,0,0,0,.48.24.7.7,0,0,0,.44-.13.67.67,0,0,0,.18-.44Z"/><path class="cls-5" d="M186,55.79a1.06,1.06,0,0,1-.33.71,1.17,1.17,0,0,1-.78.26,1.08,1.08,0,0,1-.6-.17,1,1,0,0,1-.4-.45,1.84,1.84,0,0,1-.15-.69v-.27a1.61,1.61,0,0,1,.15-.71,1.09,1.09,0,0,1,.4-.47,1.18,1.18,0,0,1,.62-.17,1.09,1.09,0,0,1,.76.26,1.06,1.06,0,0,1,.33.72h-.49a.67.67,0,0,0-.18-.44.57.57,0,0,0-.42-.14.56.56,0,0,0-.49.24,1.11,1.11,0,0,0-.18.69v.25a1.29,1.29,0,0,0,.16.71.56.56,0,0,0,.49.24.7.7,0,0,0,.44-.13.72.72,0,0,0,.18-.44Z"/><path class="cls-5" d="M186.28,55.64a1.28,1.28,0,0,1,.12-.56.92.92,0,0,1,.35-.38,1,1,0,0,1,.51-.14.91.91,0,0,1,.69.28,1.05,1.05,0,0,1,.29.73v.11a1.25,1.25,0,0,1-.12.56.9.9,0,0,1-.34.38,1,1,0,0,1-.52.14.91.91,0,0,1-.71-.3,1.14,1.14,0,0,1-.27-.8Zm.47,0a.84.84,0,0,0,.14.51.42.42,0,0,0,.37.19.46.46,0,0,0,.38-.19,1,1,0,0,0,.13-.55.81.81,0,0,0-.14-.51.43.43,0,0,0-.37-.18.45.45,0,0,0-.37.18A.93.93,0,0,0,186.75,55.68Z"/><path class="cls-5" d="M189.09,54.6v.25a.77.77,0,0,1,.62-.29c.44,0,.66.26.67.76v1.4h-.48V55.35a.47.47,0,0,0-.08-.3.4.4,0,0,0-.29-.1.47.47,0,0,0-.43.26v1.51h-.47V54.6Z"/><path class="cls-5" d="M191.47,54.09v.51h.37V55h-.37v1.17a.28.28,0,0,0,0,.18.22.22,0,0,0,.17,0,.5.5,0,0,0,.17,0v.37a1.18,1.18,0,0,1-.31,0c-.37,0-.55-.21-.55-.61V55h-.35V54.6H191v-.51Z"/><path class="cls-5" d="M193.31,55l-.2,0a.46.46,0,0,0-.44.25v1.45h-.47V54.6h.45v.24a.56.56,0,0,1,.48-.28.43.43,0,0,1,.17,0Z"/><path class="cls-5" d="M193.45,55.64a1.28,1.28,0,0,1,.12-.56.92.92,0,0,1,.35-.38,1,1,0,0,1,1.2.14,1.05,1.05,0,0,1,.29.73v.11a1.25,1.25,0,0,1-.12.56.9.9,0,0,1-.34.38,1,1,0,0,1-.52.14.9.9,0,0,1-.71-.3,1.14,1.14,0,0,1-.27-.8Zm.47,0a.84.84,0,0,0,.14.51.42.42,0,0,0,.37.19.46.46,0,0,0,.38-.19,1,1,0,0,0,.13-.55.88.88,0,0,0-.14-.51.47.47,0,0,0-.74,0A.93.93,0,0,0,193.92,55.68Z"/><path class="cls-5" d="M196.32,56.72h-.48v-3h.48Z"/><path class="cls-5" d="M197.34,56.72h-.47v-3h.47Z"/><path class="cls-5" d="M198.79,56.76a1,1,0,0,1-.73-.29,1,1,0,0,1-.28-.76v-.05a1.32,1.32,0,0,1,.12-.57.9.9,0,0,1,.83-.53.85.85,0,0,1,.67.28,1.14,1.14,0,0,1,.23.78v.19h-1.38a.65.65,0,0,0,.18.41.49.49,0,0,0,.38.16.65.65,0,0,0,.54-.27l.25.25a.88.88,0,0,1-.34.29A1,1,0,0,1,198.79,56.76ZM198.73,55a.39.39,0,0,0-.31.13.7.7,0,0,0-.16.38h.91v0a.59.59,0,0,0-.13-.36A.4.4,0,0,0,198.73,55Z"/><path class="cls-5" d="M201.11,55l-.19,0a.44.44,0,0,0-.44.25v1.45H200V54.6h.46v.24a.53.53,0,0,1,.47-.28.4.4,0,0,1,.17,0Z"/><path class="cls-5" d="M186.24,73.11V75a.92.92,0,0,1-.29.72,1.1,1.1,0,0,1-.78.27,1.12,1.12,0,0,1-.77-.26,1,1,0,0,1-.29-.73v-1.9h.49V75a.58.58,0,0,0,.15.43.55.55,0,0,0,.42.15q.57,0,.57-.6V73.11Z"/><path class="cls-5" d="M188.31,75.29h-1.1L187,76h-.51l1.07-2.85H188L189.06,76h-.51Zm-1-.39h.82l-.41-1.18Z"/><path class="cls-5" d="M190.43,74.86h-.55V76h-.5V73.11h1a1.19,1.19,0,0,1,.76.22.78.78,0,0,1,.27.64.83.83,0,0,1-.14.48.88.88,0,0,1-.38.3l.64,1.18v0H191Zm-.55-.4h.5a.62.62,0,0,0,.4-.12.47.47,0,0,0,.14-.35.48.48,0,0,0-.13-.35.57.57,0,0,0-.39-.13h-.52Z"/><path class="cls-5" d="M193.84,73.51H193V76h-.49V73.51h-.88v-.4h2.26Z"/><path class="cls-5" d="M173.3,96.06h-.5V93.21h.5Z"/><path class="cls-5" d="M174.3,93.94v.25a.76.76,0,0,1,.62-.28c.44,0,.66.25.67.75v1.4h-.48V94.69a.49.49,0,0,0-.08-.3.4.4,0,0,0-.29-.1.47.47,0,0,0-.43.26v1.51h-.47V93.94Z"/><path class="cls-5" d="M176.68,93.43v.51h.37v.36h-.37v1.18a.25.25,0,0,0,0,.17.22.22,0,0,0,.17,0,.47.47,0,0,0,.17,0v.37a1.18,1.18,0,0,1-.31,0c-.37,0-.55-.2-.55-.61V94.3h-.35v-.36h.35v-.51Z"/><path class="cls-5" d="M178.34,96.1a1,1,0,0,1-.73-.29,1,1,0,0,1-.28-.75V95a1.32,1.32,0,0,1,.12-.57,1,1,0,0,1,.35-.39.9.9,0,0,1,.49-.13.81.81,0,0,1,.66.27,1.14,1.14,0,0,1,.24.78v.19h-1.38a.64.64,0,0,0,.17.42.56.56,0,0,0,.39.15.64.64,0,0,0,.53-.27l.26.25a.87.87,0,0,1-.34.29A1.06,1.06,0,0,1,178.34,96.1Zm-.05-1.81a.41.41,0,0,0-.32.13.69.69,0,0,0-.15.38h.9v0a.54.54,0,0,0-.13-.36A.38.38,0,0,0,178.29,94.29Z"/><path class="cls-5" d="M180.66,94.38l-.19,0a.45.45,0,0,0-.44.25v1.45h-.47V93.94H180v.24a.55.55,0,0,1,.48-.27l.17,0Z"/><path class="cls-5" d="M182.07,94.38l-.19,0a.44.44,0,0,0-.44.25v1.45H181V93.94h.46v.24a.53.53,0,0,1,.47-.27l.17,0Z"/><path class="cls-5" d="M183.65,95.85a.75.75,0,0,1-.59.25.66.66,0,0,1-.52-.2.87.87,0,0,1-.18-.59V93.94h.47v1.37c0,.27.12.4.34.4a.45.45,0,0,0,.46-.25V93.94h.48v2.12h-.45Z"/><path class="cls-5" d="M186.44,95a1.23,1.23,0,0,1-.22.78.76.76,0,0,1-1.15.07v1h-.48V93.94H185l0,.22a.78.78,0,0,1,1.17,0,1.29,1.29,0,0,1,.22.8ZM186,95a.82.82,0,0,0-.13-.5.41.41,0,0,0-.36-.19.42.42,0,0,0-.41.24v.94a.42.42,0,0,0,.42.25.4.4,0,0,0,.35-.18A1,1,0,0,0,186,95Z"/><path class="cls-5" d="M187.44,93.43v.51h.37v.36h-.37v1.18a.25.25,0,0,0,.05.17s.09,0,.17,0a.44.44,0,0,0,.16,0v.37a1.12,1.12,0,0,1-.31,0c-.36,0-.54-.2-.54-.61V94.3h-.35v-.36H187v-.51Z"/><path class="cls-5" d="M191.39,95.13a1,1,0,0,1-.34.71,1.13,1.13,0,0,1-.78.26,1.22,1.22,0,0,1-.6-.16,1.13,1.13,0,0,1-.4-.46,1.67,1.67,0,0,1-.14-.69v-.27a1.61,1.61,0,0,1,.14-.71,1.11,1.11,0,0,1,.41-.47,1.15,1.15,0,0,1,.62-.17,1.09,1.09,0,0,1,.75.26,1.07,1.07,0,0,1,.34.72h-.5a.72.72,0,0,0-.17-.44.61.61,0,0,0-.42-.14.58.58,0,0,0-.5.24,1.21,1.21,0,0,0-.18.69v.25a1.28,1.28,0,0,0,.17.71.55.55,0,0,0,.48.24.63.63,0,0,0,.44-.13.67.67,0,0,0,.18-.44Z"/><path class="cls-5" d="M191.69,95a1.16,1.16,0,0,1,.13-.56.9.9,0,0,1,.34-.38,1,1,0,0,1,.51-.13.94.94,0,0,1,.7.27,1.1,1.1,0,0,1,.29.73V95a1.25,1.25,0,0,1-.12.56.86.86,0,0,1-.35.38,1,1,0,0,1-.51.14.92.92,0,0,1-.72-.3,1.14,1.14,0,0,1-.27-.8Zm.48,0a.84.84,0,0,0,.13.51.44.44,0,0,0,.38.19.42.42,0,0,0,.37-.19.93.93,0,0,0,.14-.55.88.88,0,0,0-.14-.51.45.45,0,0,0-.38-.18.46.46,0,0,0-.37.18A.93.93,0,0,0,192.17,95Z"/><path class="cls-5" d="M194.5,93.94v.25a.77.77,0,0,1,.62-.28c.44,0,.66.25.67.75v1.4h-.47V94.69a.43.43,0,0,0-.09-.3.38.38,0,0,0-.28-.1.45.45,0,0,0-.43.26v1.51h-.48V93.94Z"/><path class="cls-5" d="M196.88,93.43v.51h.37v.36h-.37v1.18a.25.25,0,0,0,.05.17s.09,0,.17,0a.44.44,0,0,0,.16,0v.37a1.12,1.12,0,0,1-.31,0c-.36,0-.55-.2-.55-.61V94.3h-.34v-.36h.34v-.51Z"/><path class="cls-5" d="M197.47,95a1.28,1.28,0,0,1,.12-.56.92.92,0,0,1,.35-.38.94.94,0,0,1,.51-.13.93.93,0,0,1,.69.27,1.05,1.05,0,0,1,.29.73V95a1.25,1.25,0,0,1-.12.56A.84.84,0,0,1,199,96a1,1,0,0,1-.52.14.9.9,0,0,1-.71-.3,1.14,1.14,0,0,1-.27-.8Zm.47,0a.84.84,0,0,0,.14.51.42.42,0,0,0,.37.19.44.44,0,0,0,.38-.19A.93.93,0,0,0,199,95a.88.88,0,0,0-.14-.51.47.47,0,0,0-.74,0A.93.93,0,0,0,197.94,95Z"/><path class="cls-5" d="M200.34,96.06h-.48v-3h.48Z"/><path class="cls-5" d="M201.36,96.06h-.48v-3h.48Z"/><path class="cls-5" d="M202.81,96.1a1,1,0,0,1-.73-.29,1,1,0,0,1-.28-.75V95a1.32,1.32,0,0,1,.12-.57,1,1,0,0,1,.34-.39.92.92,0,0,1,.49-.13.85.85,0,0,1,.67.27,1.14,1.14,0,0,1,.23.78v.19h-1.38a.71.71,0,0,0,.18.42.52.52,0,0,0,.38.15.65.65,0,0,0,.54-.27l.25.25a.8.8,0,0,1-.34.29A1,1,0,0,1,202.81,96.1Zm-.06-1.81a.41.41,0,0,0-.32.13.69.69,0,0,0-.15.38h.91v0a.59.59,0,0,0-.13-.36A.41.41,0,0,0,202.75,94.29Z"/><path class="cls-5" d="M205.13,94.38l-.19,0a.44.44,0,0,0-.44.25v1.45H204V93.94h.45l0,.24a.53.53,0,0,1,.47-.27l.17,0Z"/><path class="cls-5" d="M185.94,113.59h-.89V116h-.49v-2.45h-.88v-.39h2.26Z"/><path class="cls-5" d="M186.27,113.38a.21.21,0,0,1,.07-.18.24.24,0,0,1,.19-.08.25.25,0,0,1,.2.08.21.21,0,0,1,.07.18.24.24,0,0,1-.07.18.28.28,0,0,1-.2.07.27.27,0,0,1-.19-.07A.24.24,0,0,1,186.27,113.38Zm.5,2.66h-.47v-2.11h.47Z"/><path class="cls-5" d="M187.73,113.93l0,.22a.73.73,0,0,1,.61-.26.58.58,0,0,1,.58.32.73.73,0,0,1,.64-.32.64.64,0,0,1,.52.19.81.81,0,0,1,.18.57V116h-.48v-1.38a.32.32,0,0,0-.37-.38.4.4,0,0,0-.27.08.49.49,0,0,0-.14.23V116h-.47v-1.39a.34.34,0,0,0-.39-.37.4.4,0,0,0-.4.23V116h-.47v-2.11Z"/><path class="cls-5" d="M191.7,116.08a1,1,0,0,1-.73-.29,1,1,0,0,1-.28-.75V115a1.32,1.32,0,0,1,.12-.57.9.9,0,0,1,.34-.38,1,1,0,0,1,1.16.13,1.17,1.17,0,0,1,.24.78v.19h-1.39a.68.68,0,0,0,.18.42.52.52,0,0,0,.38.15.67.67,0,0,0,.54-.26l.25.24a.8.8,0,0,1-.34.29A1,1,0,0,1,191.7,116.08Zm-.06-1.81a.39.39,0,0,0-.31.13.73.73,0,0,0-.16.39h.91v0a.59.59,0,0,0-.13-.36A.4.4,0,0,0,191.64,114.27Z"/><path class="cls-5" d="M194,114.36l-.19,0a.44.44,0,0,0-.44.25V116h-.48v-2.11h.46v.23a.53.53,0,0,1,.47-.27l.17,0Z"/><polygon class="cls-5" points="81.68 40.72 83.43 38.71 85.98 38.71 84.24 40.72 81.68 40.72"/><polygon class="cls-5" points="83.83 38.22 85.58 36.22 88.13 36.22 86.39 38.22 83.83 38.22"/><polygon class="cls-5" points="84.81 40.72 86.56 38.71 89.12 38.71 87.38 40.72 84.81 40.72"/><polygon class="cls-5" points="87.01 38.22 88.75 36.22 91.31 36.22 89.57 38.22 87.01 38.22"/><path class="cls-5" d="M33.09,44.52c0-.21.06-7.49.06-7.49l-2.87,7.49h-.57L26.78,37s.1,7.34.1,7.49h-.82V35.71h1l3,7.47,2.86-7.47h1v8.81Z"/><path class="cls-5" d="M35.71,37.17V36h.72v1.13Zm0,7.35v-6h.72v6Z"/><path class="cls-5" d="M42.88,43.19a2.43,2.43,0,0,1-2.38,1.48c-1.69,0-2.74-1.25-2.74-3.08a2.86,2.86,0,0,1,2.86-3.17,2.22,2.22,0,0,1,2.26,1.5l-.69.16a1.66,1.66,0,0,0-1.61-1c-1.37,0-2,1.17-2,2.47s.6,2.47,2,2.47a1.71,1.71,0,0,0,1.61-1Z"/><path class="cls-5" d="M44.71,38.57v1a1.68,1.68,0,0,1,1.63-1,3.81,3.81,0,0,1,.52,0v.66a2.39,2.39,0,0,0-.48,0c-1.27,0-1.67.93-1.67,2.13v3.26H44v-6Z"/><path class="cls-5" d="M50,44.67c-1.53,0-2.67-1.14-2.67-3.06s1-3.19,2.72-3.19,2.66,1.58,2.68,3.09C52.74,43.73,51.31,44.67,50,44.67Zm0-5.63c-1.07,0-1.92.79-1.92,2.57S49.09,44,50,44,52,43.42,52,41.51,51,39,50.05,39Z"/><path class="cls-5" d="M58.1,35.71a2.5,2.5,0,0,1,2.14.89,2.26,2.26,0,0,1,.42,1.31,1.83,1.83,0,0,1-1.58,1.87A2.14,2.14,0,0,1,61,42a2.36,2.36,0,0,1-1.2,2.14,4.26,4.26,0,0,1-2,.34H54.15V35.71ZM55,39.44h2.85c1.45,0,1.95-.7,1.95-1.55a1.53,1.53,0,0,0-.26-.86,2.1,2.1,0,0,0-1.81-.57H55Zm3.13,4.32c1.19,0,2-.55,2-1.7a1.75,1.75,0,0,0-.88-1.57,3.39,3.39,0,0,0-1.8-.33H55v3.6Z"/><path class="cls-5" d="M62.23,44.52V35.71H63v8.81Z"/><path class="cls-5" d="M69.74,44.52c-1,0-1.45-.25-1.45-1.09a2.12,2.12,0,0,1-2.11,1.21A1.65,1.65,0,0,1,64.31,43c0-1.18,1-1.61,3-2.06l1-.22v-.46c0-.58-.29-1.21-1.38-1.21s-1.61.47-1.61,1.43l-.81-.14a2.11,2.11,0,0,1,2.33-1.94c1,0,2.18.31,2.18,1.79v2.61c0,.8,0,1.11.76,1.11h.13v.59Zm-1.45-3.15-.37.1C65.9,42,65,42.14,65,43a1.06,1.06,0,0,0,1.2,1,2.17,2.17,0,0,0,1.91-1.12,2.38,2.38,0,0,0,.16-1Z"/><path class="cls-5" d="M70.19,44.52v-.46L73.4,39.2H70.46v-.63h4V39l-3.22,4.86h3.31v.66Z"/><path class="cls-5" d="M76,41.72A2,2,0,0,0,78,44a2,2,0,0,0,1.93-1.24l.69.2A2.64,2.64,0,0,1,78,44.67a2.87,2.87,0,0,1-2.85-3.18,2.73,2.73,0,1,1,5.43-.05v.11H76Zm3.76-.78a1.82,1.82,0,0,0-1.84-1.86A1.93,1.93,0,0,0,76,40.94Z"/><path class="cls-5" d="M54.49,46.89l.65,1.61.64-1.61h.34v2h-.26V48.1l0-.84-.65,1.61H55l-.64-1.6,0,.83v.77h-.26v-2Z"/><path class="cls-5" d="M56.51,47a.13.13,0,0,1,0-.1.17.17,0,0,1,.22,0,.13.13,0,0,1,0,.1.14.14,0,0,1,0,.11.17.17,0,0,1-.22,0A.14.14,0,0,1,56.51,47Zm.27,1.87h-.25V47.4h.25Z"/><path class="cls-5" d="M57.74,48.69a.41.41,0,0,0,.24-.08.29.29,0,0,0,.11-.21h.24a.5.5,0,0,1-.09.24.55.55,0,0,1-.21.19.72.72,0,0,1-.29.06.56.56,0,0,1-.47-.2.77.77,0,0,1-.18-.54v0a.79.79,0,0,1,.08-.38.56.56,0,0,1,.22-.26.68.68,0,0,1,.35-.09.58.58,0,0,1,.41.15.53.53,0,0,1,.18.38h-.24a.34.34,0,0,0-.11-.23.32.32,0,0,0-.24-.09.37.37,0,0,0-.3.13.68.68,0,0,0-.1.4v0a.63.63,0,0,0,.1.39A.36.36,0,0,0,57.74,48.69Z"/><path class="cls-5" d="M59.29,47.62h-.12a.33.33,0,0,0-.34.21v1h-.25V47.4h.24v.17a.38.38,0,0,1,.35-.2.18.18,0,0,1,.11,0Z"/><path class="cls-5" d="M59.39,48.12a.8.8,0,0,1,.09-.39.58.58,0,0,1,.24-.27.68.68,0,0,1,.83.12.81.81,0,0,1,.18.55v0a.79.79,0,0,1-.08.38.56.56,0,0,1-.23.27.71.71,0,0,1-.36.09.59.59,0,0,1-.48-.2.83.83,0,0,1-.19-.55Zm.26,0a.6.6,0,0,0,.11.39.37.37,0,0,0,.3.15.37.37,0,0,0,.31-.15.72.72,0,0,0,.11-.42.67.67,0,0,0-.11-.39.37.37,0,0,0-.31-.15.36.36,0,0,0-.3.14A.67.67,0,0,0,59.65,48.15Z"/><path class="cls-5" d="M61.61,48.69a.38.38,0,0,0,.23-.08A.26.26,0,0,0,62,48.4h.24a.36.36,0,0,1-.09.24.55.55,0,0,1-.21.19.67.67,0,0,1-.28.06.59.59,0,0,1-.48-.2.77.77,0,0,1-.18-.54v0a.92.92,0,0,1,.08-.38.58.58,0,0,1,.23-.26.63.63,0,0,1,.35-.09.59.59,0,0,1,.41.15.52.52,0,0,1,.17.38H62a.33.33,0,0,0-.1-.23.36.36,0,0,0-.24-.09.35.35,0,0,0-.3.13.68.68,0,0,0-.11.4v0a.62.62,0,0,0,.11.39A.36.36,0,0,0,61.61,48.69Z"/><path class="cls-5" d="M62.37,48.12a.8.8,0,0,1,.09-.39.62.62,0,0,1,.58-.36.62.62,0,0,1,.49.21.81.81,0,0,1,.18.55v0a.79.79,0,0,1-.08.38.56.56,0,0,1-.23.27.68.68,0,0,1-.35.09.61.61,0,0,1-.49-.2.83.83,0,0,1-.19-.55Zm.26,0a.67.67,0,0,0,.11.39.37.37,0,0,0,.31.15.37.37,0,0,0,.3-.15.66.66,0,0,0,.11-.42.67.67,0,0,0-.11-.39.37.37,0,0,0-.31-.15.36.36,0,0,0-.3.14A.74.74,0,0,0,62.63,48.15Z"/><path class="cls-5" d="M64.24,47.4v.18a.55.55,0,0,1,.44-.21c.32,0,.47.17.48.52v1H64.9v-1a.32.32,0,0,0-.07-.23.29.29,0,0,0-.22-.08.34.34,0,0,0-.22.07.39.39,0,0,0-.14.17v1H64V47.4Z"/><path class="cls-5" d="M65.84,47v.36h.28v.19h-.28v.91a.2.2,0,0,0,0,.14.15.15,0,0,0,.12,0,.3.3,0,0,0,.12,0v.21a.62.62,0,0,1-.19,0,.29.29,0,0,1-.25-.1.42.42,0,0,1-.09-.29v-.91h-.27V47.4h.27V47Z"/><path class="cls-5" d="M67.09,47.62H67a.33.33,0,0,0-.34.21v1h-.25V47.4h.24v.17a.38.38,0,0,1,.35-.2.18.18,0,0,1,.11,0Z"/><path class="cls-5" d="M67.19,48.12a.8.8,0,0,1,.09-.39.58.58,0,0,1,.24-.27.68.68,0,0,1,.83.12.81.81,0,0,1,.18.55v0a.79.79,0,0,1-.08.38.56.56,0,0,1-.23.27.71.71,0,0,1-.36.09.59.59,0,0,1-.48-.2.83.83,0,0,1-.19-.55Zm.26,0a.6.6,0,0,0,.11.39.37.37,0,0,0,.3.15.37.37,0,0,0,.31-.15.72.72,0,0,0,.11-.42.67.67,0,0,0-.11-.39.37.37,0,0,0-.31-.15.36.36,0,0,0-.3.14A.67.67,0,0,0,67.45,48.15Z"/><path class="cls-5" d="M69.09,48.87h-.25V46.78h.25Z"/><path class="cls-5" d="M69.73,48.87h-.25V46.78h.25Z"/><path class="cls-5" d="M70.71,48.89a.62.62,0,0,1-.48-.19.72.72,0,0,1-.19-.53v0a1,1,0,0,1,.08-.4.67.67,0,0,1,.24-.26.53.53,0,0,1,.32-.1.55.55,0,0,1,.45.19.83.83,0,0,1,.16.54v.1h-1a.53.53,0,0,0,.13.36.42.42,0,0,0,.31.13.38.38,0,0,0,.22-.06.43.43,0,0,0,.16-.14l.16.12A.63.63,0,0,1,70.71,48.89Zm0-1.31a.3.3,0,0,0-.25.11.47.47,0,0,0-.13.31H71v0a.51.51,0,0,0-.11-.3A.3.3,0,0,0,70.68,47.58Z"/><path class="cls-5" d="M72.26,47.62h-.13a.33.33,0,0,0-.33.21v1h-.26V47.4h.25v.17a.39.39,0,0,1,.35-.2.22.22,0,0,1,.12,0Z"/><path class="cls-5" d="M73.41,48.09v.78h-.26v-2h.73a.73.73,0,0,1,.51.16.57.57,0,0,1,.18.44.58.58,0,0,1-.18.45.78.78,0,0,1-.51.15Zm0-.21h.47a.44.44,0,0,0,.32-.1.35.35,0,0,0,.11-.29.36.36,0,0,0-.11-.28.41.41,0,0,0-.3-.11h-.49Z"/><path class="cls-5" d="M75.55,47.62h-.13a.33.33,0,0,0-.33.21v1h-.26V47.4h.25v.17a.39.39,0,0,1,.35-.2.22.22,0,0,1,.12,0Z"/><path class="cls-5" d="M76.33,48.89a.66.66,0,0,1-.49-.19.76.76,0,0,1-.19-.53v0a.87.87,0,0,1,.09-.4.58.58,0,0,1,.23-.26.56.56,0,0,1,.33-.1.52.52,0,0,1,.44.19.77.77,0,0,1,.16.54v.1h-1a.52.52,0,0,0,.12.36.44.44,0,0,0,.31.13.41.41,0,0,0,.23-.06.52.52,0,0,0,.16-.14l.15.12A.6.6,0,0,1,76.33,48.89Zm0-1.31a.33.33,0,0,0-.26.11.52.52,0,0,0-.13.31h.74v0a.51.51,0,0,0-.1-.3A.32.32,0,0,0,76.3,47.58Z"/><path class="cls-5" d="M78,48.48a.19.19,0,0,0-.08-.16.73.73,0,0,0-.27-.1,1.5,1.5,0,0,1-.3-.1A.45.45,0,0,1,77.2,48a.41.41,0,0,1,0-.19.4.4,0,0,1,.15-.31.65.65,0,0,1,.39-.12.59.59,0,0,1,.41.13.41.41,0,0,1,.16.33H78a.25.25,0,0,0-.08-.18.35.35,0,0,0-.23-.07.33.33,0,0,0-.21.05.21.21,0,0,0-.08.16.17.17,0,0,0,.07.14,1.07,1.07,0,0,0,.26.09,1.41,1.41,0,0,1,.31.1.35.35,0,0,1,.17.14.32.32,0,0,1,.06.2.38.38,0,0,1-.16.32.64.64,0,0,1-.41.11.78.78,0,0,1-.31-.06.51.51,0,0,1-.21-.17.46.46,0,0,1-.08-.25h.25a.3.3,0,0,0,.1.21.49.49,0,0,0,.25.07.39.39,0,0,0,.23-.06A.18.18,0,0,0,78,48.48Z"/><path class="cls-5" d="M79.18,48.89a.64.64,0,0,1-.49-.19.72.72,0,0,1-.19-.53v0a1,1,0,0,1,.08-.4.67.67,0,0,1,.24-.26.55.55,0,0,1,.32-.1.54.54,0,0,1,.45.19.77.77,0,0,1,.16.54v.1h-1a.58.58,0,0,0,.13.36.42.42,0,0,0,.31.13.44.44,0,0,0,.23-.06.52.52,0,0,0,.16-.14l.15.12A.61.61,0,0,1,79.18,48.89Zm0-1.31a.31.31,0,0,0-.25.11.52.52,0,0,0-.13.31h.74v0a.45.45,0,0,0-.11-.3A.3.3,0,0,0,79.14,47.58Z"/><path class="cls-5" d="M80.35,47v.36h.27v.19h-.27v.91a.2.2,0,0,0,0,.14s.06,0,.12,0a.3.3,0,0,0,.12,0v.21a.65.65,0,0,1-.19,0,.33.33,0,0,1-.26-.1.48.48,0,0,1-.08-.29v-.91h-.27V47.4h.27V47Z"/></g></g></svg>