<svg xmlns="http://www.w3.org/2000/svg" viewBox="0 0 160.75 180.64"><defs><style>.cls-1{fill:#e4ebed;stroke:#231f20;stroke-miterlimit:10;stroke-width:0.5px;}.cls-2{fill:#de1f26;}.cls-3{fill:#282d3f;}.cls-4{fill:#811517;}.cls-5{fill:#6a6b6d;}.cls-6{fill:#fff;}</style></defs><title>Asset 9</title><g id="Layer_2" data-name="Layer 2"><g id="Layer_1-2" data-name="Layer 1"><rect class="cls-1" x="0.25" y="12.93" width="160.25" height="167.47"/><rect class="cls-2" x="7.47" y="20.4" width="145.8" height="152.78"/><rect class="cls-3" x="16.44" y="51.68" width="128.02" height="54.87"/><rect class="cls-4" x="16.44" y="111.43" width="128.02" height="54.87"/><path class="cls-5" d="M1.69,5.13h3v.78H.52V5.28L3.41,1.09H.54V.31H4.6V.92Z"/><path class="cls-5" d="M6.78,4.57l.85-2.82h1L7,6.54a1.34,1.34,0,0,1-1.29,1,1.5,1.5,0,0,1-.45-.07V6.8h.18a1,1,0,0,0,.53-.13.87.87,0,0,0,.28-.43l.14-.36L4.9,1.75h1Z"/><path class="cls-5" d="M10,1.75l0,.48a1.5,1.5,0,0,1,1.21-.56c.87,0,1.31.5,1.33,1.49V5.91h-.94V3.21a.85.85,0,0,0-.17-.58.72.72,0,0,0-.56-.19.89.89,0,0,0-.84.51v3H9.15V1.75Z"/><path class="cls-5" d="M13.37,3.79a2.46,2.46,0,0,1,.45-1.55A1.46,1.46,0,0,1,15,1.67a1.35,1.35,0,0,1,1.1.49l.06-.41H17V7.51h-.94V5.56A1.41,1.41,0,0,1,15,6a1.46,1.46,0,0,1-1.2-.58A2.6,2.6,0,0,1,13.37,3.79Zm.94.09a1.72,1.72,0,0,0,.25,1,.81.81,0,0,0,.7.36.89.89,0,0,0,.82-.47V2.88a.87.87,0,0,0-.81-.46.83.83,0,0,0-.71.36A1.9,1.9,0,0,0,14.31,3.88Z"/><path class="cls-5" d="M24.17.31V4.05a1.83,1.83,0,0,1-.57,1.42A2.21,2.21,0,0,1,22.08,6a2.17,2.17,0,0,1-1.53-.52A1.83,1.83,0,0,1,20,4.05V.31h1V4.06a1.16,1.16,0,0,0,.28.85,1.1,1.1,0,0,0,.84.3c.75,0,1.12-.39,1.12-1.18V.31Z"/><path class="cls-5" d="M26.12,5.91h-.94V0h.94Z"/><path class="cls-5" d="M28.31.74v1H29v.69h-.73V4.76a.54.54,0,0,0,.09.35.45.45,0,0,0,.34.1,1.93,1.93,0,0,0,.33,0V5.9a2.32,2.32,0,0,1-.62.09c-.72,0-1.08-.4-1.08-1.19V2.44h-.68V1.75h.68v-1Z"/><path class="cls-5" d="M31.94,2.6a2.47,2.47,0,0,0-.39,0,.87.87,0,0,0-.86.49V5.91h-.94V1.75h.9l0,.46a1.06,1.06,0,0,1,.94-.54,1,1,0,0,1,.33.05Z"/><path class="cls-5" d="M34.9,5.91a1.45,1.45,0,0,1-.11-.39A1.46,1.46,0,0,1,33.7,6a1.49,1.49,0,0,1-1-.36,1.15,1.15,0,0,1-.39-.88,1.19,1.19,0,0,1,.49-1,2.46,2.46,0,0,1,1.42-.35h.57V3.09a.72.72,0,0,0-.18-.51.71.71,0,0,0-.55-.2.85.85,0,0,0-.52.16A.49.49,0,0,0,33.3,3h-.93a1,1,0,0,1,.22-.64,1.48,1.48,0,0,1,.62-.47,2.21,2.21,0,0,1,.87-.17A1.73,1.73,0,0,1,35.25,2a1.31,1.31,0,0,1,.45,1V5a2.28,2.28,0,0,0,.15.9v.06Zm-1-.67a1,1,0,0,0,.52-.14.86.86,0,0,0,.37-.36V4h-.5a1.42,1.42,0,0,0-.79.18.59.59,0,0,0-.26.51.55.55,0,0,0,.18.43A.73.73,0,0,0,33.87,5.24Z"/><path class="cls-5" d="M39.69,4.47a.65.65,0,0,0-.26-.57,3,3,0,0,0-.93-.41A4.13,4.13,0,0,1,37.42,3a1.44,1.44,0,0,1-.77-1.25A1.36,1.36,0,0,1,37.21.67,2.22,2.22,0,0,1,38.64.23a2.31,2.31,0,0,1,1,.22,1.6,1.6,0,0,1,.72.61,1.54,1.54,0,0,1,.26.88h-1a.87.87,0,0,0-.27-.68A1.12,1.12,0,0,0,38.63,1a1.23,1.23,0,0,0-.74.2.68.68,0,0,0-.26.57.62.62,0,0,0,.28.52,3.47,3.47,0,0,0,.94.4,4,4,0,0,1,1,.44,1.59,1.59,0,0,1,.58.57,1.39,1.39,0,0,1,.19.75,1.31,1.31,0,0,1-.54,1.11A2.3,2.3,0,0,1,38.67,6a2.72,2.72,0,0,1-1.11-.23,1.86,1.86,0,0,1-.8-.62,1.52,1.52,0,0,1-.28-.92h1a.92.92,0,0,0,.32.74,1.4,1.4,0,0,0,.9.26A1.2,1.2,0,0,0,39.44,5,.65.65,0,0,0,39.69,4.47Z"/><path class="cls-5" d="M43.14,5.24a.87.87,0,0,0,.58-.2A.7.7,0,0,0,44,4.53h.88a1.41,1.41,0,0,1-.24.73,1.61,1.61,0,0,1-.62.53,1.86,1.86,0,0,1-.84.2,1.76,1.76,0,0,1-1.38-.57,2.26,2.26,0,0,1-.51-1.56v-.1a2.2,2.2,0,0,1,.5-1.52,1.77,1.77,0,0,1,1.39-.57,1.71,1.71,0,0,1,1.21.43,1.58,1.58,0,0,1,.49,1.14H44a.84.84,0,0,0-.25-.59.78.78,0,0,0-.58-.23.83.83,0,0,0-.7.33,1.69,1.69,0,0,0-.25,1V3.9a1.65,1.65,0,0,0,.25,1A.81.81,0,0,0,43.14,5.24Z"/><path class="cls-5" d="M48,5.91a1.52,1.52,0,0,1-.1-.39,1.48,1.48,0,0,1-1.1.47,1.44,1.44,0,0,1-1-.36,1.16,1.16,0,0,1-.4-.88,1.2,1.2,0,0,1,.5-1,2.45,2.45,0,0,1,1.41-.35h.58V3.09a.73.73,0,0,0-.19-.51.71.71,0,0,0-.55-.2.87.87,0,0,0-.52.16.48.48,0,0,0-.2.41h-.94a1,1,0,0,1,.23-.64,1.48,1.48,0,0,1,.62-.47,2.21,2.21,0,0,1,.87-.17A1.7,1.7,0,0,1,48.39,2a1.31,1.31,0,0,1,.45,1V5a2.1,2.1,0,0,0,.16.9v.06Zm-1-.67a1.1,1.1,0,0,0,.52-.14,1,1,0,0,0,.37-.36V4H47.4a1.36,1.36,0,0,0-.78.18.59.59,0,0,0-.26.51.55.55,0,0,0,.18.43A.73.73,0,0,0,47,5.24Z"/><path class="cls-5" d="M50.81,5.91h-.93V0h.93Z"/><path class="cls-5" d="M53.67,6a2,2,0,0,1-1.45-.56,2.07,2.07,0,0,1-.55-1.49V3.82a2.48,2.48,0,0,1,.24-1.11,1.89,1.89,0,0,1,.68-.77,1.79,1.79,0,0,1,1-.27,1.64,1.64,0,0,1,1.31.54,2.3,2.3,0,0,1,.47,1.54v.37H52.61a1.27,1.27,0,0,0,.35.82,1,1,0,0,0,.76.3,1.26,1.26,0,0,0,1.05-.52l.5.48a1.72,1.72,0,0,1-.67.58A2.05,2.05,0,0,1,53.67,6Zm-.12-3.57a.8.8,0,0,0-.62.27,1.43,1.43,0,0,0-.3.75h1.78V3.37a1.12,1.12,0,0,0-.25-.71A.78.78,0,0,0,53.55,2.42Z"/><path class="cls-5" d="M58.22,2.83h1.46v.85H58.22V5.35h-.91V3.68H55.84V2.83h1.47V1.27h.91Z"/><path class="cls-5" d="M63.48,3.83V5.91h-1V.31h2.15A2.16,2.16,0,0,1,66.14.8a1.62,1.62,0,0,1,.55,1.29,1.61,1.61,0,0,1-.54,1.29,2.3,2.3,0,0,1-1.51.45Zm0-.78h1.17a1.12,1.12,0,0,0,.79-.25.88.88,0,0,0,.27-.7,1,1,0,0,0-.27-.73,1.11,1.11,0,0,0-.77-.28H63.48Z"/><path class="cls-5" d="M69.63,2.6a2.34,2.34,0,0,0-.38,0,.87.87,0,0,0-.87.49V5.91h-.93V1.75h.89l0,.46a1.11,1.11,0,0,1,1.28-.49Z"/><path class="cls-5" d="M72,6a2,2,0,0,1-1.44-.56A2,2,0,0,1,70,3.94V3.82a2.48,2.48,0,0,1,.24-1.11,1.82,1.82,0,0,1,.68-.77,1.78,1.78,0,0,1,1-.27,1.65,1.65,0,0,1,1.32.54,2.3,2.3,0,0,1,.46,1.54v.37H70.93a1.22,1.22,0,0,0,.35.82,1,1,0,0,0,.76.3,1.26,1.26,0,0,0,1-.52l.51.48a1.72,1.72,0,0,1-.67.58A2.06,2.06,0,0,1,72,6Zm-.11-3.57a.78.78,0,0,0-.62.27,1.35,1.35,0,0,0-.3.75h1.78V3.37a1.18,1.18,0,0,0-.25-.71A.79.79,0,0,0,71.87,2.42Z"/><path class="cls-5" d="M76.71,4.78a.43.43,0,0,0-.2-.38,2,2,0,0,0-.69-.23A3.18,3.18,0,0,1,75,3.91a1,1,0,0,1-.7-1,1.11,1.11,0,0,1,.45-.9,1.8,1.8,0,0,1,1.15-.36A1.86,1.86,0,0,1,77.14,2a1.17,1.17,0,0,1,.46,1h-.93a.59.59,0,0,0-.2-.45.78.78,0,0,0-.54-.18.87.87,0,0,0-.5.14.46.46,0,0,0-.19.38.38.38,0,0,0,.18.34,2.4,2.4,0,0,0,.73.24,3.42,3.42,0,0,1,.86.29,1.18,1.18,0,0,1,.47.4,1.05,1.05,0,0,1,.15.57,1.08,1.08,0,0,1-.46.91A2,2,0,0,1,76,6,2.1,2.1,0,0,1,75,5.8a1.49,1.49,0,0,1-.62-.51,1.16,1.16,0,0,1-.22-.69h.91a.63.63,0,0,0,.25.51.94.94,0,0,0,.61.18,1,1,0,0,0,.56-.14A.44.44,0,0,0,76.71,4.78Z"/><path class="cls-5" d="M80.28,6a2,2,0,0,1-1.44-.56,2,2,0,0,1-.55-1.49V3.82a2.48,2.48,0,0,1,.24-1.11,1.86,1.86,0,0,1,.67-.77,1.79,1.79,0,0,1,1-.27,1.65,1.65,0,0,1,1.32.54A2.36,2.36,0,0,1,82,3.75v.37H79.23a1.26,1.26,0,0,0,.34.82,1,1,0,0,0,.76.3,1.26,1.26,0,0,0,1-.52l.5.48a1.69,1.69,0,0,1-.66.58A2.06,2.06,0,0,1,80.28,6Zm-.11-3.57a.77.77,0,0,0-.62.27,1.44,1.44,0,0,0-.31.75H81V3.37a1.25,1.25,0,0,0-.25-.71A.79.79,0,0,0,80.17,2.42Z"/><path class="cls-5" d="M83.85.74v1h.73v.69h-.73V4.76a.54.54,0,0,0,.09.35.45.45,0,0,0,.34.1l.32,0V5.9A2.2,2.2,0,0,1,84,6c-.72,0-1.08-.4-1.08-1.19V2.44h-.68V1.75h.68v-1Z"/><path class="cls-5" d="M87.63,4.78a.42.42,0,0,0-.21-.38,1.88,1.88,0,0,0-.68-.23,3.42,3.42,0,0,1-.8-.26,1.06,1.06,0,0,1-.7-1A1.09,1.09,0,0,1,85.7,2a1.78,1.78,0,0,1,1.15-.36A1.86,1.86,0,0,1,88.06,2a1.2,1.2,0,0,1,.46,1h-.94a.56.56,0,0,0-.2-.45.76.76,0,0,0-.53-.18.87.87,0,0,0-.5.14.46.46,0,0,0-.19.38.38.38,0,0,0,.18.34,2.4,2.4,0,0,0,.73.24,3.57,3.57,0,0,1,.86.29,1.18,1.18,0,0,1,.47.4,1.05,1.05,0,0,1,.15.57,1.09,1.09,0,0,1-.47.91A2,2,0,0,1,86.86,6,2.06,2.06,0,0,1,86,5.8a1.43,1.43,0,0,1-.62-.51,1.17,1.17,0,0,1-.23-.69H86a.7.7,0,0,0,.25.51,1,1,0,0,0,.61.18,1,1,0,0,0,.57-.14A.47.47,0,0,0,87.63,4.78Z"/><rect class="cls-5" x="24.17" y="69.67" width="35.11" height="7.77"/><path class="cls-6" d="M29.56,75.19V72.35h.84a1.33,1.33,0,0,1,.67.17,1,1,0,0,1,.45.48,1.45,1.45,0,0,1,.16.7v.14a1.53,1.53,0,0,1-.16.72,1.1,1.1,0,0,1-.46.47,1.34,1.34,0,0,1-.68.16Zm.5-2.44v2h.32a.75.75,0,0,0,.6-.24,1.12,1.12,0,0,0,.21-.7V73.7A1.13,1.13,0,0,0,31,73a.73.73,0,0,0-.59-.24Z"/><path class="cls-6" d="M32.18,75.19V72.35H33a1.3,1.3,0,0,1,.66.17,1.12,1.12,0,0,1,.46.48,1.57,1.57,0,0,1,.16.7v.14a1.66,1.66,0,0,1-.16.72,1.16,1.16,0,0,1-.46.47,1.41,1.41,0,0,1-.69.16Zm.49-2.44v2H33a.75.75,0,0,0,.6-.24,1.06,1.06,0,0,0,.21-.7V73.7a1.13,1.13,0,0,0-.2-.71.71.71,0,0,0-.58-.24Z"/><path class="cls-6" d="M35.83,74.1h-.55v1.09h-.49V72.35h1a1.15,1.15,0,0,1,.76.22.78.78,0,0,1,.27.64.83.83,0,0,1-.14.48.88.88,0,0,1-.38.3l.63,1.18v0H36.4Zm-.55-.4h.51a.57.57,0,0,0,.39-.12.43.43,0,0,0,.14-.35.45.45,0,0,0-.13-.35.5.5,0,0,0-.39-.13h-.52Z"/><path class="cls-6" d="M38.81,74.18h.36v.38h-.36v.63h-.47v-.63H37.11v-.29l1.22-1.92h.49Zm-1.21,0h.74V73l0,.07Z"/><path class="cls-6" d="M41.2,72.35,42,74.53l.81-2.18h.64v2.84H43v-.93L43,73l-.84,2.19h-.35L41,73l0,1.26v.93h-.5V72.35Z"/><path class="cls-6" d="M44.94,75.23a1,1,0,0,1-.73-.28,1,1,0,0,1-.28-.76v-.06a1.25,1.25,0,0,1,.12-.56.93.93,0,0,1,.34-.39,1,1,0,0,1,.5-.14.79.79,0,0,1,.66.28,1.14,1.14,0,0,1,.24.78v.19H44.41a.62.62,0,0,0,.17.41.54.54,0,0,0,.39.15.63.63,0,0,0,.53-.26l.26.24a.89.89,0,0,1-.34.3A1.06,1.06,0,0,1,44.94,75.23Zm-.06-1.81a.41.41,0,0,0-.31.14.69.69,0,0,0-.15.38h.9v0a.59.59,0,0,0-.13-.37A.39.39,0,0,0,44.88,73.42Z"/><path class="cls-6" d="M46.6,73.08l0,.22a.77.77,0,0,1,.61-.26.59.59,0,0,1,.58.33.74.74,0,0,1,.65-.33.67.67,0,0,1,.52.2.83.83,0,0,1,.17.57v1.38h-.47V73.82a.45.45,0,0,0-.09-.3.48.48,0,0,0-.56,0,.45.45,0,0,0-.14.23v1.44h-.47V73.8a.34.34,0,0,0-.38-.37.43.43,0,0,0-.41.23v1.53h-.47V73.08Z"/><path class="cls-6" d="M49.55,74.12a1.25,1.25,0,0,1,.12-.56.86.86,0,0,1,.35-.38,1,1,0,0,1,.51-.14.89.89,0,0,1,.69.28,1.05,1.05,0,0,1,.29.73v.11a1.28,1.28,0,0,1-.12.56.9.9,0,0,1-.34.38,1,1,0,0,1-.52.13.94.94,0,0,1-.71-.29,1.16,1.16,0,0,1-.27-.8Zm.47,0a.84.84,0,0,0,.14.51.43.43,0,0,0,.37.18.45.45,0,0,0,.38-.18,1,1,0,0,0,.13-.55.81.81,0,0,0-.14-.51.44.44,0,0,0-.37-.19.43.43,0,0,0-.37.19A.93.93,0,0,0,50,74.16Z"/><path class="cls-6" d="M53,73.51h-.19a.43.43,0,0,0-.44.25v1.44h-.48V73.08h.46v.24a.52.52,0,0,1,.48-.28.38.38,0,0,1,.16,0Z"/><path class="cls-6" d="M54.1,74.51l.43-1.43H55l-.84,2.43a.69.69,0,0,1-.65.54.66.66,0,0,1-.23,0v-.37h.09a.41.41,0,0,0,.27-.07.37.37,0,0,0,.14-.22l.07-.18-.74-2.1h.51Z"/><rect class="cls-5" x="62.38" y="69.67" width="35.11" height="7.77"/><path class="cls-6" d="M78.49,73.85a1.68,1.68,0,0,1-.13.7A1.19,1.19,0,0,1,78,75l.48.38-.32.29-.6-.48a1.1,1.1,0,0,1-.26,0,1.06,1.06,0,0,1-.61-.17,1.1,1.1,0,0,1-.42-.48,1.62,1.62,0,0,1-.15-.72V73.7a1.67,1.67,0,0,1,.15-.73,1.11,1.11,0,0,1,.41-.49,1.22,1.22,0,0,1,1.24,0,1,1,0,0,1,.41.48,1.67,1.67,0,0,1,.15.73ZM78,73.7a1.25,1.25,0,0,0-.18-.73.58.58,0,0,0-.51-.25.6.6,0,0,0-.5.25,1.3,1.3,0,0,0-.19.71v.17a1.28,1.28,0,0,0,.18.72.64.64,0,0,0,1,0,1.25,1.25,0,0,0,.18-.73Z"/><path class="cls-6" d="M80.48,74.46a.35.35,0,0,0-.13-.29,2,2,0,0,0-.48-.2,2.35,2.35,0,0,1-.54-.23.73.73,0,0,1-.39-.64.69.69,0,0,1,.28-.57,1.16,1.16,0,0,1,.72-.22,1.25,1.25,0,0,1,.53.11.87.87,0,0,1,.37.31.81.81,0,0,1,.13.45h-.49a.47.47,0,0,0-.14-.35.6.6,0,0,0-.4-.12.61.61,0,0,0-.38.1.38.38,0,0,0-.13.29.31.31,0,0,0,.15.26,1.42,1.42,0,0,0,.47.2,2.3,2.3,0,0,1,.54.23.8.8,0,0,1,.29.29.76.76,0,0,1,.09.38.67.67,0,0,1-.27.56,1.18,1.18,0,0,1-.74.21,1.38,1.38,0,0,1-.57-.11,1,1,0,0,1-.4-.32.82.82,0,0,1-.14-.47h.49a.48.48,0,0,0,.16.38.7.7,0,0,0,.46.13.63.63,0,0,0,.39-.1A.33.33,0,0,0,80.48,74.46Z"/><path class="cls-6" d="M81.9,74.14v1h-.49V72.35H82.5a1.06,1.06,0,0,1,.75.25.92.92,0,0,1,0,1.31,1.18,1.18,0,0,1-.77.23Zm0-.4h.6a.6.6,0,0,0,.4-.12.46.46,0,0,0,.14-.36.51.51,0,0,0-.14-.37.56.56,0,0,0-.39-.14H81.9Z"/><path class="cls-6" d="M84.49,75.19H84V72.35h.5Z"/><rect class="cls-5" x="100.58" y="69.67" width="35.11" height="7.77"/><path class="cls-6" d="M116,72.35v1.9a1,1,0,0,1-.29.72,1.29,1.29,0,0,1-1.55,0,.91.91,0,0,1-.28-.72v-1.9h.49v1.9a.64.64,0,0,0,.14.44.58.58,0,0,0,.43.15q.57,0,.57-.6V72.35Z"/><path class="cls-6" d="M118.06,74.53H117l-.24.66h-.51l1.08-2.84h.44l1.07,2.84h-.51Zm-1-.4h.83L117.51,73Z"/><path class="cls-6" d="M120.17,74.1h-.55v1.09h-.49V72.35h1a1.15,1.15,0,0,1,.76.22.78.78,0,0,1,.26.64.82.82,0,0,1-.13.48.85.85,0,0,1-.39.3l.64,1.18v0h-.53Zm-.55-.4h.51a.57.57,0,0,0,.39-.12.47.47,0,0,0,.14-.35.45.45,0,0,0-.13-.35.53.53,0,0,0-.39-.13h-.52Z"/><path class="cls-6" d="M123.58,72.75h-.89v2.44h-.49V72.75h-.88v-.4h2.26Z"/><rect class="cls-5" x="24.17" y="80.11" width="35.11" height="7.77"/><path class="cls-6" d="M34.12,85.26a1,1,0,0,1-.43.31,1.72,1.72,0,0,1-.62.1,1.18,1.18,0,0,1-.63-.16,1.06,1.06,0,0,1-.43-.46,1.58,1.58,0,0,1-.15-.71v-.22a1.56,1.56,0,0,1,.3-1,1.1,1.1,0,0,1,.87-.36,1.13,1.13,0,0,1,.75.24,1,1,0,0,1,.34.67h-.49a.54.54,0,0,0-.59-.51.59.59,0,0,0-.51.24,1.3,1.3,0,0,0-.18.7v.22a1.13,1.13,0,0,0,.2.71.65.65,0,0,0,.54.26.74.74,0,0,0,.54-.17v-.56H33v-.38h1.08Z"/><path class="cls-6" d="M36.47,84.6a1.23,1.23,0,0,1-.22.78.77.77,0,0,1-1.18,0l0,.22h-.43v-3h.48v1.09a.68.68,0,0,1,.55-.24.74.74,0,0,1,.61.29,1.27,1.27,0,0,1,.22.8Zm-.48,0a.93.93,0,0,0-.12-.52.4.4,0,0,0-.35-.17.44.44,0,0,0-.43.27V85a.45.45,0,0,0,.44.28.41.41,0,0,0,.34-.17.86.86,0,0,0,.12-.5Z"/><path class="cls-6" d="M39.57,84.36H38.4v.88h1.37v.39H37.91V82.79h1.84v.4H38.4V84h1.17Z"/><path class="cls-6" d="M40.72,83v.51h.37v.35h-.37v1.18a.3.3,0,0,0,.05.18.25.25,0,0,0,.17,0l.16,0v.37a1.1,1.1,0,0,1-.31,0c-.36,0-.55-.2-.55-.6v-1.2H39.9v-.35h.34V83Z"/><path class="cls-6" d="M41.92,83.75a.75.75,0,0,1,.59-.27c.45,0,.68.26.69.77v1.38h-.48V84.27a.43.43,0,0,0-.09-.31.41.41,0,0,0-.28-.09.48.48,0,0,0-.43.25v1.51h-.47v-3h.47Z"/><path class="cls-6" d="M44.61,85.67a1,1,0,0,1-.74-.28,1.06,1.06,0,0,1-.28-.76v-.06a1.13,1.13,0,0,1,.13-.56.87.87,0,0,1,.34-.39.93.93,0,0,1,.49-.14.82.82,0,0,1,.67.28,1.14,1.14,0,0,1,.23.78v.19H44.07a.68.68,0,0,0,.18.41.52.52,0,0,0,.38.15.61.61,0,0,0,.53-.26l.26.24a.83.83,0,0,1-.34.3A1,1,0,0,1,44.61,85.67Zm-.06-1.81a.42.42,0,0,0-.32.14.69.69,0,0,0-.15.38H45v0a.64.64,0,0,0-.12-.36A.41.41,0,0,0,44.55,83.86Z"/><path class="cls-6" d="M46.93,84h-.2a.42.42,0,0,0-.43.25v1.44h-.48V83.52h.45l0,.24a.52.52,0,0,1,.47-.28.4.4,0,0,1,.17,0Z"/><path class="cls-6" d="M47.67,83.52v.24a.79.79,0,0,1,.62-.28c.44,0,.66.25.67.76v1.39h-.48V84.26a.4.4,0,0,0-.08-.29.35.35,0,0,0-.29-.1.45.45,0,0,0-.42.26v1.5h-.48V83.52Z"/><path class="cls-6" d="M50.38,85.67a1,1,0,0,1-.73-.28,1.06,1.06,0,0,1-.28-.76v-.06a1.25,1.25,0,0,1,.12-.56,1,1,0,0,1,.35-.39.91.91,0,0,1,.49-.14.82.82,0,0,1,.67.28,1.19,1.19,0,0,1,.23.78v.19H49.85a.62.62,0,0,0,.17.41.56.56,0,0,0,.39.15.63.63,0,0,0,.53-.26l.26.24a.89.89,0,0,1-.34.3A1.06,1.06,0,0,1,50.38,85.67Zm-.05-1.81A.42.42,0,0,0,50,84a.69.69,0,0,0-.15.38h.9v0a.58.58,0,0,0-.13-.36A.38.38,0,0,0,50.33,83.86Z"/><path class="cls-6" d="M52.19,83v.51h.38v.35h-.38v1.18a.3.3,0,0,0,.05.18.25.25,0,0,0,.17,0l.17,0v.37a1.15,1.15,0,0,1-.31,0c-.37,0-.55-.2-.55-.6v-1.2h-.35v-.35h.35V83Z"/><rect class="cls-5" x="62.38" y="80.11" width="35.11" height="7.77"/><path class="cls-6" d="M75.67,85.67a1,1,0,0,1-.74-.28,1.06,1.06,0,0,1-.28-.76v-.06a1.25,1.25,0,0,1,.13-.56.87.87,0,0,1,.34-.39.93.93,0,0,1,.49-.14.82.82,0,0,1,.67.28,1.14,1.14,0,0,1,.23.78v.19H75.13a.68.68,0,0,0,.18.41.52.52,0,0,0,.38.15.61.61,0,0,0,.53-.26l.26.24a.83.83,0,0,1-.34.3A1,1,0,0,1,75.67,85.67Zm-.06-1.81a.42.42,0,0,0-.32.14.69.69,0,0,0-.15.38h.91v0a.65.65,0,0,0-.13-.36A.41.41,0,0,0,75.61,83.86Z"/><path class="cls-6" d="M77.57,82.79,78.39,85l.82-2.18h.64v2.84h-.5V84.7l.05-1.26-.84,2.19h-.35l-.84-2.19,0,1.26v.93h-.49V82.79Z"/><path class="cls-6" d="M81.07,82.79,81.89,85l.82-2.18h.64v2.84h-.49V84.7l0-1.26-.84,2.19h-.35l-.84-2.19,0,1.26v.93h-.49V82.79Z"/><path class="cls-6" d="M86.1,84.71a1.06,1.06,0,0,1-.33.71,1.16,1.16,0,0,1-.78.25,1.08,1.08,0,0,1-.6-.16,1.06,1.06,0,0,1-.4-.46,1.6,1.6,0,0,1-.15-.69V84.1a1.73,1.73,0,0,1,.14-.71,1.1,1.1,0,0,1,1-.64,1.11,1.11,0,0,1,.76.26,1.06,1.06,0,0,1,.33.72h-.49a.64.64,0,0,0-.18-.44.57.57,0,0,0-.42-.14.61.61,0,0,0-.5.23,1.22,1.22,0,0,0-.17.7v.25a1.23,1.23,0,0,0,.16.7.55.55,0,0,0,.49.24.6.6,0,0,0,.43-.13.67.67,0,0,0,.19-.43Z"/><rect class="cls-5" x="100.58" y="80.11" width="35.11" height="7.77"/><path class="cls-6" d="M115.51,84.9a.36.36,0,0,0-.14-.29,1.43,1.43,0,0,0-.47-.2,2.68,2.68,0,0,1-.55-.23.74.74,0,0,1-.39-.64.72.72,0,0,1,.28-.57,1.2,1.2,0,0,1,.73-.22,1.25,1.25,0,0,1,.53.11.87.87,0,0,1,.37.31.9.9,0,0,1,.13.45h-.49a.47.47,0,0,0-.14-.35.75.75,0,0,0-.78,0,.35.35,0,0,0-.13.29.33.33,0,0,0,.14.26,1.6,1.6,0,0,0,.48.2,2,2,0,0,1,.53.23.84.84,0,0,1,.3.29.74.74,0,0,1,.09.38.68.68,0,0,1-.27.56,1.18,1.18,0,0,1-.74.21,1.48,1.48,0,0,1-.57-.11.92.92,0,0,1-.4-.32.75.75,0,0,1-.14-.47h.49a.45.45,0,0,0,.16.38.7.7,0,0,0,.46.13.63.63,0,0,0,.39-.1A.36.36,0,0,0,115.51,84.9Z"/><path class="cls-6" d="M118,85h-1.11l-.23.66h-.51l1.07-2.84h.45l1.07,2.84h-.51Zm-1-.4h.83l-.42-1.18Z"/><path class="cls-6" d="M120.92,83.19H120v2.44h-.49V83.19h-.88v-.4h2.26Z"/><path class="cls-6" d="M122.65,85h-1.1l-.24.66h-.51l1.08-2.84h.44l1.07,2.84h-.51Zm-1-.4h.83l-.41-1.18Z"/><rect class="cls-5" x="24.17" y="90.55" width="35.11" height="7.77"/><path class="cls-6" d="M37.43,93.23v1.9a.91.91,0,0,1-.29.72,1.12,1.12,0,0,1-.77.26,1.07,1.07,0,0,1-.77-.26.89.89,0,0,1-.29-.72v-1.9h.49v1.9a.6.6,0,0,0,.15.44.54.54,0,0,0,.42.15q.57,0,.57-.6V93.23Z"/><path class="cls-6" d="M39.45,95.34a.38.38,0,0,0-.13-.29,1.63,1.63,0,0,0-.48-.2,2.68,2.68,0,0,1-.55-.23A.74.74,0,0,1,37.9,94a.72.72,0,0,1,.28-.57,1.2,1.2,0,0,1,.73-.22,1.25,1.25,0,0,1,.53.11.87.87,0,0,1,.37.31.81.81,0,0,1,.13.45h-.49a.47.47,0,0,0-.14-.35.6.6,0,0,0-.4-.12.61.61,0,0,0-.38.1.34.34,0,0,0-.13.29.33.33,0,0,0,.14.26,1.6,1.6,0,0,0,.48.2,2,2,0,0,1,.53.23.76.76,0,0,1,.3.29.74.74,0,0,1,.09.38.68.68,0,0,1-.27.56,1.18,1.18,0,0,1-.74.21,1.35,1.35,0,0,1-.57-.11,1,1,0,0,1-.4-.32.75.75,0,0,1-.14-.47h.49a.45.45,0,0,0,.16.38.7.7,0,0,0,.46.13.63.63,0,0,0,.39-.1A.36.36,0,0,0,39.45,95.34Z"/><path class="cls-6" d="M40.38,96.07V93.23h1a1.16,1.16,0,0,1,.73.19.68.68,0,0,1,.26.58.61.61,0,0,1-.11.35.58.58,0,0,1-.31.24.61.61,0,0,1,.36.24.69.69,0,0,1,.12.41.76.76,0,0,1-.25.62,1.14,1.14,0,0,1-.74.21Zm.49-1.64h.48a.53.53,0,0,0,.36-.11.35.35,0,0,0,.13-.29.39.39,0,0,0-.12-.31.61.61,0,0,0-.37-.09h-.48Zm0,.36v.89h.55a.52.52,0,0,0,.36-.12.38.38,0,0,0,.13-.32.41.41,0,0,0-.45-.45Z"/><path class="cls-6" d="M44.37,94.44h.29a.52.52,0,0,0,.34-.12.38.38,0,0,0,.13-.32.42.42,0,0,0-.11-.32.43.43,0,0,0-.32-.11.5.5,0,0,0-.32.11.38.38,0,0,0-.12.29h-.47a.77.77,0,0,1,.11-.4.83.83,0,0,1,.33-.28,1,1,0,0,1,.46-.1.93.93,0,0,1,.67.22.75.75,0,0,1,.25.59.55.55,0,0,1-.13.36.79.79,0,0,1-.31.26.65.65,0,0,1,.35.25.63.63,0,0,1,.13.41.76.76,0,0,1-.27.61,1.16,1.16,0,0,1-1.36,0,.72.72,0,0,1-.26-.58h.47a.42.42,0,0,0,.13.31.47.47,0,0,0,.34.11.49.49,0,0,0,.35-.11.45.45,0,0,0,.12-.34.45.45,0,0,0-.13-.35.57.57,0,0,0-.39-.12h-.28Z"/><path class="cls-6" d="M46.42,95.57a.25.25,0,0,1,.2.08.26.26,0,0,1,.08.19.27.27,0,0,1-.28.26.26.26,0,0,1-.2-.08.25.25,0,0,1-.08-.18.26.26,0,0,1,.08-.19A.25.25,0,0,1,46.42,95.57Z"/><path class="cls-6" d="M49.06,94.88a1.49,1.49,0,0,1-.23.92.79.79,0,0,1-.7.31.83.83,0,0,1-.69-.3,1.56,1.56,0,0,1-.24-.9v-.49a1.54,1.54,0,0,1,.23-.92.81.81,0,0,1,.7-.31.83.83,0,0,1,.7.3,1.48,1.48,0,0,1,.23.89Zm-.47-.53a1.23,1.23,0,0,0-.11-.59.37.37,0,0,0-.35-.19.37.37,0,0,0-.34.18,1.21,1.21,0,0,0-.12.55V95a1.16,1.16,0,0,0,.12.59.41.41,0,0,0,.68,0,1.14,1.14,0,0,0,.12-.56Z"/><rect class="cls-5" x="62.38" y="90.55" width="35.11" height="7.77"/><path class="cls-6" d="M78.78,95.15a1.07,1.07,0,0,1-.34.71,1.16,1.16,0,0,1-.78.25,1.08,1.08,0,0,1-.6-.16,1.13,1.13,0,0,1-.4-.46,1.6,1.6,0,0,1-.14-.69v-.26a1.58,1.58,0,0,1,.14-.71,1,1,0,0,1,.41-.47,1.14,1.14,0,0,1,.61-.17,1.09,1.09,0,0,1,.76.26,1.11,1.11,0,0,1,.34.72h-.5a.64.64,0,0,0-.18-.44.53.53,0,0,0-.42-.14.56.56,0,0,0-.49.24,1.09,1.09,0,0,0-.18.69v.25a1.22,1.22,0,0,0,.17.7.55.55,0,0,0,.48.24.64.64,0,0,0,.44-.13.62.62,0,0,0,.18-.43Z"/><path class="cls-6" d="M80.81,95.41h-1.1l-.23.66H79L80,93.23h.44l1.08,2.84H81Zm-1-.4h.82l-.41-1.18Z"/><path class="cls-6" d="M84.13,96.07h-.49l-1.27-2v2h-.49V93.23h.49l1.27,2v-2h.49Z"/><rect class="cls-5" x="100.58" y="90.55" width="35.11" height="7.77"/><path class="cls-6" d="M108.52,96.07V93.23h.84a1.36,1.36,0,0,1,.67.17,1.16,1.16,0,0,1,.45.48,1.45,1.45,0,0,1,.16.7v.14a1.53,1.53,0,0,1-.16.72,1.16,1.16,0,0,1-.46.47,1.39,1.39,0,0,1-.68.16Zm.49-2.44v2.05h.33a.73.73,0,0,0,.59-.24,1.06,1.06,0,0,0,.21-.7v-.16a1.07,1.07,0,0,0-.2-.71.7.7,0,0,0-.58-.24Z"/><path class="cls-6" d="M111.09,93.41a.24.24,0,0,1,.07-.18.24.24,0,0,1,.2-.07.24.24,0,0,1,.19.07.24.24,0,0,1,0,.36.24.24,0,0,1-.19.07.24.24,0,0,1-.2-.07A.24.24,0,0,1,111.09,93.41Zm.5,2.66h-.47V94h.47Z"/><path class="cls-6" d="M113.29,95.5a.21.21,0,0,0-.1-.19.93.93,0,0,0-.35-.12,1.71,1.71,0,0,1-.4-.13.54.54,0,0,1-.36-.5.56.56,0,0,1,.23-.45.89.89,0,0,1,.59-.19.91.91,0,0,1,.61.19.58.58,0,0,1,.23.49h-.47a.28.28,0,0,0-.1-.23.4.4,0,0,0-.27-.09.44.44,0,0,0-.26.07.23.23,0,0,0-.09.19.19.19,0,0,0,.09.17,1.19,1.19,0,0,0,.37.12,2.23,2.23,0,0,1,.44.15.67.67,0,0,1,.23.21.49.49,0,0,1,.08.28.57.57,0,0,1-.24.47,1,1,0,0,1-.62.17,1.14,1.14,0,0,1-.46-.09.72.72,0,0,1-.31-.26.59.59,0,0,1-.12-.35h.46a.35.35,0,0,0,.13.26.5.5,0,0,0,.31.09.56.56,0,0,0,.29-.07A.23.23,0,0,0,113.29,95.5Z"/><path class="cls-6" d="M116,95a1.23,1.23,0,0,1-.22.78.7.7,0,0,1-.6.29.68.68,0,0,1-.55-.23v1h-.48V94h.44l0,.22a.76.76,0,0,1,1.17,0,1.27,1.27,0,0,1,.22.8Zm-.47,0a.9.9,0,0,0-.12-.5.42.42,0,0,0-.37-.19.42.42,0,0,0-.41.24v.94a.43.43,0,0,0,.42.24.4.4,0,0,0,.35-.18A.91.91,0,0,0,115.55,95Z"/><path class="cls-6" d="M116.93,96.07h-.47v-3h.47Z"/><path class="cls-6" d="M118.71,96.07a.85.85,0,0,1-.06-.19.75.75,0,0,1-.55.23.77.77,0,0,1-.52-.18.59.59,0,0,1-.2-.45.6.6,0,0,1,.25-.52,1.24,1.24,0,0,1,.72-.18h.29v-.14a.39.39,0,0,0-.09-.26.4.4,0,0,0-.28-.1.46.46,0,0,0-.27.08.26.26,0,0,0-.1.21h-.48a.49.49,0,0,1,.12-.32.67.67,0,0,1,.31-.24,1.1,1.1,0,0,1,.45-.09.87.87,0,0,1,.59.19.66.66,0,0,1,.22.52v1a1.1,1.1,0,0,0,.08.45v0Zm-.52-.34a.48.48,0,0,0,.26-.07.37.37,0,0,0,.19-.18v-.4h-.26a.7.7,0,0,0-.39.09.3.3,0,0,0-.14.26.28.28,0,0,0,.09.22A.36.36,0,0,0,118.19,95.73Z"/><path class="cls-6" d="M120.32,95.39l.43-1.43h.51l-.84,2.43a.69.69,0,0,1-.66.54.7.7,0,0,1-.23,0v-.37h.09a.41.41,0,0,0,.27-.07.43.43,0,0,0,.15-.22l.06-.18-.74-2.1h.51Z"/><path class="cls-6" d="M122.07,95v1h-.5V93.23h1.09a1.09,1.09,0,0,1,.76.25.81.81,0,0,1,.28.66.83.83,0,0,1-.27.65,1.2,1.2,0,0,1-.77.23Zm0-.4h.59a.58.58,0,0,0,.4-.12.45.45,0,0,0,.14-.36.46.46,0,0,0-.14-.37.52.52,0,0,0-.38-.14h-.61Z"/><path class="cls-6" d="M124,95a1.25,1.25,0,0,1,.12-.56.87.87,0,0,1,.35-.38,1,1,0,0,1,.51-.14.91.91,0,0,1,.7.28,1.07,1.07,0,0,1,.28.73V95a1.28,1.28,0,0,1-.12.56.92.92,0,0,1-.35.38,1,1,0,0,1-.51.13,1,1,0,0,1-.72-.29A1.16,1.16,0,0,1,124,95Zm.48,0a.84.84,0,0,0,.13.51.45.45,0,0,0,.38.18.43.43,0,0,0,.37-.18,1,1,0,0,0,.13-.55.86.86,0,0,0-.13-.51.47.47,0,0,0-.38-.19.43.43,0,0,0-.37.19A.91.91,0,0,0,124.45,95Z"/><path class="cls-6" d="M127.44,94.39h-.19a.43.43,0,0,0-.44.25v1.44h-.47V94h.45v.24a.53.53,0,0,1,.48-.28.43.43,0,0,1,.17,0Z"/><path class="cls-6" d="M128.44,93.45V94h.37v.35h-.37v1.18a.3.3,0,0,0,0,.18.26.26,0,0,0,.17,0l.17,0v.37a1.15,1.15,0,0,1-.31,0c-.37,0-.55-.2-.55-.6v-1.2h-.35V94H128v-.51Z"/><path class="cls-6" d="M25.19,61.44V63h-.74V58.75h1.63a1.65,1.65,0,0,1,1.14.38,1.23,1.23,0,0,1,.42,1,1.2,1.2,0,0,1-.42,1,1.72,1.72,0,0,1-1.15.35Zm0-.6h.89a.83.83,0,0,0,.6-.19.66.66,0,0,0,.21-.53.75.75,0,0,0-.21-.56.82.82,0,0,0-.58-.21h-.91Z"/><path class="cls-6" d="M29.88,60.5a1.46,1.46,0,0,0-.29,0,.64.64,0,0,0-.66.37V63h-.72V59.85h.68l0,.35a.81.81,0,0,1,.72-.41.62.62,0,0,1,.25,0Z"/><path class="cls-6" d="M30.09,61.4a1.84,1.84,0,0,1,.18-.83,1.34,1.34,0,0,1,.52-.58,1.5,1.5,0,0,1,.77-.2,1.42,1.42,0,0,1,1,.41A1.66,1.66,0,0,1,33,61.3v.17a1.84,1.84,0,0,1-.18.83,1.37,1.37,0,0,1-.51.58,1.53,1.53,0,0,1-.78.2,1.37,1.37,0,0,1-1.07-.45,1.7,1.7,0,0,1-.4-1.19Zm.71.07a1.29,1.29,0,0,0,.2.76.7.7,0,0,0,1.12,0,1.38,1.38,0,0,0,.2-.83,1.24,1.24,0,0,0-.2-.76.69.69,0,0,0-.56-.28.65.65,0,0,0-.56.28A1.43,1.43,0,0,0,30.8,61.47Z"/><path class="cls-6" d="M34.94,62.51a.61.61,0,0,0,.44-.16.52.52,0,0,0,.19-.38h.67a1,1,0,0,1-.19.55,1.22,1.22,0,0,1-.46.41,1.4,1.4,0,0,1-.64.15,1.38,1.38,0,0,1-1.06-.43,1.72,1.72,0,0,1-.39-1.19v-.08a1.65,1.65,0,0,1,.39-1.15,1.34,1.34,0,0,1,1-.44,1.28,1.28,0,0,1,.92.33,1.18,1.18,0,0,1,.38.87h-.67a.62.62,0,0,0-.19-.45.59.59,0,0,0-.44-.18.67.67,0,0,0-.54.25,1.39,1.39,0,0,0-.19.76v.12a1.34,1.34,0,0,0,.19.77A.64.64,0,0,0,34.94,62.51Z"/><path class="cls-6" d="M38.17,63.08a1.46,1.46,0,0,1-1.1-.43,1.53,1.53,0,0,1-.42-1.13v-.09a1.93,1.93,0,0,1,.19-.85,1.37,1.37,0,0,1,.51-.58,1.36,1.36,0,0,1,.74-.21,1.27,1.27,0,0,1,1,.41,1.74,1.74,0,0,1,.35,1.17v.29H37.37a1,1,0,0,0,.26.62.82.82,0,0,0,.58.23,1,1,0,0,0,.8-.4l.38.37a1.16,1.16,0,0,1-.51.44A1.49,1.49,0,0,1,38.17,63.08Zm-.08-2.72a.6.6,0,0,0-.48.21,1.07,1.07,0,0,0-.23.57h1.36v-.06a.94.94,0,0,0-.19-.54A.6.6,0,0,0,38.09,60.36Z"/><path class="cls-6" d="M41.77,62.16a.32.32,0,0,0-.15-.29,1.61,1.61,0,0,0-.52-.18,2.45,2.45,0,0,1-.61-.19.8.8,0,0,1-.53-.75.83.83,0,0,1,.34-.68,1.35,1.35,0,0,1,.88-.28,1.4,1.4,0,0,1,.92.28.9.9,0,0,1,.35.73h-.71a.43.43,0,0,0-.15-.34.62.62,0,0,0-.41-.14.63.63,0,0,0-.38.11.34.34,0,0,0-.15.29.3.3,0,0,0,.14.26,1.91,1.91,0,0,0,.55.18,2.41,2.41,0,0,1,.66.22.92.92,0,0,1,.36.31.81.81,0,0,1,.11.43.83.83,0,0,1-.35.69,1.51,1.51,0,0,1-.93.27,1.67,1.67,0,0,1-.69-.14,1.18,1.18,0,0,1-.48-.39.93.93,0,0,1-.17-.53h.69a.52.52,0,0,0,.19.39.77.77,0,0,0,.47.13.74.74,0,0,0,.43-.1A.35.35,0,0,0,41.77,62.16Z"/><path class="cls-6" d="M44.87,62.16a.31.31,0,0,0-.16-.29,1.53,1.53,0,0,0-.52-.18,2.5,2.5,0,0,1-.6-.19.81.81,0,0,1-.54-.75.84.84,0,0,1,.35-.68,1.33,1.33,0,0,1,.88-.28,1.42,1.42,0,0,1,.92.28.9.9,0,0,1,.35.73h-.72a.43.43,0,0,0-.15-.34.57.57,0,0,0-.4-.14.67.67,0,0,0-.39.11.36.36,0,0,0-.14.29.29.29,0,0,0,.13.26,2,2,0,0,0,.56.18,2.41,2.41,0,0,1,.66.22.83.83,0,0,1,.35.31.73.73,0,0,1,.12.43.83.83,0,0,1-.35.69,1.51,1.51,0,0,1-.93.27,1.75,1.75,0,0,1-.7-.14,1.22,1.22,0,0,1-.47-.39A.86.86,0,0,1,43,62h.69a.49.49,0,0,0,.19.39.75.75,0,0,0,.47.13.71.71,0,0,0,.42-.1A.33.33,0,0,0,44.87,62.16Z"/><path class="cls-6" d="M46.19,59a.4.4,0,0,1,.1-.28A.41.41,0,0,1,47,59a.36.36,0,0,1-.11.26.46.46,0,0,1-.6,0A.35.35,0,0,1,46.19,59ZM47,63h-.72V59.85H47Z"/><path class="cls-6" d="M48.38,59.85l0,.36a1.15,1.15,0,0,1,.93-.42c.66,0,1,.38,1,1.13V63h-.71V61a.63.63,0,0,0-.13-.44.55.55,0,0,0-.43-.15.69.69,0,0,0-.64.39V63h-.71V59.85Z"/><path class="cls-6" d="M50.93,61.41a1.88,1.88,0,0,1,.35-1.18,1.12,1.12,0,0,1,.92-.44,1,1,0,0,1,.85.38l0-.32h.64v3.07a1.28,1.28,0,0,1-.39,1,1.49,1.49,0,0,1-1.05.36,1.64,1.64,0,0,1-.68-.15,1.09,1.09,0,0,1-.5-.38l.33-.43a1,1,0,0,0,.81.39.76.76,0,0,0,.56-.19A.72.72,0,0,0,53,63v-.22a1.06,1.06,0,0,1-.82.35,1.1,1.1,0,0,1-.91-.45A1.87,1.87,0,0,1,50.93,61.41Zm.71.06a1.26,1.26,0,0,0,.2.75.61.61,0,0,0,.54.28.7.7,0,0,0,.64-.37v-1.4a.69.69,0,0,0-.64-.36.64.64,0,0,0-.54.28A1.44,1.44,0,0,0,51.64,61.47Z"/><path class="cls-6" d="M58.25,61.92a.49.49,0,0,0-.2-.43,2.09,2.09,0,0,0-.71-.31,3.19,3.19,0,0,1-.82-.35,1.08,1.08,0,0,1-.58-.95,1,1,0,0,1,.42-.85,1.71,1.71,0,0,1,1.09-.34,1.8,1.8,0,0,1,.79.17A1.26,1.26,0,0,1,59,60h-.74a.66.66,0,0,0-.21-.52.85.85,0,0,0-.6-.19.91.91,0,0,0-.56.15.53.53,0,0,0-.2.44.47.47,0,0,0,.22.39,2.61,2.61,0,0,0,.71.3,3.2,3.2,0,0,1,.8.34,1.21,1.21,0,0,1,.44.43,1.07,1.07,0,0,1,.14.57,1,1,0,0,1-.41.85,1.75,1.75,0,0,1-1.1.32,2.2,2.2,0,0,1-.86-.17,1.52,1.52,0,0,1-.6-.48,1.18,1.18,0,0,1-.21-.7h.74a.68.68,0,0,0,.24.56,1.07,1.07,0,0,0,.69.2.89.89,0,0,0,.58-.16A.49.49,0,0,0,58.25,61.92Z"/><path class="cls-6" d="M60.68,62l.65-2.15h.76L60.83,63.5a1,1,0,0,1-1,.8,1.55,1.55,0,0,1-.34,0v-.56h.13a.67.67,0,0,0,.41-.1.66.66,0,0,0,.22-.33l.1-.27-1.11-3.15H60Z"/><path class="cls-6" d="M64.27,62.16a.32.32,0,0,0-.15-.29,1.61,1.61,0,0,0-.52-.18A2.45,2.45,0,0,1,63,61.5a.8.8,0,0,1-.53-.75.83.83,0,0,1,.34-.68,1.35,1.35,0,0,1,.88-.28,1.4,1.4,0,0,1,.92.28.9.9,0,0,1,.35.73h-.71a.43.43,0,0,0-.15-.34.62.62,0,0,0-.41-.14.63.63,0,0,0-.38.11.34.34,0,0,0-.15.29.3.3,0,0,0,.14.26,1.91,1.91,0,0,0,.55.18,2.41,2.41,0,0,1,.66.22.92.92,0,0,1,.36.31.81.81,0,0,1,.11.43.83.83,0,0,1-.35.69,1.51,1.51,0,0,1-.93.27,1.67,1.67,0,0,1-.69-.14,1.18,1.18,0,0,1-.48-.39.93.93,0,0,1-.17-.53H63a.52.52,0,0,0,.19.39.77.77,0,0,0,.47.13.74.74,0,0,0,.43-.1A.35.35,0,0,0,64.27,62.16Z"/><path class="cls-6" d="M66.48,59.08v.77H67v.53h-.56v1.77a.38.38,0,0,0,.08.26.32.32,0,0,0,.25.08,1.07,1.07,0,0,0,.25,0V63a2,2,0,0,1-.47.07c-.54,0-.82-.3-.82-.91V60.38h-.52v-.53h.52v-.77Z"/><path class="cls-6" d="M69,63.08a1.44,1.44,0,0,1-1.09-.43,1.53,1.53,0,0,1-.42-1.13v-.09a1.93,1.93,0,0,1,.18-.85,1.37,1.37,0,0,1,.51-.58,1.36,1.36,0,0,1,.74-.21,1.25,1.25,0,0,1,1,.41,1.74,1.74,0,0,1,.36,1.17v.29H68.18a1,1,0,0,0,.27.62.78.78,0,0,0,.57.23,1,1,0,0,0,.8-.4l.39.37a1.28,1.28,0,0,1-.51.44A1.55,1.55,0,0,1,69,63.08Zm-.08-2.72a.58.58,0,0,0-.47.21.93.93,0,0,0-.23.57h1.35v-.06a.88.88,0,0,0-.19-.54A.59.59,0,0,0,68.9,60.36Z"/><path class="cls-6" d="M71.48,59.85l0,.33a1.12,1.12,0,0,1,.91-.39.86.86,0,0,1,.87.49,1.12,1.12,0,0,1,1-.49,1,1,0,0,1,.78.29,1.26,1.26,0,0,1,.27.86V63h-.71V61a.64.64,0,0,0-.14-.45.57.57,0,0,0-.43-.14.62.62,0,0,0-.4.13.8.8,0,0,0-.22.34V63H72.7V60.93a.51.51,0,0,0-.58-.56.63.63,0,0,0-.6.35V63h-.71V59.85Z"/><path class="cls-6" d="M25,121.18v1.58h-.74V118.5h1.63a1.62,1.62,0,0,1,1.13.37,1.26,1.26,0,0,1,.42,1,1.19,1.19,0,0,1-.41,1,1.74,1.74,0,0,1-1.15.35Zm0-.6h.89a.9.9,0,0,0,.6-.18.7.7,0,0,0,.21-.54.72.72,0,0,0-.21-.55.83.83,0,0,0-.58-.22H25Z"/><path class="cls-6" d="M29.71,120.24l-.29,0a.66.66,0,0,0-.66.37v2.17h-.71v-3.17h.68l0,.36a.8.8,0,0,1,.71-.42.89.89,0,0,1,.26,0Z"/><path class="cls-6" d="M29.92,121.15a1.92,1.92,0,0,1,.19-.84,1.33,1.33,0,0,1,.52-.58,1.49,1.49,0,0,1,.76-.2,1.39,1.39,0,0,1,1,.42,1.63,1.63,0,0,1,.43,1.09v.17a1.92,1.92,0,0,1-.18.84,1.41,1.41,0,0,1-.51.57,1.56,1.56,0,0,1-.78.2,1.35,1.35,0,0,1-1.07-.45,1.69,1.69,0,0,1-.41-1.19Zm.72.06a1.21,1.21,0,0,0,.2.76A.7.7,0,0,0,32,122a1.44,1.44,0,0,0,.2-.82,1.29,1.29,0,0,0-.2-.76.69.69,0,0,0-1.12,0A1.38,1.38,0,0,0,30.64,121.21Z"/><path class="cls-6" d="M33.35,121.15A1.82,1.82,0,0,1,33.7,120a1.11,1.11,0,0,1,.92-.44,1.05,1.05,0,0,1,.85.38l0-.32h.64v3.08a1.3,1.3,0,0,1-.38,1,1.49,1.49,0,0,1-1,.36,1.64,1.64,0,0,1-.68-.15,1.19,1.19,0,0,1-.51-.37l.34-.43a1,1,0,0,0,.81.39.8.8,0,0,0,.56-.2.73.73,0,0,0,.2-.56v-.21a1,1,0,0,1-.82.34,1.13,1.13,0,0,1-.91-.44A2,2,0,0,1,33.35,121.15Zm.71.06a1.32,1.32,0,0,0,.19.76.63.63,0,0,0,.54.27.68.68,0,0,0,.64-.37v-1.39a.66.66,0,0,0-.63-.36.63.63,0,0,0-.55.27A1.44,1.44,0,0,0,34.06,121.21Z"/><path class="cls-6" d="M38.53,120.24l-.29,0a.64.64,0,0,0-.65.37v2.17h-.72v-3.17h.68l0,.36a.8.8,0,0,1,.72-.42.87.87,0,0,1,.25,0Z"/><path class="cls-6" d="M40.79,122.76a1,1,0,0,1-.08-.29,1.14,1.14,0,0,1-.83.35,1.12,1.12,0,0,1-.78-.27.88.88,0,0,1-.3-.68.89.89,0,0,1,.37-.77,1.83,1.83,0,0,1,1.08-.27h.43v-.21a.57.57,0,0,0-.13-.4.53.53,0,0,0-.42-.14.63.63,0,0,0-.4.12.38.38,0,0,0-.16.31h-.71A.76.76,0,0,1,39,120a1.16,1.16,0,0,1,.47-.36,1.73,1.73,0,0,1,.66-.13,1.37,1.37,0,0,1,.89.28,1,1,0,0,1,.34.79V122a1.63,1.63,0,0,0,.12.68v.05Zm-.78-.51a.87.87,0,0,0,.39-.1.63.63,0,0,0,.28-.28v-.6H40.3a1,1,0,0,0-.59.14.43.43,0,0,0-.2.39.42.42,0,0,0,.13.33A.55.55,0,0,0,40,122.25Z"/><path class="cls-6" d="M42.81,119.59l0,.33a1.14,1.14,0,0,1,.92-.39.89.89,0,0,1,.87.49,1.13,1.13,0,0,1,1-.49,1,1,0,0,1,.78.29,1.28,1.28,0,0,1,.26.86v2.08h-.71V120.7a.61.61,0,0,0-.13-.44.57.57,0,0,0-.44-.14.6.6,0,0,0-.4.13.66.66,0,0,0-.21.34v2.17H44v-2.08a.5.5,0,0,0-.57-.56.63.63,0,0,0-.61.34v2.3h-.71v-3.17Z"/><path class="cls-6" d="M48,119.59l0,.33a1.16,1.16,0,0,1,.92-.39.89.89,0,0,1,.87.49,1.13,1.13,0,0,1,1-.49,1,1,0,0,1,.78.29,1.28,1.28,0,0,1,.26.86v2.08h-.71V120.7a.61.61,0,0,0-.13-.44.7.7,0,0,0-.83,0,.62.62,0,0,0-.22.34v2.17h-.71v-2.08a.5.5,0,0,0-.57-.56.63.63,0,0,0-.61.34v2.3h-.71v-3.17Z"/><path class="cls-6" d="M54.48,122.76a1,1,0,0,1-.08-.29,1.22,1.22,0,0,1-1.62.08.88.88,0,0,1-.3-.68.9.9,0,0,1,.38-.77,1.83,1.83,0,0,1,1.08-.27h.43v-.21a.49.49,0,0,0-.55-.54.62.62,0,0,0-.4.12.36.36,0,0,0-.16.31h-.71a.81.81,0,0,1,.17-.49,1.23,1.23,0,0,1,.47-.36,1.78,1.78,0,0,1,.67-.13,1.34,1.34,0,0,1,.88.28,1,1,0,0,1,.34.79V122a1.63,1.63,0,0,0,.12.68v.05Zm-.78-.51a.87.87,0,0,0,.39-.1.63.63,0,0,0,.28-.28v-.6H54a1.08,1.08,0,0,0-.6.14.45.45,0,0,0-.2.39.42.42,0,0,0,.14.33A.53.53,0,0,0,53.7,122.25Z"/><path class="cls-6" d="M58.61,121.21a1.89,1.89,0,0,1-.33,1.17,1.07,1.07,0,0,1-.9.44,1,1,0,0,1-.87-.4l0,.34h-.64v-4.5h.71v1.64a1,1,0,0,1,.83-.37,1.1,1.1,0,0,1,.91.43,2,2,0,0,1,.33,1.21Zm-.71-.06a1.38,1.38,0,0,0-.18-.78.61.61,0,0,0-.53-.25.66.66,0,0,0-.65.4v1.31a.68.68,0,0,0,.66.41.58.58,0,0,0,.51-.25,1.27,1.27,0,0,0,.19-.75Z"/><path class="cls-6" d="M60,122.76h-.72v-4.5H60Z"/><path class="cls-6" d="M62.14,122.82a1.45,1.45,0,0,1-1.1-.43,1.53,1.53,0,0,1-.42-1.13v-.09a1.93,1.93,0,0,1,.18-.85,1.39,1.39,0,0,1,1.25-.79,1.22,1.22,0,0,1,1,.42,1.71,1.71,0,0,1,.36,1.17v.28H61.34a.91.91,0,0,0,.26.62.75.75,0,0,0,.58.23,1,1,0,0,0,.79-.39l.39.36a1.28,1.28,0,0,1-.51.44A1.51,1.51,0,0,1,62.14,122.82Zm-.09-2.72a.59.59,0,0,0-.47.21,1.06,1.06,0,0,0-.23.57H62.7v0a.78.78,0,0,0-.19-.54A.59.59,0,0,0,62.05,120.1Z"/><path class="cls-6" d="M66.26,122.17H68.2v.59H65.52V118.5h.74Z"/><path class="cls-6" d="M68.57,121.15a1.92,1.92,0,0,1,.18-.84,1.4,1.4,0,0,1,.52-.58,1.5,1.5,0,0,1,.77-.2,1.37,1.37,0,0,1,1,.42,1.63,1.63,0,0,1,.43,1.09v.17a1.92,1.92,0,0,1-.18.84,1.41,1.41,0,0,1-.51.57,1.53,1.53,0,0,1-.78.2,1.37,1.37,0,0,1-1.07-.45,1.68,1.68,0,0,1-.4-1.19Zm.71.06a1.27,1.27,0,0,0,.2.76.65.65,0,0,0,.56.28.64.64,0,0,0,.56-.28,1.36,1.36,0,0,0,.2-.82,1.23,1.23,0,0,0-.2-.76.69.69,0,0,0-1.12,0A1.45,1.45,0,0,0,69.28,121.21Z"/><path class="cls-6" d="M72,121.15a1.88,1.88,0,0,1,.35-1.18,1.12,1.12,0,0,1,.92-.44,1,1,0,0,1,.85.38l0-.32h.65v3.08a1.27,1.27,0,0,1-.39,1,1.49,1.49,0,0,1-1.05.36,1.64,1.64,0,0,1-.68-.15,1.25,1.25,0,0,1-.51-.37l.34-.43a1,1,0,0,0,.81.39.78.78,0,0,0,.56-.2.7.7,0,0,0,.2-.56v-.21a1,1,0,0,1-.82.34,1.13,1.13,0,0,1-.91-.44A2,2,0,0,1,72,121.15Zm.71.06a1.32,1.32,0,0,0,.19.76.65.65,0,0,0,.55.27.66.66,0,0,0,.63-.37v-1.39a.66.66,0,0,0-.63-.36.65.65,0,0,0-.55.27A1.44,1.44,0,0,0,72.7,121.21Z"/><path class="cls-6" d="M75.52,118.77a.36.36,0,0,1,.1-.27.46.46,0,0,1,.6,0,.36.36,0,0,1,.1.27.38.38,0,0,1-.1.27.5.5,0,0,1-.6,0A.38.38,0,0,1,75.52,118.77Zm.75,4h-.71v-3.17h.71Z"/><path class="cls-6" d="M78.35,122.25a.63.63,0,0,0,.44-.15.54.54,0,0,0,.19-.39h.67a1.09,1.09,0,0,1-.18.55,1.17,1.17,0,0,1-.47.41,1.4,1.4,0,0,1-.64.15,1.34,1.34,0,0,1-1-.43,1.71,1.71,0,0,1-.39-1.19v-.07A1.71,1.71,0,0,1,77.3,120a1.35,1.35,0,0,1,1.06-.44,1.31,1.31,0,0,1,.92.33,1.17,1.17,0,0,1,.37.87H79a.7.7,0,0,0-.18-.45.61.61,0,0,0-.45-.18.63.63,0,0,0-.53.25,1.27,1.27,0,0,0-.19.77v.11a1.35,1.35,0,0,0,.18.77A.64.64,0,0,0,78.35,122.25Z"/><rect class="cls-5" x="100.58" y="151.67" width="35.11" height="7.77"/><path class="cls-6" d="M116.46,156.83a1,1,0,0,1-.42.3,1.77,1.77,0,0,1-.63.11,1.24,1.24,0,0,1-.63-.17,1,1,0,0,1-.42-.46,1.72,1.72,0,0,1-.16-.7v-.23a1.46,1.46,0,0,1,.31-1,1.05,1.05,0,0,1,.86-.37,1.14,1.14,0,0,1,.76.24,1,1,0,0,1,.33.68H116a.55.55,0,0,0-.6-.52.57.57,0,0,0-.5.24,1.15,1.15,0,0,0-.18.7v.22a1.16,1.16,0,0,0,.19.72.64.64,0,0,0,.54.25.74.74,0,0,0,.54-.17v-.56h-.59v-.37h1.08Z"/><path class="cls-6" d="M117.5,156.14v1.06H117v-2.85h1.08a1.14,1.14,0,0,1,.76.25.84.84,0,0,1,.28.66.82.82,0,0,1-.27.65,1.2,1.2,0,0,1-.77.23Zm0-.4h.59a.63.63,0,0,0,.41-.12.45.45,0,0,0,.13-.36.48.48,0,0,0-.14-.37.52.52,0,0,0-.38-.14h-.61Z"/><path class="cls-6" d="M120.08,157.2h-.49v-2.85h.49Z"/><path class="cls-6" d="M123,155.85a1.83,1.83,0,0,1-.14.73,1.19,1.19,0,0,1-.42.49,1.2,1.2,0,0,1-1.23,0,1.19,1.19,0,0,1-.42-.49,1.59,1.59,0,0,1-.15-.72v-.16a1.7,1.7,0,0,1,.15-.73,1.19,1.19,0,0,1,.42-.49,1.12,1.12,0,0,1,.61-.17,1.18,1.18,0,0,1,.62.17,1,1,0,0,1,.41.48,1.67,1.67,0,0,1,.15.73Zm-.49-.15a1.21,1.21,0,0,0-.18-.72.59.59,0,0,0-.51-.26.6.6,0,0,0-.5.25,1.22,1.22,0,0,0-.18.71v.17a1.24,1.24,0,0,0,.18.72.59.59,0,0,0,.51.26.58.58,0,0,0,.5-.25,1.25,1.25,0,0,0,.18-.73Z"/><rect class="cls-5" x="100.87" y="141.67" width="35.11" height="7.77"/><path class="cls-6" d="M113.56,147.2v-2.85h1a1.18,1.18,0,0,1,.73.2.66.66,0,0,1,.25.57.6.6,0,0,1-.1.35.65.65,0,0,1-.31.25.68.68,0,0,1,.36.23.74.74,0,0,1,.12.42.75.75,0,0,1-.25.61,1.16,1.16,0,0,1-.74.22Zm.5-1.65h.48a.53.53,0,0,0,.36-.1.35.35,0,0,0,.13-.3.39.39,0,0,0-.12-.31.61.61,0,0,0-.37-.09h-.48Zm0,.36v.89h.55a.57.57,0,0,0,.36-.11.46.46,0,0,0-.32-.78Z"/><path class="cls-6" d="M117.13,146.1h-.55v1.1h-.49v-2.85h1a1.23,1.23,0,0,1,.76.22.81.81,0,0,1,.26.64.82.82,0,0,1-.13.48.91.91,0,0,1-.39.3l.64,1.18v0h-.53Zm-.55-.4h.51a.59.59,0,0,0,.39-.12.47.47,0,0,0,.14-.35.45.45,0,0,0-.13-.35.57.57,0,0,0-.39-.13h-.52Z"/><path class="cls-6" d="M120.17,146.53h-1.1l-.23.67h-.51l1.07-2.85h.45l1.07,2.85h-.51Zm-1-.39H120l-.42-1.18Z"/><path class="cls-6" d="M121.88,144.35l.83,2.18.81-2.18h.64v2.85h-.49v-.94l0-1.26-.84,2.2h-.35l-.84-2.19,0,1.25v.94h-.5v-2.85Z"/><path class="cls-6" d="M52.42,39.5a.66.66,0,1,1-.66.66.65.65,0,0,1,.66-.66Zm0,.13a.51.51,0,0,0-.49.53.5.5,0,0,0,.5.52.49.49,0,0,0,.48-.52.51.51,0,0,0-.48-.53Zm-.1.87h-.15v-.65a1.31,1.31,0,0,1,.25,0,.36.36,0,0,1,.22.06s.06.07.06.14a.16.16,0,0,1-.13.15h0c.06,0,.09.07.11.16a.58.58,0,0,0,0,.16h-.15a.44.44,0,0,1-.06-.16c0-.07,0-.1-.13-.1h-.07Zm0-.37h.07c.08,0,.14,0,.14-.1s0-.1-.13-.1h-.08Z"/><polygon class="cls-6" points="47.9 37.68 50.58 40.82 51.64 40.82 48.96 37.68 47.9 37.68"/><path class="cls-6" d="M17.8,39.66h6.06v.88H16.44v-.65L22.66,31H16.81v-.89h7.13v.68Z"/><path class="cls-6" d="M29.14,36.24v4.3H28.2v-4.3l-3.76-6.09h1.13l3.12,5.17,3.24-5.17h1.16Z"/><path class="cls-6" d="M40.61,40.54l-5.92-9v9h-.94V30.15h.94l6,8.89s-.07-8.67-.07-8.89h.94V40.54Z"/><path class="cls-6" d="M49.84,39.57a3.86,3.86,0,0,1-3,1.23c-3.34,0-4.37-3.06-4.37-5.35,0-3.13,1.6-5.56,4.46-5.56,3.2,0,4.26,3,4.26,5.34a7.35,7.35,0,0,1-.86,3.59m-3.45-8.08c-2.67,0-3.41,2.74-3.41,4.68,0,1.34.42,4.54,3.37,4.54,2.1,0,3.37-1.79,3.37-4.56C50.24,33.91,49.8,30.74,46.91,30.74Z"/><polygon class="cls-6" points="48.9 26.2 52.34 30.27 57.38 30.27 53.95 26.2 48.9 26.2"/><polygon class="cls-6" points="54.08 34.38 57.52 30.31 62.56 30.31 59.13 34.38 54.08 34.38"/><path class="cls-6" d="M30.86,45c0,.75-.27,1.35-1.23,1.35a1.14,1.14,0,0,1-1.23-1.28V42.89h.31v2.28a.82.82,0,0,0,.93.89c.58,0,.91-.27.91-1v-2.2h.31Z"/><path class="cls-6" d="M31.58,46.28V42.89h.28v3.39Z"/><path class="cls-6" d="M33,45.79c0,.13,0,.28.18.28a.56.56,0,0,0,.31-.15v.29a.58.58,0,0,1-.37.11.34.34,0,0,1-.35-.21,1.35,1.35,0,0,1,0-.37V44.23h-.46V44h.46V43H33v1h.49v.24H33Z"/><path class="cls-6" d="M34.19,44v.36a.63.63,0,0,1,.61-.4H35v.26l-.17,0c-.48,0-.63.36-.63.82v1.26h-.27V44Z"/><path class="cls-6" d="M37.27,46.28c-.37,0-.55-.1-.55-.42a.78.78,0,0,1-.78.46.62.62,0,0,1-.7-.62c0-.46.38-.62,1.11-.79l.37-.09v-.18c0-.22-.1-.46-.51-.46s-.6.18-.6.55l-.31,0a.8.8,0,0,1,.87-.75c.39,0,.82.12.82.69v1c0,.31,0,.43.29.43h0v.23Zm-.55-1.21-.13,0c-.76.21-1.09.26-1.09.59a.4.4,0,0,0,.45.38.74.74,0,0,0,.77-.83Z"/><path class="cls-6" d="M39.69,43.7a1.11,1.11,0,0,0-.14-.29.84.84,0,0,0-.72-.35c-.57,0-.77.33-.77.61,0,.44.38.55.7.63l.32.09c.59.16,1,.43,1,1a.94.94,0,0,1-.4.77,1.36,1.36,0,0,1-.83.24,1.12,1.12,0,0,1-1.22-.94l.31-.17a.8.8,0,0,0,.08.38.84.84,0,0,0,.83.45c.61,0,.91-.34.91-.72s-.23-.55-.7-.68l-.37-.1c-.38-.1-.89-.28-.89-.9s.33-.88,1.08-.88a1.11,1.11,0,0,1,1.14.74Z"/><path class="cls-6" d="M42.77,43.84a.89.89,0,0,0-1-.76c-1,0-1.08,1-1.08,1.48s.1,1.51,1.14,1.51a.88.88,0,0,0,.89-.72l.3.19a1.23,1.23,0,0,1-1.22.82c-1.16,0-1.44-1-1.44-1.76s.24-1.8,1.4-1.8a1.23,1.23,0,0,1,1.28.88Z"/><path class="cls-6" d="M45.91,46.28l-.38-1H44.06l-.38,1h-.35l1.35-3.39h.26l1.31,3.39Zm-1.11-3L44.16,45h1.28Z"/><path class="cls-6" d="M46.68,46.28V42.89H47V46h1.81v.3Z"/><path class="cls-6" d="M49.3,46.28V42.89h2.15v.29H49.61v1.21h1.67v.3H49.61V46h2v.3Z"/><path class="cls-6" d="M53.5,44.31v1h-.38v-1h-1V44h1V43h.38v1h1v.34Z"/></g></g></svg>