<svg xmlns="http://www.w3.org/2000/svg" viewBox="0 0 160.75 180.64"><defs><style>.cls-1{fill:#6a6b6d;}.cls-2{fill:#e4ebed;stroke:#231f20;stroke-miterlimit:10;stroke-width:0.5px;}.cls-3{fill:#de1f26;}.cls-4{fill:#282d3f;}.cls-5{fill:#fff;}.cls-6{fill:#811517;}</style></defs><title>Asset 8</title><g id="Layer_2" data-name="Layer 2"><g id="Layer_1-2" data-name="Layer 1"><path class="cls-1" d="M1.74,5.13h3v.78H.56V5.28l2.9-4.19H.58V.31H4.64V.92Z"/><path class="cls-1" d="M6.83,4.57l.84-2.82h1L7,6.54a1.34,1.34,0,0,1-1.29,1,1.6,1.6,0,0,1-.45-.07V6.8h.18A1,1,0,0,0,6,6.68a.81.81,0,0,0,.28-.43l.14-.36L4.94,1.75h1Z"/><path class="cls-1" d="M10.07,1.75l0,.48a1.5,1.5,0,0,1,1.21-.56c.87,0,1.31.5,1.33,1.49V5.91H11.7V3.21a.85.85,0,0,0-.17-.58A.7.7,0,0,0,11,2.44a.89.89,0,0,0-.84.51v3H9.19V1.75Z"/><path class="cls-1" d="M13.41,3.79a2.46,2.46,0,0,1,.45-1.55,1.46,1.46,0,0,1,1.21-.57,1.35,1.35,0,0,1,1.1.49l.06-.41h.83V7.51h-.94V5.56A1.41,1.41,0,0,1,15.06,6a1.46,1.46,0,0,1-1.2-.58A2.6,2.6,0,0,1,13.41,3.79Zm.94.09a1.72,1.72,0,0,0,.25,1,.81.81,0,0,0,.7.36.89.89,0,0,0,.82-.47V2.88a.87.87,0,0,0-.81-.46.81.81,0,0,0-.7.36A1.82,1.82,0,0,0,14.35,3.88Z"/><path class="cls-1" d="M24.21.31V4.05a1.83,1.83,0,0,1-.57,1.42,2.5,2.5,0,0,1-3.05,0A1.83,1.83,0,0,1,20,4.05V.31h1V4.06a1.16,1.16,0,0,0,.28.85,1.1,1.1,0,0,0,.84.3c.75,0,1.13-.39,1.13-1.18V.31Z"/><path class="cls-1" d="M26.16,5.91h-.94V0h.94Z"/><path class="cls-1" d="M28.35.74v1h.73v.69h-.73V4.76a.54.54,0,0,0,.09.35.46.46,0,0,0,.34.1,1.84,1.84,0,0,0,.33,0V5.9a2.32,2.32,0,0,1-.62.09c-.72,0-1.08-.4-1.08-1.19V2.44h-.68V1.75h.68v-1Z"/><path class="cls-1" d="M32,2.6a2.43,2.43,0,0,0-.38,0,.87.87,0,0,0-.87.49V5.91H29.8V1.75h.89l0,.46a1.06,1.06,0,0,1,.94-.54,1,1,0,0,1,.33.05Z"/><path class="cls-1" d="M34.94,5.91a1.45,1.45,0,0,1-.11-.39A1.46,1.46,0,0,1,33.74,6a1.44,1.44,0,0,1-1-.36,1.12,1.12,0,0,1-.4-.88,1.19,1.19,0,0,1,.49-1,2.46,2.46,0,0,1,1.42-.35h.57V3.09a.72.72,0,0,0-.18-.51.71.71,0,0,0-.55-.2.85.85,0,0,0-.52.16.49.49,0,0,0-.21.41h-.93a1,1,0,0,1,.22-.64,1.55,1.55,0,0,1,.62-.47,2.21,2.21,0,0,1,.87-.17A1.73,1.73,0,0,1,35.29,2a1.31,1.31,0,0,1,.45,1V5a2.28,2.28,0,0,0,.15.9v.06Zm-1-.67a1,1,0,0,0,.52-.14.86.86,0,0,0,.37-.36V4h-.5a1.36,1.36,0,0,0-.78.18.58.58,0,0,0-.27.51.55.55,0,0,0,.18.43A.73.73,0,0,0,33.91,5.24Z"/><path class="cls-1" d="M39.73,4.47a.65.65,0,0,0-.26-.57,3,3,0,0,0-.93-.41A4.28,4.28,0,0,1,37.46,3a1.44,1.44,0,0,1-.77-1.25A1.36,1.36,0,0,1,37.25.67,2.24,2.24,0,0,1,38.68.23a2.31,2.31,0,0,1,1,.22,1.6,1.6,0,0,1,.72.61,1.54,1.54,0,0,1,.26.88h-1a.87.87,0,0,0-.27-.68A1.12,1.12,0,0,0,38.67,1a1.23,1.23,0,0,0-.74.2.7.7,0,0,0-.26.57A.62.62,0,0,0,38,2.3a3.62,3.62,0,0,0,.94.4,4,4,0,0,1,1,.44,1.51,1.51,0,0,1,.58.57,1.39,1.39,0,0,1,.19.75,1.31,1.31,0,0,1-.54,1.11A2.3,2.3,0,0,1,38.71,6a2.72,2.72,0,0,1-1.11-.23,1.86,1.86,0,0,1-.8-.62,1.59,1.59,0,0,1-.28-.92h1a.91.91,0,0,0,.31.74,1.4,1.4,0,0,0,.9.26A1.2,1.2,0,0,0,39.48,5,.65.65,0,0,0,39.73,4.47Z"/><path class="cls-1" d="M43.18,5.24a.85.85,0,0,0,.58-.2A.7.7,0,0,0,44,4.53h.88a1.41,1.41,0,0,1-.24.73,1.61,1.61,0,0,1-.62.53,1.86,1.86,0,0,1-.84.2,1.76,1.76,0,0,1-1.38-.57,2.26,2.26,0,0,1-.51-1.56v-.1a2.24,2.24,0,0,1,.5-1.52,1.78,1.78,0,0,1,1.39-.57,1.69,1.69,0,0,1,1.21.43,1.54,1.54,0,0,1,.49,1.14H44a.88.88,0,0,0-.24-.59.82.82,0,0,0-.59-.23.83.83,0,0,0-.7.33,1.69,1.69,0,0,0-.25,1V3.9a1.65,1.65,0,0,0,.25,1A.82.82,0,0,0,43.18,5.24Z"/><path class="cls-1" d="M48.09,5.91A1.16,1.16,0,0,1,48,5.52a1.57,1.57,0,0,1-2.12.11,1.16,1.16,0,0,1-.4-.88,1.2,1.2,0,0,1,.5-1,2.45,2.45,0,0,1,1.41-.35H48V3.09a.72.72,0,0,0-.18-.51.75.75,0,0,0-.56-.2.87.87,0,0,0-.52.16.51.51,0,0,0-.2.41h-.94a1,1,0,0,1,.23-.64,1.48,1.48,0,0,1,.62-.47,2.21,2.21,0,0,1,.87-.17A1.68,1.68,0,0,1,48.43,2a1.31,1.31,0,0,1,.45,1V5a2.1,2.1,0,0,0,.16.9v.06Zm-1-.67a1.07,1.07,0,0,0,.52-.14A1,1,0,0,0,48,4.74V4h-.51a1.41,1.41,0,0,0-.78.18.59.59,0,0,0-.26.51.55.55,0,0,0,.18.43A.73.73,0,0,0,47.06,5.24Z"/><path class="cls-1" d="M50.86,5.91h-.94V0h.94Z"/><path class="cls-1" d="M53.71,6a1.92,1.92,0,0,1-1.44-.56,2,2,0,0,1-.56-1.49V3.82A2.48,2.48,0,0,1,52,2.71a1.89,1.89,0,0,1,.68-.77,1.79,1.79,0,0,1,1-.27,1.63,1.63,0,0,1,1.31.54,2.3,2.3,0,0,1,.47,1.54v.37H52.66a1.21,1.21,0,0,0,.34.82,1,1,0,0,0,.76.3,1.26,1.26,0,0,0,1.05-.52l.5.48a1.72,1.72,0,0,1-.67.58A2,2,0,0,1,53.71,6ZM53.6,2.42a.8.8,0,0,0-.63.27,1.52,1.52,0,0,0-.3.75h1.78V3.37a1.12,1.12,0,0,0-.25-.71A.77.77,0,0,0,53.6,2.42Z"/><path class="cls-1" d="M58.26,2.83h1.47v.85H58.26V5.35h-.91V3.68H55.88V2.83h1.47V1.27h.91Z"/><path class="cls-1" d="M63.52,3.83V5.91h-1V.31h2.14A2.14,2.14,0,0,1,66.18.8a1.62,1.62,0,0,1,.55,1.29,1.61,1.61,0,0,1-.54,1.29,2.29,2.29,0,0,1-1.51.45Zm0-.78h1.17a1.1,1.1,0,0,0,.79-.25.89.89,0,0,0,.28-.7,1,1,0,0,0-.28-.73,1.1,1.1,0,0,0-.76-.28h-1.2Z"/><path class="cls-1" d="M69.67,2.6a2.34,2.34,0,0,0-.38,0,.85.85,0,0,0-.86.49V5.91h-.94V1.75h.89l0,.46a1.09,1.09,0,0,1,1.27-.49Z"/><path class="cls-1" d="M72,6a2,2,0,0,1-1.44-.56A2,2,0,0,1,70,3.94V3.82a2.48,2.48,0,0,1,.24-1.11A1.89,1.89,0,0,1,71,1.94a1.79,1.79,0,0,1,1-.27,1.64,1.64,0,0,1,1.31.54,2.3,2.3,0,0,1,.46,1.54v.37H71a1.27,1.27,0,0,0,.35.82,1,1,0,0,0,.76.3,1.23,1.23,0,0,0,1-.52l.51.48a1.72,1.72,0,0,1-.67.58A2.06,2.06,0,0,1,72,6Zm-.11-3.57a.8.8,0,0,0-.62.27,1.35,1.35,0,0,0-.3.75h1.78V3.37a1.12,1.12,0,0,0-.25-.71A.79.79,0,0,0,71.91,2.42Z"/><path class="cls-1" d="M76.75,4.78a.43.43,0,0,0-.2-.38,2,2,0,0,0-.69-.23,3.32,3.32,0,0,1-.79-.26,1,1,0,0,1-.7-1,1.11,1.11,0,0,1,.45-.9A1.81,1.81,0,0,1,76,1.67a1.83,1.83,0,0,1,1.2.37,1.17,1.17,0,0,1,.46,1h-.93a.59.59,0,0,0-.2-.45A.77.77,0,0,0,76,2.37a.88.88,0,0,0-.51.14.46.46,0,0,0-.19.38.38.38,0,0,0,.18.34,2.4,2.4,0,0,0,.73.24,3.51,3.51,0,0,1,.87.29,1.21,1.21,0,0,1,.46.4,1.05,1.05,0,0,1,.15.57,1.08,1.08,0,0,1-.46.91A2,2,0,0,1,76,6a2,2,0,0,1-.91-.19,1.46,1.46,0,0,1-.63-.51,1.16,1.16,0,0,1-.22-.69h.91a.63.63,0,0,0,.25.51,1.15,1.15,0,0,0,1.17,0A.44.44,0,0,0,76.75,4.78Z"/><path class="cls-1" d="M80.32,6a2,2,0,0,1-1.44-.56,2,2,0,0,1-.55-1.49V3.82a2.48,2.48,0,0,1,.24-1.11,1.86,1.86,0,0,1,.67-.77,1.82,1.82,0,0,1,1-.27,1.65,1.65,0,0,1,1.32.54A2.3,2.3,0,0,1,82,3.75v.37H79.27a1.26,1.26,0,0,0,.34.82,1.06,1.06,0,0,0,.76.3,1.26,1.26,0,0,0,1-.52l.5.48a1.62,1.62,0,0,1-.66.58A2.06,2.06,0,0,1,80.32,6Zm-.11-3.57a.78.78,0,0,0-.62.27,1.35,1.35,0,0,0-.3.75h1.78V3.37a1.18,1.18,0,0,0-.25-.71A.79.79,0,0,0,80.21,2.42Z"/><path class="cls-1" d="M83.89.74v1h.73v.69h-.73V4.76a.54.54,0,0,0,.09.35.46.46,0,0,0,.34.1,1.84,1.84,0,0,0,.33,0V5.9A2.32,2.32,0,0,1,84,6C83.31,6,83,5.59,83,4.8V2.44h-.68V1.75H83v-1Z"/><path class="cls-1" d="M87.67,4.78a.42.42,0,0,0-.21-.38,1.88,1.88,0,0,0-.68-.23,3.42,3.42,0,0,1-.8-.26,1.06,1.06,0,0,1-.7-1,1.12,1.12,0,0,1,.46-.9,1.8,1.8,0,0,1,1.15-.36A1.86,1.86,0,0,1,88.1,2a1.17,1.17,0,0,1,.46,1h-.94a.56.56,0,0,0-.2-.45.76.76,0,0,0-.53-.18.87.87,0,0,0-.5.14.46.46,0,0,0-.19.38.38.38,0,0,0,.18.34,2.4,2.4,0,0,0,.73.24,3.42,3.42,0,0,1,.86.29,1.18,1.18,0,0,1,.47.4,1.05,1.05,0,0,1,.15.57,1.09,1.09,0,0,1-.47.91A2,2,0,0,1,86.9,6,2.06,2.06,0,0,1,86,5.8a1.49,1.49,0,0,1-.62-.51,1.16,1.16,0,0,1-.22-.69h.9a.7.7,0,0,0,.25.51,1.17,1.17,0,0,0,1.18,0A.44.44,0,0,0,87.67,4.78Z"/><rect class="cls-2" x="0.25" y="12.93" width="160.25" height="167.47"/><rect class="cls-3" x="7.47" y="20.4" width="145.8" height="152.78"/><rect class="cls-4" x="16.44" y="51.68" width="128.02" height="54.87"/><path class="cls-5" d="M25.19,61.44V63h-.74V58.75h1.63a1.65,1.65,0,0,1,1.14.38,1.23,1.23,0,0,1,.42,1,1.2,1.2,0,0,1-.42,1,1.72,1.72,0,0,1-1.15.35Zm0-.6h.89a.83.83,0,0,0,.6-.19.66.66,0,0,0,.21-.53.75.75,0,0,0-.21-.56.82.82,0,0,0-.58-.21h-.91Z"/><path class="cls-5" d="M29.88,60.5a1.46,1.46,0,0,0-.29,0,.64.64,0,0,0-.66.37V63h-.72V59.85h.68l0,.35a.81.81,0,0,1,.72-.41.62.62,0,0,1,.25,0Z"/><path class="cls-5" d="M30.09,61.4a1.84,1.84,0,0,1,.18-.83,1.34,1.34,0,0,1,.52-.58,1.5,1.5,0,0,1,.77-.2,1.42,1.42,0,0,1,1,.41A1.61,1.61,0,0,1,33,61.3v.17a1.84,1.84,0,0,1-.18.83,1.37,1.37,0,0,1-.51.58,1.53,1.53,0,0,1-.78.2,1.37,1.37,0,0,1-1.07-.45,1.7,1.7,0,0,1-.4-1.19Zm.71.07a1.29,1.29,0,0,0,.2.76.7.7,0,0,0,1.12,0,1.38,1.38,0,0,0,.2-.83,1.24,1.24,0,0,0-.2-.76.69.69,0,0,0-.56-.28.65.65,0,0,0-.56.28A1.43,1.43,0,0,0,30.8,61.47Z"/><path class="cls-5" d="M34.94,62.51a.61.61,0,0,0,.44-.16.52.52,0,0,0,.19-.38h.67a1,1,0,0,1-.19.55,1.22,1.22,0,0,1-.46.41,1.43,1.43,0,0,1-.64.15,1.38,1.38,0,0,1-1.06-.43,1.72,1.72,0,0,1-.39-1.19v-.08a1.65,1.65,0,0,1,.39-1.15,1.34,1.34,0,0,1,1-.44,1.32,1.32,0,0,1,.93.33,1.21,1.21,0,0,1,.37.87h-.67a.62.62,0,0,0-.19-.45.57.57,0,0,0-.44-.18.67.67,0,0,0-.54.25,1.39,1.39,0,0,0-.19.76v.12a1.34,1.34,0,0,0,.19.77A.64.64,0,0,0,34.94,62.51Z"/><path class="cls-5" d="M38.17,63.08a1.48,1.48,0,0,1-1.1-.43,1.57,1.57,0,0,1-.42-1.13v-.09a1.8,1.8,0,0,1,.19-.85,1.37,1.37,0,0,1,.51-.58,1.36,1.36,0,0,1,.74-.21,1.25,1.25,0,0,1,1,.41,1.74,1.74,0,0,1,.35,1.17v.29H37.37a1,1,0,0,0,.26.62.82.82,0,0,0,.58.23,1,1,0,0,0,.8-.4l.38.37a1.16,1.16,0,0,1-.51.44A1.49,1.49,0,0,1,38.17,63.08Zm-.08-2.72a.6.6,0,0,0-.48.21,1.07,1.07,0,0,0-.23.57h1.36v-.06a.94.94,0,0,0-.19-.54A.6.6,0,0,0,38.09,60.36Z"/><path class="cls-5" d="M41.77,62.16a.32.32,0,0,0-.15-.29,1.61,1.61,0,0,0-.52-.18,2.45,2.45,0,0,1-.61-.19.8.8,0,0,1-.53-.75.83.83,0,0,1,.34-.68,1.35,1.35,0,0,1,.88-.28,1.4,1.4,0,0,1,.92.28.9.9,0,0,1,.35.73h-.71a.43.43,0,0,0-.15-.34.62.62,0,0,0-.41-.14.63.63,0,0,0-.38.11.34.34,0,0,0-.15.29.3.3,0,0,0,.14.26,1.91,1.91,0,0,0,.55.18,2.41,2.41,0,0,1,.66.22.92.92,0,0,1,.36.31.81.81,0,0,1,.11.43.83.83,0,0,1-.35.69,1.51,1.51,0,0,1-.93.27,1.67,1.67,0,0,1-.69-.14,1.18,1.18,0,0,1-.48-.39.93.93,0,0,1-.17-.53h.69a.52.52,0,0,0,.19.39.77.77,0,0,0,.47.13.74.74,0,0,0,.43-.1A.35.35,0,0,0,41.77,62.16Z"/><path class="cls-5" d="M44.87,62.16a.31.31,0,0,0-.16-.29,1.53,1.53,0,0,0-.52-.18,2.5,2.5,0,0,1-.6-.19.81.81,0,0,1-.54-.75.84.84,0,0,1,.35-.68,1.33,1.33,0,0,1,.88-.28,1.42,1.42,0,0,1,.92.28.9.9,0,0,1,.35.73h-.72a.43.43,0,0,0-.15-.34.57.57,0,0,0-.4-.14.67.67,0,0,0-.39.11.36.36,0,0,0-.14.29.29.29,0,0,0,.13.26,2,2,0,0,0,.56.18,2.41,2.41,0,0,1,.66.22.83.83,0,0,1,.35.31.73.73,0,0,1,.12.43.82.82,0,0,1-.36.69,1.46,1.46,0,0,1-.92.27,1.75,1.75,0,0,1-.7-.14,1.22,1.22,0,0,1-.47-.39A.86.86,0,0,1,43,62h.69a.49.49,0,0,0,.19.39.75.75,0,0,0,.47.13.71.71,0,0,0,.42-.1A.33.33,0,0,0,44.87,62.16Z"/><path class="cls-5" d="M46.19,59a.38.38,0,0,1,.4-.39A.38.38,0,0,1,47,59a.36.36,0,0,1-.11.26.37.37,0,0,1-.3.11.34.34,0,0,1-.29-.11A.33.33,0,0,1,46.19,59ZM47,63h-.72V59.85H47Z"/><path class="cls-5" d="M48.38,59.85l0,.36a1.15,1.15,0,0,1,.93-.42c.66,0,1,.38,1,1.13V63h-.71V61a.63.63,0,0,0-.13-.44.55.55,0,0,0-.43-.15.69.69,0,0,0-.64.39V63h-.71V59.85Z"/><path class="cls-5" d="M50.93,61.41a1.88,1.88,0,0,1,.35-1.18,1.12,1.12,0,0,1,.92-.44,1,1,0,0,1,.85.38l0-.32h.64v3.07a1.28,1.28,0,0,1-.39,1,1.49,1.49,0,0,1-1.05.36,1.64,1.64,0,0,1-.68-.15,1.09,1.09,0,0,1-.5-.38l.33-.43a1,1,0,0,0,.81.39.78.78,0,0,0,.56-.19A.72.72,0,0,0,53,63v-.22a1.06,1.06,0,0,1-.82.35,1.1,1.1,0,0,1-.91-.45A1.87,1.87,0,0,1,50.93,61.41Zm.71.06a1.26,1.26,0,0,0,.2.75.61.61,0,0,0,.54.28.7.7,0,0,0,.64-.37v-1.4a.69.69,0,0,0-.64-.36.64.64,0,0,0-.54.28A1.44,1.44,0,0,0,51.64,61.47Z"/><path class="cls-5" d="M58.25,61.92a.49.49,0,0,0-.2-.43,2.09,2.09,0,0,0-.71-.31,3.19,3.19,0,0,1-.82-.35,1.08,1.08,0,0,1-.58-.95,1,1,0,0,1,.42-.85,1.71,1.71,0,0,1,1.09-.34,1.8,1.8,0,0,1,.79.17A1.26,1.26,0,0,1,59,60h-.74a.66.66,0,0,0-.21-.52.85.85,0,0,0-.6-.19.91.91,0,0,0-.56.15.53.53,0,0,0-.2.44.47.47,0,0,0,.22.39,2.61,2.61,0,0,0,.71.3,3.2,3.2,0,0,1,.8.34,1.21,1.21,0,0,1,.44.43,1.07,1.07,0,0,1,.14.57,1,1,0,0,1-.41.85,1.75,1.75,0,0,1-1.1.32,2.11,2.11,0,0,1-.85-.17,1.49,1.49,0,0,1-.61-.48,1.18,1.18,0,0,1-.21-.7h.74a.68.68,0,0,0,.24.56,1.07,1.07,0,0,0,.69.2.89.89,0,0,0,.58-.16A.49.49,0,0,0,58.25,61.92Z"/><path class="cls-5" d="M60.68,62l.65-2.15h.76L60.83,63.5a1,1,0,0,1-1,.8,1.55,1.55,0,0,1-.34,0v-.56h.13a.67.67,0,0,0,.41-.1.66.66,0,0,0,.22-.33l.1-.27-1.11-3.15H60Z"/><path class="cls-5" d="M64.27,62.16a.32.32,0,0,0-.15-.29,1.61,1.61,0,0,0-.52-.18A2.45,2.45,0,0,1,63,61.5a.8.8,0,0,1-.53-.75.83.83,0,0,1,.34-.68,1.35,1.35,0,0,1,.88-.28,1.4,1.4,0,0,1,.92.28.9.9,0,0,1,.35.73h-.71a.43.43,0,0,0-.15-.34.62.62,0,0,0-.41-.14.63.63,0,0,0-.38.11.34.34,0,0,0-.15.29.3.3,0,0,0,.14.26,1.91,1.91,0,0,0,.55.18,2.41,2.41,0,0,1,.66.22.92.92,0,0,1,.36.31.81.81,0,0,1,.11.43.83.83,0,0,1-.35.69,1.51,1.51,0,0,1-.93.27,1.67,1.67,0,0,1-.69-.14,1.18,1.18,0,0,1-.48-.39.93.93,0,0,1-.17-.53H63a.52.52,0,0,0,.19.39.77.77,0,0,0,.47.13.74.74,0,0,0,.43-.1A.35.35,0,0,0,64.27,62.16Z"/><path class="cls-5" d="M66.48,59.08v.77H67v.53h-.56v1.77a.38.38,0,0,0,.08.26.32.32,0,0,0,.25.08,1.07,1.07,0,0,0,.25,0V63a2,2,0,0,1-.47.07c-.54,0-.82-.3-.82-.91V60.38h-.52v-.53h.52v-.77Z"/><path class="cls-5" d="M69,63.08a1.44,1.44,0,0,1-1.09-.43,1.53,1.53,0,0,1-.42-1.13v-.09a1.93,1.93,0,0,1,.18-.85,1.37,1.37,0,0,1,.51-.58,1.36,1.36,0,0,1,.74-.21,1.25,1.25,0,0,1,1,.41,1.74,1.74,0,0,1,.36,1.17v.29H68.18a1,1,0,0,0,.27.62.78.78,0,0,0,.57.23,1,1,0,0,0,.8-.4l.39.37a1.28,1.28,0,0,1-.51.44A1.55,1.55,0,0,1,69,63.08Zm-.08-2.72a.58.58,0,0,0-.47.21.93.93,0,0,0-.23.57h1.35v-.06a.88.88,0,0,0-.19-.54A.59.59,0,0,0,68.9,60.36Z"/><path class="cls-5" d="M71.48,59.85l0,.33a1.12,1.12,0,0,1,.91-.39.86.86,0,0,1,.87.49,1.12,1.12,0,0,1,1-.49,1,1,0,0,1,.79.29,1.32,1.32,0,0,1,.26.86V63h-.71V61a.64.64,0,0,0-.14-.45.57.57,0,0,0-.43-.14.62.62,0,0,0-.4.13.8.8,0,0,0-.22.34V63H72.7V60.93a.51.51,0,0,0-.58-.56.63.63,0,0,0-.6.35V63h-.71V59.85Z"/><rect class="cls-6" x="16.44" y="111.43" width="128.02" height="54.87"/><path class="cls-5" d="M25,121.18v1.58h-.74V118.5h1.63a1.62,1.62,0,0,1,1.13.37,1.26,1.26,0,0,1,.42,1,1.19,1.19,0,0,1-.41,1,1.74,1.74,0,0,1-1.15.35Zm0-.6h.89a.9.9,0,0,0,.6-.18.7.7,0,0,0,.21-.54.72.72,0,0,0-.21-.55.83.83,0,0,0-.58-.22H25Z"/><path class="cls-5" d="M29.71,120.24l-.29,0a.66.66,0,0,0-.66.37v2.17h-.71v-3.17h.68l0,.36a.8.8,0,0,1,.71-.42.89.89,0,0,1,.26,0Z"/><path class="cls-5" d="M29.92,121.15a1.92,1.92,0,0,1,.19-.84,1.33,1.33,0,0,1,.52-.58,1.49,1.49,0,0,1,.76-.2,1.39,1.39,0,0,1,1,.42,1.63,1.63,0,0,1,.43,1.09v.17a1.92,1.92,0,0,1-.18.84,1.41,1.41,0,0,1-.51.57,1.56,1.56,0,0,1-.78.2,1.36,1.36,0,0,1-1.07-.45,1.69,1.69,0,0,1-.41-1.19Zm.72.06a1.21,1.21,0,0,0,.2.76A.7.7,0,0,0,32,122a1.36,1.36,0,0,0,.2-.82,1.29,1.29,0,0,0-.2-.76.69.69,0,0,0-1.12,0A1.38,1.38,0,0,0,30.64,121.21Z"/><path class="cls-5" d="M33.35,121.15A1.82,1.82,0,0,1,33.7,120a1.11,1.11,0,0,1,.92-.44,1.05,1.05,0,0,1,.85.38l0-.32h.64v3.08a1.3,1.3,0,0,1-.38,1,1.49,1.49,0,0,1-1,.36,1.64,1.64,0,0,1-.68-.15,1.19,1.19,0,0,1-.51-.37l.34-.43a1,1,0,0,0,.81.39.8.8,0,0,0,.56-.2.73.73,0,0,0,.2-.56v-.21a1,1,0,0,1-.82.34,1.13,1.13,0,0,1-.91-.44A2,2,0,0,1,33.35,121.15Zm.71.06a1.32,1.32,0,0,0,.19.76.63.63,0,0,0,.54.27.68.68,0,0,0,.64-.37v-1.39a.66.66,0,0,0-.63-.36.63.63,0,0,0-.55.27A1.44,1.44,0,0,0,34.06,121.21Z"/><path class="cls-5" d="M38.53,120.24l-.29,0a.64.64,0,0,0-.65.37v2.17h-.72v-3.17h.68l0,.36a.8.8,0,0,1,.72-.42.87.87,0,0,1,.25,0Z"/><path class="cls-5" d="M40.79,122.76a1,1,0,0,1-.08-.29,1.14,1.14,0,0,1-.83.35,1.12,1.12,0,0,1-.78-.27.88.88,0,0,1-.3-.68.89.89,0,0,1,.37-.77,1.83,1.83,0,0,1,1.08-.27h.43v-.21a.57.57,0,0,0-.13-.4.53.53,0,0,0-.42-.14.63.63,0,0,0-.4.12.38.38,0,0,0-.16.31h-.71A.76.76,0,0,1,39,120a1.16,1.16,0,0,1,.47-.36,1.69,1.69,0,0,1,.66-.13,1.37,1.37,0,0,1,.89.28,1,1,0,0,1,.34.79V122a1.63,1.63,0,0,0,.12.68v.05Zm-.78-.51a.87.87,0,0,0,.39-.1.63.63,0,0,0,.28-.28v-.6H40.3a1,1,0,0,0-.59.14.43.43,0,0,0-.2.39.42.42,0,0,0,.13.33A.55.55,0,0,0,40,122.25Z"/><path class="cls-5" d="M42.81,119.59l0,.33a1.14,1.14,0,0,1,.92-.39.89.89,0,0,1,.87.49,1.13,1.13,0,0,1,1-.49,1,1,0,0,1,.78.29,1.28,1.28,0,0,1,.26.86v2.08h-.71V120.7a.61.61,0,0,0-.13-.44.57.57,0,0,0-.44-.14.56.56,0,0,0-.39.13.62.62,0,0,0-.22.34v2.17H44v-2.08a.5.5,0,0,0-.57-.56.63.63,0,0,0-.61.34v2.3h-.71v-3.17Z"/><path class="cls-5" d="M48,119.59l0,.33a1.16,1.16,0,0,1,.92-.39.89.89,0,0,1,.87.49,1.13,1.13,0,0,1,1-.49,1,1,0,0,1,.78.29,1.28,1.28,0,0,1,.26.86v2.08h-.71V120.7a.61.61,0,0,0-.13-.44.7.7,0,0,0-.83,0,.62.62,0,0,0-.22.34v2.17h-.71v-2.08a.5.5,0,0,0-.57-.56.63.63,0,0,0-.61.34v2.3h-.71v-3.17Z"/><path class="cls-5" d="M54.48,122.76a1,1,0,0,1-.08-.29,1.22,1.22,0,0,1-1.62.08.88.88,0,0,1-.3-.68.9.9,0,0,1,.38-.77,1.83,1.83,0,0,1,1.08-.27h.43v-.21a.49.49,0,0,0-.55-.54.62.62,0,0,0-.4.12.36.36,0,0,0-.16.31h-.71a.81.81,0,0,1,.17-.49,1.23,1.23,0,0,1,.47-.36,1.78,1.78,0,0,1,.67-.13,1.34,1.34,0,0,1,.88.28,1,1,0,0,1,.34.79V122a1.63,1.63,0,0,0,.12.68v.05Zm-.78-.51a.87.87,0,0,0,.39-.1.63.63,0,0,0,.28-.28v-.6H54a1.08,1.08,0,0,0-.6.14.45.45,0,0,0-.2.39.42.42,0,0,0,.14.33A.53.53,0,0,0,53.7,122.25Z"/><path class="cls-5" d="M58.61,121.21a1.89,1.89,0,0,1-.33,1.17,1.07,1.07,0,0,1-.9.44,1,1,0,0,1-.87-.4l0,.34h-.64v-4.5h.71v1.64a1,1,0,0,1,.83-.37,1.1,1.1,0,0,1,.91.43,2,2,0,0,1,.33,1.21Zm-.71-.06a1.38,1.38,0,0,0-.18-.78.61.61,0,0,0-.53-.25.66.66,0,0,0-.65.4v1.31a.68.68,0,0,0,.66.41.58.58,0,0,0,.51-.25,1.27,1.27,0,0,0,.19-.75Z"/><path class="cls-5" d="M60,122.76h-.71v-4.5H60Z"/><path class="cls-5" d="M62.14,122.82a1.45,1.45,0,0,1-1.1-.43,1.53,1.53,0,0,1-.42-1.13v-.09a1.93,1.93,0,0,1,.18-.85,1.39,1.39,0,0,1,1.25-.79,1.22,1.22,0,0,1,1,.42,1.71,1.71,0,0,1,.36,1.17v.28H61.34a1,1,0,0,0,.26.62.75.75,0,0,0,.58.23,1,1,0,0,0,.79-.39l.39.36a1.28,1.28,0,0,1-.51.44A1.51,1.51,0,0,1,62.14,122.82Zm-.09-2.72a.59.59,0,0,0-.47.21,1.06,1.06,0,0,0-.23.57H62.7v0a.78.78,0,0,0-.19-.54A.59.59,0,0,0,62.05,120.1Z"/><path class="cls-5" d="M66.26,122.17H68.2v.59H65.52V118.5h.74Z"/><path class="cls-5" d="M68.57,121.15a1.92,1.92,0,0,1,.18-.84,1.4,1.4,0,0,1,.52-.58,1.5,1.5,0,0,1,.77-.2,1.39,1.39,0,0,1,1,.42,1.59,1.59,0,0,1,.43,1.09v.17a1.92,1.92,0,0,1-.18.84,1.41,1.41,0,0,1-.51.57,1.53,1.53,0,0,1-.78.2,1.37,1.37,0,0,1-1.07-.45,1.68,1.68,0,0,1-.4-1.19Zm.71.06a1.27,1.27,0,0,0,.2.76.65.65,0,0,0,.56.28.64.64,0,0,0,.56-.28,1.36,1.36,0,0,0,.2-.82,1.23,1.23,0,0,0-.2-.76.69.69,0,0,0-1.12,0A1.45,1.45,0,0,0,69.28,121.21Z"/><path class="cls-5" d="M72,121.15a1.88,1.88,0,0,1,.35-1.18,1.12,1.12,0,0,1,.92-.44,1,1,0,0,1,.85.38l0-.32h.65v3.08a1.27,1.27,0,0,1-.39,1,1.49,1.49,0,0,1-1.05.36,1.64,1.64,0,0,1-.68-.15,1.25,1.25,0,0,1-.51-.37l.34-.43a1,1,0,0,0,.81.39.78.78,0,0,0,.56-.2.7.7,0,0,0,.2-.56v-.21a1,1,0,0,1-.82.34,1.13,1.13,0,0,1-.91-.44A2,2,0,0,1,72,121.15Zm.71.06a1.4,1.4,0,0,0,.19.76.71.71,0,0,0,1.18-.1v-1.39a.71.71,0,0,0-1.18-.09A1.53,1.53,0,0,0,72.7,121.21Z"/><path class="cls-5" d="M75.52,118.77a.36.36,0,0,1,.1-.27.46.46,0,0,1,.6,0,.36.36,0,0,1,.1.27.38.38,0,0,1-.1.27.5.5,0,0,1-.6,0A.38.38,0,0,1,75.52,118.77Zm.75,4h-.71v-3.17h.71Z"/><path class="cls-5" d="M78.35,122.25a.63.63,0,0,0,.44-.15.54.54,0,0,0,.19-.39h.67a1.09,1.09,0,0,1-.18.55,1.17,1.17,0,0,1-.47.41,1.4,1.4,0,0,1-.64.15,1.34,1.34,0,0,1-1-.43,1.71,1.71,0,0,1-.39-1.19v-.07A1.71,1.71,0,0,1,77.3,120a1.35,1.35,0,0,1,1.06-.44,1.31,1.31,0,0,1,.92.33,1.17,1.17,0,0,1,.37.87H79a.7.7,0,0,0-.18-.45.61.61,0,0,0-.45-.18.63.63,0,0,0-.53.25,1.27,1.27,0,0,0-.19.77v.11a1.35,1.35,0,0,0,.18.77A.64.64,0,0,0,78.35,122.25Z"/><rect class="cls-1" x="24.46" y="69.67" width="35.11" height="7.77"/><path class="cls-5" d="M29.85,75.19V72.35h.84a1.36,1.36,0,0,1,.67.17,1.16,1.16,0,0,1,.45.48,1.45,1.45,0,0,1,.16.7v.14a1.53,1.53,0,0,1-.16.72,1.16,1.16,0,0,1-.46.47,1.39,1.39,0,0,1-.68.16Zm.49-2.44v2h.33a.75.75,0,0,0,.59-.24,1.06,1.06,0,0,0,.21-.7V73.7a1.07,1.07,0,0,0-.2-.71.71.71,0,0,0-.58-.24Z"/><path class="cls-5" d="M32.46,75.19V72.35h.84a1.33,1.33,0,0,1,.67.17,1,1,0,0,1,.45.48,1.45,1.45,0,0,1,.16.7v.14a1.53,1.53,0,0,1-.16.72A1.16,1.16,0,0,1,34,75a1.37,1.37,0,0,1-.68.16Zm.5-2.44v2h.32a.75.75,0,0,0,.6-.24,1.12,1.12,0,0,0,.21-.7V73.7a1.13,1.13,0,0,0-.2-.71.73.73,0,0,0-.59-.24Z"/><path class="cls-5" d="M36.12,74.1h-.55v1.09h-.49V72.35h1a1.17,1.17,0,0,1,.76.22.81.81,0,0,1,.26.64.76.76,0,0,1-.14.48.83.83,0,0,1-.38.3l.64,1.18v0h-.53Zm-.55-.4h.51a.61.61,0,0,0,.39-.12.47.47,0,0,0,.14-.35.45.45,0,0,0-.13-.35.53.53,0,0,0-.39-.13h-.52Z"/><path class="cls-5" d="M39.1,74.18h.35v.38H39.1v.63h-.47v-.63H37.4l0-.29,1.23-1.92h.49Zm-1.22,0h.75V73l0,.07Z"/><path class="cls-5" d="M41.48,72.35l.82,2.18.82-2.18h.64v2.84h-.49v-.93l0-1.26-.84,2.19h-.36L41.28,73l0,1.26v.93h-.49V72.35Z"/><path class="cls-5" d="M45.23,75.23A1,1,0,0,1,44.5,75a1,1,0,0,1-.28-.76v-.06a1.25,1.25,0,0,1,.12-.56.87.87,0,0,1,.34-.39.93.93,0,0,1,.49-.14.82.82,0,0,1,.67.28,1.14,1.14,0,0,1,.24.78v.19H44.69a.68.68,0,0,0,.18.41.53.53,0,0,0,.39.15.64.64,0,0,0,.53-.26l.25.24a.83.83,0,0,1-.34.3A1,1,0,0,1,45.23,75.23Zm-.06-1.81a.4.4,0,0,0-.31.14.7.7,0,0,0-.16.38h.91v0a.65.65,0,0,0-.13-.37A.4.4,0,0,0,45.17,73.42Z"/><path class="cls-5" d="M46.89,73.08v.22a.79.79,0,0,1,.61-.26.57.57,0,0,1,.58.33.75.75,0,0,1,.65-.33.66.66,0,0,1,.52.2.83.83,0,0,1,.18.57v1.38H49V73.82a.45.45,0,0,0-.09-.3.37.37,0,0,0-.29-.09.39.39,0,0,0-.26.09.46.46,0,0,0-.15.23v1.44H47.7V73.8a.34.34,0,0,0-.38-.37.42.42,0,0,0-.4.23v1.53h-.48V73.08Z"/><path class="cls-5" d="M49.84,74.12a1.25,1.25,0,0,1,.12-.56.9.9,0,0,1,.34-.38,1,1,0,0,1,.52-.14.9.9,0,0,1,.69.28,1.1,1.1,0,0,1,.29.73v.11a1.28,1.28,0,0,1-.12.56.9.9,0,0,1-.34.38,1,1,0,0,1-.52.13,1,1,0,0,1-.72-.29,1.15,1.15,0,0,1-.26-.8Zm.47,0a.84.84,0,0,0,.13.51.45.45,0,0,0,.38.18.43.43,0,0,0,.37-.18,1,1,0,0,0,.14-.55.88.88,0,0,0-.14-.51.45.45,0,0,0-.37-.19.42.42,0,0,0-.37.19A.93.93,0,0,0,50.31,74.16Z"/><path class="cls-5" d="M53.31,73.51h-.2a.44.44,0,0,0-.44.25v1.44H52.2V73.08h.45l0,.24a.52.52,0,0,1,.47-.28.4.4,0,0,1,.17,0Z"/><path class="cls-5" d="M54.38,74.51l.43-1.43h.51l-.84,2.43a.69.69,0,0,1-.66.54.7.7,0,0,1-.23,0v-.37h.09a.41.41,0,0,0,.27-.07.43.43,0,0,0,.15-.22l.07-.18-.75-2.1h.51Z"/><rect class="cls-1" x="62.66" y="69.67" width="35.11" height="7.77"/><path class="cls-5" d="M78.78,73.85a1.68,1.68,0,0,1-.13.7,1.21,1.21,0,0,1-.36.47l.49.38-.32.29-.61-.48a1,1,0,0,1-.25,0,1.09,1.09,0,0,1-.62-.17,1,1,0,0,1-.41-.48,1.62,1.62,0,0,1-.15-.72V73.7a1.83,1.83,0,0,1,.14-.73,1.13,1.13,0,0,1,.42-.49,1.14,1.14,0,0,1,.61-.17,1.13,1.13,0,0,1,.62.17,1.1,1.1,0,0,1,.42.48,1.67,1.67,0,0,1,.15.73Zm-.5-.15A1.25,1.25,0,0,0,78.1,73a.58.58,0,0,0-.51-.25.62.62,0,0,0-.5.25,1.22,1.22,0,0,0-.18.71v.17a1.28,1.28,0,0,0,.18.72.59.59,0,0,0,.51.26.58.58,0,0,0,.5-.25,1.25,1.25,0,0,0,.18-.73Z"/><path class="cls-5" d="M80.77,74.46a.36.36,0,0,0-.14-.29,1.69,1.69,0,0,0-.47-.2,2.68,2.68,0,0,1-.55-.23.73.73,0,0,1-.39-.64.72.72,0,0,1,.28-.57,1.2,1.2,0,0,1,.73-.22,1.25,1.25,0,0,1,.53.11.87.87,0,0,1,.37.31.9.9,0,0,1,.13.45h-.49a.47.47,0,0,0-.14-.35.75.75,0,0,0-.78,0,.35.35,0,0,0-.13.29.33.33,0,0,0,.14.26,1.6,1.6,0,0,0,.48.2,2,2,0,0,1,.53.23.84.84,0,0,1,.3.29.76.76,0,0,1,.09.38A.67.67,0,0,1,81,75a1.18,1.18,0,0,1-.74.21,1.32,1.32,0,0,1-.57-.11.92.92,0,0,1-.4-.32.75.75,0,0,1-.15-.47h.5a.45.45,0,0,0,.16.38.7.7,0,0,0,.46.13.63.63,0,0,0,.39-.1A.36.36,0,0,0,80.77,74.46Z"/><path class="cls-5" d="M82.19,74.14v1h-.5V72.35h1.09a1.09,1.09,0,0,1,.76.25.81.81,0,0,1,.28.66.79.79,0,0,1-.28.65,1.15,1.15,0,0,1-.76.23Zm0-.4h.59a.58.58,0,0,0,.4-.12.43.43,0,0,0,.14-.36.48.48,0,0,0-.14-.37.52.52,0,0,0-.38-.14h-.61Z"/><path class="cls-5" d="M84.77,75.19h-.49V72.35h.49Z"/><rect class="cls-1" x="100.87" y="69.67" width="35.11" height="7.77"/><path class="cls-5" d="M116.27,72.35v1.9A1,1,0,0,1,116,75a1.1,1.1,0,0,1-.78.26,1.07,1.07,0,0,1-.77-.26.92.92,0,0,1-.29-.72v-1.9h.49v1.9a.6.6,0,0,0,.15.44.57.57,0,0,0,.42.15c.39,0,.57-.2.57-.6V72.35Z"/><path class="cls-5" d="M118.34,74.53h-1.1l-.23.66h-.51l1.07-2.84H118l1.08,2.84h-.51Zm-1-.4h.82L117.79,73Z"/><path class="cls-5" d="M120.46,74.1h-.55v1.09h-.5V72.35h1a1.13,1.13,0,0,1,.76.22.78.78,0,0,1,.27.64.83.83,0,0,1-.14.48.88.88,0,0,1-.38.3l.64,1.18v0H121Zm-.55-.4h.51a.61.61,0,0,0,.39-.12.47.47,0,0,0,.14-.35.48.48,0,0,0-.13-.35.53.53,0,0,0-.39-.13h-.52Z"/><path class="cls-5" d="M123.87,72.75H123v2.44h-.49V72.75h-.88v-.4h2.26Z"/><rect class="cls-1" x="24.46" y="80.11" width="35.11" height="7.77"/><path class="cls-5" d="M34.4,85.26a.89.89,0,0,1-.42.31,1.77,1.77,0,0,1-.63.1,1.23,1.23,0,0,1-.63-.16,1.1,1.1,0,0,1-.42-.46,1.73,1.73,0,0,1-.16-.71v-.22a1.56,1.56,0,0,1,.31-1,1.07,1.07,0,0,1,.86-.36,1.14,1.14,0,0,1,.76.24,1,1,0,0,1,.33.67h-.48a.55.55,0,0,0-.6-.51.57.57,0,0,0-.5.24,1.15,1.15,0,0,0-.18.7v.22a1.13,1.13,0,0,0,.19.71.65.65,0,0,0,.54.26.73.73,0,0,0,.54-.17v-.56h-.58v-.38H34.4Z"/><path class="cls-5" d="M36.76,84.6a1.29,1.29,0,0,1-.22.78.78.78,0,0,1-1.19,0l0,.22H34.9v-3h.47v1.09a.77.77,0,0,1,1.16,0,1.27,1.27,0,0,1,.23.8Zm-.48,0a.93.93,0,0,0-.12-.52.41.41,0,0,0-.35-.17.45.45,0,0,0-.44.27V85a.46.46,0,0,0,.44.28.41.41,0,0,0,.35-.17.86.86,0,0,0,.12-.5Z"/><path class="cls-5" d="M39.86,84.36H38.69v.88h1.36v.39H38.19V82.79H40v.4H38.69V84h1.17Z"/><path class="cls-5" d="M41,83v.51h.37v.35H41v1.18a.3.3,0,0,0,0,.18.26.26,0,0,0,.17,0l.17,0v.37a1.15,1.15,0,0,1-.31,0c-.37,0-.55-.2-.55-.6v-1.2h-.35v-.35h.35V83Z"/><path class="cls-5" d="M42.21,83.75a.74.74,0,0,1,.59-.27c.45,0,.68.26.68.77v1.38H43V84.27a.39.39,0,0,0-.1-.31.38.38,0,0,0-.28-.09.46.46,0,0,0-.42.25v1.51h-.48v-3h.48Z"/><path class="cls-5" d="M44.89,85.67a1,1,0,0,1-.73-.28,1,1,0,0,1-.28-.76v-.06A1.25,1.25,0,0,1,44,84a.93.93,0,0,1,.34-.39,1,1,0,0,1,.5-.14.79.79,0,0,1,.66.28,1.14,1.14,0,0,1,.24.78v.19H44.36a.62.62,0,0,0,.17.41.54.54,0,0,0,.39.15.63.63,0,0,0,.53-.26l.26.24a.89.89,0,0,1-.34.3A1.06,1.06,0,0,1,44.89,85.67Zm0-1.81a.42.42,0,0,0-.32.14.69.69,0,0,0-.15.38h.9v0a.58.58,0,0,0-.13-.36A.38.38,0,0,0,44.84,83.86Z"/><path class="cls-5" d="M47.21,84H47a.43.43,0,0,0-.44.25v1.44h-.47V83.52h.45v.24a.53.53,0,0,1,.48-.28.43.43,0,0,1,.17,0Z"/><path class="cls-5" d="M48,83.52l0,.24a.77.77,0,0,1,.61-.28c.44,0,.67.25.68.76v1.39h-.48V84.26a.4.4,0,0,0-.09-.29.33.33,0,0,0-.28-.1.47.47,0,0,0-.43.26v1.5h-.47V83.52Z"/><path class="cls-5" d="M50.67,85.67a1,1,0,0,1-.73-.28,1,1,0,0,1-.28-.76v-.06a1.25,1.25,0,0,1,.12-.56.9.9,0,0,1,.83-.53.81.81,0,0,1,.67.28,1.14,1.14,0,0,1,.24.78v.19H50.14a.62.62,0,0,0,.17.41.53.53,0,0,0,.39.15.64.64,0,0,0,.53-.26l.25.24a.77.77,0,0,1-.34.3A1,1,0,0,1,50.67,85.67Zm-.06-1.81a.4.4,0,0,0-.31.14.78.78,0,0,0-.16.38h.91v0a.58.58,0,0,0-.13-.36A.4.4,0,0,0,50.61,83.86Z"/><path class="cls-5" d="M52.48,83v.51h.37v.35h-.37v1.18a.3.3,0,0,0,.05.18.25.25,0,0,0,.17,0l.16,0v.37a1.1,1.1,0,0,1-.31,0q-.54,0-.54-.6v-1.2h-.35v-.35H52V83Z"/><rect class="cls-1" x="62.66" y="80.11" width="35.11" height="7.77"/><path class="cls-5" d="M76,85.67a1,1,0,0,1-.73-.28,1,1,0,0,1-.28-.76v-.06a1.25,1.25,0,0,1,.12-.56.89.89,0,0,1,.35-.39.91.91,0,0,1,.49-.14.79.79,0,0,1,.66.28,1.14,1.14,0,0,1,.24.78v.19H75.42a.62.62,0,0,0,.17.41.56.56,0,0,0,.39.15.63.63,0,0,0,.53-.26l.26.24a.89.89,0,0,1-.34.3A1.06,1.06,0,0,1,76,85.67Zm0-1.81a.42.42,0,0,0-.32.14.69.69,0,0,0-.15.38h.9v0A.58.58,0,0,0,76.2,84,.38.38,0,0,0,75.9,83.86Z"/><path class="cls-5" d="M77.85,82.79,78.67,85l.82-2.18h.64v2.84h-.49V84.7l0-1.26-.84,2.19H78.5l-.84-2.19,0,1.26v.93h-.5V82.79Z"/><path class="cls-5" d="M81.36,82.79,82.18,85,83,82.79h.63v2.84h-.49V84.7l0-1.26-.84,2.19H82l-.84-2.19,0,1.26v.93h-.49V82.79Z"/><path class="cls-5" d="M86.39,84.71a1,1,0,0,1-.34.71,1.14,1.14,0,0,1-1.78-.37,1.6,1.6,0,0,1-.14-.69V84.1a1.73,1.73,0,0,1,.14-.71,1.11,1.11,0,0,1,.41-.47,1.15,1.15,0,0,1,.62-.17,1.09,1.09,0,0,1,.75.26,1,1,0,0,1,.34.72H85.9a.75.75,0,0,0-.18-.44.61.61,0,0,0-.42-.14.6.6,0,0,0-.5.23,1.3,1.3,0,0,0-.18.7v.25a1.22,1.22,0,0,0,.17.7.55.55,0,0,0,.48.24.63.63,0,0,0,.44-.13.67.67,0,0,0,.19-.43Z"/><rect class="cls-1" x="100.87" y="80.11" width="35.11" height="7.77"/><path class="cls-5" d="M115.79,84.9a.35.35,0,0,0-.13-.29,1.63,1.63,0,0,0-.48-.2,2.56,2.56,0,0,1-.54-.23.74.74,0,0,1-.39-.64.69.69,0,0,1,.28-.57,1.2,1.2,0,0,1,.73-.22,1.29,1.29,0,0,1,.53.11.9.9,0,0,1,.36.31.81.81,0,0,1,.13.45h-.49a.43.43,0,0,0-.14-.35.73.73,0,0,0-.77,0,.36.36,0,0,0-.14.29.31.31,0,0,0,.15.26,1.42,1.42,0,0,0,.47.2,2.13,2.13,0,0,1,.54.23.8.8,0,0,1,.29.29.65.65,0,0,1,.1.38.66.66,0,0,1-.28.56,1.16,1.16,0,0,1-.74.21,1.47,1.47,0,0,1-.56-.11,1,1,0,0,1-.41-.32.82.82,0,0,1-.14-.47h.5a.45.45,0,0,0,.16.38.67.67,0,0,0,.45.13.59.59,0,0,0,.39-.1A.33.33,0,0,0,115.79,84.9Z"/><path class="cls-5" d="M118.31,85h-1.1l-.23.66h-.51l1.07-2.84H118l1.08,2.84h-.52Zm-1-.4h.82l-.41-1.18Z"/><path class="cls-5" d="M121.2,83.19h-.88v2.44h-.49V83.19H119v-.4h2.25Z"/><path class="cls-5" d="M122.93,85h-1.1l-.23.66h-.51l1.07-2.84h.44l1.08,2.84h-.51Zm-1-.4h.82l-.41-1.18Z"/><rect class="cls-1" x="24.46" y="90.55" width="35.11" height="7.77"/><path class="cls-5" d="M37.72,93.23v1.9a1,1,0,0,1-.29.72,1.12,1.12,0,0,1-.77.26,1.08,1.08,0,0,1-.78-.26.92.92,0,0,1-.29-.72v-1.9h.5v1.9a.64.64,0,0,0,.14.44.58.58,0,0,0,.43.15q.57,0,.57-.6V93.23Z"/><path class="cls-5" d="M39.73,95.34a.35.35,0,0,0-.13-.29,1.54,1.54,0,0,0-.47-.2,2.46,2.46,0,0,1-.55-.23.74.74,0,0,1-.39-.64.69.69,0,0,1,.28-.57,1.2,1.2,0,0,1,.73-.22,1.29,1.29,0,0,1,.53.11.84.84,0,0,1,.36.31.82.82,0,0,1,.14.45h-.5a.43.43,0,0,0-.14-.35.73.73,0,0,0-.77,0,.34.34,0,0,0-.14.29.31.31,0,0,0,.15.26,1.6,1.6,0,0,0,.48.2,2,2,0,0,1,.53.23.8.8,0,0,1,.29.29.65.65,0,0,1,.1.38.68.68,0,0,1-.27.56,1.2,1.2,0,0,1-.74.21,1.32,1.32,0,0,1-.57-.11.92.92,0,0,1-.4-.32.75.75,0,0,1-.15-.47h.5a.45.45,0,0,0,.16.38.68.68,0,0,0,.46.13.58.58,0,0,0,.38-.1A.33.33,0,0,0,39.73,95.34Z"/><path class="cls-5" d="M40.66,96.07V93.23h1a1.18,1.18,0,0,1,.73.19.68.68,0,0,1,.25.58.6.6,0,0,1-.1.35.62.62,0,0,1-.31.24.59.59,0,0,1,.35.24.63.63,0,0,1,.13.41.74.74,0,0,1-.26.62,1.11,1.11,0,0,1-.73.21Zm.5-1.64h.48a.57.57,0,0,0,.36-.11.35.35,0,0,0,.13-.29.39.39,0,0,0-.12-.31.61.61,0,0,0-.37-.09h-.48Zm0,.36v.89h.54a.53.53,0,0,0,.37-.12.38.38,0,0,0,.13-.32.41.41,0,0,0-.45-.45Z"/><path class="cls-5" d="M44.65,94.44h.29a.55.55,0,0,0,.35-.12.38.38,0,0,0,.13-.32.46.46,0,0,0-.11-.32.44.44,0,0,0-.32-.11.48.48,0,0,0-.32.11.38.38,0,0,0-.12.29h-.48a.7.7,0,0,1,.12-.4.87.87,0,0,1,.32-.28,1,1,0,0,1,.47-.1,1,1,0,0,1,.67.22.75.75,0,0,1,.24.59.6.6,0,0,1-.12.36.82.82,0,0,1-.32.26.64.64,0,0,1,.36.25.69.69,0,0,1,.12.41.75.75,0,0,1-.26.61,1,1,0,0,1-.69.22,1,1,0,0,1-.67-.22.69.69,0,0,1-.26-.58h.47a.39.39,0,0,0,.13.31.45.45,0,0,0,.34.11.47.47,0,0,0,.34-.11.42.42,0,0,0,.13-.34.45.45,0,0,0-.13-.35.58.58,0,0,0-.4-.12h-.28Z"/><path class="cls-5" d="M46.7,95.57a.29.29,0,0,1,.21.08.25.25,0,0,1,.07.19.24.24,0,0,1-.07.18.29.29,0,0,1-.21.08.28.28,0,0,1-.2-.08.24.24,0,0,1-.07-.18.25.25,0,0,1,.07-.19A.28.28,0,0,1,46.7,95.57Z"/><path class="cls-5" d="M49.35,94.88a1.56,1.56,0,0,1-.23.92.94.94,0,0,1-1.39,0,1.42,1.42,0,0,1-.24-.9v-.49a1.47,1.47,0,0,1,.23-.92.79.79,0,0,1,.7-.31.81.81,0,0,1,.69.3,1.48,1.48,0,0,1,.24.89Zm-.48-.53a1.12,1.12,0,0,0-.11-.59.35.35,0,0,0-.34-.19.36.36,0,0,0-.34.18,1,1,0,0,0-.12.55V95a1.29,1.29,0,0,0,.11.59.38.38,0,0,0,.35.19.37.37,0,0,0,.34-.18,1.15,1.15,0,0,0,.11-.56Z"/><rect class="cls-1" x="62.66" y="90.55" width="35.11" height="7.77"/><path class="cls-5" d="M79.06,95.15a1.06,1.06,0,0,1-.33.71,1.16,1.16,0,0,1-.78.25,1.08,1.08,0,0,1-.6-.16,1.06,1.06,0,0,1-.4-.46,1.6,1.6,0,0,1-.15-.69v-.26a1.73,1.73,0,0,1,.14-.71,1.12,1.12,0,0,1,.41-.47,1.18,1.18,0,0,1,.62-.17,1.11,1.11,0,0,1,.76.26,1.06,1.06,0,0,1,.33.72h-.49a.64.64,0,0,0-.18-.44.53.53,0,0,0-.42-.14.59.59,0,0,0-.5.24,1.17,1.17,0,0,0-.17.69v.25a1.23,1.23,0,0,0,.16.7.55.55,0,0,0,.49.24.6.6,0,0,0,.43-.13.67.67,0,0,0,.19-.43Z"/><path class="cls-5" d="M81.09,95.41H80l-.23.66h-.51l1.07-2.84h.45l1.07,2.84h-.51Zm-1-.4H81l-.42-1.18Z"/><path class="cls-5" d="M84.42,96.07h-.49l-1.27-2v2h-.49V93.23h.49l1.27,2v-2h.49Z"/><rect class="cls-1" x="100.87" y="90.55" width="35.11" height="7.77"/><path class="cls-5" d="M108.81,96.07V93.23h.84a1.3,1.3,0,0,1,.66.17,1.12,1.12,0,0,1,.46.48,1.57,1.57,0,0,1,.16.7v.14a1.66,1.66,0,0,1-.16.72,1.16,1.16,0,0,1-.46.47,1.41,1.41,0,0,1-.69.16Zm.49-2.44v2.05h.32a.75.75,0,0,0,.6-.24,1.06,1.06,0,0,0,.21-.7v-.16a1.13,1.13,0,0,0-.2-.71.71.71,0,0,0-.58-.24Z"/><path class="cls-5" d="M111.37,93.41a.29.29,0,0,1,.07-.18.27.27,0,0,1,.2-.07.26.26,0,0,1,.2.07.27.27,0,0,1,0,.36.26.26,0,0,1-.2.07.27.27,0,0,1-.2-.07A.29.29,0,0,1,111.37,93.41Zm.51,2.66h-.48V94h.48Z"/><path class="cls-5" d="M113.58,95.5a.2.2,0,0,0-.11-.19.81.81,0,0,0-.34-.12,1.8,1.8,0,0,1-.41-.13.54.54,0,0,1-.35-.5.56.56,0,0,1,.23-.45.86.86,0,0,1,.58-.19.94.94,0,0,1,.62.19.61.61,0,0,1,.23.49h-.47a.28.28,0,0,0-.11-.23.37.37,0,0,0-.27-.09.41.41,0,0,0-.25.07.22.22,0,0,0-.1.19.19.19,0,0,0,.09.17,1.3,1.3,0,0,0,.37.12,1.85,1.85,0,0,1,.44.15.63.63,0,0,1,.24.21.49.49,0,0,1,.08.28.57.57,0,0,1-.24.47,1.06,1.06,0,0,1-.62.17,1.11,1.11,0,0,1-.46-.09.75.75,0,0,1-.32-.26.66.66,0,0,1-.11-.35h.46a.35.35,0,0,0,.13.26.48.48,0,0,0,.31.09.52.52,0,0,0,.28-.07A.22.22,0,0,0,113.58,95.5Z"/><path class="cls-5" d="M116.31,95a1.23,1.23,0,0,1-.22.78.78.78,0,0,1-1.16.06v1h-.47V94h.44l0,.22a.67.67,0,0,1,.56-.26.74.74,0,0,1,.61.29,1.27,1.27,0,0,1,.22.8Zm-.47,0a.82.82,0,0,0-.13-.5.39.39,0,0,0-.36-.19.45.45,0,0,0-.42.24v.94a.45.45,0,0,0,.42.24.42.42,0,0,0,.36-.18A.91.91,0,0,0,115.84,95Z"/><path class="cls-5" d="M117.22,96.07h-.48v-3h.48Z"/><path class="cls-5" d="M119,96.07a.53.53,0,0,1-.06-.19.76.76,0,0,1-.55.23.73.73,0,0,1-.52-.18.56.56,0,0,1-.2-.45.6.6,0,0,1,.25-.52,1.18,1.18,0,0,1,.71-.18h.29v-.14a.39.39,0,0,0-.09-.26.38.38,0,0,0-.28-.1.45.45,0,0,0-.26.08.28.28,0,0,0-.11.21h-.47a.49.49,0,0,1,.12-.32.62.62,0,0,1,.31-.24,1,1,0,0,1,.44-.09.84.84,0,0,1,.59.19.64.64,0,0,1,.23.52v1a1.1,1.1,0,0,0,.08.45v0Zm-.53-.34a.5.5,0,0,0,.27-.07.39.39,0,0,0,.18-.18v-.4h-.25a.72.72,0,0,0-.4.09.29.29,0,0,0-.13.26.28.28,0,0,0,.09.22A.32.32,0,0,0,118.47,95.73Z"/><path class="cls-5" d="M120.61,95.39,121,94h.5l-.84,2.43a.69.69,0,0,1-.65.54.66.66,0,0,1-.23,0v-.37h.09a.41.41,0,0,0,.27-.07.37.37,0,0,0,.14-.22l.07-.18-.74-2.1h.51Z"/><path class="cls-5" d="M122.35,95v1h-.49V93.23H123a1.09,1.09,0,0,1,.76.25.91.91,0,0,1,0,1.31,1.18,1.18,0,0,1-.77.23Zm0-.4h.6a.6.6,0,0,0,.4-.12.49.49,0,0,0,.14-.36.5.5,0,0,0-.14-.37.53.53,0,0,0-.39-.14h-.61Z"/><path class="cls-5" d="M124.26,95a1.25,1.25,0,0,1,.12-.56.81.81,0,0,1,.35-.38,1,1,0,0,1,.51-.14.9.9,0,0,1,.69.28,1,1,0,0,1,.29.73V95a1.28,1.28,0,0,1-.12.56.9.9,0,0,1-.34.38,1,1,0,0,1-.52.13.93.93,0,0,1-.71-.29,1.16,1.16,0,0,1-.27-.8Zm.47,0a.84.84,0,0,0,.14.51.43.43,0,0,0,.37.18.45.45,0,0,0,.38-.18,1,1,0,0,0,.13-.55.86.86,0,0,0-.14-.51.44.44,0,0,0-.37-.19.42.42,0,0,0-.37.19A.91.91,0,0,0,124.73,95Z"/><path class="cls-5" d="M127.73,94.39h-.19a.42.42,0,0,0-.44.25v1.44h-.48V94h.46v.24a.52.52,0,0,1,.47-.28.4.4,0,0,1,.17,0Z"/><path class="cls-5" d="M128.72,93.45V94h.37v.35h-.37v1.18a.3.3,0,0,0,.05.18.25.25,0,0,0,.17,0l.17,0v.37a1.22,1.22,0,0,1-.32,0q-.54,0-.54-.6v-1.2h-.35V94h.35v-.51Z"/><path class="cls-5" d="M52.52,39.5a.66.66,0,1,1-.66.66.65.65,0,0,1,.66-.66Zm0,.13a.51.51,0,0,0-.49.53.5.5,0,0,0,.5.52.49.49,0,0,0,.48-.52.51.51,0,0,0-.49-.53Zm-.1.87h-.15v-.65a1.31,1.31,0,0,1,.25,0,.36.36,0,0,1,.22.06s.06.07.06.14a.16.16,0,0,1-.13.15h0c.06,0,.09.07.11.16a.58.58,0,0,0,0,.16h-.15a.44.44,0,0,1-.06-.16c0-.07,0-.1-.13-.1h-.07Zm0-.37h.08c.08,0,.14,0,.14-.1s0-.1-.13-.1h-.09Z"/><polygon class="cls-5" points="48 37.68 50.68 40.82 51.74 40.82 49.06 37.68 48 37.68"/><path class="cls-5" d="M17.9,39.66H24v.88H16.54v-.65L22.76,31H16.91v-.89H24v.68Z"/><path class="cls-5" d="M29.24,36.24v4.3H28.3v-4.3l-3.76-6.09h1.13l3.12,5.17L32,30.15h1.16Z"/><path class="cls-5" d="M40.71,40.54l-5.92-9v9h-.94V30.15h.94l6,8.89s-.07-8.67-.07-8.89h.94V40.54Z"/><path class="cls-5" d="M49.94,39.57a3.86,3.86,0,0,1-3,1.23c-3.34,0-4.37-3.06-4.37-5.35,0-3.13,1.6-5.56,4.46-5.56,3.2,0,4.26,3,4.26,5.34a7.35,7.35,0,0,1-.86,3.59M47,30.74c-2.67,0-3.41,2.74-3.41,4.68C43.6,36.76,44,40,47,40c2.1,0,3.37-1.79,3.37-4.56C50.34,33.91,49.9,30.74,47,30.74Z"/><polygon class="cls-5" points="49 26.2 52.44 30.27 57.48 30.27 54.05 26.2 49 26.2"/><polygon class="cls-5" points="54.18 34.38 57.62 30.31 62.66 30.31 59.23 34.38 54.18 34.38"/><path class="cls-5" d="M31,45c0,.75-.27,1.35-1.23,1.35a1.14,1.14,0,0,1-1.23-1.28V42.89h.31v2.28a.82.82,0,0,0,.92.89c.59,0,.92-.27.92-1v-2.2H31Z"/><path class="cls-5" d="M31.68,46.28V42.89H32v3.39Z"/><path class="cls-5" d="M33.11,45.79c0,.13,0,.28.18.28a.56.56,0,0,0,.31-.15v.29a.58.58,0,0,1-.37.11.35.35,0,0,1-.36-.21,2,2,0,0,1,0-.37V44.23h-.46V44h.46V43h.27v1h.49v.24h-.49Z"/><path class="cls-5" d="M34.29,44v.36a.63.63,0,0,1,.61-.4h.19v.26l-.17,0c-.48,0-.63.36-.63.82v1.26H34V44Z"/><path class="cls-5" d="M37.37,46.28c-.37,0-.55-.1-.55-.42a.78.78,0,0,1-.78.46.62.62,0,0,1-.7-.62c0-.46.37-.62,1.11-.79l.37-.09v-.18c0-.22-.1-.46-.51-.46s-.6.18-.6.55l-.31,0a.8.8,0,0,1,.87-.75c.39,0,.82.12.82.69v1c0,.31,0,.43.28.43h.05v.23Zm-.55-1.21-.14,0c-.75.21-1.08.26-1.08.59a.4.4,0,0,0,.45.38.74.74,0,0,0,.77-.83Z"/><path class="cls-5" d="M39.79,43.7a1.11,1.11,0,0,0-.14-.29.84.84,0,0,0-.72-.35c-.57,0-.77.33-.77.61,0,.44.38.55.7.63l.32.09c.59.16,1,.43,1,1a.92.92,0,0,1-.41.77,1.3,1.3,0,0,1-.82.24,1.11,1.11,0,0,1-1.22-.94l.31-.17a1,1,0,0,0,.07.38.86.86,0,0,0,.84.45c.61,0,.91-.34.91-.72s-.23-.55-.7-.68l-.37-.1c-.38-.1-.89-.28-.89-.9s.33-.88,1.08-.88a1.09,1.09,0,0,1,1.13.74Z"/><path class="cls-5" d="M42.87,43.84a.89.89,0,0,0-.95-.76c-1,0-1.08,1-1.08,1.48s.1,1.51,1.14,1.51a.88.88,0,0,0,.89-.72l.3.19a1.23,1.23,0,0,1-1.22.82c-1.17,0-1.44-1-1.44-1.76s.24-1.8,1.4-1.8a1.23,1.23,0,0,1,1.28.88Z"/><path class="cls-5" d="M46,46.28l-.38-1H44.16l-.38,1h-.35l1.35-3.39H45l1.31,3.39Zm-1.11-3L44.26,45h1.28Z"/><path class="cls-5" d="M46.78,46.28V42.89h.32V46h1.81v.3Z"/><path class="cls-5" d="M49.4,46.28V42.89h2.15v.29H49.71v1.21h1.67v.3H49.71V46h2v.3Z"/><path class="cls-5" d="M53.6,44.31v1h-.38v-1h-1V44h1V43h.38v1h1v.34Z"/></g></g></svg>